<svg xmlns="http://www.w3.org/2000/svg" width="150" height="120" viewBox="0 0 150 120">
  <path id="chalkboard-teacher" d="M48.749,82.5a5.362,5.362,0,0,0-1.655.255,30.917,30.917,0,0,1-9.6,1.62,30.944,30.944,0,0,1-9.6-1.62,5.348,5.348,0,0,0-1.652-.255A26.252,26.252,0,0,0,0,108.9,11.221,11.221,0,0,0,11.249,120h52.5A11.221,11.221,0,0,0,75,108.9,26.252,26.252,0,0,0,48.749,82.5ZM37.5,75A22.5,22.5,0,1,0,15,52.5,22.5,22.5,0,0,0,37.5,75ZM138.749,0h-90A11.454,11.454,0,0,0,37.5,11.623V22.5a29.66,29.66,0,0,1,15,4.172V15H135V82.5H120v-15H90v15H72.13a29.871,29.871,0,0,1,9.3,15h57.316A11.454,11.454,0,0,0,150,85.877V11.623A11.454,11.454,0,0,0,138.749,0Z" transform="translate(0.002)" fill="#212121"/>
</svg>
