<svg xmlns="http://www.w3.org/2000/svg" width="132.716" height="120" viewBox="0 0 132.716 120">
  <g id="Group_28" data-name="Group 28" transform="translate(-157.071 -364)">
    <path id="diploma" d="M44.956,87.959V71.491H29.971V87.959l-11.14,19.2a1.3,1.3,0,0,0,1.256,1.793h4.289l2.951,3.339a1.3,1.3,0,0,0,2.153-.4l7.983-14.173,7.984,14.173a1.3,1.3,0,0,0,2.153.4l2.95-3.339H54.84a1.3,1.3,0,0,0,1.256-1.793l-11.14-19.2ZM26.225,86.951V70.079c-1.129-.287-2.249-.608-3.354-.98L8.008,64.09a4.092,4.092,0,0,0-4.335,1.729c-4.895,8.3-4.895,25.515,0,33.82a4.09,4.09,0,0,0,4.335,1.729l12.245-4.125ZM71.254,65.82a4.09,4.09,0,0,0-4.335-1.729L52.056,69.1c-1.105.372-2.225.694-3.354.98V86.951l5.972,10.293,12.245,4.125a4.092,4.092,0,0,0,4.335-1.729C76.149,91.335,76.149,74.125,71.254,65.82Z" transform="translate(214.862 338.876)" fill="#212121"/>
    <path id="user" d="M45.964,60.455c7.6,0,3.05-19.836,8.655-24.455a11.383,11.383,0,0,1,9.757-2.818c5.089.843,12.261,5.521,16.571,5.455,4.518-.068,4.884-4.189,4.884-7.815A31.016,31.016,0,0,0,54.619,0C37.38,0,20.5,13.8,20.5,30.821a44.675,44.675,0,0,0,1.108,10.121C24.254,52.485,32.259,60.455,45.964,60.455Zm32.22,27.909a15.008,15.008,0,0,1-6.076-1.636c-2.31-1.175-3.522-4.239-5.155-5.273-2.2-1.391-6.992.011-9.574-2-4.813-3.748-5.072-5.7-6.812-6.955-5.537-4.005-11.554-2.172-13.723-3.152H32.772A32.577,32.577,0,0,0,0,101.71v10.017c0,1.359.488,7.407,8.29,8.187,2.618.262,82.327-.174,88.756,0,10.16.275,12.192-7.024,12.192-8.187V101.71c0-14.525-11.173-9.879-24.61-9.165C81.886,92.691,81.568,88.364,78.185,88.364Z" transform="translate(157.071 364)" fill="#212121"/>
  </g>
</svg>
