<svg xmlns="http://www.w3.org/2000/svg" xmlns:xlink="http://www.w3.org/1999/xlink" width="87" height="83" viewBox="0 0 87 83">
  <defs>
    <filter id="Ellipse_2" x="1" y="0" width="86" height="83" filterUnits="userSpaceOnUse">
      <feOffset dx="5" dy="5" input="SourceAlpha"/>
      <feGaussianBlur stdDeviation="7.5" result="blur"/>
      <feFlood flood-color="#ff0404"/>
      <feComposite operator="in" in2="blur"/>
      <feComposite in="SourceGraphic"/>
    </filter>
    <filter id="Rectangle_4" x="22" y="8" width="50" height="54" filterUnits="userSpaceOnUse">
      <feOffset dy="5" input="SourceAlpha"/>
      <feGaussianBlur stdDeviation="7.5" result="blur-2"/>
      <feFlood/>
      <feComposite operator="in" in2="blur-2"/>
      <feComposite in="SourceGraphic"/>
    </filter>
    <filter id="Rectangle_2" x="6" y="15" width="66" height="58" filterUnits="userSpaceOnUse">
      <feOffset dy="3" input="SourceAlpha"/>
      <feGaussianBlur stdDeviation="7.5" result="blur-3"/>
      <feFlood/>
      <feComposite operator="in" in2="blur-3"/>
      <feComposite in="SourceGraphic"/>
    </filter>
    <filter id="Rectangle_3" x="23.5" y="32.5" width="31" height="27" filterUnits="userSpaceOnUse">
      <feOffset dy="3" input="SourceAlpha"/>
      <feGaussianBlur stdDeviation="3" result="blur-4"/>
      <feFlood flood-opacity="0.161"/>
      <feComposite operator="in" in2="blur-4"/>
      <feComposite in="SourceGraphic"/>
    </filter>
    <filter id="Polygon_1" x="0" y="8" width="77" height="56" filterUnits="userSpaceOnUse">
      <feOffset dy="5" input="SourceAlpha"/>
      <feGaussianBlur stdDeviation="7.5" result="blur-5"/>
      <feFlood flood-opacity="0.431"/>
      <feComposite operator="in" in2="blur-5"/>
      <feComposite in="SourceGraphic"/>
    </filter>
  </defs>
  <g id="HomeIcon" transform="translate(18.497 17.5)">
    <g id="Group_1" data-name="Group 1" transform="translate(0.002)">
      <g transform="matrix(1, 0, 0, 1, -18.5, -17.5)" filter="url(#Ellipse_2)">
        <g id="Ellipse_2-2" data-name="Ellipse 2" transform="translate(18.5 17.5)" fill="#7a7a7a" stroke="#707070" stroke-width="1">
          <ellipse cx="20.5" cy="19" rx="20.5" ry="19" stroke="none"/>
          <ellipse cx="20.5" cy="19" rx="20" ry="18.5" fill="none"/>
        </g>
      </g>
      <g transform="matrix(1, 0, 0, 1, -18.5, -17.5)" filter="url(#Rectangle_4)">
        <g id="Rectangle_4-2" data-name="Rectangle 4" transform="translate(44.5 25.5)" fill="#f3f3f3" stroke="#f3f3f3" stroke-width="1">
          <rect width="5" height="9" stroke="none"/>
          <rect x="0.5" y="0.5" width="4" height="8" fill="none"/>
        </g>
      </g>
      <g transform="matrix(1, 0, 0, 1, -18.5, -17.5)" filter="url(#Rectangle_2)">
        <g id="Rectangle_2-2" data-name="Rectangle 2" transform="translate(28.5 34.5)" fill="#f3f3f3" stroke="#f3f3f3" stroke-linejoin="round" stroke-width="1">
          <rect width="21" height="13" stroke="none"/>
          <rect x="0.5" y="0.5" width="20" height="12" fill="none"/>
        </g>
      </g>
      <g transform="matrix(1, 0, 0, 1, -18.5, -17.5)" filter="url(#Rectangle_3)">
        <rect id="Rectangle_3-2" data-name="Rectangle 3" width="13" height="9" transform="translate(32.5 38.5)" fill="#484848"/>
      </g>
      <g transform="matrix(1, 0, 0, 1, -18.5, -17.5)" filter="url(#Polygon_1)">
        <g id="Polygon_1-2" data-name="Polygon 1" transform="translate(22.5 25.5)" fill="#f3f3f3">
          <path d="M 30.39016532897949 10.5 L 1.609833598136902 10.5 L 15.99999904632568 0.6067612767219543 L 30.39016532897949 10.5 Z" stroke="none"/>
          <path d="M 15.99999904632568 1.213529586791992 L 3.21967887878418 10 L 28.78031921386719 10 L 15.99999904632568 1.213529586791992 M 15.99999904632568 0 L 32 11 L -1.9073486328125e-06 11 L 15.99999904632568 0 Z" stroke="none" fill="#f3f3f3"/>
        </g>
      </g>
    </g>
  </g>
</svg>
