<svg xmlns="http://www.w3.org/2000/svg" xmlns:xlink="http://www.w3.org/1999/xlink" width="82" height="83" viewBox="0 0 82 83">
  <defs>
    <filter id="Ellipse_3" x="0" y="0" width="82" height="83" filterUnits="userSpaceOnUse">
      <feOffset dx="5" dy="5" input="SourceAlpha"/>
      <feGaussianBlur stdDeviation="7.5" result="blur"/>
      <feFlood flood-color="#ff0404"/>
      <feComposite operator="in" in2="blur"/>
      <feComposite in="SourceGraphic"/>
    </filter>
    <filter id="Ellipse_5" x="11" y="5" width="49" height="49" filterUnits="userSpaceOnUse">
      <feOffset dy="3" input="SourceAlpha"/>
      <feGaussianBlur stdDeviation="7.5" result="blur-2"/>
      <feFlood/>
      <feComposite operator="in" in2="blur-2"/>
      <feComposite in="SourceGraphic"/>
    </filter>
    <filter id="Path_1" x="15.354" y="12.497" width="52.262" height="57.027" filterUnits="userSpaceOnUse">
      <feOffset dy="3" input="SourceAlpha"/>
      <feGaussianBlur stdDeviation="7.5" result="blur-3"/>
      <feFlood/>
      <feComposite operator="in" in2="blur-3"/>
      <feComposite in="SourceGraphic"/>
    </filter>
    <filter id="Path_2" x="3.939" y="14.497" width="52.262" height="57.027" filterUnits="userSpaceOnUse">
      <feOffset dy="5" input="SourceAlpha"/>
      <feGaussianBlur stdDeviation="7.5" result="blur-4"/>
      <feFlood/>
      <feComposite operator="in" in2="blur-4"/>
      <feComposite in="SourceGraphic"/>
    </filter>
    <filter id="Ellipse_4" x="6" y="10" width="59" height="57" filterUnits="userSpaceOnUse">
      <feOffset dy="5" input="SourceAlpha"/>
      <feGaussianBlur stdDeviation="7.5" result="blur-5"/>
      <feFlood/>
      <feComposite operator="in" in2="blur-5"/>
      <feComposite in="SourceGraphic"/>
    </filter>
    <filter id="Polygon_2" x="3" y="15" width="66" height="57" filterUnits="userSpaceOnUse">
      <feOffset dy="5" input="SourceAlpha"/>
      <feGaussianBlur stdDeviation="7.5" result="blur-6"/>
      <feFlood/>
      <feComposite operator="in" in2="blur-6"/>
      <feComposite in="SourceGraphic"/>
    </filter>
    <filter id="Path_5" x="9.318" y="24.872" width="52.716" height="50.212" filterUnits="userSpaceOnUse">
      <feOffset dy="5" input="SourceAlpha"/>
      <feGaussianBlur stdDeviation="7.5" result="blur-7"/>
      <feFlood/>
      <feComposite operator="in" in2="blur-7"/>
      <feComposite in="SourceGraphic"/>
    </filter>
  </defs>
  <g id="notification" transform="translate(17.5 17.5)">
    <g transform="matrix(1, 0, 0, 1, -17.5, -17.5)" filter="url(#Ellipse_3)">
      <g id="Ellipse_3-2" data-name="Ellipse 3" transform="translate(17.5 17.5)" fill="#7a7a7a" stroke="#707070" stroke-width="1">
        <ellipse cx="18.5" cy="19" rx="18.5" ry="19" stroke="none"/>
        <ellipse cx="18.5" cy="19" rx="18" ry="18.5" fill="none"/>
      </g>
    </g>
    <g id="bell" transform="translate(7.662 6.956)">
      <g transform="matrix(1, 0, 0, 1, -25.16, -24.46)" filter="url(#Ellipse_5)">
        <g id="Ellipse_5-2" data-name="Ellipse 5" transform="translate(33.5 24.5)" fill="#f3f3f3" stroke="#f3f3f3" stroke-width="1">
          <circle cx="2" cy="2" r="2" stroke="none"/>
          <circle cx="2" cy="2" r="1.5" fill="none"/>
        </g>
      </g>
      <ellipse id="Ellipse_6" data-name="Ellipse 6" cx="1.5" cy="2" rx="1.5" ry="2" transform="translate(9.338 0.044)" fill="#484848"/>
      <g transform="matrix(1, 0, 0, 1, -25.16, -24.46)" filter="url(#Path_1)">
        <path id="Path_1-2" data-name="Path 1" d="M985.781,495a9.085,9.085,0,0,0,0,4.78,12.379,12.379,0,0,0,1.8,4.412c1.561,1.8-6.048.98-6.048.98v-7.517Z" transform="translate(-943.18 -461.83)" fill="#f3f3f3" stroke="#f3f3f3" stroke-width="1"/>
      </g>
      <g transform="matrix(1, 0, 0, 1, -25.16, -24.46)" filter="url(#Path_2)">
        <path id="Path_2-2" data-name="Path 2" d="M983.554,495a9.085,9.085,0,0,1,0,4.78,12.38,12.38,0,0,1-1.8,4.412c-1.561,1.8,6.048.98,6.048.98v-7.517Z" transform="translate(-954.6 -461.83)" fill="#f3f3f3" stroke="#f3f3f3" stroke-width="1"/>
      </g>
      <g transform="matrix(1, 0, 0, 1, -25.16, -24.46)" filter="url(#Ellipse_4)">
        <g id="Ellipse_4-2" data-name="Ellipse 4" transform="translate(28.5 27.5)" fill="#f3f3f3" stroke="#f3f3f3" stroke-width="1">
          <ellipse cx="7" cy="6" rx="7" ry="6" stroke="none"/>
          <ellipse cx="7" cy="6" rx="6.5" ry="5.5" fill="none"/>
        </g>
      </g>
      <g transform="matrix(1, 0, 0, 1, -25.16, -24.46)" filter="url(#Polygon_2)">
        <g id="Polygon_2-2" data-name="Polygon 2" transform="translate(25.5 32.5)" fill="#f3f3f3">
          <path d="M 19.62149429321289 11.40968322753906 L 10.53230953216553 10.82104969024658 L 10.5 10.81894969940186 L 10.46769046783447 10.82104969024658 L 1.37850546836853 11.40968322753906 L 6.481319904327393 6.707699775695801 L 6.522689819335938 6.669579982757568 L 6.55456018447876 6.623209953308105 L 10.5 0.8827419281005859 L 14.4454402923584 6.623209953308105 L 14.47731018066406 6.669579982757568 L 14.51867961883545 6.707699775695801 L 19.62149429321289 11.40968322753906 Z" stroke="none"/>
          <path d="M 10.5 1.765483856201172 L 6.966620445251465 6.906420230865479 L 6.90287971496582 6.999149799346924 L 6.820130348205566 7.075399875640869 L 2.757013320922852 10.81935501098633 L 10.43537044525146 10.32209014892578 L 10.5 10.31791019439697 L 10.56462955474854 10.32209014892578 L 18.24298667907715 10.81935501098633 L 14.17987060546875 7.075399875640869 L 14.09712028503418 6.999149799346924 L 14.03338050842285 6.906420230865479 L 10.5 1.765483856201172 M 10.5 0 L 14.85750007629395 6.340000152587891 L 21 12 L 10.5 11.31999969482422 L 0 12 L 6.142499923706055 6.340000152587891 L 10.5 0 Z" stroke="none" fill="#f3f3f3"/>
        </g>
      </g>
      <path id="Path_3" data-name="Path 3" d="M880.255,457.082l-.6.876a4.365,4.365,0,0,0-.317,3.08,7.3,7.3,0,0,1,.19,1.779,11.738,11.738,0,0,1-.634,3.054s-.38.9-.856,1.753a6.87,6.87,0,0,1-1.9,2.284c-.571.292-.634.531-.634.531l7.355-.531a47.373,47.373,0,0,1,5.675,0c1.9.212,8.243.531,8.243.531l-1.553-1.3a10.128,10.128,0,0,1-1.744-2.815,28.007,28.007,0,0,1-.856-2.921,8.469,8.469,0,0,1,.159-2.363,5.658,5.658,0,0,0,.159-2.708,6.668,6.668,0,0,0-1.395-2.416c-.476-.558-2.885-.664-2.885-.664l-5.041,1.062C883.489,456.339,880.255,457.082,880.255,457.082Z" transform="translate(-875.5 -450.762)" fill="#f3f3f3" stroke="#f3f3f3" stroke-width="1"/>
      <g transform="matrix(1, 0, 0, 1, -25.16, -24.46)" filter="url(#Path_5)">
        <g id="Path_5-2" data-name="Path 5" transform="matrix(0.98, -0.17, 0.17, 0.98, 31.82, 43.61)" fill="#f3f3f3">
          <path d="M 3.804388046264648 3.536885023117065 C 3.773458003997803 3.536885023117065 3.742457866668701 3.536444902420044 3.711277961730957 3.535574913024902 C 2.486034870147705 3.501383781433105 1.404383182525635 2.800862312316895 0.8831151127815247 1.820557236671448 C 1.146562695503235 1.921332597732544 1.450067162513733 1.979684948921204 1.796237945556641 1.979684948921204 C 1.840827941894531 1.979684948921204 1.885987877845764 1.978734970092773 1.932407975196838 1.976744890213013 C 2.921187877655029 1.934484958648682 3.963757991790771 1.515434861183167 4.883607864379883 1.14571487903595 C 5.509108066558838 0.8943049311637878 6.155888080596924 0.6343449354171753 6.500797748565674 0.6343449354171753 C 6.549766540527344 0.6343449354171753 6.576787948608398 0.6399297714233398 6.588920593261719 0.6434348821640015 C 6.599523067474365 0.6656426787376404 6.617939472198486 0.7261223793029785 6.621647834777832 0.8385449051856995 C 6.644457817077637 1.530404925346375 6.392467975616455 2.184834957122803 5.912107944488525 2.681294918060303 C 5.378257751464844 3.233024835586548 4.629717826843262 3.536885023117065 3.804388046264648 3.536885023117065 Z M -0.4268876314163208 0.258699357509613 C -0.4397585690021515 0.2376691997051239 -0.4506241679191589 0.2164331078529358 -0.4594312906265259 0.1955242156982422 L 0.4999901652336121 0.02471838518977165 C 0.4990376830101013 0.04601071402430534 0.4963871836662292 0.06982901692390442 0.4913986623287201 0.09522617608308792 L -0.4268876314163208 0.258699357509613 Z" stroke="none"/>
          <path d="M 3.804388046264648 3.036885023117065 C 4.493037700653076 3.036885023117065 5.113967895507813 2.787124872207642 5.552777767181396 2.333614826202393 C 5.852068901062012 2.024296283721924 6.040826797485352 1.638463377952576 6.101621627807617 1.221381425857544 C 5.799178123474121 1.316596388816833 5.408105850219727 1.473779320716858 5.070077896118164 1.609644889831543 C 4.152575016021729 1.97842538356781 3.117646217346191 2.394370317459106 2.087054014205933 2.468624353408813 C 2.542078018188477 2.807464122772217 3.112331390380859 3.018669366836548 3.725208044052124 3.035774946212769 C 3.751727819442749 3.0365149974823 3.778087854385376 3.036885023117065 3.804388046264648 3.036885023117065 M 3.804386615753174 4.036881446838379 C 3.768827199935913 4.036881446838379 3.733177185058594 4.036385536193848 3.697327852249146 4.035385131835938 C 1.745987892150879 3.980924844741821 0.1152379289269447 2.453984975814819 0.05494793131947517 0.624864935874939 C 0.04749999940395355 0.3989055156707764 0.0356336273252964 0.2432361245155334 0.02483018860220909 0.1437971591949463 C 0.1174324974417686 0.5155410766601563 0.5066851377487183 1.479689121246338 1.796235918998718 1.479689121246338 C 1.833831787109375 1.479689121246338 1.871916174888611 1.478878021240234 1.911057949066162 1.477204918861389 C 3.552935123443604 1.407017946243286 5.51922607421875 0.1343424916267395 6.500798225402832 0.1343424916267395 C 6.873962879180908 0.1343424916267395 7.1047682762146 0.3182407915592194 7.121377944946289 0.8220748901367188 C 7.180560111999512 2.617591142654419 5.704399585723877 4.036881446838379 3.804386615753174 4.036881446838379 Z M 0.02483018860220909 0.1437971591949463 C 0.002707519335672259 0.05498763546347618 -0.002516152337193489 -4.963798346580006e-06 0.000955158902797848 -4.963798346580006e-06 C 0.004025300964713097 -4.963798346580006e-06 0.01388263050466776 0.04303169623017311 0.02483018860220909 0.1437971591949463 Z" stroke="none" fill="#f3f3f3"/>
        </g>
      </g>
      <path id="Path_7" data-name="Path 7" d="M959.375,583.761a7.937,7.937,0,0,1,1.221,0,11.185,11.185,0,0,1,1.331.212s-.063-1.062-.317-1.062-.127-.425-1.014,0A3.584,3.584,0,0,0,959.375,583.761Z" transform="translate(-948.105 -564.695)" fill="#484848" stroke="#484848" stroke-width="1"/>
    </g>
  </g>
</svg>
