<svg xmlns="http://www.w3.org/2000/svg" width="104.995" height="120" viewBox="0 0 104.995 120">
  <path id="user-graduate" d="M74.856,75.118,52.5,97.476,30.139,75.118A31.428,31.428,0,0,0,0,106.476v2.25a11.252,11.252,0,0,0,11.249,11.249h82.5a11.252,11.252,0,0,0,11.249-11.249v-2.25A31.428,31.428,0,0,0,74.856,75.118ZM3.187,18.683l1.5.352V32.721A5.414,5.414,0,0,0,4.476,42.1L.82,56.7c-.4,1.617.492,3.281,1.781,3.281h9.8c1.289,0,2.18-1.664,1.781-3.281L10.523,42.1a5.414,5.414,0,0,0-.211-9.375V20.394L25.78,24.12A29.944,29.944,0,1,0,82.5,37.479,29.464,29.464,0,0,0,79.215,24.12l22.569-5.437c4.265-1.031,4.265-6.351,0-7.382L57.161.52a20.131,20.131,0,0,0-9.3,0L3.187,11.277C-1.055,12.308-1.055,17.652,3.187,18.683Z" transform="translate(0 0.025)" fill="#212121"/>
</svg>
