<svg xmlns="http://www.w3.org/2000/svg" width="145.22" height="120" viewBox="0 0 145.22 120">
  <path id="users-cog" d="M235.234,114.94a31.428,31.428,0,0,0,0-11.413l6.912-3.992a1.94,1.94,0,0,0,.884-2.277,40.207,40.207,0,0,0-8.895-15.378,1.954,1.954,0,0,0-2.411-.375L224.812,85.5a31.454,31.454,0,0,0-9.886-5.707V71.805a1.951,1.951,0,0,0-1.527-1.9,40.423,40.423,0,0,0-17.736,0,1.951,1.951,0,0,0-1.527,1.9v7.984A31.455,31.455,0,0,0,184.25,85.5L177.337,81.5a1.959,1.959,0,0,0-2.411.375,40.206,40.206,0,0,0-8.895,15.378,1.973,1.973,0,0,0,.884,2.277l6.912,3.992a31.428,31.428,0,0,0,0,11.413l-6.912,3.992a1.94,1.94,0,0,0-.884,2.277,40.406,40.406,0,0,0,8.895,15.378,1.954,1.954,0,0,0,2.411.375l6.912-3.992a31.454,31.454,0,0,0,9.886,5.707v7.984a1.951,1.951,0,0,0,1.527,1.9,40.423,40.423,0,0,0,17.736,0,1.951,1.951,0,0,0,1.527-1.9v-7.984a31.454,31.454,0,0,0,9.886-5.707l6.912,3.992a1.96,1.96,0,0,0,2.411-.375,40.207,40.207,0,0,0,8.895-15.378,1.973,1.973,0,0,0-.884-2.277Zm-30.676,7.287a12.994,12.994,0,1,1,12.994-12.994A13.006,13.006,0,0,1,204.558,122.227ZM157.4,92.087c.509,0,.991-.134,1.5-.161a49.39,49.39,0,0,1,9.725-15.861,10.56,10.56,0,0,1,7.743-3.376,10.3,10.3,0,0,1,5.251,1.42l2.117,1.232c.214-.134.429-.241.643-.375a29.655,29.655,0,0,0,3-12.86,29.993,29.993,0,1,0-29.98,29.98Zm28.185,52.11c-.616-.322-1.232-.7-1.822-1.045-2.2,1.286-4.1,2.626-7.368,2.626a10.649,10.649,0,0,1-7.743-3.376,48.853,48.853,0,0,1-10.77-18.647c-2.867-9.243,6.671-13.315,6.912-13.476q-.04-1.045,0-2.09l-2.117-1.232a10.914,10.914,0,0,1-2.626-2.17c-.884.054-1.741.161-2.626.161a42.293,42.293,0,0,1-18.352-4.287h-2.224a30.878,30.878,0,0,0-30.891,30.864v7.716a12.863,12.863,0,0,0,12.86,12.86H187.25a10.315,10.315,0,0,1-1.661-5.439ZM97.9,126.38Z" transform="translate(-97.9 -32.1)" fill="#212121"/>
</svg>
