<svg id="e34cf1gbpffx1" xmlns="http://www.w3.org/2000/svg" xmlns:xlink="http://www.w3.org/1999/xlink" viewBox="0 0 692 499.876710" shape-rendering="geometricPrecision" text-rendering="geometricPrecision"><style><![CDATA[#e34cf1gbpffx58_to {animation: e34cf1gbpffx58_to__to 3000ms linear 100 normal forwards}@keyframes e34cf1gbpffx58_to__to { 0% {transform: translate(-254px,-200.062000px)} 3.333333% {transform: translate(-254px,-200.062000px)} 26.666667% {transform: translate(-235px,-200.062000px)} 46.666667% {transform: translate(-242.772727px,-190px)} 73.333333% {transform: translate(-248.386364px,-200.030000px)} 100% {transform: translate(-254px,-200.062000px)} }]]></style><path id="e34cf1gbpffx2" d="M945,696.104730L255,696.104730C254.447715,696.104730,254,695.657015,254,695.104730C254,694.552445,254.447715,694.104730,255,694.104730L945,694.104730C945.552285,694.104730,946,694.552445,946,695.104730C946,695.657015,945.552285,696.104730,945,696.104730Z" transform="matrix(1 0 0 1 -254 -200.06200000000001)" fill="rgb(204,204,204)" stroke="none" stroke-width="1"/><path id="e34cf1gbpffx3" d="M876.704370,521.703000L470.704370,521.703000C467.114519,521.703000,464.204370,524.613149,464.204370,528.203000C464.204370,531.792851,467.114519,534.703000,470.704370,534.703000L482.204370,534.703000L482.204370,690.203000C482.204370,693.792851,485.114519,696.703000,488.704370,696.703000C492.294221,696.703000,495.204370,693.792851,495.204370,690.203000L495.303150,534.703000L851.204370,534.703000L851.204370,690.203000C851.204370,693.792851,854.114519,696.703000,857.704370,696.703000C861.294221,696.703000,864.204370,693.792851,864.204370,690.203000L864.204370,538.130360L866.095480,534.702990L876.704370,534.702990C880.294221,534.702990,883.204370,531.792841,883.204370,528.202990C883.204370,524.613139,880.294221,521.702990,876.704370,521.702990Z" transform="matrix(1 0 0 1 -254 -200.06200000000001)" fill="rgb(204,204,204)" stroke="none" stroke-width="1"/><path id="e34cf1gbpffx4" d="M695.794060,525.104730L572.812240,525.104730C567.854043,525.099120,563.836030,521.081107,563.830420,516.122910L563.830420,448.413820C563.836030,443.455623,567.854043,439.437610,572.812240,439.432000L695.794060,439.432000C700.752257,439.437610,704.770270,443.455623,704.775880,448.413820L704.775880,516.122910C704.770270,521.081107,700.752257,525.099120,695.794060,525.104730Z" transform="matrix(1 0 0 1 -254 -200.06200000000001)" fill="rgb(63,61,86)" stroke="none" stroke-width="1"/><path id="e34cf1gbpffx5" d="M695.793380,446.344720L572.812920,446.344720C571.670720,446.347135,570.745411,447.272520,570.743090,448.414720L570.743090,516.124720C570.745439,517.266909,571.670731,518.192278,572.812920,518.194720L695.793380,518.194720C696.935569,518.192278,697.860861,517.266909,697.863210,516.124720L697.863210,448.414720C697.860889,447.272520,696.935580,446.347135,695.793380,446.344720Z" transform="matrix(1 0 0 1 -254 -200.06200000000001)" fill="rgb(255,255,255)" stroke="none" stroke-width="1"/><path id="e34cf1gbpffx6" display="none" d="M644.792000,494.282840C644.792000,494.282840,630.069740,490.890370,621.972490,497.109840C613.875240,503.329310,632.278080,517.464640,632.278080,517.464640Z" transform="matrix(1 0 0 1 -254 -200.06200000000001)" fill="rgb(47,46,65)" stroke="none" stroke-width="1"/><circle id="e34cf1gbpffx7" display="none" r="13.887100" transform="matrix(1 0 0 1 381.02400000000000 273.92399999999998)" fill="rgb(160,97,106)" stroke="none" stroke-width="1"/><path id="e34cf1gbpffx8" display="none" d="M624.285740,454.491780C626.173821,451.286921,629.699287,449.411170,633.412160,449.636000C635.316922,449.874871,637.175674,450.395175,638.927640,451.179900L648.005910,454.721170C650.355030,455.637510,652.927820,456.759960,653.947180,459.066250C654.893280,461.206800,654.187410,463.678910,653.472870,465.907480L650.076340,476.500780C649.700131,474.103223,649.054462,471.755799,648.151600,469.503100C647.234001,467.235294,645.575932,465.344770,643.447210,464.139170C641.089120,462.929470,638.309760,462.954520,635.662550,463.081920C631.913410,463.262350,627.837030,463.739340,625.173240,466.383730C623.759191,467.885507,622.800512,469.757844,622.408680,471.783020C622.023028,473.797378,621.828915,475.843718,621.828940,477.894660C620.291520,475.251926,618.996450,472.475463,617.959580,469.599250C617.106668,467.457599,616.620644,465.187564,616.521910,462.884440C616.432791,460.561598,617.203496,458.287487,618.686490,456.497440C620.222096,454.713148,622.636278,453.953329,624.917000,454.536500Z" transform="matrix(1 0 0 1 -254 -200.06200000000001)" fill="rgb(47,46,65)" stroke="none" stroke-width="1"/><path id="e34cf1gbpffx9" display="none" d="M668.183000,506.324700C667.916389,505.365717,667.100589,504.660206,666.113180,504.534700C666.081211,504.512456,666.047767,504.492410,666.013080,504.474700L645.281670,492.856500C644.051879,492.167376,642.497576,492.567457,641.753340,493.764700L636.083420,502.944760L627.543420,494.404760L627.407680,494.268950C626.502930,493.364297,625.079264,493.239794,624.031220,493.973670L606.993130,505.904760C606.963350,505.904760,606.933070,505.914760,606.903290,505.914760C605.223443,506.194754,603.963601,507.604149,603.873010,509.304760L603.433070,518.194760L671.473070,518.194760Z" transform="matrix(1 0 0 1 -254 -200.06200000000001)" fill="rgb(108,99,255)" stroke="none" stroke-width="1"/><path id="e34cf1gbpffx10" d="M706.157700,516.813820L693.030420,516.813820C693.030414,516.050664,692.411756,515.432006,691.648600,515.432000L687.503150,515.432000C686.739996,515.432011,686.121341,516.050666,686.121330,516.813820L681.975880,516.813820C681.975869,516.050666,681.357214,515.432011,680.594060,515.432000L676.448600,515.432000C675.685448,515.432011,675.066796,516.050668,675.066790,516.813820L670.921330,516.813820C670.921324,516.050664,670.302666,515.432006,669.539510,515.432000L665.394060,515.432000C664.630906,515.432011,664.012251,516.050666,664.012240,516.813820L659.866790,516.813820C659.866779,516.050678,659.248142,515.432028,658.485000,515.432000L654.339540,515.432000C653.576388,515.432011,652.957736,516.050668,652.957730,516.813820L648.812270,516.813820C648.812264,516.050664,648.193606,515.432006,647.430450,515.432000L643.285000,515.432000C642.521844,515.432006,641.903186,516.050664,641.903180,516.813820L637.757700,516.813820C637.757689,516.050666,637.139034,515.432011,636.375880,515.432000L632.230420,515.432000C631.467266,515.432011,630.848611,516.050666,630.848600,516.813820L626.703150,516.813820C626.703144,516.050664,626.084486,515.432006,625.321330,515.432000L621.175880,515.432000C620.412724,515.432006,619.794066,516.050664,619.794060,516.813820L615.648600,516.813820C615.648594,516.050668,615.029942,515.432011,614.266790,515.432000L610.121330,515.432000C609.358176,515.432011,608.739521,516.050666,608.739510,516.813820L604.594060,516.813820C604.594049,516.050666,603.975394,515.432011,603.212240,515.432000L599.066790,515.432000C598.303634,515.432006,597.684976,516.050664,597.684970,516.813820L593.539510,516.813820C593.539504,516.050668,592.920852,515.432011,592.157700,515.432000L588.012240,515.432000C587.249086,515.432011,586.630431,516.050666,586.630420,516.813820L582.485000,516.813820C582.484989,516.050666,581.866334,515.432011,581.103180,515.432000L576.957700,515.432000C576.194544,515.432006,575.575886,516.050664,575.575880,516.813820L562.448600,516.813820C560.161642,516.817372,558.309579,518.672315,558.309579,520.959275C558.309579,523.246235,560.161642,525.101178,562.448600,525.104730L706.157700,525.104730C708.447172,525.104730,710.303155,523.248747,710.303155,520.959275C710.303155,518.669803,708.447172,516.813820,706.157700,516.813820Z" transform="matrix(1 0 0 1 -254 -200.06200000000001)" fill="rgb(63,61,86)" stroke="none" stroke-width="1"/><path id="e34cf1gbpffx11" d="M541.079060,492.739940L541.079060,520.265660L472.116810,520.265660C467.085615,520.440733,462.359830,517.856510,459.792331,513.526208C457.224831,509.195905,457.224831,503.809695,459.792331,499.479392C462.359830,495.149090,467.085615,492.564867,472.116810,492.739940Z" transform="matrix(1 0 0 1 -254 -200.06200000000001)" fill="rgb(242,242,242)" stroke="none" stroke-width="1"/><path id="e34cf1gbpffx12" d="M542.773000,520.053920C542.772774,520.638519,542.298919,521.112374,541.714320,521.112600L470.888520,521.112600C462.878218,521.112600,456.384585,514.618967,456.384585,506.608665C456.384585,498.598363,462.878218,492.104730,470.888520,492.104730L541.714320,492.104730C542.299013,492.104730,542.773000,492.578717,542.773000,493.163410C542.773000,493.748103,542.299013,494.222090,541.714320,494.222090L470.888520,494.222090C464.051949,494.228233,458.513070,499.772092,458.513070,506.608665C458.513070,513.445238,464.051949,518.989097,470.888520,518.995240L541.714320,518.995240C542.298917,518.995472,542.772768,519.469323,542.773000,520.053920Z" transform="matrix(1 0 0 1 -254 -200.06200000000001)" fill="rgb(108,99,255)" stroke="none" stroke-width="1"/><path id="e34cf1gbpffx13" d="M541.079060,499.092000L466.971350,499.092000C466.895358,499.092522,466.824913,499.052280,466.786766,498.986555C466.748618,498.920829,466.748618,498.839701,466.786766,498.773975C466.824913,498.708250,466.895358,498.668008,466.971350,498.668530L541.079060,498.668530C541.195430,498.669330,541.289345,498.763892,541.289345,498.880265C541.289345,498.996638,541.195430,499.091200,541.079060,499.092000Z" transform="matrix(1 0 0 1 -254 -200.06200000000001)" fill="rgb(204,204,204)" stroke="none" stroke-width="1"/><path id="e34cf1gbpffx14" d="M541.079060,504.173700L466.971350,504.173700C466.895358,504.174222,466.824913,504.133980,466.786766,504.068255C466.748618,504.002529,466.748618,503.921401,466.786766,503.855675C466.824913,503.789950,466.895358,503.749708,466.971350,503.750230L541.079060,503.750230C541.195430,503.751030,541.289345,503.845592,541.289345,503.961965C541.289345,504.078338,541.195430,504.172900,541.079060,504.173700Z" transform="matrix(1 0 0 1 -254 -200.06200000000001)" fill="rgb(204,204,204)" stroke="none" stroke-width="1"/><path id="e34cf1gbpffx15" d="M541.079060,509.255370L466.971350,509.255370C466.895358,509.255892,466.824913,509.215650,466.786766,509.149925C466.748618,509.084199,466.748618,509.003071,466.786766,508.937345C466.824913,508.871620,466.895358,508.831378,466.971350,508.831900L541.079060,508.831900C541.195430,508.832700,541.289345,508.927262,541.289345,509.043635C541.289345,509.160008,541.195430,509.254570,541.079060,509.255370Z" transform="matrix(1 0 0 1 -254 -200.06200000000001)" fill="rgb(204,204,204)" stroke="none" stroke-width="1"/><path id="e34cf1gbpffx16" d="M541.079060,514.337000L466.971350,514.337000C466.895358,514.337522,466.824913,514.297280,466.786766,514.231555C466.748618,514.165829,466.748618,514.084701,466.786766,514.018975C466.824913,513.953250,466.895358,513.913008,466.971350,513.913530L541.079060,513.913530C541.195430,513.914330,541.289345,514.008892,541.289345,514.125265C541.289345,514.241638,541.195430,514.336200,541.079060,514.337000Z" transform="matrix(1 0 0 1 -254 -200.06200000000001)" fill="rgb(204,204,204)" stroke="none" stroke-width="1"/><path id="e34cf1gbpffx17" d="M528.079060,463.739940L528.079060,491.265660L459.116810,491.265660C454.085615,491.440733,449.359830,488.856510,446.792331,484.526208C444.224831,480.195905,444.224831,474.809695,446.792331,470.479392C449.359830,466.149090,454.085615,463.564867,459.116810,463.739940Z" transform="matrix(1 0 0 1 -254 -200.06200000000001)" fill="rgb(242,242,242)" stroke="none" stroke-width="1"/><path id="e34cf1gbpffx18" d="M529.773000,491.053920C529.772774,491.638519,529.298919,492.112374,528.714320,492.112600L457.888520,492.112600C449.878218,492.112600,443.384585,485.618967,443.384585,477.608665C443.384585,469.598363,449.878218,463.104730,457.888520,463.104730L528.714320,463.104730C529.299013,463.104730,529.773000,463.578717,529.773000,464.163410C529.773000,464.748103,529.299013,465.222090,528.714320,465.222090L457.888520,465.222090C451.051949,465.228233,445.513070,470.772092,445.513070,477.608665C445.513070,484.445238,451.051949,489.989097,457.888520,489.995240L528.714320,489.995240C529.298917,489.995472,529.772768,490.469323,529.773000,491.053920Z" transform="matrix(1 0 0 1 -254 -200.06200000000001)" fill="rgb(63,61,86)" stroke="none" stroke-width="1"/><path id="e34cf1gbpffx19" d="M528.079060,470.092000L453.971350,470.092000C453.895358,470.092522,453.824913,470.052280,453.786766,469.986555C453.748618,469.920829,453.748618,469.839701,453.786766,469.773975C453.824913,469.708250,453.895358,469.668008,453.971350,469.668530L528.079060,469.668530C528.195430,469.669330,528.289345,469.763892,528.289345,469.880265C528.289345,469.996638,528.195430,470.091200,528.079060,470.092000Z" transform="matrix(1 0 0 1 -254 -200.06200000000001)" fill="rgb(204,204,204)" stroke="none" stroke-width="1"/><path id="e34cf1gbpffx20" d="M528.079060,475.173700L453.971350,475.173700C453.895358,475.174222,453.824913,475.133980,453.786766,475.068255C453.748618,475.002529,453.748618,474.921401,453.786766,474.855675C453.824913,474.789950,453.895358,474.749708,453.971350,474.750230L528.079060,474.750230C528.195430,474.751030,528.289345,474.845592,528.289345,474.961965C528.289345,475.078338,528.195430,475.172900,528.079060,475.173700Z" transform="matrix(1 0 0 1 -254 -200.06200000000001)" fill="rgb(204,204,204)" stroke="none" stroke-width="1"/><path id="e34cf1gbpffx21" d="M528.079060,480.255370L453.971350,480.255370C453.895358,480.255892,453.824913,480.215650,453.786766,480.149925C453.748618,480.084199,453.748618,480.003071,453.786766,479.937345C453.824913,479.871620,453.895358,479.831378,453.971350,479.831900L528.079060,479.831900C528.195430,479.832700,528.289345,479.927262,528.289345,480.043635C528.289345,480.160008,528.195430,480.254570,528.079060,480.255370Z" transform="matrix(1 0 0 1 -254 -200.06200000000001)" fill="rgb(204,204,204)" stroke="none" stroke-width="1"/><path id="e34cf1gbpffx22" d="M528.079060,485.337000L453.971350,485.337000C453.895358,485.337522,453.824913,485.297280,453.786766,485.231555C453.748618,485.165829,453.748618,485.084701,453.786766,485.018975C453.824913,484.953250,453.895358,484.913008,453.971350,484.913530L528.079060,484.913530C528.195430,484.914330,528.289345,485.008892,528.289345,485.125265C528.289345,485.241638,528.195430,485.336200,528.079060,485.337000Z" transform="matrix(1 0 0 1 -254 -200.06200000000001)" fill="rgb(204,204,204)" stroke="none" stroke-width="1"/><path id="e34cf1gbpffx23" d="M608.303150,618.104730L608.303150,594.104730C608.303106,591.895609,606.512271,590.104774,604.303150,590.104730L513.303150,590.104730C511.094029,590.104774,509.303194,591.895609,509.303150,594.104730L509.303150,618.104730Z" transform="matrix(1 0 0 1 -254 -200.06200000000001)" fill="rgb(204,204,204)" stroke="none" stroke-width="1"/><rect id="e34cf1gbpffx24" width="99" height="31" rx="0" ry="0" transform="matrix(1 0 0 1 255.30300000000000 427.04300000000001)" fill="rgb(204,204,204)" stroke="none" stroke-width="1"/><path id="e34cf1gbpffx25" d="M509.303150,667.104730L509.303150,691.104730C509.303194,693.313851,511.094029,695.104686,513.303150,695.104730L604.303150,695.104730C606.512271,695.104686,608.303106,693.313851,608.303150,691.104730L608.303150,667.104730Z" transform="matrix(1 0 0 1 -254 -200.06200000000001)" fill="rgb(204,204,204)" stroke="none" stroke-width="1"/><circle id="e34cf1gbpffx26" r="3" transform="matrix(1 0 0 1 304.30300000000000 405.04300000000001)" fill="rgb(255,255,255)" stroke="none" stroke-width="1"/><circle id="e34cf1gbpffx27" r="3" transform="matrix(1 0 0 1 304.30300000000000 445.04300000000001)" fill="rgb(255,255,255)" stroke="none" stroke-width="1"/><circle id="e34cf1gbpffx28" r="3" transform="matrix(1 0 0 1 304.46400000000000 484.19600000000003)" fill="rgb(255,255,255)" stroke="none" stroke-width="1"/><path id="e34cf1gbpffx29" d="M597.079060,562.739940L597.079060,590.265660L528.116810,590.265660C523.085615,590.440733,518.359830,587.856510,515.792331,583.526208C513.224831,579.195905,513.224831,573.809695,515.792331,569.479392C518.359830,565.149090,523.085615,562.564867,528.116810,562.739940Z" transform="matrix(1 0 0 1 -254 -200.06200000000001)" fill="rgb(242,242,242)" stroke="none" stroke-width="1"/><path id="e34cf1gbpffx30" d="M598.773000,590.053920C598.772774,590.638519,598.298919,591.112374,597.714320,591.112600L526.888520,591.112600C521.703895,591.116905,516.911260,588.353413,514.317704,583.864111C511.724148,579.374810,511.724148,573.842520,514.317704,569.353219C516.911260,564.863917,521.703895,562.100425,526.888520,562.104730L597.714320,562.104730C598.299013,562.104730,598.773000,562.578717,598.773000,563.163410C598.773000,563.748103,598.299013,564.222090,597.714320,564.222090L526.888520,564.222090C520.051949,564.228233,514.513070,569.772092,514.513070,576.608665C514.513070,583.445238,520.051949,588.989097,526.888520,588.995240L597.714320,588.995240C598.298917,588.995472,598.772768,589.469323,598.773000,590.053920Z" transform="matrix(1 0 0 1 -254 -200.06200000000001)" fill="rgb(63,61,86)" stroke="none" stroke-width="1"/><path id="e34cf1gbpffx31" d="M597.079060,569.092000L522.971350,569.092000C522.895358,569.092522,522.824913,569.052280,522.786766,568.986555C522.748618,568.920829,522.748618,568.839701,522.786766,568.773975C522.824913,568.708250,522.895358,568.668008,522.971350,568.668530L597.079060,568.668530C597.195430,568.669330,597.289345,568.763892,597.289345,568.880265C597.289345,568.996638,597.195430,569.091200,597.079060,569.092000Z" transform="matrix(1 0 0 1 -254 -200.06200000000001)" fill="rgb(204,204,204)" stroke="none" stroke-width="1"/><path id="e34cf1gbpffx32" d="M597.079060,574.173700L522.971350,574.173700C522.895358,574.174222,522.824913,574.133980,522.786766,574.068255C522.748618,574.002529,522.748618,573.921401,522.786766,573.855675C522.824913,573.789950,522.895358,573.749708,522.971350,573.750230L597.079060,573.750230C597.195430,573.751030,597.289345,573.845592,597.289345,573.961965C597.289345,574.078338,597.195430,574.172900,597.079060,574.173700Z" transform="matrix(1 0 0 1 -254 -200.06200000000001)" fill="rgb(204,204,204)" stroke="none" stroke-width="1"/><path id="e34cf1gbpffx33" d="M597.079060,579.255370L522.971350,579.255370C522.895358,579.255892,522.824913,579.215650,522.786766,579.149925C522.748618,579.084199,522.748618,579.003071,522.786766,578.937345C522.824913,578.871620,522.895358,578.831378,522.971350,578.831900L597.079060,578.831900C597.195430,578.832700,597.289345,578.927262,597.289345,579.043635C597.289345,579.160008,597.195430,579.254570,597.079060,579.255370Z" transform="matrix(1 0 0 1 -254 -200.06200000000001)" fill="rgb(204,204,204)" stroke="none" stroke-width="1"/><path id="e34cf1gbpffx34" d="M597.079060,584.337000L522.971350,584.337000C522.895358,584.337522,522.824913,584.297280,522.786766,584.231555C522.748618,584.165829,522.748618,584.084701,522.786766,584.018975C522.824913,583.953250,522.895358,583.913008,522.971350,583.913530L597.079060,583.913530C597.195430,583.914330,597.289345,584.008892,597.289345,584.125265C597.289345,584.241638,597.195430,584.336200,597.079060,584.337000Z" transform="matrix(1 0 0 1 -254 -200.06200000000001)" fill="rgb(204,204,204)" stroke="none" stroke-width="1"/><path id="e34cf1gbpffx35" d="M504.110350,383.083080L504.110350,207.583080C504.115073,203.431067,507.479767,200.066373,511.631780,200.061650L650.360350,200.061650C654.512352,200.066400,657.877030,203.431078,657.881780,207.583080L657.881780,383.083080C657.877052,387.235089,654.512359,390.599777,650.360350,390.604500L511.631780,390.604500C507.479771,390.599777,504.115078,387.235089,504.110350,383.083080ZM511.631780,201.733080C508.402413,201.736695,505.785395,204.353713,505.781780,207.583080L505.781780,383.083080C505.785401,386.312445,508.402415,388.929459,511.631780,388.933080L650.360350,388.933080C653.589713,388.929454,656.206724,386.312443,656.210350,383.083080L656.210350,207.583080C656.206729,204.353715,653.589715,201.736701,650.360350,201.733080Z" transform="matrix(1 0 0 1 -254 -200.06200000000001)" fill="rgb(230,230,230)" stroke="none" stroke-width="1"/><path id="e34cf1gbpffx36" d="M588.775490,280.659360L588.775490,244.623670C588.777794,242.547637,590.460177,240.865254,592.536210,240.862950L623.073210,240.862950C625.149243,240.865254,626.831626,242.547637,626.833930,244.623670L626.833930,280.659360C626.831626,282.735392,625.149242,284.417772,623.073210,284.420070L592.536210,284.420070C590.460178,284.417772,588.777794,282.735392,588.775490,280.659360Z" transform="matrix(1 0 0 1 -254 -200.06200000000001)" fill="rgb(108,99,255)" stroke="none" stroke-width="1"/><path id="e34cf1gbpffx37" d="M529.439780,297.373640L529.439780,261.338000C529.442084,259.261972,531.124462,257.579594,533.200490,257.577290L563.737490,257.577290C565.813518,257.579594,567.495896,259.261972,567.498200,261.338000L567.498200,297.373690C567.495896,299.449719,565.813519,301.132101,563.737490,301.134410L533.200490,301.134410C531.124441,301.132101,529.442056,299.449689,529.439780,297.373640Z" transform="matrix(1 0 0 1 -254 -200.06200000000001)" fill="rgb(204,204,204)" stroke="none" stroke-width="1"/><path id="e34cf1gbpffx38" d="M577.075490,348.352210L577.075490,312.316520C577.077799,310.240491,578.760181,308.558114,580.836210,308.555810L611.373210,308.555810C613.449239,308.558114,615.131621,310.240491,615.133930,312.316520L615.133930,348.352210C615.131626,350.428243,613.449243,352.110626,611.373210,352.112930L580.836210,352.112930C578.760177,352.110626,577.077794,350.428243,577.075490,348.352210Z" transform="matrix(1 0 0 1 -254 -200.06200000000001)" fill="rgb(255,101,132)" stroke="none" stroke-width="1"/><path id="e34cf1gbpffx39" d="M759.562920,513.104730L728.143000,513.104730C727.844824,513.104481,727.550598,513.172917,727.283140,513.304730L719.352960,517.274730C718.819484,517.501486,718.473121,518.025062,718.473121,518.604730C718.473121,519.184398,718.819484,519.707974,719.352960,519.934730L727.283140,523.904730C727.550598,524.036543,727.844824,524.104979,728.143000,524.104730L759.562930,524.104730C760.463951,524.156864,761.239495,523.475010,761.303160,522.574730L761.303160,514.634790C761.239527,513.734482,760.463966,513.052591,759.562920,513.104730Z" transform="matrix(1 0 0 1 -254 -200.06200000000001)" fill="rgb(63,61,86)" stroke="none" stroke-width="1"/><path id="e34cf1gbpffx40" d="M761.303150,514.634760L761.303150,522.574700C761.239485,523.474980,760.463941,524.156834,759.562920,524.104700L753.303150,524.104700L753.303150,513.104700L759.562920,513.104700C760.463963,513.052567,761.239517,513.734456,761.303150,514.634760Z" transform="matrix(1 0 0 1 -254 -200.06200000000001)" fill="rgb(108,99,255)" stroke="none" stroke-width="1"/><path id="e34cf1gbpffx41" d="M759.326500,453.704530C762.204976,452.462333,765.476663,452.507046,768.320117,453.827441C771.163572,455.147837,773.308732,457.618509,774.217000,460.619130C774.356852,461.089466,774.463840,461.568955,774.537190,462.054130L818.475130,483.842290L828.643480,477.103760L841.295260,491.669080L825.769340,504.278900C821.935374,507.368487,816.528630,507.577013,812.468090,504.791900L767.888910,473.963710C767.557181,474.104391,767.218437,474.227921,766.874020,474.333810C763.872913,475.241482,760.627117,474.825736,757.951665,473.190967C755.276213,471.556197,753.425243,468.857690,752.863540,465.773050C752.781256,465.330408,752.726972,464.883016,752.701010,464.433540C752.447719,459.823363,755.091097,455.542801,759.326500,453.704530Z" transform="matrix(1 0 0 1 -254 -200.06200000000001)" fill="rgb(255,184,184)" stroke="none" stroke-width="1"/><path id="e34cf1gbpffx42" d="M850.841060,587.853300L802.831290,587.853300C802.831290,589.233300,753.351290,590.353300,753.351290,590.353300C752.574665,590.938072,751.866857,591.609025,751.241430,592.353300C749.362027,594.594814,748.334804,597.428151,748.341040,600.353300L748.341040,602.353300C748.343579,609.255808,753.938532,614.850761,760.841040,614.853300L850.841040,614.853300C857.742113,614.847301,863.335041,609.254373,863.341040,602.353300L863.341040,600.353300C863.331483,593.453711,857.740649,587.862868,850.841060,587.853300Z" transform="matrix(1 0 0 1 -254 -200.06200000000001)" fill="rgb(63,61,86)" stroke="none" stroke-width="1"/><rect id="e34cf1gbpffx43" width="13" height="84" rx="0" ry="0" transform="matrix(-1 0 -0 -1 557.61299999999994 498.29300000000023)" fill="rgb(63,61,86)" stroke="none" stroke-width="1"/><path id="e34cf1gbpffx44" d="M761.617500,697.900000C761.617500,699.304630,781.316970,698.443310,805.617500,698.443310C829.918030,698.443310,849.617500,699.304630,849.617500,697.900000C849.617500,696.495370,829.918030,685.356690,805.617500,685.356690C781.316970,685.356690,761.617500,696.495390,761.617500,697.900000Z" transform="matrix(1 0 0 1 -254 -200.06200000000001)" fill="rgb(63,61,86)" stroke="none" stroke-width="1"/><polygon id="e34cf1gbpffx45" points="519.353000,487.993000 507.094000,487.992000 501.261000,456.195000 519.355000,456.196000 519.353000,487.993000" fill="rgb(255,184,184)" stroke="none" stroke-width="1"/><path id="e34cf1gbpffx46" d="M776.479830,699.938350L736.949310,699.936890L736.949310,699.436890C736.949262,695.356152,738.570324,691.442540,741.455865,688.557045C744.341405,685.671550,748.255042,684.050549,752.335780,684.050660L752.336780,684.050660L776.480580,684.051660Z" transform="matrix(1 0 0 1 -254 -200.06200000000001)" fill="rgb(47,46,65)" stroke="none" stroke-width="1"/><path id="e34cf1gbpffx47" d="M755.016630,668.336650L730.575710,613.529000C726.344069,603.949559,730.182565,592.726409,739.394310,587.744820L792.407740,559.317090L816.598900,557.259470L838.913600,555.231150L839.074490,555.503610C839.280300,555.851270,844.078150,564.138380,840.834990,573.225290C838.374990,580.117870,831.976100,585.501660,821.816190,589.227240C798.101830,597.922560,770.707060,605.354240,760.029810,608.145240C759.075341,608.389298,758.270696,609.029675,757.818630,609.905010C757.365538,610.769696,757.294376,611.784376,757.622340,612.703840L780.328880,663.718480C780.809518,665.029785,780.654052,666.489931,779.908081,667.670635C779.162111,668.851340,777.910202,669.618752,776.519560,669.747780L759.553000,670.983130Q759.336940,671.003640,759.122830,671.003640C757.347670,671.003037,755.738986,669.958191,755.016630,668.336650Z" transform="matrix(1 0 0 1 -254 -200.06200000000001)" fill="rgb(47,46,65)" stroke="none" stroke-width="1"/><polygon id="e34cf1gbpffx48" points="525.353000,487.993000 513.094000,487.992000 507.261000,456.195000 525.355000,456.196000 525.353000,487.993000" fill="rgb(255,184,184)" stroke="none" stroke-width="1"/><path id="e34cf1gbpffx49" d="M782.479830,699.938350L742.949310,699.936890L742.949310,699.436890C742.949262,695.356152,744.570324,691.442540,747.455865,688.557045C750.341405,685.671550,754.255042,684.050549,758.335780,684.050660L758.336780,684.050660L782.480580,684.051660Z" transform="matrix(1 0 0 1 -254 -200.06200000000001)" fill="rgb(47,46,65)" stroke="none" stroke-width="1"/><path id="e34cf1gbpffx50" d="M762.016630,671.336650L737.575710,616.529000C733.344069,606.949559,737.182565,595.726409,746.394310,590.744820L799.407740,562.317090L823.598900,560.259470L845.913600,558.231150L846.074490,558.503610C846.280300,558.851270,851.078150,567.138380,847.834990,576.225290C845.374990,583.117870,838.976100,588.501660,828.816190,592.227240C805.101830,600.922560,777.707060,608.354240,767.029810,611.145240C766.075341,611.389298,765.270696,612.029675,764.818630,612.905010C764.365538,613.769696,764.294376,614.784376,764.622340,615.703840L787.328880,666.718480C787.809518,668.029785,787.654052,669.489931,786.908081,670.670635C786.162111,671.851340,784.910202,672.618752,783.519560,672.747780L766.553000,673.983130Q766.336940,674.003640,766.122830,674.003640C764.347670,674.003037,762.738986,672.958191,762.016630,671.336650Z" transform="matrix(1 0 0 1 -254 -200.06200000000001)" fill="rgb(47,46,65)" stroke="none" stroke-width="1"/><path id="e34cf1gbpffx51" d="M749.834520,503.905910C739.564108,490.244626,731.444983,475.091966,725.759120,458.974180C725.078899,456.983165,725.938361,454.792249,727.790910,453.794800L762.936170,434.963210C764.088294,434.341162,765.462948,434.285360,766.661700,434.811980C767.882785,435.342579,768.790924,436.406676,769.123010,437.695980C773.213669,453.227563,780.902907,467.578143,791.568640,479.586710C792.458386,480.577161,792.841480,481.922676,792.606880,483.233250C792.381385,484.523014,791.573535,485.636643,790.417480,486.251360L755.272230,505.083000C753.415667,506.072965,751.115473,505.575046,749.834520,503.905910Z" transform="matrix(1 0 0 1 -254 -200.06200000000001)" fill="rgb(204,204,204)" stroke="none" stroke-width="1"/><path id="e34cf1gbpffx52" d="M752.232840,502.103750C752.622892,502.590511,753.303938,502.731164,753.854910,502.438750L789.000420,483.606750C789.346394,483.426418,789.587917,483.094434,789.653000,482.709750C789.727300,482.303623,789.607009,481.886145,789.328000,481.581820C778.347924,469.219499,770.432129,454.446068,766.221070,438.456820C766.122275,438.056342,765.841772,437.725167,765.463010,437.561820C765.106160,437.402224,764.695120,437.419216,764.352660,437.607720L729.207930,456.439200C728.658700,456.735966,728.398437,457.381607,728.588310,457.976310C734.172409,473.805593,742.146230,488.687019,752.232840,502.103750Z" transform="matrix(1 0 0 1 -254 -200.06200000000001)" fill="rgb(255,255,255)" stroke="none" stroke-width="1"/><path id="e34cf1gbpffx53" d="M866.592510,498.882550L839.067850,509.341920L832.347850,490.675280C830.505557,485.557771,832.617775,479.857274,837.349850,477.175780L837.349850,477.175780C842.140383,474.461139,848.194612,475.643100,851.612340,479.960230Z" transform="matrix(1 0 0 1 -254 -200.06200000000001)" fill="rgb(108,99,255)" stroke="none" stroke-width="1"/><path id="e34cf1gbpffx54" d="M796.582730,572.842560C795.410913,572.013626,794.651989,570.720948,794.499230,569.293730C790.973840,536.384060,793.429410,510.629670,802.005090,490.558870C805.065335,483.545261,811.170077,478.320183,818.571990,476.379180L840.821500,475.256130L840.936730,475.311800C851.246274,480.361401,857.025128,491.573595,855.156000,502.900180C847.999750,521.763460,842.007560,541.403110,846.577390,557.246370C846.964573,558.584719,846.789850,560.023045,846.093500,561.229770C845.418105,562.396473,844.290518,563.232136,842.977780,563.538850L800.599330,573.619900C799.210969,573.950174,797.747623,573.666970,796.582730,572.842560Z" transform="matrix(1 0 0 1 -254 -200.06200000000001)" fill="rgb(50,170,47)" stroke="none" stroke-width="1"/><circle id="e34cf1gbpffx55" r="24.561000" transform="matrix(1 0 0 1 579.39599999999996 242.32300000000001)" fill="rgb(255,184,184)" stroke="none" stroke-width="1"/><path id="e34cf1gbpffx56" d="M765.243420,461.837870L746.101820,470.287440C744.586030,470.954578,742.816263,470.268771,742.145820,468.754440L741.672390,467.681930C741.005252,466.166140,741.691059,464.396373,743.205390,463.725930L762.346990,455.276360C763.862780,454.609222,765.632547,455.295029,766.302990,456.809360L766.776420,457.881870C767.443558,459.397660,766.757751,461.167427,765.243420,461.837870Z" transform="matrix(1 0 0 1 -254 -200.06200000000001)" fill="rgb(204,204,204)" stroke="none" stroke-width="1"/><path id="e34cf1gbpffx57" d="M772.243420,474.837870L753.101820,483.287440C751.586030,483.954578,749.816263,483.268771,749.145820,481.754440L748.672390,480.681930C748.005252,479.166140,748.691059,477.396373,750.205390,476.725930L769.346990,468.276360C770.862780,467.609222,772.632547,468.295029,773.302990,469.809360L773.776420,470.881870C774.443558,472.397660,773.757751,474.167427,772.243420,474.837870Z" transform="matrix(1 0 0 1 -254 -200.06200000000001)" fill="rgb(204,204,204)" stroke="none" stroke-width="1"/><g id="e34cf1gbpffx58_to" transform="translate(-254,-200.062000)"><path id="e34cf1gbpffx58" d="M787.005090,525.615000L744.330780,491.949000C743.990864,492.068569,743.645028,492.170591,743.294640,492.254660C740.248494,492.967192,737.043064,492.352339,734.476770,490.563250C731.892564,488.772303,730.206392,485.953771,729.850310,482.829860C729.261135,477.747540,732.246552,472.927891,737.059310,471.191670C740.010233,470.133203,743.272535,470.383697,746.027270,471.880270C748.782006,473.376843,750.767592,475.977383,751.485580,479.029070C751.595518,479.507220,751.672037,479.992442,751.714580,480.481220L794.196000,504.988560L804.767780,498.902130L816.478710,514.234130L800.064650,525.933350C796.118726,528.722566,790.810410,528.593162,787.005080,525.614990Z" transform="translate(0,0)" fill="rgb(255,184,184)" stroke="none" stroke-width="1"/></g><path id="e34cf1gbpffx59" d="M821.686000,519.008840L797.337310,502.451460L808.780190,486.244600C811.917296,481.801468,817.798997,480.264389,822.708810,482.604600L822.708810,482.604600C827.679298,484.973712,830.181394,490.611992,828.603220,495.887200Z" transform="matrix(1 0 0 1 -254 -200.06200000000001)" fill="rgb(50,170,47)" stroke="none" stroke-width="1"/><path id="e34cf1gbpffx60" d="M824.391270,438.726670C818.078560,443.047180,809.789820,447.488410,803.342360,442.887420C799.108840,439.866330,797.774990,434.271970,799.491760,429.362560C802.579020,420.533990,811.061190,416.647250,819.172280,413.667970C829.716690,409.794920,841.198010,406.713730,852.083400,409.487420C862.968790,412.261110,872.589000,422.800340,870.623980,433.860350C869.043760,442.754580,860.653980,450.155270,861.844980,459.109930C863.043650,468.122080,873.178770,472.865820,882.126470,474.476510C891.074170,476.087200,901.086860,476.604730,907.517210,483.031710C915.720310,491.230510,913.671860,505.884960,905.953070,514.541260C898.234280,523.197560,886.586240,527.121370,875.299270,529.788830C860.344730,533.323050,844.170220,535.180440,829.967180,529.315050C815.764140,523.449660,804.711530,507.660720,808.825920,492.855290C810.563830,486.601490,814.657830,481.316190,818.614460,476.170780C822.571090,471.025370,826.577560,465.644780,828.086840,459.331900C829.344560,454.071170,828.413660,447.963210,824.925020,444.017060C823.623237,442.600030,823.383186,440.505432,824.330630,438.830630Z" transform="matrix(1 0 0 1 -254 -200.06200000000001)" fill="rgb(47,46,65)" stroke="none" stroke-width="1"/><path id="e34cf1gbpffx61" d="M363.072190,558.060090C350.200868,562.584501,335.901613,560.065625,325.351070,551.415350C312.139070,540.326170,307.996710,522.056810,304.626220,505.140350Q299.641600,480.122540,294.656970,455.104750L315.528630,469.476190C330.538280,479.811270,345.886070,490.477450,356.278700,505.447310C366.671330,520.417170,371.207700,540.852370,362.857550,557.050460" transform="matrix(1 0 0 1 -254 -200.06200000000001)" fill="rgb(230,230,230)" stroke="none" stroke-width="1"/><path id="e34cf1gbpffx62" d="M361.288090,618.638600C363.400580,603.251150,365.572770,587.666050,364.090970,572.113660C362.774970,558.301470,358.561090,544.810830,349.982150,533.749430C345.428434,527.889195,339.887453,522.868142,333.608310,518.912000C331.970910,517.878490,330.463890,520.473400,332.094150,521.502420C342.958890,528.368946,351.362371,538.508365,356.093000,550.458800C361.317880,563.748270,362.156920,578.234920,361.256550,592.352170C360.712060,600.889400,359.558080,609.370680,358.395210,617.841080C358.204998,618.635924,358.662843,619.442300,359.442870,619.686260C360.241057,619.901336,361.063728,619.434238,361.288050,618.638600Z" transform="matrix(1 0 0 1 -254 -200.06200000000001)" fill="rgb(242,242,242)" stroke="none" stroke-width="1"/><path id="e34cf1gbpffx63" d="M340.941000,591.410080C335.420721,599.800135,325.923012,604.702122,315.886260,604.341410C303.203120,603.739330,292.629420,594.887290,283.111110,586.483340L254.957820,561.626130L273.590630,560.734430C286.990240,560.093170,300.735550,559.495020,313.498220,563.627210C326.260890,567.759400,338.031290,577.704110,340.365020,590.914510" transform="matrix(1 0 0 1 -254 -200.06200000000001)" fill="rgb(230,230,230)" stroke="none" stroke-width="1"/><path id="e34cf1gbpffx64" d="M367.258130,627.484120C357.090400,609.492970,345.296720,589.497850,324.223400,583.107120C318.363964,581.336174,312.219980,580.701786,306.122310,581.238120C304.200510,581.403830,304.680400,584.366230,306.598710,584.200820C316.819739,583.352193,327.021049,586.051087,335.485200,591.843130C343.630100,597.387130,349.971790,605.094790,355.339340,613.268390C358.627130,618.274960,361.572120,623.493940,364.517670,628.705920C365.459010,630.371550,368.210460,629.169210,367.258130,627.484110Z" transform="matrix(1 0 0 1 -254 -200.06200000000001)" fill="rgb(242,242,242)" stroke="none" stroke-width="1"/><path id="e34cf1gbpffx65" d="M383.549730,646.421140C382.851440,638.329500,377.707710,631.299059,370.207000,628.184320L370.207000,617.783320L352.762130,617.783320L352.762130,628.512080C345.639656,631.775643,340.821099,638.615719,340.145920,646.421140L336.043920,694.104730L387.651830,694.104730Z" transform="matrix(1 0 0 1 -254 -200.06200000000001)" fill="rgb(242,242,242)" stroke="none" stroke-width="1"/></svg>