<svg xmlns="http://www.w3.org/2000/svg" xmlns:xlink="http://www.w3.org/1999/xlink" viewBox="0 0 1920 1080"><defs><style>.cls-1{fill:url(#linear-gradient);}.cls-2{stroke:#000;stroke-width:12px;fill:url(#linear-gradient-2);}.cls-19,.cls-2,.cls-34,.cls-36,.cls-37,.cls-39,.cls-41,.cls-44,.cls-46,.cls-47,.cls-48,.cls-49,.cls-50,.cls-51,.cls-52,.cls-53,.cls-55{stroke-miterlimit:10;}.cls-3{fill:#f59d02;}.cls-4{fill:#f9b806;}.cls-5{fill:#fcd208;}.cls-6{fill:#ffbd1a;}.cls-7{fill:#34271e;}.cls-8{fill:#edc567;}.cls-9{fill:#e2b15a;}.cls-10{fill:#898989;}.cls-11{fill:#b2b2b2;}.cls-12{fill:#cecece;}.cls-13{fill:#8e8e8e;}.cls-14{fill:#d3844f;}.cls-15{fill:#e0925c;}.cls-16{fill:#efb086;}.cls-17{fill:#e89f6d;}.cls-18{fill:#d1d1d1;}.cls-19,.cls-39,.cls-41,.cls-50,.cls-51,.cls-52,.cls-55{fill:none;}.cls-19{stroke:#d1d1d1;}.cls-19,.cls-41,.cls-52{stroke-width:2px;}.cls-20,.cls-36,.cls-44,.cls-53{fill:#fff;}.cls-21{fill:#ffce00;}.cls-22{fill:#ffa300;}.cls-23{fill:#57c196;}.cls-23,.cls-37{opacity:0.44;}.cls-24{fill:#75e0f2;opacity:0.22;}.cls-25{fill:url(#linear-gradient-3);}.cls-26,.cls-28,.cls-40{fill:red;}.cls-26{opacity:0.16;}.cls-27{fill:url(#linear-gradient-4);}.cls-28{opacity:0.11;}.cls-29{fill:#e8e7e7;}.cls-30{fill:#231f20;opacity:0.48;}.cls-31{fill:#ec1e24;opacity:0.4;}.cls-32{fill:#ff6555;}.cls-33{fill:#f94f46;}.cls-34,.cls-35{fill:#ff8f6c;}.cls-34{stroke:#ff8f6c;}.cls-36,.cls-47,.cls-48{stroke:#d6d2d4;stroke-width:3px;}.cls-37{fill:#8180b5;}.cls-37,.cls-39{stroke:#8180b5;}.cls-38{opacity:0.81;}.cls-41{stroke:red;}.cls-42{fill:#03d6c5;}.cls-43{fill:#3abaae;}.cls-44,.cls-46,.cls-49,.cls-50,.cls-51,.cls-52,.cls-53,.cls-55{stroke:#fff;}.cls-44{stroke-width:0.25px;}.cls-45{fill:#3effac;}.cls-46{fill:#4b7d99;}.cls-46,.cls-49{stroke-width:5px;}.cls-47{fill:#cbe0f4;}.cls-48{fill:#cceaf2;}.cls-49{fill:#74a3c1;}.cls-51{stroke-width:1.5px;}.cls-54{fill:#ccc;}.cls-55{stroke-dasharray:11.99 11.99;}</style><linearGradient id="linear-gradient" y1="448" x2="1920" y2="448" gradientUnits="userSpaceOnUse"><stop offset="0.01" stop-color="#164d7e"/><stop offset="0.72" stop-color="#209698"/></linearGradient><linearGradient id="linear-gradient-2" x1="765.85" y1="138.39" x2="765.85" y2="951.25" gradientUnits="userSpaceOnUse"><stop offset="0.07" stop-color="#fff"/><stop offset="0.99" stop-color="#fff"/></linearGradient><linearGradient id="linear-gradient-3" x1="226.37" y1="527.87" x2="338.48" y2="527.87" gradientTransform="matrix(-1, 0, 0, 1, 714.89, 0)" gradientUnits="userSpaceOnUse"><stop offset="0.06" stop-color="#ffa983"/><stop offset="0.29" stop-color="#ffaa7f"/><stop offset="0.95" stop-color="#ffb38d"/><stop offset="1" stop-color="#ff486a"/></linearGradient><linearGradient id="linear-gradient-4" x1="215.49" y1="399.98" x2="364.23" y2="399.98" xlink:href="#linear-gradient-3"/></defs><title>5result with icons final</title><g id="Layer_3" data-name="Layer 3"><path class="cls-1" d="M1920,0V689.57c-37.48-36.46-84-54.5-122.2-58.75-36-4-65.14,4-91.07,18.44a213.07,213.07,0,0,0-21.37,13.7c-14.45,10.44-28.1,22.57-41.66,35.23q-3.45,3.21-6.89,6.47c-19,17.91-38.06,36.44-59.21,52.39-29,21.85-61.87,38.84-103.8,42.69a161.1,161.1,0,0,1-55.73-4.12c-28.24-7.3-51.73-22-73.64-39.39-29.74-23.51-56.58-51.79-88.46-72.68-29.63-19.4-63.61-32.4-108.33-29.27-148.92,10.44-176,166.55-345.6,176-25.61,1.42-58.72-4.76-62.82-5.41-52-8.26-77.7-21.88-133.74-39-29.21-8.93-69.12-21.13-97.92-24.28C385.64,748.2,332.5,882.8,222.44,895.11,172.53,900.69,98.81,882.47,0,768.68V0Z"/></g><g id="Layer_6" data-name="Layer 6"><path class="cls-2" d="M962.71,174.65V915.06c0,24-20.77,39.93-45.66,35.44L601.58,893.65C583.51,890.4,569,871.48,569,851.56V237.4c0-19.92,14.52-38.81,32.59-42l75.69-13.5L823.54,155.8l93.51-16.67C941.94,134.69,962.71,150.64,962.71,174.65Z"/><path class="cls-3" d="M737.63,404.9a23.51,23.51,0,0,1-13.32-1.85c-8.74-4.29-13.14-14.9-11-26.78l13.09-1.19c.39,1.05.79,2.1,1.19,3.14l-10,.89c-1.64,9.28,1.81,17.58,8.64,20.92a18.36,18.36,0,0,0,10.15,1.46Z"/><path class="cls-3" d="M758.84,403.53a26.43,26.43,0,0,0,13.75-3.66c9.21-5.62,13.91-17.25,11.68-29.2l-13.81.94L769.23,375l10.47-.69c1.74,9.3-1.91,18.34-9.07,22.73a20.69,20.69,0,0,1-10.47,2.87Z"/><path class="cls-3" d="M762,434l-26.73,1.36a27.87,27.87,0,0,0,6.58-9,38.46,38.46,0,0,0,3.47-16.81l5.64-.35c0,2.87.34,10.43,4.33,17.32A23,23,0,0,0,762,434Z"/><path class="cls-4" d="M757.58,434.27l-22.31,1.13a27.87,27.87,0,0,0,6.58-9,38.46,38.46,0,0,0,3.47-16.81l4-.25a30.5,30.5,0,0,0,8.28,24.9Z"/><path class="cls-5" d="M743.58,428.66a37.76,37.76,0,0,1-4,6.52l-4.33.22a27.87,27.87,0,0,0,6.58-9,38.46,38.46,0,0,0,3.47-16.81l1.59-.1A36.08,36.08,0,0,1,743.58,428.66Z"/><path class="cls-4" d="M775.27,362.17c0,26.22-12.21,48.23-27.08,49.14l-.47,0a16,16,0,0,1-8.54-2.21h0c-.55-.32-1.1-.67-1.64-1.05-9.3-6.58-15.75-22.48-15.75-41.46Z"/><path class="cls-3" d="M766.29,435.09l-36,1.8a9.87,9.87,0,0,1,2.51-4.13,10.67,10.67,0,0,1,7-3.13l16.75-.89A9.5,9.5,0,0,1,766.29,435.09Z"/><path class="cls-5" d="M762.16,435.3l-31.88,1.59a9.87,9.87,0,0,1,2.51-4.13,10.67,10.67,0,0,1,7-3.13l12.65-.68A9.49,9.49,0,0,1,762.16,435.3Z"/><path class="cls-6" d="M762.16,435.3l-27.87,1.39a9.87,9.87,0,0,1,2.52-4.14,10.78,10.78,0,0,1,7-3.14l8.6-.46A9.49,9.49,0,0,1,762.16,435.3Z"/><polygon class="cls-7" points="769.39 449.88 727.4 451.69 727.4 435.8 769.39 433.67 769.39 449.88"/><polygon class="cls-7" points="772.69 453.46 724.23 455.48 724.23 451.83 772.69 449.73 772.69 453.46"/><polygon class="cls-3" points="760.41 382.79 754.39 388.86 755.99 396.52 748.38 393.49 740.97 397.79 742.24 389.93 736.11 385 744.42 383.11 748.03 375.7 751.93 382.42 760.41 382.79"/><path class="cls-3" d="M775.27,362.17c0,26.22-12.21,48.23-27.08,49.14l-.47,0a54.63,54.63,0,0,0,15.7-22.26,46.89,46.89,0,0,0,2-26.08Z"/><path class="cls-5" d="M739.18,409.12h0l-1.64-1.05a65.62,65.62,0,0,1-10.68-22.36,67.07,67.07,0,0,1-2.05-19.35l6.05-.51a94.56,94.56,0,0,0,1.71,23A91.82,91.82,0,0,0,739.18,409.12Z"/><polygon class="cls-8" points="766.29 436.77 766.29 448.13 730.28 449.72 730.28 438.55 766.29 436.77"/><path class="cls-9" d="M766.29,436.77v11.36l-14.85.65a17.89,17.89,0,0,0,5.44-5.78,16,16,0,0,0,2-5.86Z"/><path class="cls-10" d="M848.57,410.7a20.51,20.51,0,0,1-11-1.48c-7.25-3.4-10.91-11.79-9.18-21.15l10.87-.88,1,2.48-8.29.66c-1.36,7.31,1.51,13.86,7.17,16.51A15.88,15.88,0,0,0,847.5,408C847.85,408.91,848.21,409.8,848.57,410.7Z"/><path class="cls-10" d="M866.07,409.67a22.53,22.53,0,0,0,11.32-2.84C885,402.45,888.8,393.36,887,384l-11.33.67-1,2.65,8.61-.49c1.42,7.29-1.57,14.37-7.45,17.78a17.48,17.48,0,0,1-8.62,2.23C866.8,407.78,866.44,408.72,866.07,409.67Z"/><path class="cls-10" d="M868.68,433.63l-22.07,1.07a21.83,21.83,0,0,0,5.44-7.05,29,29,0,0,0,2.87-13.22l4.66-.27a27.15,27.15,0,0,0,3.57,13.62A18.45,18.45,0,0,0,868.68,433.63Z"/><path class="cls-11" d="M865,433.81l-18.43.89a21.83,21.83,0,0,0,5.44-7.05,29,29,0,0,0,2.87-13.22l3.29-.19a23.18,23.18,0,0,0,1.68,12A24.25,24.25,0,0,0,865,433.81Z"/><path class="cls-12" d="M853.49,429.4a30.07,30.07,0,0,1-3.29,5.13l-3.59.17a21.83,21.83,0,0,0,5.44-7.05,29,29,0,0,0,2.87-13.22l1.32-.07A27.16,27.16,0,0,1,853.49,429.4Z"/><path class="cls-11" d="M879.59,377.28c0,20.56-10,37.79-22.29,38.49h-.4a13.77,13.77,0,0,1-7-1.75h0a15.67,15.67,0,0,1-1.35-.82c-7.71-5.21-13.06-17.75-13.06-32.71Z"/><path class="cls-10" d="M872.21,434.45l-29.73,1.43a7.79,7.79,0,0,1,2.08-3.26,9.07,9.07,0,0,1,5.8-2.46l13.82-.7A7.85,7.85,0,0,1,872.21,434.45Z"/><path class="cls-12" d="M868.81,434.62l-26.33,1.26a7.79,7.79,0,0,1,2.08-3.26,9.07,9.07,0,0,1,5.8-2.46l10.44-.53A7.83,7.83,0,0,1,868.81,434.62Z"/><path class="cls-11" d="M868.81,434.62l-23,1.1a7.75,7.75,0,0,1,2.09-3.26A9.12,9.12,0,0,1,853.7,430l7.1-.36A7.83,7.83,0,0,1,868.81,434.62Z"/><polygon class="cls-7" points="874.76 446.05 840.1 447.54 840.1 435.02 874.76 433.34 874.76 446.05"/><polygon class="cls-7" points="877.48 448.86 837.47 450.53 837.47 447.65 877.48 445.93 877.48 448.86"/><polygon class="cls-13" points="867.37 393.39 862.41 398.13 863.73 404.15 857.45 401.76 851.33 405.12 852.38 398.94 847.31 395.03 854.18 393.58 857.16 387.77 860.38 393.07 867.37 393.39"/><path class="cls-10" d="M879.59,377.28c0,20.56-10,37.79-22.29,38.49h-.4a42.86,42.86,0,0,0,13-17.45,35.13,35.13,0,0,0,1.61-20.46Z"/><path class="cls-12" d="M849.85,414h0l-1.35-.82a50.63,50.63,0,0,1-8.85-17.64,50,50,0,0,1-1.7-15.26l5-.36A69.75,69.75,0,0,0,849.85,414Z"/><polygon class="cls-8" points="872.21 435.77 872.21 444.68 842.48 445.98 842.48 437.18 872.21 435.77"/><path class="cls-9" d="M872.21,435.77v8.91l-12.23.54a14.58,14.58,0,0,0,4.48-4.55,12.1,12.1,0,0,0,1.67-4.61Z"/><path class="cls-14" d="M641.94,422.89a15.63,15.63,0,0,1-9.13-1.4c-6-3.13-9-10.79-7.59-19.29l9-.74c.27.76.55,1.51.82,2.26l-6.86.55c-1.13,6.65,1.25,12.62,5.93,15.06a12.1,12.1,0,0,0,6.95,1.11Z"/><path class="cls-14" d="M656.4,422a17.11,17.11,0,0,0,9.33-2.53c6.23-3.94,9.41-12.17,7.9-20.68l-9.34.54-.84,2.4,7.1-.4c1.17,6.63-1.3,13-6.15,16.11a13.26,13.26,0,0,1-7.11,2Z"/><path class="cls-14" d="M658.54,443.82l-18.22.88a19.52,19.52,0,0,0,4.5-6.39,28.48,28.48,0,0,0,2.37-12l3.85-.22a26.51,26.51,0,0,0,3,12.39A16.3,16.3,0,0,0,658.54,443.82Z"/><path class="cls-15" d="M655.54,444l-15.22.74a19.52,19.52,0,0,0,4.5-6.39,28.48,28.48,0,0,0,2.37-12l2.71-.15a23.18,23.18,0,0,0,1.39,10.93A22.4,22.4,0,0,0,655.54,444Z"/><path class="cls-16" d="M646,439.91a27.43,27.43,0,0,1-2.71,4.65l-3,.14a19.52,19.52,0,0,0,4.5-6.39,28.48,28.48,0,0,0,2.37-12l1.08-.06A26.79,26.79,0,0,1,646,439.91Z"/><path class="cls-17" d="M667.54,392.69c0,18.67-8.27,34.27-18.39,34.85h-.33a10.65,10.65,0,0,1-5.82-1.63h0a13,13,0,0,1-1.12-.76c-6.37-4.77-10.79-16.2-10.79-29.82Z"/><path class="cls-14" d="M661.46,444.58l-24.56,1.18a7.36,7.36,0,0,1,1.72-3,7.15,7.15,0,0,1,4.8-2.21l11.42-.58A6.51,6.51,0,0,1,661.46,444.58Z"/><path class="cls-16" d="M658.65,444.71l-21.75,1.05a7.36,7.36,0,0,1,1.72-3,7.15,7.15,0,0,1,4.8-2.21l8.63-.44A6.49,6.49,0,0,1,658.65,444.71Z"/><path class="cls-17" d="M658.65,444.71l-19,.92a7.29,7.29,0,0,1,6.53-5.18l5.87-.3A6.49,6.49,0,0,1,658.65,444.71Z"/><polygon class="cls-7" points="663.56 455.12 634.93 456.35 634.93 444.96 663.56 443.58 663.56 455.12"/><polygon class="cls-7" points="665.8 457.68 632.76 459.06 632.76 456.44 665.8 455.03 665.8 457.68"/><polygon class="cls-14" points="657.47 407.25 653.37 411.54 654.46 417.02 649.28 414.8 644.22 417.83 645.09 412.21 640.9 408.64 646.58 407.36 649.04 402.1 651.7 406.92 657.47 407.25"/><path class="cls-14" d="M667.54,392.69c0,18.67-8.27,34.27-18.39,34.85h-.33a38.44,38.44,0,0,0,10.69-15.8,34.83,34.83,0,0,0,1.33-18.57Z"/><path class="cls-16" d="M643,425.92h0l-1.12-.76a48.48,48.48,0,0,1-7.31-16.08,50.1,50.1,0,0,1-1.41-13.89l4.15-.3a70.88,70.88,0,0,0,1.17,16.45A68.19,68.19,0,0,0,643,425.92Z"/><polygon class="cls-8" points="661.46 445.78 661.46 453.87 636.9 454.94 636.9 446.94 661.46 445.78"/><path class="cls-9" d="M661.46,445.78v8.09l-10.09.44a12.54,12.54,0,0,0,3.7-4.11,11.76,11.76,0,0,0,1.37-4.18Z"/><path d="M667.3,308.72,663,328.23l-4.9-18.47-6.69.75-5.06,19.14-4.16-18.1-5.66.64,6.54,26.24,6.05-.6L654.62,317l5.56,19.72,6-.6,6.86-28.05Z"/><path d="M675.58,315.34v19.85l5.46-.55V314.75Zm0-7.56v4.86L681,312v-4.87Z"/><path d="M705.43,316.11a5,5,0,0,0-1.09-2.11,4.88,4.88,0,0,0-2.31-1.37,8.47,8.47,0,0,0-3.37-.27,9.68,9.68,0,0,0-6.91,4.15v-2.93l-5.12.56v19.94l5.51-.55v-9a17.18,17.18,0,0,1,.42-4.64,4.49,4.49,0,0,1,1.57-2.17,5,5,0,0,1,2.58-1,3.25,3.25,0,0,1,1.93.32,2.49,2.49,0,0,1,1.16,1.36,14.54,14.54,0,0,1,.36,4.17v10.24l5.59-.55V319.67A15.17,15.17,0,0,0,705.43,316.11Z"/><path d="M730.66,313.41a4.65,4.65,0,0,0-3.5-3.52,8.64,8.64,0,0,0-3.45-.27,10,10,0,0,0-7.07,4.21v-3l-5.24.57v20.18l5.64-.56v-9.17a16.93,16.93,0,0,1,.44-4.69,4.55,4.55,0,0,1,1.6-2.2,5.2,5.2,0,0,1,2.65-1,3.29,3.29,0,0,1,2,.32,2.56,2.56,0,0,1,1.19,1.37,14.93,14.93,0,0,1,.36,4.22v10.37l5.72-.57V317A15.5,15.5,0,0,0,730.66,313.41Z"/><path d="M748.08,323.67a4.53,4.53,0,0,1-5.64-.08A4.81,4.81,0,0,1,741,320l14.6-1.52q.12-6.29-2.73-9c-1.9-1.82-4.49-2.54-7.76-2.19a10.92,10.92,0,0,0-7.19,3.67,12,12,0,0,0-2.84,8.26,10.32,10.32,0,0,0,2.15,6.82c1.83,2.13,4.64,3,8.46,2.64a11.8,11.8,0,0,0,6-2.17,10.27,10.27,0,0,0,3.55-4.9l-5.82-.31A4.91,4.91,0,0,1,748.08,323.67ZM742.36,313a4.7,4.7,0,0,1,3.14-1.63,3.79,3.79,0,0,1,3,.91,4.55,4.55,0,0,1,1.3,3.45l-8.68.91A5.21,5.21,0,0,1,742.36,313Z"/><path d="M770.78,304.47a5.49,5.49,0,0,0-2.58.95,11,11,0,0,0-2.54,3V305.5l-5.48.6v20.65l5.91-.59v-6.4a31,31,0,0,1,.49-7,4.89,4.89,0,0,1,1.36-2.43,3.82,3.82,0,0,1,2.11-.87,5.18,5.18,0,0,1,2.8.6l1.85-5A7.57,7.57,0,0,0,770.78,304.47Z"/><path d="M796.06,318.29V294.44l-6.39.72V323.8l22.45-2.24v-4.91Z"/><path d="M816.71,299.93v21.18l6.22-.62V299.25Zm0-8.07v5.19l6.22-.69v-5.2Z"/><path d="M847.44,307.11c-1.34-.86-3.71-1.45-7.08-1.78s-5.34-.65-5.9-1a1.08,1.08,0,0,1-.63-1,1.49,1.49,0,0,1,.72-1.22,8.07,8.07,0,0,1,3.57-1,5.48,5.48,0,0,1,3,.34,2.85,2.85,0,0,1,1.45,1.76l6-1.63a6.41,6.41,0,0,0-3.31-3.89c-1.61-.78-4-1-7.31-.64-3.44.38-6,1.29-7.58,2.72a6.42,6.42,0,0,0-2.43,4.92,4.72,4.72,0,0,0,2.81,4.49c1.36.69,4.58,1.28,9.68,1.75a5,5,0,0,1,2.12.54,1.29,1.29,0,0,1,.45,1,2,2,0,0,1-.84,1.6,7.46,7.46,0,0,1-3.69,1.18,5.76,5.76,0,0,1-3.47-.5,3.57,3.57,0,0,1-1.63-2.34l-6.3,1.51a7.13,7.13,0,0,0,3.69,4.42c1.89,1,4.45,1.32,7.71,1,3.58-.36,6.3-1.34,8.14-2.93a7,7,0,0,0,2.77-5.36A4.47,4.47,0,0,0,847.44,307.11Z"/><path d="M866.19,311.36a9.78,9.78,0,0,1-2.61.82,1.93,1.93,0,0,1-1.09-.18,1.08,1.08,0,0,1-.57-.66,18,18,0,0,1-.13-3.07v-8.71l4.41-.47v-4.57l-4.41.49v-7.64l-6.46,4.05v4.29l-2.94.32v4.54l2.94-.32v9.39a22.21,22.21,0,0,0,.22,4,4.46,4.46,0,0,0,.89,2.13,4,4,0,0,0,2.06,1.14,8.35,8.35,0,0,0,3.13.21,15.32,15.32,0,0,0,5.11-1.37Z"/><path d="M727.62,267.73l-3.19,12.7c-.41,1.62-.74,3-1,4.28a45.74,45.74,0,0,0-1.58-6.57l-2.9-9.3-3.21.42-3.82,13.34c-.09.32-.39,1.52-.91,3.61-.23-1.25-.51-2.52-.84-3.78l-3-12.06-2.71.34,5.3,18.32,2.7-.32,4.27-15c.18-.65.38-1.41.58-2.32.07.27.28,1,.64,2.16l4.25,14,2.59-.31,5.58-19.85Z"/><path d="M744.89,277.79a6.49,6.49,0,0,0-1.89-5.13,5.92,5.92,0,0,0-4.89-1.29,7.78,7.78,0,0,0-5,2.57,8.29,8.29,0,0,0-1.92,5.69,6.32,6.32,0,0,0,1.9,5,6.39,6.39,0,0,0,5.17,1.26,8,8,0,0,0,4.26-1.7,6.92,6.92,0,0,0,2.3-3.61l-2.62,0a5.38,5.38,0,0,1-1.56,2.38,4.5,4.5,0,0,1-2.37,1,3.81,3.81,0,0,1-3.1-.85,4.5,4.5,0,0,1-1.39-3.34l11.11-1.36C744.89,278.15,744.89,277.94,744.89,277.79Zm-11,0a4.77,4.77,0,0,1,4.22-4.53,3.51,3.51,0,0,1,3.13,1,4,4,0,0,1,1,2.52Z"/><path d="M761.08,275.8q0-3.49-1.94-5.16a6,6,0,0,0-5-1.3,7.84,7.84,0,0,0-5.08,2.6,8.29,8.29,0,0,0-2,5.72,6.37,6.37,0,0,0,1.93,5.08,6.48,6.48,0,0,0,5.24,1.26,8.2,8.2,0,0,0,4.34-1.71,7,7,0,0,0,2.33-3.64l-2.66,0a5.53,5.53,0,0,1-1.58,2.39,4.77,4.77,0,0,1-2.41,1,3.91,3.91,0,0,1-3.15-.86,4.54,4.54,0,0,1-1.41-3.36l11.28-1.39C761.07,276.16,761.08,276,761.08,275.8Zm-11.15.06a4.8,4.8,0,0,1,4.28-4.56,3.62,3.62,0,0,1,3.18,1,4.09,4.09,0,0,1,1,2.55Z"/><path d="M770.47,272.85l5.88-6-3.37.43-6.15,6.52V262.68l-2.59.34V282.5l2.59-.31v-5.61l1.83-1.84,5.07,6.62,3.21-.38Z"/><path d="M779,261.12v19.62l2.63-.32V260.78Z"/><path d="M795.82,264.4l-3.35,8.75a34.27,34.27,0,0,0-1.09,3.39,30.2,30.2,0,0,0-1.13-3.17L787,265.52l-2.83.35,5.9,13.56-.23.62a12.69,12.69,0,0,1-.81,1.89,2.62,2.62,0,0,1-.86.86,3.5,3.5,0,0,1-1.41.44,6.53,6.53,0,0,1-1.51,0l.3,2.23a5.25,5.25,0,0,0,1.69.1,4.51,4.51,0,0,0,2.17-.81,5.9,5.9,0,0,0,1.62-1.94,31.63,31.63,0,0,0,1.48-3.42l6-15.29Z"/><path class="cls-18" d="M775.47,499.46l-54,1.11a8.1,8.1,0,0,1-8.51-7.86h0a8.58,8.58,0,0,1,8.51-8.27l54-1.52c4.95-.14,9,3.48,9,8.05h0C784.48,495.54,780.42,499.36,775.47,499.46Z"/><path class="cls-18" d="M887.87,497l-59.74,1.24c-5.18.11-9.4-3.61-9.4-8.25h0c0-4.64,4.22-8.56,9.4-8.71l59.74-1.68c5.49-.16,10,3.65,10,8.46h0C897.86,492.85,893.36,496.88,887.87,497Z"/><path class="cls-18" d="M674,501.55l-49.2,1a7.54,7.54,0,0,1-7.76-7.51h0a8,8,0,0,1,7.76-7.89l49.2-1.39a7.83,7.83,0,0,1,8.2,7.69h0A8.3,8.3,0,0,1,674,501.55Z"/><line class="cls-19" x1="706.12" y1="515.37" x2="791.8" y2="513.98"/><line class="cls-19" x1="706.15" y1="526.53" x2="791.83" y2="525.59"/><line class="cls-19" x1="609.47" y1="516.71" x2="687.41" y2="515.44"/><line class="cls-19" x1="609.5" y1="527.36" x2="687.44" y2="526.5"/><line class="cls-19" x1="811.29" y1="513.93" x2="905.82" y2="512.41"/><line class="cls-19" x1="811.32" y1="525.64" x2="905.85" y2="524.61"/><path class="cls-20" d="M749.35,392.81h-2.2v-8.45a7.5,7.5,0,0,1-2.85,1.7v-2a6.41,6.41,0,0,0,1.87-1.09,4.08,4.08,0,0,0,1.39-1.87h1.79Z"/><path class="cls-20" d="M646.7,412.32l1.36-.17a1.32,1.32,0,0,0,.35.81.94.94,0,0,0,.69.28.92.92,0,0,0,.73-.34,1.28,1.28,0,0,0,.29-.9,1.21,1.21,0,0,0-.28-.85.9.9,0,0,0-.69-.32,2.52,2.52,0,0,0-.65.11l.16-1.16a1.21,1.21,0,0,0,.87-.26.88.88,0,0,0,.3-.7.85.85,0,0,0-.22-.6A.81.81,0,0,0,649,408a.83.83,0,0,0-.61.26,1.15,1.15,0,0,0-.31.74l-1.3-.22a3,3,0,0,1,.41-1.08,1.92,1.92,0,0,1,.76-.64,2.56,2.56,0,0,1,1.09-.23,2.16,2.16,0,0,1,1.66.67,1.78,1.78,0,0,1,.51,1.24,1.74,1.74,0,0,1-1.05,1.56,1.78,1.78,0,0,1,1,.62,1.8,1.8,0,0,1,.37,1.15,2.25,2.25,0,0,1-.7,1.67,2.4,2.4,0,0,1-1.75.69,2.36,2.36,0,0,1-1.65-.58A2.28,2.28,0,0,1,646.7,412.32Z"/><path class="cls-20" d="M859.66,399.27v1.33h-4.95a3.73,3.73,0,0,1,.48-1.43,9.48,9.48,0,0,1,1.59-1.79,8.87,8.87,0,0,0,1.17-1.23,1.61,1.61,0,0,0,.29-.87,1,1,0,0,0-.25-.74,1.07,1.07,0,0,0-1.41,0,1.45,1.45,0,0,0-.3.9l-1.4-.14a2.34,2.34,0,0,1,.79-1.7,2.56,2.56,0,0,1,1.65-.52,2.34,2.34,0,0,1,1.71.6,2,2,0,0,1,.63,1.48,2.56,2.56,0,0,1-.18,1,3.78,3.78,0,0,1-.57,1,8.92,8.92,0,0,1-.92,1c-.45.41-.73.69-.85.82a2.94,2.94,0,0,0-.28.4Z"/><path d="M825.43,162.31v5.88c0,8.09-7.32,15.89-16.21,17.32L690.35,204.62c-7.9,1.27-14.34-3.88-14.34-11.43V187.7a14.63,14.63,0,0,1,1.26-5.83L823.54,155.8A11.69,11.69,0,0,1,825.43,162.31Z"/><polygon class="cls-21" points="665.41 669.84 644.44 711.59 641.45 700.2 631.91 703.38 649.93 661.79 665.41 669.84"/><polygon class="cls-21" points="661.83 662.67 682.37 715.6 670.23 706.49 666.32 717.02 646.5 667.43 661.83 662.67"/><path class="cls-22" d="M687.15,666.24c-1,16.12-15.29,26.18-30.61,23.63-13.94-2.32-24.9-14.59-25.61-28.25a25.46,25.46,0,0,1,25.55-27.09C673.68,634.33,688.18,649,687.15,666.24Z"/><path class="cls-21" d="M678.46,664.67c-.45,11.09-10.08,18.41-20.83,16.89-10-1.42-18-10.23-18.4-20.1a17.71,17.71,0,0,1,18.36-18.59C669.23,643.07,678.93,653.06,678.46,664.67Z"/><path class="cls-23" d="M889.67,608l-156.22-4.38c-6.43-.18-11.67-5.17-11.67-11.09v-4.65c0-5.91,5.24-10.67,11.67-10.57l156.22,2.42c7.48.11,13.63,5.47,13.63,11.9v5C903.3,603.09,897.15,608.17,889.67,608Z"/><path class="cls-23" d="M889.67,656.25l-156.22-7.72c-6.43-.32-11.67-5.42-11.67-11.34v-4.65c0-5.91,5.24-10.56,11.67-10.32L889.67,628c7.48.28,13.63,5.77,13.63,12.2v5.05C903.3,651.66,897.15,656.62,889.67,656.25Z"/><path class="cls-23" d="M889.67,704.54,733.45,693.46c-6.43-.45-11.67-5.66-11.67-11.58v-4.65c0-5.92,5.24-10.45,11.67-10.08l156.22,9.12c7.48.43,13.63,6.06,13.63,12.49v5C903.3,700.24,897.15,705.07,889.67,704.54Z"/><path class="cls-23" d="M889.67,752.82,733.45,738.4c-6.43-.59-11.67-5.92-11.67-11.83v-4.65c0-5.92,5.24-10.34,11.67-9.83l156.22,12.46c7.48.6,13.63,6.35,13.63,12.79v5C903.3,748.82,897.15,753.51,889.67,752.82Z"/><path class="cls-23" d="M889.67,801.11,733.45,783.34c-6.43-.73-11.67-6.17-11.67-12.08v-4.65c0-5.92,5.24-10.23,11.67-9.58l156.22,15.81c7.48.76,13.63,6.64,13.63,13.07V791C903.3,797.4,897.15,802,889.67,801.11Z"/><path class="cls-24" d="M722.05,537.69c0,40.07-50.08,66.36-101.21,60-42.24-5.21-71.45-31.75-71.45-60s29.21-54.83,71.45-60.05C672,471.33,722.05,497.62,722.05,537.69Z"/></g><g id="Layer_1" data-name="Layer 1"><path d="M488.11,575.09q-73.26,1.9-146.52,4a13.13,13.13,0,0,0-7.13-9c2.55-74.14,6.75-129.87,9.64-153.24,1-8.37,3.09-22.31,13-34.51a42.47,42.47,0,0,1,15.21-12.76c8.75-4.08,77-13.53,109.24,31.36,13.3,18.52,14,39.5,14.77,80.7A438.78,438.78,0,0,1,488.11,575.09Z"/><path class="cls-25" d="M440.79,491.38l47.74,16.31L430.06,614.23l-53.64-113.4,17.62-5.3A73.18,73.18,0,0,0,399.93,476,74.54,74.54,0,0,0,397,441.5L436.2,443Z"/><path class="cls-26" d="M439.64,500.35c-.93,3.29-1.74,4-2,4.19-1.64,1.32-4,1-6.05.43-11.41-3.38-19.13-13.77-25.66-23.72q-4.41-6.72-8.62-13.58a6.32,6.32,0,0,1-1.29-3.5,6.45,6.45,0,0,1,.89-2.59l4-7.9c3.29,3.47,8.27,4.56,12.69,6.35,7.66,3.11,20.6,9.36,24,15.2a22.07,22.07,0,0,1,1.87,4.37,27.28,27.28,0,0,1,.79,5.47c.37,4,.55,6,.55,6.31A31.26,31.26,0,0,1,439.64,500.35Z"/><path class="cls-27" d="M453.91,323.61c5.94,1.19,21.15,5,32.28,17.7,13.67,15.55,15.7,38.14,5.64,58.34,8.67,11.09,7.77,19.83,7.28,22.69-1.07,6.21-4.9,11.2-12.55,21.19-.39.51-.64.82-.84,1.07l-.65.8c-.76.91-5.86,7.06-8.11,10.21-2.64,3.71-2.37,4.73-5,9.62a68.12,68.12,0,0,1-9.3,13,55.24,55.24,0,0,1-24.05,2.08c-.75-.11-1.85-.26-3.28-.54a53.62,53.62,0,0,1-14.76-5.39c-10.62-5.51-15.93-8.26-20.78-12.68-11-10-15-23.15-16.58-31.29-1.57.5-14.94,4.51-24.17-2.82-10.09-8-12.05-27.07-.1-42.32a13.65,13.65,0,0,1,10.84-.86A11.05,11.05,0,0,1,377,394a222.7,222.7,0,0,1,15.86-38.43,233,233,0,0,1,23.83-36.47Z"/><path d="M451.81,374.34a58.08,58.08,0,0,1-10.89.43c-5.76-.32-9.05-1.38-13.21-2.27-9.88-2.11-18.44-3.93-25.07-.63-2.13,1.07-8.06,4.65-11,16.48a23.61,23.61,0,0,1,10.82-9.51,22.37,22.37,0,0,1,6.17-1.59c1.78.11,4.62.33,8.08.87,9,1.42,12.38,3.52,19.52,4a45,45,0,0,0,9.77-.45,11.29,11.29,0,0,0,3.73-3.09A11.16,11.16,0,0,0,451.81,374.34Z"/><path class="cls-28" d="M404.26,389c2.91,1.41-12.41,21.4-7.13,46.72a54.76,54.76,0,0,0,12.6,25c14.58,16.16,34.81,18.47,40.09,18.91a53.79,53.79,0,0,1-10.76.05c-1.79-.17-9-.95-19.73-5.77-7.24-3.25-14.42-6.49-21.41-13.49a53.28,53.28,0,0,1-13.25-22.32,53.42,53.42,0,0,1,.53-18.86C389,401.28,401.8,387.83,404.26,389Z"/><path d="M474.57,335.2c-5.56-1.68-13.59-3.09-21.1.31-9.36,4.25-11.35,13-17.24,23.47-11.79,21-29.88,41.48-44.53,47.76-7.67,3.29-13.5,2-17.38,7.23-5.24,7.09-2.32,18.16.89,26.31-8.64,5.35-11.9,5.81-13,4.72s-1.25-4.71-1.25-4.71-4.62,1.55-5.25.58,2.14-3.63,2.24-3.56-2.24,3.56-2.24,3.56l-5.31-.59s-6.05-4.83-6.5-9.46c-.2-2,.58-4.83,4.71-8.52-3.29.11-4.46.22-4.46.33s3.76.91,4.46-.33q-2.85,4.9-3.8,4.56-1.26-.47.86-10.21l1.77-7.09a68,68,0,0,1,.59-7.09c.62-4.47,1.34-6.27,1.77-9.45a37.31,37.31,0,0,0-.23-10.7c-1.27-10.23-.67-32.42,1.55-45.8,1.66-10,4.17-24,14-36.19,17.54-21.82,51.12-24.63,73-19.22,5.94,1.47,20.32,5,32,17.68a56.1,56.1,0,0,1,8.69,12.45,17,17,0,0,1,9,1.47,16.75,16.75,0,0,1,6.14,4.89,30.91,30.91,0,0,1,3.15,6.59,31.49,31.49,0,0,1,1.67,9.83c.3,11.82,10.68,24.94,10.37,36.89-.17,6.61-3.69,16.14-20.1,27.57,1.44-3.21,11.85-27.39-.72-48.76A45.83,45.83,0,0,0,474.57,335.2Z"/><path d="M499.64,378.74a31.74,31.74,0,0,0-9.8-15,68.76,68.76,0,0,0-11.22,4.7c-3.31,1.73-5.39,2.83-7.4,4.74-1.68,1.59-5.27,5.6-6.37,13.49a128,128,0,0,1,12-9.7,129.46,129.46,0,0,1,11-7,28.5,28.5,0,0,1,5.8,3.14A29,29,0,0,1,499.64,378.74Z"/><path class="cls-29" d="M413.42,402.91c.16.2.5.6,1,1.13l.31.32h0a23.26,23.26,0,0,0,14.06,6.8c.56.06,1.14.09,1.73.1,11.18.18,17.71-8.16,18.38-9l-7-4-10.57-6.07-5.94,3.56-10.73,6.45Z"/><path class="cls-30" d="M448.91,402.22A30.71,30.71,0,0,0,414.42,404l15.73-13Z"/><path d="M401.6,398.84a23.15,23.15,0,0,0,6.57,4.28,23.75,23.75,0,0,0,6,1.69l.32,0h0a94.06,94.06,0,0,1,8.09-6.05c1.21-.81,2.4-1.56,3.56-2.26,1.65-1,3.23-1.88,4.75-2.69,2.62,1.11,5.31,2.29,8.06,3.56l2.73,1.29c2.49,1.2,4.89,2.41,7.2,3.61a40.71,40.71,0,0,0-20.52-13.55,29.29,29.29,0,0,0-15.18,10.56,16.05,16.05,0,0,1-3.76.76A17,17,0,0,1,401.6,398.84Z"/><ellipse class="cls-20" cx="431.67" cy="403.8" rx="1.63" ry="3.66" transform="translate(26.47 834.16) rotate(-89.81)"/><path class="cls-29" d="M469.34,403.29c.51.73,5,6.82,11.84,7.68a13.17,13.17,0,0,0,3.14,0c.45-.06.89-.13,1.32-.23,5.28-1.21,8.57-5.51,10-7.92h0c.08-.12.15-.23.21-.34.33-.58.55-1,.65-1.21l-1.05-.67-6.09-3.89-2.78-1.77-4.91-3.13-4.13,3.82-3.33,3.09-4.16,3.87-.17.14Z"/><path class="cls-30" d="M469.7,402.94c.08-.06.15-.14.23-.21l.17-.14a19.59,19.59,0,0,1,10.39-4.91l.64-.08a19.61,19.61,0,0,1,11.67,2.76,23.8,23.8,0,0,1,3.1,2.12l-6.49-5.77-6.87-6.1-5.17,5-4,3.88Z"/><path d="M469.12,402.91c1.35-1.15,2.76-2.3,4.21-3.45l.93-.73,2-1.51c.61-.47,1.23-.93,1.85-1.38,1.33-1,2.65-1.92,3.94-2.82q1.88,1,3.91,2.35c1,.61,1.95,1.28,2.95,2q2.1,1.5,3.93,3c1,.84,2,1.66,2.88,2.47h0l.24-.07a14.94,14.94,0,0,0,4.44-2.16,18.24,18.24,0,0,0,4.58-4.81,10.3,10.3,0,0,1-5.88,1.86,10,10,0,0,1-2.95-.48,27.28,27.28,0,0,0-5.94-6.12,20.31,20.31,0,0,0-6.76-3.34,28.72,28.72,0,0,0-8.15,6.13c-.56.6-1.09,1.2-1.58,1.81h0A37.56,37.56,0,0,0,469.12,402.91Z"/><ellipse class="cls-20" cx="482.68" cy="403.56" rx="2.81" ry="1.65" transform="translate(-39.3 52.32) rotate(-5.96)"/><path class="cls-31" d="M470.65,422.3a14.69,14.69,0,0,0-2.92,2.61,11.76,11.76,0,0,1-7.91,3.19,17.88,17.88,0,0,0-3.51.08,3,3,0,0,0-2.47,2.19,2.75,2.75,0,0,0,1.31,2.57,7.18,7.18,0,0,0,2.87,1,40.11,40.11,0,0,0,8,.53,4.83,4.83,0,0,0,2.52-.58,4.71,4.71,0,0,0,1.13-1.14,28.65,28.65,0,0,0,4-7.23c.34-.89,1.1-2.16.41-3S471.54,421.81,470.65,422.3Z"/><ellipse class="cls-20" cx="469.4" cy="423.56" rx="0.91" ry="1.35" transform="translate(20.66 868.96) rotate(-86.85)"/><path class="cls-20" d="M466.26,420.79a1.85,1.85,0,0,0-.46-.77c-.21-.26-.42-.52-.61-.8-.4-.54-.82-1.06-1.19-1.62s-.77-1.06-1.14-1.61c-.18-.27-.36-.56-.53-.85a2,2,0,0,0-.52-.7.07.07,0,0,0-.09,0,1.61,1.61,0,0,0,.16.86c.11.33.24.66.37,1a8.77,8.77,0,0,0,1,1.88,12.7,12.7,0,0,0,1.32,1.61c.25.24.51.48.78.71a1.63,1.63,0,0,0,.81.45c.1,0,.16-.1.14-.17Z"/><path class="cls-20" d="M454.33,445.59a28.45,28.45,0,0,1,5.24-1.43,9.09,9.09,0,0,1,5.23.61c.71.34,1.42,1,1.36,1.73a2.33,2.33,0,0,1-.44,1,12.15,12.15,0,0,1-7.21,5c-2.76.66-7.92.42-9.54-2.16C447.13,447.48,452.48,446.23,454.33,445.59Z"/><path class="cls-32" d="M469.32,446.44c-2.56,8.37-5.94,11.14-8.7,12-9.15,3-23.75-10.63-23.75-10.63L449.8,450c5.05.84,7.62,1.24,10.36.12a12.82,12.82,0,0,0,5.69-4.85Z"/><path class="cls-33" d="M471,444.32a2.61,2.61,0,0,1-1.75.41c-1.09-.19-1.49-1.25-2.46-2.19a9.27,9.27,0,0,0-3.62-1.73c-4-1.15-8.62,4-14.8,6.32a22.86,22.86,0,0,1-12.32.8c6.59,2.7,11.23,2.26,14.22,1.39,5.54-1.62,8.58-5.63,13-4.52,2.43.62,4.24,2.53,6.07,1.64A3.6,3.6,0,0,0,471,444.32Z"/><path class="cls-33" d="M474.49,444.58a3.35,3.35,0,0,1-.13-.95,1.7,1.7,0,0,0-.15-.41,1.1,1.1,0,0,0-.45-.57c-.38-.24-.76-.47-1.16-.68-.2-.12-.41-.22-.62-.32l-.28-.13a1,1,0,0,0-.28-.13,1,1,0,0,0-.41,0,.66.66,0,0,0-.39,1c.17.32.59.44.9.58s.57.25.86.36l.76.27a1.55,1.55,0,0,0,.47.12h.21s0,0,0,0l-.14-.08a1.32,1.32,0,0,1,.18.59.87.87,0,0,0,.34.62c.17.13.34-.12.27-.27Z"/><path class="cls-33" d="M472.74,442.58a3.09,3.09,0,0,0-2.05,1.24c-.62.75-1.23,1.72-2.29,1.79-1.33.08-2.49-.81-3.69-1.24a8,8,0,0,0-3.83-.29c-2.82.4-5.27,1.88-7.8,3.1a19.76,19.76,0,0,1-7.79,2,17.19,17.19,0,0,1-4.41-.36c-1.38-.29-2.69-.94-4.09-1.1-.16,0-.21.21-.12.31a6.79,6.79,0,0,0,3.32,1.71,18.71,18.71,0,0,0,11.8-.45c2.71-1.06,5.14-2.79,8-3.58a7.86,7.86,0,0,1,4.08-.19c1.32.35,2.43,1.21,3.8,1.4a3.34,3.34,0,0,0,3.29-1.43c.59-.86.87-2.14,1.91-2.59a.18.18,0,0,0-.09-.33Z"/><path class="cls-33" d="M438.43,448.5a1.23,1.23,0,0,0-.36-.23,5,5,0,0,1-.49-.2,5.87,5.87,0,0,1-.88-.5A7,7,0,0,1,436,447a4.17,4.17,0,0,1-.37-.36.93.93,0,0,0-.48-.34c-.21-.05-.49.1-.46.35a.83.83,0,0,0,.32.58c.15.13.3.26.46.38a4.63,4.63,0,0,0,.92.52,7.39,7.39,0,0,0,1,.39l.54.12a.58.58,0,0,0,.23,0,1.22,1.22,0,0,0,.26-.06,0,0,0,0,0,0-.06Z"/><path class="cls-33" d="M438.66,444.59a1.8,1.8,0,0,0-.69-.09,2.29,2.29,0,0,0-.52.05l-.2,0-.15,0a8.66,8.66,0,0,0-1.81.36,4.26,4.26,0,0,0-1.77,1.14,3.91,3.91,0,0,0-.54.9c-.18.34-.39.66-.6,1s-.4.59-.6.89-.44.63-.33.95c.25.74,1.14-.22,1.39-.47a11.42,11.42,0,0,1,1.5-1.45c.27-.19.54-.37.8-.59a1.18,1.18,0,0,1,.25-.19l.2-.12s.22-.11.09-.05c.59-.26,1.26-.32,1.87-.54s1.43-.64,1.4-1.45a.41.41,0,0,0-.29-.38Z"/><path d="M391.68,401.44a61.2,61.2,0,0,0-6.21,16.6,62.31,62.31,0,0,0,.45,27.85L353,431.51q5.5-14.24,11-28.45Z"/><path d="M436.38,393.57a11.2,11.2,0,0,0-5.2,13.05,5.63,5.63,0,0,0,3,3.61c1.59.62,3.39.08,5-.62a25.33,25.33,0,0,0,9.3-7.14l-9-7.15a6.93,6.93,0,0,0-3.06-1.69,2.4,2.4,0,0,0-2.79,1.57"/><path d="M436.36,393.5c-4.18,1.59-6.4,6.9-5.91,11.12.26,2.2,1.23,4.79,3.39,5.78,2.5,1.14,5.48-.39,7.65-1.63a26,26,0,0,0,7.15-6.06.34.34,0,0,0,0-.47q-4.53-3.62-9-7.26c-1.08-.88-2.34-1.85-3.82-1.79a2.67,2.67,0,0,0-2.59,1.91.38.38,0,0,0,.74.2c.36-1.23,1.83-1.5,2.91-1.13a14.19,14.19,0,0,1,3.77,2.58c2.53,2,5,4,7.53,6v-.47a25.08,25.08,0,0,1-5.6,5.08,27.3,27.3,0,0,1-3.16,1.79,8.46,8.46,0,0,1-3.92,1.09c-2.61-.08-4-2.72-4.38-5a11,11,0,0,1,.72-6.18,13,13,0,0,1,4.59-5.42c.06,0,0-.15-.05-.12Z"/><path d="M486.66,392.73a19.89,19.89,0,0,0-3.8,6.43,11.76,11.76,0,0,0-.15,7.39c.62,1.83,2.08,3.63,4,3.68,1.58,0,2.94-1.08,4-2.21a31.69,31.69,0,0,0,4.43-5.75,2.46,2.46,0,0,0,.5-1.8,2.6,2.6,0,0,0-.73-1.05,38.67,38.67,0,0,0-9.26-6.75"/><path d="M486.58,392.65a16,16,0,0,0-4.54,8.81c-.42,2.86.06,6.51,2.57,8.34,2.83,2.07,5.62-.62,7.44-2.69a32.55,32.55,0,0,0,3.09-4.12,5,5,0,0,0,.9-1.9,2.21,2.21,0,0,0-.84-1.89,38.53,38.53,0,0,0-9.32-6.8c-.36-.19-.68.35-.32.54A38.6,38.6,0,0,1,493,398c.55.47,1.08,1,1.59,1.47.72.71,1,1.25.55,2.24a22.38,22.38,0,0,1-2.7,3.92c-1.52,1.88-4.11,5.29-6.92,4s-3.27-5-3-7.64a14.33,14.33,0,0,1,1.56-5.06,39.89,39.89,0,0,1,2.69-4.12.12.12,0,0,0-.19-.15Z"/></g><g id="Layer_2" data-name="Layer 2"><path class="cls-34" d="M240.09,589.21c.13,4.07-1.05,6.14-2.9,7.4-3.08,2.09-8,1.94-12,5a11.39,11.39,0,0,0-1.62,1.51q-1.44-2.13-2.79-4.36c-7.18-11.83-12.53-25.54-16.9-38.85-.71-2.18-1.4-4.35-2.07-6.49-.26-.83-.51-1.66-.76-2.48-.38-1.25-.75-2.52-1.06-3.8-.89-3.57-1.34-7.23-.38-10.73a3.43,3.43,0,0,1,1.12-2c.91-.67,2.18-.43,3.28-.14,2.79.74,5.55,1.62,8.25,2.63a86.83,86.83,0,0,1,16.35,8.2,14.51,14.51,0,0,1,4.46,3.92,10.63,10.63,0,0,1,1.44,3.71,31.13,31.13,0,0,1,.48,3.47c.22,2.13.54,4.29.91,6.47,1.32,7.83,3.34,15.87,4,23.53Q240,587.73,240.09,589.21Z"/><path class="cls-35" d="M339.33,620.12c-6.77,14.59-12,25.06-13,26.58l-1.77,2.72c-.31.48-.63,1-.95,1.43-4.57,6.9-9.2,13.29-13.77,19.18-5.9,7.59-11.68,14.35-17.13,20.27a123.39,123.39,0,0,1-47.64-50.95,120.94,120.94,0,0,1-5.91-13.91c-1.12-3.19-2.13-6.46-3.39-9.6-.52-1.33-1.09-2.64-1.73-3.91a26.65,26.65,0,0,0-8.81-10.35l-.43-.31c-1.27-.9-2.61-1.74-4-2.54-7.37-4.34-15.71-7.64-20.54-14.44-5.45-7.67-5.11-17.61-2.88-27.56.32-1.47.69-2.94,1.1-4.4.47-1.75,1-3.5,1.53-5.22.39-1.25.79-2.49,1.19-3.71a23.85,23.85,0,0,0,1.6,10.28,26.46,26.46,0,0,0,5.41,8.51,27.43,27.43,0,0,0,12,7.4,25.57,25.57,0,0,0,9.23,1.08c.06-1.13.16-2.25.32-3.38a43.14,43.14,0,0,1,4.8-14.55,31.13,31.13,0,0,1,.48,3.47c.22,2.13.54,4.29.91,6.47a43.94,43.94,0,0,0,.19,12.17,37.17,37.17,0,0,0,1,4.54,32.66,32.66,0,0,0,2.78,6.82,41.44,41.44,0,0,0,5.16,7.29c5,5.82,12.19,12.11,22.19,22.76l2,2.16c2.52,2.74,4.88,5.38,7.05,7.9,6,7,10.76,13,14.13,17.46l6.22-12a1.19,1.19,0,0,1,.08-.16c.36-.7.72-1.4,1.09-2.09l2.82-5.42,9.83-18.92a90.5,90.5,0,0,0,12.76,6.49c2.23.93,4.4,1.72,6.48,2.4Z"/><path class="cls-35" d="M338.89,619.87Q335,628.17,331,636.39c-1.49,3.06-3,6.13-4.61,9.12-.68,1.26-1.5,2.43-2.28,3.63q-2.77,4.22-5.67,8.35-5.76,8.21-12,16Q299.68,682,292.35,690l.61-.08a122.92,122.92,0,0,1-46.77-49.41,133.58,133.58,0,0,1-7.78-18.76c-2.06-6.09-4.28-12.38-8.86-17.08-4.29-4.4-9.93-7.15-15.26-10.07-4.88-2.67-9.93-5.59-13.32-10.14-7.72-10.38-4.26-24.77-.8-36.07.49-1.61,1-3.21,1.53-4.8l-1-.14c-.72,11.82,7.38,22.63,18.41,26.38a26.89,26.89,0,0,0,10.3,1.39.51.51,0,0,0,.5-.5A42.53,42.53,0,0,1,235,553l-.92-.12c.42,2.06.54,4.18.82,6.26.15,1,.35,2.07.48,3.11a18.81,18.81,0,0,1-.17,3.26,42.87,42.87,0,0,0,.72,11A35.14,35.14,0,0,0,239.78,587a46.65,46.65,0,0,0,6.23,8.3c3.92,4.32,8.18,8.33,12.3,12.45,5.67,5.67,11.19,11.5,16.47,17.54S285.17,637.61,290,644a.52.52,0,0,0,.87,0q5.14-9.93,10.32-19.86l7-13.46c.9-1.75,1.81-3.49,2.72-5.24l-.68.18a92.36,92.36,0,0,0,13.81,6.93c1.25.5,2.51,1,3.78,1.42a11.64,11.64,0,0,1,2.14.85c.58.35,1.15.72,1.72,1.08l7.38,4.62c.55.34,1.05-.53.51-.87l-7.39-4.61L330.47,614a8.79,8.79,0,0,0-1.87-.78c-1.26-.43-2.51-.9-3.75-1.39a89.71,89.71,0,0,1-14.11-7,.51.51,0,0,0-.68.18l-6.45,12.41c-2,3.89-4,7.79-6.06,11.67-2.53,4.82-5,9.65-7.54,14.48h.87a342.24,342.24,0,0,0-29.64-34.23c-4.28-4.34-8.71-8.53-12.9-12.94a61,61,0,0,1-6-7.14,33.78,33.78,0,0,1-4.87-10.42,40.86,40.86,0,0,1-1.34-12.21c0-1.21.19-2.41.26-3.62a16.37,16.37,0,0,0-.43-3.25c-.35-2.36-.47-4.77-.94-7.11a.51.51,0,0,0-.92-.12,43.81,43.81,0,0,0-5.18,18.18l.5-.5a26.68,26.68,0,0,1-26.27-17,23.76,23.76,0,0,1-1.44-9.78c0-.58-.82-.64-1-.13a108.85,108.85,0,0,0-4.94,19.62c-.76,5.85-.62,12,1.73,17.5,4.86,11.35,17.58,14.7,26.91,21.24a27.65,27.65,0,0,1,7,6.9,42,42,0,0,1,4.38,8.89c1.22,3.27,2.24,6.6,3.44,9.87s2.5,6.34,3.94,9.42a124,124,0,0,0,45.58,51.8c1.2.76,2.42,1.5,3.64,2.23a.53.53,0,0,0,.61-.08,319.41,319.41,0,0,0,24.66-30.38q3-4.23,5.91-8.57c1.13-1.69,2.34-3.37,3.35-5.13,1.51-2.62,2.81-5.39,4.15-8.1q4.42-9,8.63-18.1C340,619.8,339.17,619.29,338.89,619.87Z"/><rect class="cls-36" x="97.93" y="467.92" width="116.95" height="173.77" transform="translate(-201.45 102.91) rotate(-22.63)"/><rect class="cls-37" x="154.22" y="514.76" width="33.08" height="23.32" transform="translate(-183.52 101.26) rotate(-21.83)"/><rect class="cls-23" x="126.09" y="552.5" width="31.7" height="70.62" transform="translate(-208.42 94.94) rotate(-21.83)"/><g class="cls-38"><line class="cls-39" x1="93.31" y1="518.35" x2="175.2" y2="485.54"/><line class="cls-39" x1="97.45" y1="528.67" x2="179.34" y2="495.86"/><line class="cls-39" x1="101.58" y1="538.99" x2="183.47" y2="506.19"/><line class="cls-39" x1="105.72" y1="549.32" x2="187.61" y2="516.51"/><line class="cls-39" x1="109.85" y1="559.64" x2="191.74" y2="526.83"/><line class="cls-39" x1="113.99" y1="569.96" x2="195.88" y2="537.15"/><line class="cls-39" x1="118.12" y1="580.29" x2="200.02" y2="547.48"/><line class="cls-39" x1="122.02" y1="590.01" x2="203.91" y2="557.2"/><line class="cls-39" x1="125.92" y1="599.74" x2="207.81" y2="566.93"/><line class="cls-39" x1="129.81" y1="609.46" x2="211.7" y2="576.65"/><line class="cls-39" x1="133.71" y1="619.18" x2="215.6" y2="586.38"/><line class="cls-39" x1="137.6" y1="628.91" x2="219.49" y2="596.1"/></g><path class="cls-34" d="M198.19,552.23c-.92-.32-2-.63-2.83-.06a2.15,2.15,0,0,0-.2,2.94,6.28,6.28,0,0,0,2.68,1.82,149.71,149.71,0,0,1,25.41,14.82c3.83,2.78,9,5.82,12.89,3.09-.5.36-9.35-11.86-11.49-13.27C217.46,556.88,206.3,555.06,198.19,552.23Z"/><path class="cls-40" d="M121.41,533.12l-2.73-17.22,2-1.16L134.6,525.5l-2.12,1.22-4.11-3.31-5.9,3.4.92,5.16Zm.72-8.14,4.78-2.76-3.72-3.05c-1.14-.93-2-1.71-2.69-2.35a20.2,20.2,0,0,1,.79,3.13Z"/><circle class="cls-41" cx="124.32" cy="522.59" r="17.61"/><path class="cls-40" d="M132.74,501.47l-2.23-3.86-3.83,2.21-.94-1.61,3.84-2.22-2.22-3.83,1.64-1,2.21,3.84,3.84-2.22.93,1.62-3.84,2.21,2.24,3.87Z"/><path d="M509.29,935.21a164.95,164.95,0,0,1-132.87,0c-16-43.73-28-97.8-20.69-154.9h0c0-.42.1-.83.16-1.25a260.38,260.38,0,0,1,8.66-40.5q2.31-7.66,5-15l18.6,4.91,121.15,32c1.25,5.84,2.44,12,3.53,18.45a415.76,415.76,0,0,1,5.46,53.42A417.37,417.37,0,0,1,509.29,935.21Z"/><polygon class="cls-20" points="404.81 534.26 469.12 527.87 453.82 587.5 404.81 534.26"/><rect class="cls-42" x="418.4" y="543.4" width="47.73" height="8.67" transform="translate(-54.5 48.9) rotate(-5.96)"/><path class="cls-35" d="M482.18,600.7l.79-.55c.94-.64,1.89-1.29,2.81-2a176.47,176.47,0,0,0,20-16.65q5.94-5.73,11.26-12"/><path class="cls-35" d="M482.44,601.13a179.69,179.69,0,0,0,28-23.46q3.63-3.75,7-7.73c.42-.49-.29-1.2-.71-.71a173.55,173.55,0,0,1-26.29,24.9q-4.15,3.2-8.5,6.13c-.53.36,0,1.23.51.87Z"/><path class="cls-35" d="M614.4,563.36A62,62,0,0,0,625.77,559a54.67,54.67,0,0,0,4.86-2.71,60.51,60.51,0,0,0,5.64-3.9c1.07-.29,1.47-.16,1.62.05.78,1-3.41,5.59-7.35,9.45-1.48,1.45-2.92,2.8-4,3.83l-1.21,1.09a48,48,0,0,1-6.59,5.39c-7.75,4.84-12.08,3.42-16.61,7.74-3.31,3.15-4.2,7-4.91,9.48-6,21.5-19.65,40.4-33.09,58.89-5.39,7.41-11.11,15.11-20,19.24-3.91,1.82-9.11,2.74-12.74.26a13.91,13.91,0,0,1-3.75-4.52c-1.55-2.57-3.1-5.13-4.65-7.71-1.94-3.18-3.86-6.36-5.79-9.55l-7.53-12.46-2.82-4.67q-5.2-8.58-10.4-17.18a.25.25,0,0,0,0-.07L535.11,616c.44,1.68.85,3.35,1.22,5q1.2,5.22,2,10.49c4.09-3.86,8.18-7.73,12.22-11.66,17.23-16.71,33.5-34.27,43.78-54.94,3-5.95,5.62-12.37,11.29-16.5,3.89-2.83,8.84-4.3,13.69-5.72l22.25-6.5c-2.05,3.9-6.26,6.51-10.55,8.6a95.56,95.56,0,0,0-9.94,5.07,22.41,22.41,0,0,0-2.42,1.77C615.16,554.62,612.85,559.15,614.4,563.36Z"/><path class="cls-35" d="M614.53,563.85a63.58,63.58,0,0,0,11.86-4.56,61.6,61.6,0,0,0,6-3.48c.93-.6,1.84-1.24,2.73-1.89.38-.28.74-.59,1.13-.85.17-.11,1-.53,1.25-.27.06.06-.23.65-.29.77a12,12,0,0,1-1.26,1.82,55.7,55.7,0,0,1-4.13,4.56c-3.06,3.11-6.29,6.09-9.59,9a30.74,30.74,0,0,1-9.35,5.67c-2.77,1-5.79,1.57-8.41,3a15.29,15.29,0,0,0-6.58,7.89c-.58,1.49-1,3-1.41,4.59-.6,2.07-1.28,4.13-2,6.16a135.56,135.56,0,0,1-11.7,23.89c-4.62,7.66-9.76,15-15,22.27-4.73,6.58-9.31,13.56-15.36,19a31.38,31.38,0,0,1-10.28,6.45c-3.62,1.28-8.21,1.73-11.27-1a21.8,21.8,0,0,1-3.69-5.18l-3.78-6.27q-3.82-6.3-7.64-12.6-7.62-12.63-15.26-25.24c-1.23-2-2.51-4-3.68-6.09l-.43.75,13.12,1.46L530.32,616l4.79.53-.49-.36a157.37,157.37,0,0,1,3.25,15.53.51.51,0,0,0,.84.22c7.29-6.88,14.57-13.79,21.57-21a254.59,254.59,0,0,0,18.64-21,148,148,0,0,0,14.91-22.83c1.94-3.73,3.6-7.62,5.83-11.2a23.8,23.8,0,0,1,9.28-8.86c4.31-2.23,9.1-3.4,13.73-4.75L638,537.79l3.76-1.09-.57-.74c-2.65,4.94-8.18,7.42-13,9.68-5,2.34-10.6,4.87-13.36,10a9.76,9.76,0,0,0-.86,7.91c.22.6,1.18.34,1-.27-1.88-5.33,2.26-10.21,6.47-12.91,4.78-3.07,10.31-4.74,15-8a17.18,17.18,0,0,0,5.66-5.9.51.51,0,0,0-.57-.74L626,540.24c-4.75,1.39-9.63,2.6-14.25,4.42a25,25,0,0,0-10.6,7.38,54.09,54.09,0,0,0-6.29,10.72,146.18,146.18,0,0,1-14.28,23.33,233.41,233.41,0,0,1-18.41,21.45c-6.88,7.18-14,14.06-21.27,20.89L538,631.18l.84.22c-.83-5.22-1.92-10.41-3.25-15.53a.53.53,0,0,0-.48-.37L522,614l-20.82-2.31-4.78-.54a.51.51,0,0,0-.44.76c2.51,4.38,5.23,8.64,7.84,12.95s5.24,8.67,7.86,13c5.22,8.63,10.39,17.29,15.66,25.88a13.86,13.86,0,0,0,3.9,4.57,9.92,9.92,0,0,0,5.3,1.51c4,.08,7.91-1.6,11.28-3.7,6.91-4.3,11.87-10.89,16.59-17.37,5.44-7.49,10.88-15,15.89-22.77a158.82,158.82,0,0,0,13-24.07,104.07,104.07,0,0,0,4.4-12.5c1-3.62,2.31-7,5.24-9.57,2.37-2,5.36-2.74,8.27-3.67a31.41,31.41,0,0,0,9.87-5.05,118.19,118.19,0,0,0,9.42-8.48c1.63-1.59,3.24-3.21,4.76-4.92a18.2,18.2,0,0,0,2.91-3.86c.36-.74.57-1.84-.49-2.09a2.72,2.72,0,0,0-2.29.68c-.86.64-1.72,1.27-2.61,1.87a61.47,61.47,0,0,1-12.84,6.69q-2.79,1.05-5.67,1.83A.5.5,0,0,0,614.53,563.85Z"/><polygon class="cls-43" points="495.98 509 530.66 608.63 509.12 636.78 474.36 588.09 472.69 513.2 495.98 509"/><path class="cls-20" d="M552.08,608.66c-1.29,4.55-6.88,22.21-24.81,33.38a57.31,57.31,0,0,1-30.45,8.51q1.33-13.62,2.69-27.23a103.22,103.22,0,0,0,29.12-20.53Z"/><path class="cls-42" d="M515.28,778.49l-2.46.48a416.78,416.78,0,0,1-138.57,3.18c-6.46-.93-12.58-2-18.36-3.09-1-.18-2-.38-2.93-.57a358.15,358.15,0,0,1,19.58-65.88c3-7.43,6.15-14.48,9.35-21.1s6.52-13,9.79-18.83l-.31-.86-29.81-83-9.11,15.31-23.91,40.24-3.24,5.45c-.42.69-.83,1.4-1.25,2.09l-.09.16L304,644.67l-13.7-5.08c.32-.76.62-1.52.93-2.27.08-.23.17-.45.27-.67,10.48-25.95,18-45.53,23.13-59,.35-.92,7.89-16.87,23-48.75,2-4.27,4.87-10.16,10.87-15.74,9.38-8.74,20.74-11.42,27.95-12.36l73,69,23.46-49.29c1.27-2.7,2.56-5.39,3.84-8.09s2.57-5.4,3.87-8.11l3,.89,1.67,5.69,3.68,12.62,20.23,69.25-12.48,26.47L487,639.65Q501.16,709.07,515.28,778.49Z"/><path class="cls-43" d="M452.73,641.4l-16.48,12.12-35.43,26-3.44,13.29-9.24,35.66-13.89,53.65-18.52-1.84c0-.42.1-.83.16-1.25-1-.18-2-.38-2.93-.57a358.15,358.15,0,0,1,19.58-65.88c3-7.43,6.15-14.48,9.35-21.1s6.52-13,9.79-18.83l-.31-.86-29.81-83,39.26,54.83Z"/><path class="cls-42" d="M496,509q-3.54,7.29-7.09,14.57L473.62,555l-7.25,14.9-6,20-11-20L466.16,500l14.41,4.33,3,.89Z"/><path class="cls-42" d="M352.45,604.14,325.3,649.83l-.07,0L304,644.67l-14.37-3.48c.22-.54.44-1.07.67-1.6,10-24.26,17.88-44.5,24.33-61.91Z"/><path class="cls-20" d="M330.56,673.32a69.14,69.14,0,0,1-64.92-38.61l29-6.93a102.26,102.26,0,0,0,13.32,11,101.2,101.2,0,0,0,18,10Z"/></g><g id="Layer_5" data-name="Layer 5"><path class="cls-20" d="M1130.86,333.16v-41.3h13.39c5.07,0,8.37.21,9.92.62a10.88,10.88,0,0,1,5.94,4,12.82,12.82,0,0,1,2.39,8.05,13.48,13.48,0,0,1-1.38,6.39,11.31,11.31,0,0,1-3.5,4.07,12,12,0,0,1-4.33,2,47.09,47.09,0,0,1-8.65.59h-5.44v15.58Zm8.34-34.31v11.72h4.57a21.63,21.63,0,0,0,6.59-.65,5.47,5.47,0,0,0,2.61-2,5.54,5.54,0,0,0,.94-3.21,5.36,5.36,0,0,0-1.32-3.72,5.74,5.74,0,0,0-3.36-1.83,39.75,39.75,0,0,0-6-.28Z"/><path class="cls-20" d="M1175.21,312.37l-7.18-1.3a11.11,11.11,0,0,1,4.17-6.42q3-2.08,8.79-2.09,5.29,0,7.89,1.26a7.94,7.94,0,0,1,3.65,3.18q1,1.94,1,7.09l-.08,9.24a31.53,31.53,0,0,0,.38,5.82,16.87,16.87,0,0,0,1.42,4h-7.83c-.21-.52-.46-1.3-.76-2.34-.13-.46-.23-.77-.28-.92a14.29,14.29,0,0,1-4.34,3,12.41,12.41,0,0,1-4.93,1,10.23,10.23,0,0,1-7.29-2.51,8.34,8.34,0,0,1-2.66-6.34,8.47,8.47,0,0,1,1.21-4.52,7.91,7.91,0,0,1,3.4-3,26.31,26.31,0,0,1,6.29-1.85,43.09,43.09,0,0,0,7.7-1.94v-.79a4.12,4.12,0,0,0-1.13-3.26c-.75-.64-2.17-1-4.26-1a5.7,5.7,0,0,0-3.29.83A5.82,5.82,0,0,0,1175.21,312.37Zm10.6,6.42A48.84,48.84,0,0,1,1181,320a14.45,14.45,0,0,0-4.31,1.38,3.28,3.28,0,0,0-1.55,2.79,3.88,3.88,0,0,0,1.24,2.87,4.31,4.31,0,0,0,3.15,1.21,6.87,6.87,0,0,0,4.09-1.41,5,5,0,0,0,1.89-2.62,15.92,15.92,0,0,0,.31-3.86Z"/><path class="cls-20" d="M1201.16,303.24h7.38v4.4a11.07,11.07,0,0,1,3.89-3.67,10.71,10.71,0,0,1,5.44-1.41,11.41,11.41,0,0,1,8.84,4.09q3.64,4.08,3.64,11.38,0,7.5-3.66,11.65a11.42,11.42,0,0,1-8.88,4.16,10,10,0,0,1-4.49-1,14.8,14.8,0,0,1-4.24-3.38v15.08h-7.92Zm7.83,14.45c0,3.37.67,5.85,2,7.46a6.15,6.15,0,0,0,4.88,2.41,5.71,5.71,0,0,0,4.59-2.22q1.83-2.2,1.83-7.25,0-4.71-1.89-7a5.82,5.82,0,0,0-4.67-2.28,6.08,6.08,0,0,0-4.82,2.24Q1209,313.3,1209,317.69Z"/><path class="cls-20" d="M1254,323.64l7.89,1.32a13,13,0,0,1-4.8,6.61,14.15,14.15,0,0,1-8.22,2.27q-7.8,0-11.55-5.1a17.14,17.14,0,0,1-3-10.31q0-7.44,3.89-11.65a12.8,12.8,0,0,1,9.83-4.22c4.46,0,8,1.48,10.54,4.41s3.8,7.45,3.69,13.51h-19.83a8,8,0,0,0,1.91,5.48,6,6,0,0,0,4.57,2,4.85,4.85,0,0,0,3.12-1A6.26,6.26,0,0,0,1254,323.64Zm.45-8a7.68,7.68,0,0,0-1.77-5.23,5.71,5.71,0,0,0-8.4.1,7.29,7.29,0,0,0-1.66,5.13Z"/><path class="cls-20" d="M1276.3,333.16h-7.91V303.24h7.35v4.26a12.94,12.94,0,0,1,3.39-4,6.26,6.26,0,0,1,3.43-1,10,10,0,0,1,5.21,1.5l-2.45,6.9a7,7,0,0,0-3.72-1.29,4.4,4.4,0,0,0-2.82.91,6.3,6.3,0,0,0-1.82,3.31q-.66,2.4-.66,10Z"/><path class="cls-20" d="M1288.39,324.63l7.95-1.22a5.77,5.77,0,0,0,2.05,3.51,7,7,0,0,0,4.34,1.2,7.83,7.83,0,0,0,4.62-1.13,2.49,2.49,0,0,0,1-2.11,2,2,0,0,0-.56-1.49,6.23,6.23,0,0,0-2.65-1.05q-9.57-2.1-12.14-3.86a7.69,7.69,0,0,1-3.55-6.73,8.31,8.31,0,0,1,3.07-6.54q3.07-2.64,9.52-2.65,6.15,0,9.13,2a10.25,10.25,0,0,1,4.12,5.91l-7.47,1.38a4.63,4.63,0,0,0-1.82-2.67,6.63,6.63,0,0,0-3.82-.93,8.66,8.66,0,0,0-4.48.87,1.88,1.88,0,0,0-.9,1.61,1.75,1.75,0,0,0,.79,1.43c.72.53,3.18,1.27,7.4,2.23s7.16,2.13,8.83,3.52a7.33,7.33,0,0,1,2.48,5.89,9,9,0,0,1-3.44,7.07q-3.44,3-10.17,3-6.11,0-9.68-2.48A11.44,11.44,0,0,1,1288.39,324.63Z"/><path class="cls-44" d="M1353.16,294a16,16,0,0,1,12.64,6,20.82,20.82,0,0,1,5.14,14q0,9.06-4.56,14t-12.64,5.25q-17.31.63-17.89-11.89a8.08,8.08,0,0,1,2.89-6.58,10.8,10.8,0,0,1,7.5-2.77h2.54c-.12-1.92-1-2.88-2.54-2.88s-2.62.69-2.89,2.08h-5.77q.3-7.39,8.89-7.39a7.83,7.83,0,0,1,6.38,2.94,12.2,12.2,0,0,1,2.39,7.91c0,.81,0,1.61-.11,2.42h-6.35a8.71,8.71,0,0,0-4.68,1.1,3.68,3.68,0,0,0-1.9,3.4q.06,3.12,3.92,4.62a18,18,0,0,0,7.62,1,11.15,11.15,0,0,0,8-3.87,13.35,13.35,0,0,0,3.14-9.17,16.15,16.15,0,0,0-3.4-10.39,11.32,11.32,0,0,0-9.29-4.5,14.18,14.18,0,0,0-5.66,1.1,7.39,7.39,0,0,0-3.57,2.82h-6.35Q1340,294,1353.16,294Z"/><path class="cls-44" d="M1384.73,313.08H1398v4.85h-2.2a3.62,3.62,0,0,0-3,1.53,5.62,5.62,0,0,0-1.18,3.55,4.19,4.19,0,0,0,1.79,3.52,6.19,6.19,0,0,0,4.27,1.15,6,6,0,0,0,4.64-2.62,9.43,9.43,0,0,0,1.71-6.09,8.77,8.77,0,0,0-4-7.56,14.66,14.66,0,0,0-8-2,11.88,11.88,0,0,0-8.25,3.12,12.39,12.39,0,0,0-4,9.34q-.18,6.52,3.17,10.51,3.57,4.15,10.16,4.32a14.89,14.89,0,0,0,6.28-1.06,7.22,7.22,0,0,0,3.87-3.21h6.35a12.33,12.33,0,0,1-6.52,7.45,21.46,21.46,0,0,1-10.1,2.36q-8.49,0-13.91-5-5.7-5.19-5.71-13.91t5.31-14.13q5.13-5.21,13.62-5.37a19.13,19.13,0,0,1,12.11,3.75,14,14,0,0,1,5.89,11.25q.18,6.34-3.26,10.1t-9.55,4.1a13,13,0,0,1-8.71-2.25,8.39,8.39,0,0,1-3.52-7.45q.06-4,2.65-5.42h-3.11Z"/><path class="cls-44" d="M1430.14,294.62q8.41,0,13,5.71,4.38,5.54,4.21,15.18-.16,8.76-4.7,13.35t-12.72,4.59q-7.74,0-12.35-3.58-5-3.81-5-10.79a17.06,17.06,0,0,1,2-8.85,14.32,14.32,0,0,1,6.78-5.46c1.57-.69,4.5-.88,8.77-.57V310a13.92,13.92,0,0,0-1.79-.12q-4.56,0-7,2.48a8,8,0,0,0-2.37,6.06,8.06,8.06,0,0,0,3.29,6.81,13.11,13.11,0,0,0,7.79,2.31,10,10,0,0,0,8.08-3.41,13.6,13.6,0,0,0,3-8.36q.35-6.93-2.62-11.23a9.59,9.59,0,0,0-8.34-4.29q-7,0-9.23,3.28H1414Q1417.27,294.62,1430.14,294.62Z"/><path class="cls-44" d="M1497.88,311.52a1.43,1.43,0,0,0-.06-1.44c-.38-.69-1.38-1-3-1-2.5,0-3.77,1-3.81,2.89h4q5,0,7.56,2.08a9.56,9.56,0,0,1,3.75,7.84q0,5.89-5.71,8.95-5,2.71-12.87,2.71t-12.69-2.83a10.08,10.08,0,0,1-5.31-9.17,8.74,8.74,0,0,1,3.11-6.87,11.53,11.53,0,0,1,7.85-2.71h4.39c0-2-1.43-3-4.27-2.89s-3.93.91-3.7,2.48h-6a7,7,0,0,1-.05-.92,5.94,5.94,0,0,1,3.05-5.31,12.13,12.13,0,0,1,6.35-1.56c3.58,0,6.16,1,7.73,2.89a7,7,0,0,1,3.23-2.28,18.06,18.06,0,0,1,5.31-.61,8.2,8.2,0,0,1,6.47,2.54,5.61,5.61,0,0,1,1.26,3.81,5.68,5.68,0,0,1-.17,1.44Zm-20.14,6.81a3.39,3.39,0,0,0-1.61,2.95q0,3.29,3.57,5a18.79,18.79,0,0,0,8.2,1.55,19.38,19.38,0,0,0,8.57-1.61c2.17-1.08,3.28-2.62,3.31-4.62a3.55,3.55,0,0,0-1.64-3.26,7.11,7.11,0,0,0-4-1.12H1481.9A7.27,7.27,0,0,0,1477.74,318.33Z"/><path class="cls-44" d="M1472.2,302.18q0-4.15,5.31-6.47a26.33,26.33,0,0,1,10.44-1.9,26.84,26.84,0,0,1,10.45,1.79q5.13,2.13,5.13,6.12a7.32,7.32,0,0,1-.52,2.59h-5.88q.4-2.71-2.89-4.09a15.84,15.84,0,0,0-6.34-1.1,18.91,18.91,0,0,0-6.12.86c-2.11.77-3.17,2-3.17,3.58a6.9,6.9,0,0,0,.05.75h-6.11A7.08,7.08,0,0,1,1472.2,302.18Z"/><path class="cls-44" d="M1514,313.31a9.07,9.07,0,0,1,2.48-7,8.55,8.55,0,0,1,6.4-2.48q4.28,0,6,2.77c1.43-1.92,3.66-2.85,6.7-2.77q3.69.12,6,3.87a14.93,14.93,0,0,1,2,7.79q0,.69-.06,1.32l-21.35-.05a13.65,13.65,0,0,0-2.54.34,8.6,8.6,0,0,0,2.89,5.71,9.88,9.88,0,0,0,6.81,2.25q5.42,0,7.5-5.48h6.34a14.53,14.53,0,0,1-5.3,8.16,15,15,0,0,1-9.29,3,15.42,15.42,0,0,1-8.52-2.43,11.58,11.58,0,0,1-5-6.52c0,.5-.06,1-.06,1.45a12.19,12.19,0,0,0,3.58,9.11,12.35,12.35,0,0,0,9,3.52,13,13,0,0,0,7.22-1.9,9.42,9.42,0,0,0,4.21-5.71h6.23a13.59,13.59,0,0,1-5.71,9.86,19.54,19.54,0,0,1-11.71,3.41c-5.24,0-9.56-1.31-13-3.93a15.25,15.25,0,0,1-5.94-10.84q-.12-1.27-.12-2.49Q1508.78,316.2,1514,313.31Zm5.77-1.38h5.88c-.19-2.16-1.19-3.23-3-3.23S1519.9,309.77,1519.75,311.93Zm11.42,0h6.41c-.43-2.16-1.45-3.23-3.06-3.23C1532.71,308.7,1531.6,309.77,1531.17,311.93Z"/><path class="cls-44" d="M1510.17,302.18q0-4.15,5.31-6.47a26.33,26.33,0,0,1,10.44-1.9,26.84,26.84,0,0,1,10.45,1.79q5.13,2.13,5.13,6.12a7.32,7.32,0,0,1-.52,2.59h-5.88c.27-1.81-.7-3.17-2.89-4.09a15.89,15.89,0,0,0-6.35-1.1,18.89,18.89,0,0,0-6.11.86c-2.12.77-3.18,2-3.18,3.58a5.14,5.14,0,0,0,.06.75h-6.11A6.78,6.78,0,0,1,1510.17,302.18Z"/><path class="cls-44" d="M1553.79,312.39h-5.65a8.11,8.11,0,0,1-.23-1.92,5.93,5.93,0,0,1,2.13-4.76A7.92,7.92,0,0,1,1555,304c3.46-.16,5.57,1,6.34,3.52a21.21,21.21,0,0,1,12.35-3.52,14,14,0,0,1,9.87,3.8Q1588,312,1588,319.2q0,6.41-3.66,10.15c-2.45,2.51-5.74,3.76-9.9,3.76q-.75,0-1.56-.06V328a7.9,7.9,0,0,0,6.41-2.14,8.84,8.84,0,0,0,2.48-6.63c0-3.15-.87-5.57-2.6-7.24s-4.15-2.51-7.27-2.51a13.67,13.67,0,0,0-4.9.86,10,10,0,0,1,5.74,3.84,11.21,11.21,0,0,1,2.22,6.9,10.89,10.89,0,0,1-4.27,9.05,15.57,15.57,0,0,1-9.92,3.18,19.05,19.05,0,0,1-7.51-1.21q-3.69-1.5-4.38-4.68a3,3,0,0,1,.4-2,2.24,2.24,0,0,0,.41-1.56.64.64,0,0,0-.64-.4,2.29,2.29,0,0,0-1.3.52,2.63,2.63,0,0,0-1,1.09v-5.19q.75-.75,5.31-5.19.4-.4,4.73-4.33a1,1,0,0,0,.12-.46,1,1,0,0,0-.67-.92,1.83,1.83,0,0,0-1.35-.18,2,2,0,0,0-1.56,2.2A2.13,2.13,0,0,0,1553.79,312.39Zm-.11,8.19a3.46,3.46,0,0,1,1.5,1.62,1.72,1.72,0,0,1,.17.75,4.66,4.66,0,0,1-.14.89,4.29,4.29,0,0,0-.15.9,2.55,2.55,0,0,0,1.85,2.31,7.68,7.68,0,0,0,3.11.63,10.5,10.5,0,0,0,5.48-1.44,5.63,5.63,0,0,0,3.06-4.5,6.57,6.57,0,0,0-1.64-4.85,5.65,5.65,0,0,0-4.47-2.13c-.31,0-.62,0-.93.05a7.61,7.61,0,0,0-3.57,1.85A40.39,40.39,0,0,0,1553.68,320.58Z"/><path class="cls-44" d="M1576.35,327.8v5.25a4.55,4.55,0,0,0,1.1,3.52,4.17,4.17,0,0,0,3.69,1.44,3.47,3.47,0,0,0,2.37-1.13,3.29,3.29,0,0,0,.92-2.27,3.74,3.74,0,0,0-.23-1.27h5.48a6,6,0,0,1,.35,2,6.91,6.91,0,0,1-2.74,5.42,9.54,9.54,0,0,1-6.32,2.31q-5,0-7.73-2.31a7.2,7.2,0,0,1-2.66-5.19Q1570.07,328.6,1576.35,327.8Z"/><path class="cls-44" d="M1601.05,304a36.36,36.36,0,0,0,3.17-1.79,23.22,23.22,0,0,0,4.1-3.23,16.39,16.39,0,0,0,3-4.61h6.92a15.56,15.56,0,0,1-2.36,5,12.56,12.56,0,0,1-5.48,4.62c.3,0,1,.19,2.25.46a13.77,13.77,0,0,1,8.13,5.48,14.63,14.63,0,0,1,2.72,8.71,15.58,15.58,0,0,1-1.62,7,13.61,13.61,0,0,1-6.29,6.18,20.7,20.7,0,0,1-16.3.55,12.68,12.68,0,0,1-5.45-4,15.7,15.7,0,0,1-3.52-9.69,16.44,16.44,0,0,1,.8-5Q1593.21,307,1601.05,304Zm-2,8.37a9.75,9.75,0,0,0-2.14,6.17,8.14,8.14,0,0,0,3.06,6.58,10.67,10.67,0,0,0,7.1,2.19q5.37,0,8-3.51a8.77,8.77,0,0,0,1.85-5.43,9.26,9.26,0,0,0-3-6.81,9.5,9.5,0,0,0-6.93-2.48Q1601.62,309.1,1599,312.39Z"/><path class="cls-44" d="M1625.11,305.12h18v4.39a45.55,45.55,0,0,0-7.32,5.48c-2.35,2.34-3.6,4.71-3.75,7.09a9.52,9.52,0,0,0,.34,3.52,2.84,2.84,0,0,0,3,2.14,2.81,2.81,0,0,0,2.31-1.1,3.52,3.52,0,0,0,.75-2.31,3.74,3.74,0,0,0-.29-1.44H1644a14.31,14.31,0,0,1,.23,2.48,7.38,7.38,0,0,1-2.4,5.89,8.47,8.47,0,0,1-5.91,2c-3.39,0-5.92-.75-7.62-2.14-2.11-1.73-3.08-4.63-2.88-8.71a13.25,13.25,0,0,1,3.29-8.08,12.64,12.64,0,0,1,5.59-4.27h-9.23Z"/><path class="cls-44" d="M1678.72,313.08H1692v4.85h-2.2a3.62,3.62,0,0,0-3,1.53,5.62,5.62,0,0,0-1.18,3.55,4.19,4.19,0,0,0,1.79,3.52,6.19,6.19,0,0,0,4.27,1.15,6,6,0,0,0,4.64-2.62,9.43,9.43,0,0,0,1.71-6.09,8.77,8.77,0,0,0-4-7.56,14.66,14.66,0,0,0-8-2,11.88,11.88,0,0,0-8.25,3.12,12.39,12.39,0,0,0-4,9.34q-.18,6.52,3.17,10.51,3.57,4.15,10.16,4.32a14.89,14.89,0,0,0,6.28-1.06,7.22,7.22,0,0,0,3.87-3.21h6.35a12.33,12.33,0,0,1-6.52,7.45,21.46,21.46,0,0,1-10.1,2.36q-8.49,0-13.91-5-5.7-5.19-5.71-13.91t5.31-14.13q5.13-5.21,13.62-5.37a19.13,19.13,0,0,1,12.11,3.75,14,14,0,0,1,5.89,11.25q.18,6.34-3.26,10.1t-9.55,4.1a13,13,0,0,1-8.71-2.25,8.39,8.39,0,0,1-3.52-7.45q.06-4,2.65-5.42h-3.11Z"/><path class="cls-44" d="M1670.12,302.18q0-4.15,5.31-6.47a26.33,26.33,0,0,1,10.44-1.9,26.84,26.84,0,0,1,10.45,1.79q5.13,2.13,5.13,6.12a7.32,7.32,0,0,1-.52,2.59h-5.88c.27-1.81-.7-3.17-2.89-4.09a15.89,15.89,0,0,0-6.35-1.1,18.89,18.89,0,0,0-6.11.86c-2.12.77-3.18,2-3.18,3.58a5.14,5.14,0,0,0,.06.75h-6.12A7.06,7.06,0,0,1,1670.12,302.18Z"/><path class="cls-44" d="M1723.09,303.85V309a9,9,0,0,0-7.07,2.44,10.45,10.45,0,0,0-3.09,6.9,11,11,0,0,0,1,6.2,4.44,4.44,0,0,0,4.22,2.79q4.55-.06,4.55-4v-2.49h5.49v2.43a3.91,3.91,0,0,0,1.38,3.14,5.09,5.09,0,0,0,3.58,1.13,4,4,0,0,0,3.23-1.5,5.68,5.68,0,0,0,1-3.7q-.12-5.07-7.16-5.07h-6.86a27.77,27.77,0,0,1-.18-3.06q0-10,9.12-10.45,8.25-.35,9,7.62h-5.88c0-1.61-.93-2.42-2.77-2.42a3.1,3.1,0,0,0-2.17.83,2.82,2.82,0,0,0-.83,2.28h2.88a11.18,11.18,0,0,1,7.79,2.83,9.94,9.94,0,0,1,3.17,7.79,11.54,11.54,0,0,1-2.71,7.73,8.34,8.34,0,0,1-6.06,2.89c-4.84.11-8-.92-9.34-3.12-1.39,2.16-4,3.19-7.85,3.12q-5.54-.12-8.28-4.11t-2.45-11a14.87,14.87,0,0,1,4.38-10.2,13.53,13.53,0,0,1,10-4.23A14.84,14.84,0,0,1,1723.09,303.85Z"/><path class="cls-44" d="M1747.44,310.72a6.73,6.73,0,0,1,2.19-5.08,7.41,7.41,0,0,1,5.31-2.08,7.75,7.75,0,0,1,4.5,1.24,4.77,4.77,0,0,1,2.08,3.38q3.75-4.62,10.85-4.62a12.57,12.57,0,0,1,9.55,4.19,15,15,0,0,1,4.06,10.12,16.13,16.13,0,0,1-3.06,10.58,11.75,11.75,0,0,1-9.86,4.66c-.46,0-.93,0-1.39-.06v-5.54a7.25,7.25,0,0,0,6.06-2.5,9.35,9.35,0,0,0,2.14-6.59,11,11,0,0,0-2.31-6.72,6.84,6.84,0,0,0-5.77-2.71,8.85,8.85,0,0,0-6.81,3.13,8.79,8.79,0,0,1,5.71,3.19,9.38,9.38,0,0,1,2.14,6.32,10.5,10.5,0,0,1-4,8.52,14.42,14.42,0,0,1-9.29,3q-13.74,0-13.74-14.78c0-.88,0-1.8.12-2.77h5.13a2.59,2.59,0,0,0,0,.52c0,.77.48,1.16,1.44,1.16a4.25,4.25,0,0,0,2.08-.52,5.59,5.59,0,0,0,1.9-1.73,6.68,6.68,0,0,0,.75-1.56,4,4,0,0,0,.17-1.21,4.72,4.72,0,0,0-.52-2.22,1.53,1.53,0,0,0-1.38-1q-2.43,0-2.19,2.94h-5.72A7.45,7.45,0,0,1,1747.44,310.72Zm12.69,16.38a8.05,8.05,0,0,0,4-1.29,4.79,4.79,0,0,0,2.25-3.09,6.52,6.52,0,0,0,.12-1.21,4,4,0,0,0-3.92-4.22,2.1,2.1,0,0,0-1.62.58,18.41,18.41,0,0,1-3.52,3.12,7.06,7.06,0,0,1-3.81,1.32,4,4,0,0,1-1.79-.4Q1753.32,327.4,1760.13,327.1Z"/><path class="cls-44" d="M1253.75,376.83a16.21,16.21,0,0,1,9-1.68q11.54.59,10.85,13.27h-12a12,12,0,0,0-5.82,1.22,4.42,4.42,0,0,0-2.49,4.09q0,5.65,9,5.54,7.2-.12,7.61-2.88H1276a7.91,7.91,0,0,1-3.38,6.06,11.36,11.36,0,0,1-6.14,2.25,4.3,4.3,0,0,0-2.11.72,1.83,1.83,0,0,0-1.07,1.47c0,1,1.12,1.56,3.35,1.56q6,0,6.12-4.22h6a8.58,8.58,0,0,1-4.1,7.51,16.12,16.12,0,0,1-8.6,2q-9.57,0-9.57-5.82c0-1.93.73-3,2.19-3.35a14.39,14.39,0,0,1-9.12-3.52,8.67,8.67,0,0,1-3-6.75,10,10,0,0,1,3.93-8.25,14.44,14.44,0,0,1,9-2.71h7.15q.06-3-5.31-3c-3.08,0-4.88.8-5.42,2.42h-6.23A7.91,7.91,0,0,1,1253.75,376.83Z"/><path class="cls-44" d="M1242,373.59c0-2.77,1.76-4.92,5.3-6.46a30.49,30.49,0,0,1,20.89-.11q5.14,2.13,5.14,6.11a7.56,7.56,0,0,1-.52,2.6h-5.89c.27-1.81-.69-3.17-2.88-4.1a16.12,16.12,0,0,0-6.35-1.09,18.72,18.72,0,0,0-6.12.86q-3.16,1.16-3.17,3.58a5.14,5.14,0,0,0,.06.75h-6.12A7.07,7.07,0,0,1,1242,373.59Z"/><path class="cls-44" d="M1296,365.46a16,16,0,0,1,12.64,6,20.82,20.82,0,0,1,5.14,14q0,9.06-4.56,14t-12.64,5.26q-17.31.63-17.89-11.89a8.08,8.08,0,0,1,2.89-6.58,10.75,10.75,0,0,1,7.5-2.77h2.54c-.12-1.92-1-2.88-2.54-2.88s-2.62.69-2.89,2.07h-5.76q.28-7.38,8.88-7.38a7.81,7.81,0,0,1,6.38,2.94,12.2,12.2,0,0,1,2.39,7.91c0,.8,0,1.61-.11,2.42h-6.35a8.56,8.56,0,0,0-4.67,1.1A3.66,3.66,0,0,0,1285,393q.06,3.12,3.93,4.62a17.91,17.91,0,0,0,7.61,1,11.17,11.17,0,0,0,8-3.86,13.38,13.38,0,0,0,3.15-9.18,16.12,16.12,0,0,0-3.41-10.38,11.31,11.31,0,0,0-9.29-4.5,14.09,14.09,0,0,0-5.65,1.09,7.39,7.39,0,0,0-3.58,2.83h-6.35Q1282.8,365.47,1296,365.46Z"/><path class="cls-44" d="M1332.31,375.27v5.1a9,9,0,0,0-7.07,2.44,10.41,10.41,0,0,0-3.09,6.9,11,11,0,0,0,1,6.2,4.42,4.42,0,0,0,4.21,2.78q4.56,0,4.56-4v-2.48h5.48v2.43a4,4,0,0,0,1.39,3.14,5.12,5.12,0,0,0,3.58,1.13,3.94,3.94,0,0,0,3.23-1.51,5.72,5.72,0,0,0,1-3.69q-.12-5.07-7.16-5.08h-6.87a30,30,0,0,1-.17-3q0-10.05,9.12-10.45,8.25-.34,9,7.62h-5.89c0-1.62-.92-2.42-2.77-2.42a3,3,0,0,0-2.16.83,2.83,2.83,0,0,0-.84,2.28h2.89a11.13,11.13,0,0,1,7.79,2.83,10,10,0,0,1,3.17,7.79,11.61,11.61,0,0,1-2.71,7.73,8.34,8.34,0,0,1-6.06,2.89q-7.26.17-9.35-3.12c-1.38,2.15-4,3.19-7.84,3.12s-6.46-1.45-8.28-4.12-2.65-6.33-2.46-11a14.93,14.93,0,0,1,4.39-10.2,13.5,13.5,0,0,1,10-4.23A14.84,14.84,0,0,1,1332.31,375.27Z"/><path class="cls-44" d="M1318.57,373.59q0-4.15,5.31-6.46a26.35,26.35,0,0,1,10.45-1.9,26.64,26.64,0,0,1,10.44,1.79q5.13,2.13,5.13,6.11a7.53,7.53,0,0,1-.51,2.6h-5.89c.27-1.81-.69-3.17-2.89-4.1a16,16,0,0,0-6.34-1.09,18.68,18.68,0,0,0-6.12.86Q1325,372.56,1325,375a5.14,5.14,0,0,0,.06.75h-6.12A7.09,7.09,0,0,1,1318.57,373.59Z"/><path class="cls-44" d="M1383,382.13h-6.06a9.09,9.09,0,0,0-3.23-1.61,20.6,20.6,0,0,0-4.16-.29,7.49,7.49,0,0,0-5.94,2.88,10.18,10.18,0,0,0,.14,13.22,8.2,8.2,0,0,0,6.38,2.71,8.79,8.79,0,0,0,5.6-1.73,7.16,7.16,0,0,0,2.48-4.33,8.25,8.25,0,0,1-7.62,3.23,6.68,6.68,0,0,1-4.15-1.84,5.69,5.69,0,0,1-1.91-4.39,6.73,6.73,0,0,1,2.77-5.77,8.38,8.38,0,0,1,5-1.56q5.65,0,8.74,3t2.74,8.17a10.31,10.31,0,0,1-4.18,8,15.92,15.92,0,0,1-9.67,2.83q-6.81,0-10.82-4.22a14.28,14.28,0,0,1-3.84-10.67q.18-6.69,4.13-10.65a14.29,14.29,0,0,1,10.41-4Q1380.27,375.09,1383,382.13Zm-13,7.56q0,2.37,3,2.37c1.61,0,2.65-.54,3.11-1.62a2.57,2.57,0,0,0,.23-1,2,2,0,0,0-1-1.73,3.85,3.85,0,0,0-2.13-.63C1371.06,387,1370,387.92,1370,389.69Z"/><path class="cls-44" d="M1387.7,382.13a6.71,6.71,0,0,1,2.19-5.07,7.41,7.41,0,0,1,5.31-2.08,7.68,7.68,0,0,1,4.5,1.24,4.72,4.72,0,0,1,2.08,3.38q3.75-4.62,10.85-4.62a12.55,12.55,0,0,1,9.55,4.19,15,15,0,0,1,4.07,10.12,16.26,16.26,0,0,1-3.06,10.58,11.78,11.78,0,0,1-9.87,4.65c-.46,0-.92,0-1.39-.06v-5.53a7.25,7.25,0,0,0,6.06-2.51,9.28,9.28,0,0,0,2.14-6.58,11.09,11.09,0,0,0-2.31-6.73,6.86,6.86,0,0,0-5.77-2.71,8.92,8.92,0,0,0-6.81,3.13,8.83,8.83,0,0,1,5.71,3.19,9.36,9.36,0,0,1,2.14,6.32,10.47,10.47,0,0,1-4,8.52,14.36,14.36,0,0,1-9.29,3q-13.74,0-13.74-14.77c0-.88,0-1.81.12-2.77h5.13a3.49,3.49,0,0,0,0,.52c0,.77.48,1.15,1.44,1.15a4.14,4.14,0,0,0,2.08-.52,5.49,5.49,0,0,0,1.9-1.73,6.4,6.4,0,0,0,.75-1.55,3.75,3.75,0,0,0,.17-1.22,4.89,4.89,0,0,0-.51-2.22,1.57,1.57,0,0,0-1.39-1c-1.62,0-2.35,1-2.19,3h-5.71A6.63,6.63,0,0,1,1387.7,382.13Zm12.69,16.39a8.14,8.14,0,0,0,4-1.3,4.75,4.75,0,0,0,2.25-3.08,7.57,7.57,0,0,0,.11-1.22,3.83,3.83,0,0,0-2.08-3.75,3.92,3.92,0,0,0-1.84-.46,2.07,2.07,0,0,0-1.62.58,18.3,18.3,0,0,1-3.52,3.11,7,7,0,0,1-3.81,1.33,4,4,0,0,1-1.79-.4Q1393.58,398.81,1400.39,398.52Z"/><path class="cls-44" d="M1408,363.38a4.74,4.74,0,0,1,2.31-1.9,6.55,6.55,0,0,1,2.89-.58c1.92.08,3.15.88,3.69,2.42q1.1-2.54,4.85-2.42a4.42,4.42,0,0,1,3.49,1.78,6.34,6.34,0,0,1,1.35,4.05c0,3.26-1.52,5.17-4.56,5.71a6.7,6.7,0,0,1-3.63-.29v7.73a14.94,14.94,0,0,0-5.19-2.19v-9.4c0-1.24-.7-1.85-2.08-1.85-1.62,0-2.65.56-3.12,1.67Zm10.39,2.83v2.59a1.64,1.64,0,0,0,1.1.47c1.11,0,1.67-.71,1.67-2.14a1.88,1.88,0,0,0-.49-1.3,1.45,1.45,0,0,0-1.07-.55A1.3,1.3,0,0,0,1418.34,366.21Z"/><path class="cls-44" d="M1430.57,374.46q4.34-8.77,16.39-8.77a16.52,16.52,0,0,1,12.92,5.54q5,5.53,5,14.65,0,8.89-5.2,14-5,4.84-12.86,4.85t-12.53-3.58q-5.35-4.22-5.53-12.7a15.45,15.45,0,0,1,2.25-8.82,8.45,8.45,0,0,1,7.56-4.33q3.23,0,4.61,2.07,1.5-2.25,5.31-2.25a6.83,6.83,0,0,1,5.89,3.18,12.17,12.17,0,0,1,2,7,8.55,8.55,0,0,1-2.66,6.35,9.4,9.4,0,0,1-6.86,2.59,10.91,10.91,0,0,1-6.58-1.84,6.79,6.79,0,0,1-2.89-6,5.37,5.37,0,0,1,1.33-3.8,1.35,1.35,0,0,0,.29-1,.84.84,0,0,0-.64-.81,1.76,1.76,0,0,0-.46-.06c-.92,0-1.67.81-2.25,2.42a12.5,12.5,0,0,0-.69,4.91,10.81,10.81,0,0,0,3.32,8.05,12.18,12.18,0,0,0,8.51,2.86,11.26,11.26,0,0,0,8.6-3.67,13.06,13.06,0,0,0,3.4-9.26,17.12,17.12,0,0,0-3.29-10.67,10.54,10.54,0,0,0-8.83-4.56q-6.1,0-9.46,3.69Zm12.64,10.21a2.56,2.56,0,0,0-.41,1.39,2.86,2.86,0,0,0,1.13,2.22,4.78,4.78,0,0,0,6-.2,3.47,3.47,0,0,0,1-2,5.16,5.16,0,0,1-4.15.92A4.58,4.58,0,0,1,1443.21,384.67Zm2.88-3.4a1.84,1.84,0,0,0,.61,1.38,2,2,0,0,0,1.41.58,2,2,0,0,0,2-2,2,2,0,0,0-2-2,2,2,0,0,0-1.41.57A1.88,1.88,0,0,0,1446.09,381.27Z"/><path class="cls-44" d="M1489.66,382.77a6.24,6.24,0,0,1,2.77-5.83,10.18,10.18,0,0,1,6.23-1.79,22,22,0,0,1,4.44.41,5.93,5.93,0,0,1,3.29,2.36,6.37,6.37,0,0,1,3.69-2.42,16.18,16.18,0,0,1,5.08-.35,7.07,7.07,0,0,1,5,2.28,7.7,7.7,0,0,1,2.2,5.22h-6c0-1.61-1.12-2.42-3.47-2.42q-3.86,0-3.86,3.23h5.36q10.62,0,10.51,10.73a10,10,0,0,1-3,7.5,10.93,10.93,0,0,1-7.71,2.89c-4.11,0-6.73-1-7.84-3.23q-1.9,3.34-7.85,3.23-5.25-.12-8.14-3c-1.92-1.92-2.79-4.6-2.59-8a6.52,6.52,0,0,1,2.65-5.14h-4.15v-5h17.08q0-3.22-4.16-3.23-3.4,0-3.58,2.54Zm10,5.54a6.22,6.22,0,0,0-4.16,1.47,4.74,4.74,0,0,0-1.73,3.78,5.14,5.14,0,0,0,1.27,3.58,4.46,4.46,0,0,0,3.58,1.55,5.61,5.61,0,0,0,3.38-1,3.09,3.09,0,0,0,1.35-2.65v-2.6h5.6v2.66c0,2.34,1.71,3.52,5.13,3.52a4.16,4.16,0,0,0,3.38-1.59,5.57,5.57,0,0,0,1.24-3.78,4.43,4.43,0,0,0-1.85-3.63,6.92,6.92,0,0,0-4.27-1.33Z"/><path class="cls-44" d="M1490.75,373.59q0-4.15,5.31-6.46a26.35,26.35,0,0,1,10.45-1.9A26.64,26.64,0,0,1,1517,367q5.13,2.13,5.13,6.11a7.53,7.53,0,0,1-.51,2.6h-5.89c.27-1.81-.69-3.17-2.89-4.1a16,16,0,0,0-6.34-1.09,18.68,18.68,0,0,0-6.12.86q-3.16,1.16-3.17,3.58a5.14,5.14,0,0,0,.06.75h-6.12A7.09,7.09,0,0,1,1490.75,373.59Z"/><path class="cls-44" d="M1529.7,382.77a6.26,6.26,0,0,1,2.77-5.83,10.18,10.18,0,0,1,6.23-1.79,22.17,22.17,0,0,1,4.45.41,6,6,0,0,1,3.29,2.36,6.37,6.37,0,0,1,3.69-2.42,16.12,16.12,0,0,1,5.08-.35,7.09,7.09,0,0,1,5,2.28,7.73,7.73,0,0,1,2.19,5.22h-6q.06-2.41-3.46-2.42-3.87,0-3.87,3.23h5.37q10.62,0,10.5,10.73a10,10,0,0,1-3,7.5,10.91,10.91,0,0,1-7.7,2.89c-4.12,0-6.73-1-7.85-3.23q-1.9,3.34-7.85,3.23-5.25-.12-8.13-3c-1.93-1.92-2.79-4.6-2.6-8a6.54,6.54,0,0,1,2.65-5.14h-4.15v-5h17.08q0-3.22-4.15-3.23c-2.27,0-3.47.85-3.58,2.54Zm10,5.54a6.2,6.2,0,0,0-4.15,1.47,4.71,4.71,0,0,0-1.73,3.78,5.09,5.09,0,0,0,1.27,3.58,4.43,4.43,0,0,0,3.57,1.55,5.57,5.57,0,0,0,3.38-1,3.1,3.1,0,0,0,1.36-2.65v-2.6H1549v2.66c0,2.34,1.71,3.52,5.14,3.52a4.14,4.14,0,0,0,3.37-1.59,5.52,5.52,0,0,0,1.24-3.78,4.39,4.39,0,0,0-1.84-3.63,6.94,6.94,0,0,0-4.27-1.33Z"/><path class="cls-44" d="M1563.75,415.43h-26.66q-5.77,0-6.93-3.69a6.25,6.25,0,0,1-.23-1.68,6.15,6.15,0,0,1,1.73-4.33H1538a4.58,4.58,0,0,0-1.32,2.77q0,1.62,2.13,1.62H1558V397.54a25.2,25.2,0,0,0,5.77-4.33Z"/><path class="cls-44" d="M1569.11,382.13a6.71,6.71,0,0,1,2.19-5.07,7.45,7.45,0,0,1,5.31-2.08,7.68,7.68,0,0,1,4.5,1.24,4.69,4.69,0,0,1,2.08,3.38Q1586.94,375,1594,375a12.55,12.55,0,0,1,9.55,4.19,15,15,0,0,1,4.07,10.12,16.26,16.26,0,0,1-3.06,10.58,11.78,11.78,0,0,1-9.87,4.65q-.69,0-1.38-.06v-5.53a7.25,7.25,0,0,0,6.06-2.51,9.28,9.28,0,0,0,2.13-6.58,11.09,11.09,0,0,0-2.31-6.73,6.85,6.85,0,0,0-5.77-2.71,8.92,8.92,0,0,0-6.81,3.13,8.88,8.88,0,0,1,5.72,3.19,9.4,9.4,0,0,1,2.13,6.32,10.47,10.47,0,0,1-4,8.52,14.34,14.34,0,0,1-9.29,3q-13.74,0-13.73-14.77c0-.88,0-1.81.11-2.77h5.14a2.59,2.59,0,0,0-.06.52c0,.77.48,1.15,1.44,1.15a4.14,4.14,0,0,0,2.08-.52,5.4,5.4,0,0,0,1.9-1.73,6.4,6.4,0,0,0,.75-1.55,3.73,3.73,0,0,0,.18-1.22,4.9,4.9,0,0,0-.52-2.22,1.57,1.57,0,0,0-1.39-1c-1.61,0-2.34,1-2.19,3h-5.71A6.63,6.63,0,0,1,1569.11,382.13Zm12.7,16.39a8.1,8.1,0,0,0,4-1.3,4.75,4.75,0,0,0,2.25-3.08,6.58,6.58,0,0,0,.11-1.22,3.83,3.83,0,0,0-2.07-3.75,4,4,0,0,0-1.85-.46,2.07,2.07,0,0,0-1.62.58,18,18,0,0,1-3.52,3.11,6.94,6.94,0,0,1-3.8,1.33,3.92,3.92,0,0,1-1.79-.4Q1575,398.81,1581.81,398.52Z"/><path class="cls-44" d="M1589.37,363.38a4.67,4.67,0,0,1,2.3-1.9,6.55,6.55,0,0,1,2.89-.58c1.92.08,3.15.88,3.69,2.42q1.1-2.54,4.85-2.42a4.41,4.41,0,0,1,3.49,1.78,6.35,6.35,0,0,1,1.36,4.05c0,3.26-1.52,5.17-4.56,5.71a6.73,6.73,0,0,1-3.64-.29v7.73a14.94,14.94,0,0,0-5.19-2.19v-9.4c0-1.24-.69-1.85-2.08-1.85-1.61,0-2.65.56-3.11,1.67Zm10.38,2.83v2.59a1.64,1.64,0,0,0,1.1.47c1.11,0,1.67-.71,1.67-2.14a1.88,1.88,0,0,0-.49-1.3,1.45,1.45,0,0,0-1.07-.55A1.3,1.3,0,0,0,1599.75,366.21Z"/><path class="cls-44" d="M1637.6,376.31a13.77,13.77,0,0,1,6.29-1.16,7.94,7.94,0,0,1,4.62,1.39,7.11,7.11,0,0,1,3.06,4.5q1.26-5.9,7-5.89H1664V380c-.77-.54-1.29-.42-1.56.35-.15.39.18,1.24,1,2.55a7.44,7.44,0,0,1,1.39,3.77,6.83,6.83,0,0,1-2.37,5.57,8.56,8.56,0,0,1-5.36,1.86v4.58a21.72,21.72,0,0,0,6.81-2.83v5.77a12.4,12.4,0,0,1-3.29,1.67,25.27,25.27,0,0,1-3.52,1v9.93h-5.66V404.7c-2,.11-3.88.15-5.54.11q-15.57-.46-15.58-11.19a9.43,9.43,0,0,1,3.46-7.68,12,12,0,0,1,8-2.59h4.85c0-1.81-1-2.72-3.24-2.72-2,0-3.11.72-3.46,2.14h-6Q1634.38,378.09,1637.6,376.31Zm5.89,12.11a8.12,8.12,0,0,0-4.56,1.22,4.22,4.22,0,0,0-2.13,3.63q-.12,5.6,10.27,6a37.62,37.62,0,0,0,4.38-.17V388.42Zm15.75-1a4.16,4.16,0,0,0,.35-2.42,7,7,0,0,0-1-2.25,3,3,0,0,1-.52-2.08c-.66.39-1,1.45-1,3.18v5A2.52,2.52,0,0,0,1659.24,387.38Z"/><path class="cls-44" d="M1674,383.81h-5.65a8.11,8.11,0,0,1-.23-1.92,5.93,5.93,0,0,1,2.13-4.76,7.93,7.93,0,0,1,4.91-1.75q5.19-.22,6.34,3.52a21.28,21.28,0,0,1,12.35-3.52,14.07,14.07,0,0,1,9.87,3.81q4.44,4.21,4.44,11.43,0,6.4-3.66,10.15c-2.45,2.5-5.74,3.75-9.9,3.75q-.75,0-1.56-.06v-5.07a7.9,7.9,0,0,0,6.41-2.14,8.85,8.85,0,0,0,2.48-6.63c0-3.16-.87-5.57-2.6-7.25a10,10,0,0,0-7.27-2.51,13.46,13.46,0,0,0-4.9.87,10,10,0,0,1,5.74,3.84,11.2,11.2,0,0,1,2.22,6.89,10.89,10.89,0,0,1-4.27,9.06,15.55,15.55,0,0,1-9.92,3.18,19,19,0,0,1-7.5-1.22c-2.47-1-3.93-2.55-4.39-4.67a3,3,0,0,1,.4-2,2.24,2.24,0,0,0,.41-1.56.64.64,0,0,0-.64-.4,2.32,2.32,0,0,0-1.3.52,2.63,2.63,0,0,0-1,1.09v-5.19q.75-.75,5.31-5.19c.27-.27,1.85-1.72,4.73-4.33a1,1,0,0,0,.12-.46,1,1,0,0,0-.67-.93,1.83,1.83,0,0,0-1.35-.17,2,2,0,0,0-1.56,2.19A2.16,2.16,0,0,0,1674,383.81Zm-.11,8.19a3.41,3.41,0,0,1,1.5,1.62,1.72,1.72,0,0,1,.17.75,4.66,4.66,0,0,1-.14.89,4.19,4.19,0,0,0-.15.9,2.53,2.53,0,0,0,1.85,2.3,7.53,7.53,0,0,0,3.11.64,10.56,10.56,0,0,0,5.49-1.44,5.64,5.64,0,0,0,3-4.5,6.57,6.57,0,0,0-1.64-4.85,5.66,5.66,0,0,0-4.47-2.14,7.26,7.26,0,0,0-.93.06,7.52,7.52,0,0,0-3.57,1.85A40.39,40.39,0,0,0,1673.9,392Z"/><path class="cls-44" d="M1713.42,367.54a12,12,0,0,1,8.37-3.29,8.1,8.1,0,0,1,4.82,1.38,4.22,4.22,0,0,1,1.87,3.75,5.13,5.13,0,0,1-.17,1,17,17,0,0,0,3-4.62h6.93a15.53,15.53,0,0,1-2.37,5,12.53,12.53,0,0,1-5.48,4.61c.31,0,1.06.2,2.25.46a13.83,13.83,0,0,1,8.13,5.49,14.61,14.61,0,0,1,2.72,8.71,15.58,15.58,0,0,1-1.62,7,13.61,13.61,0,0,1-6.29,6.18,19.8,19.8,0,0,1-8.83,2,19.59,19.59,0,0,1-7.47-1.42,12.67,12.67,0,0,1-5.45-3.95,15.74,15.74,0,0,1-3.52-9.69,13.55,13.55,0,0,1,3.29-9.47q-4.15-1-4.16-5.13Q1709.44,371.17,1713.42,367.54Zm4.33,9.52c.66-.35,1.75-.91,3.29-1.68a7,7,0,0,0,2.28-1.67,2.9,2.9,0,0,0,.55-1.73,1.75,1.75,0,0,0-1.21-1.85,3.67,3.67,0,0,0-1.1-.17,6.22,6.22,0,0,0-4.27,2.19,4.37,4.37,0,0,0-1.5,3.06C1715.79,376.4,1716.44,377,1717.75,377.06Zm1.27,6.75a9.72,9.72,0,0,0-2.13,6.17,8.14,8.14,0,0,0,3,6.58,10.67,10.67,0,0,0,7.1,2.19q5.37,0,8-3.52a8.72,8.72,0,0,0,1.85-5.42,9.26,9.26,0,0,0-3-6.81,9.49,9.49,0,0,0-6.92-2.48C1723.39,380.52,1720.75,381.61,1719,383.81Z"/><path class="cls-44" d="M1747.29,382.13a6.68,6.68,0,0,1,2.2-5.07,7.41,7.41,0,0,1,5.31-2.08,7.72,7.72,0,0,1,4.5,1.24,4.71,4.71,0,0,1,2.07,3.38q3.75-4.62,10.85-4.62a12.55,12.55,0,0,1,9.55,4.19,15,15,0,0,1,4.07,10.12,16.14,16.14,0,0,1-3.06,10.58,11.75,11.75,0,0,1-9.87,4.65q-.69,0-1.38-.06v-5.53a7.25,7.25,0,0,0,6.06-2.51,9.28,9.28,0,0,0,2.13-6.58,11,11,0,0,0-2.3-6.73,6.88,6.88,0,0,0-5.78-2.71,8.88,8.88,0,0,0-6.8,3.13,8.86,8.86,0,0,1,5.71,3.19,9.4,9.4,0,0,1,2.13,6.32,10.44,10.44,0,0,1-4,8.52,14.34,14.34,0,0,1-9.29,3q-13.73,0-13.73-14.77c0-.88,0-1.81.11-2.77h5.14a2.59,2.59,0,0,0-.06.52c0,.77.48,1.15,1.44,1.15a4.12,4.12,0,0,0,2.08-.52,5.52,5.52,0,0,0,1.91-1.73,6.79,6.79,0,0,0,.75-1.55,4,4,0,0,0,.17-1.22,4.78,4.78,0,0,0-.52-2.22,1.57,1.57,0,0,0-1.38-1c-1.62,0-2.35,1-2.2,3h-5.71A6.63,6.63,0,0,1,1747.29,382.13Zm12.7,16.39a8.1,8.1,0,0,0,4-1.3,4.75,4.75,0,0,0,2.25-3.08,6.63,6.63,0,0,0,.12-1.22,3.84,3.84,0,0,0-2.08-3.75,4,4,0,0,0-1.85-.46,2,2,0,0,0-1.61.58,18.3,18.3,0,0,1-3.52,3.11,7,7,0,0,1-3.81,1.33,3.92,3.92,0,0,1-1.79-.4Q1753.18,398.81,1760,398.52Z"/><path class="cls-20" d="M1767.55,363.38a4.65,4.65,0,0,1,2.31-1.9,6.54,6.54,0,0,1,2.88-.58c1.93.08,3.16.88,3.69,2.42.74-1.69,2.35-2.5,4.85-2.42a4.41,4.41,0,0,1,3.49,1.78,6.29,6.29,0,0,1,1.36,4.05c0,3.26-1.52,5.17-4.56,5.71a6.73,6.73,0,0,1-3.64-.29v7.73a14.78,14.78,0,0,0-5.19-2.19v-9.4c0-1.24-.69-1.85-2.08-1.85-1.61,0-2.65.56-3.11,1.67Zm10.38,2.83v2.59a1.66,1.66,0,0,0,1.1.47c1.12,0,1.67-.71,1.67-2.14a1.88,1.88,0,0,0-.49-1.3,1.43,1.43,0,0,0-1.06-.55A1.31,1.31,0,0,0,1777.93,366.21Z"/><path class="cls-44" d="M1188.41,442.73H1182a13.06,13.06,0,0,1,6.06-7.1,20,20,0,0,1,9.87-2.48q8.6,0,13.67,5.77t5.14,15.81q.06,7.5-2.14,12.24-2.7,5.82-8.25,5.88a12.54,12.54,0,0,1-4.93-.66,7.77,7.77,0,0,1-3.14-2.68q-1.68,3.4-7.39,3.34-10.85-.06-10.85-15.12a18.87,18.87,0,0,1,2.28-9.52,8.38,8.38,0,0,1,6-4.56,14.86,14.86,0,0,1,2.48-.23q5.43,0,5.43,4.62a11.25,11.25,0,0,1-.15,1.53,10.9,10.9,0,0,0-.14,1.53c0,1.69.75,2.56,2.25,2.6q3.06.1,3.06-2.37c0-1.77-1-2.66-3-2.66a6,6,0,0,0-1.79.29v-4.61a7.43,7.43,0,0,1,3.57-.93,7,7,0,0,1,5.14,2.23,7.74,7.74,0,0,1,2.25,5.51q.18,7.79-8.89,7.79-6.35,0-8.19-3.87a6.32,6.32,0,0,1-.23-3.58c.19-1.27.06-1.94-.4-2-1-.15-1.79.85-2.37,3a21.18,21.18,0,0,0-.75,4.45,14.46,14.46,0,0,0,1,6.92c.88,2.08,2.14,3.12,3.75,3.12,2.62,0,3.92-1.39,3.92-4.16v-2.42h5.89v2.31q0,4.38,4.27,4.38c1.81,0,3.15-1.4,4-4.21a24.59,24.59,0,0,0,1-8,19.32,19.32,0,0,0-3.23-11.31,10.92,10.92,0,0,0-9.35-4.85Q1191,438.69,1188.41,442.73Z"/><path class="cls-44" d="M1220.38,443.31a13.75,13.75,0,0,1,6-7.42,19.81,19.81,0,0,1,10.35-2.56q8.31,0,13.39,5.42a21.39,21.39,0,0,1,5.77,15.41q-.06,7.66-2.42,12.52-3.06,6.06-9.47,6.17a17.69,17.69,0,0,1-4.73-.4,8,8,0,0,1-4.33-3,6.12,6.12,0,0,1-2.19,2.54,8.71,8.71,0,0,1-4.27.86c-2.77,0-5-1.34-6.81-4a17.23,17.23,0,0,1-2.65-9.69,23.4,23.4,0,0,1,.17-2.77,14.88,14.88,0,0,1,4.67-9.18,13.39,13.39,0,0,1,9.41-3.63,10.46,10.46,0,0,1,7.65,2.8,9.85,9.85,0,0,1,2.85,7.36,7.12,7.12,0,0,1-1.09,4.09l-2,2.25a4.33,4.33,0,0,0-1.27,2.83,7.05,7.05,0,0,0,.11,1.15,3.48,3.48,0,0,0,1.33,2,4.11,4.11,0,0,0,2.6.86,5,5,0,0,0,1.84-.35q2-.79,3.18-4.67a27.86,27.86,0,0,0,1.09-8.25,15.68,15.68,0,0,0-3.72-10.42,11.17,11.17,0,0,0-9-4.35q-7.34.06-10.16,4.5Zm4.78,14.77a5.71,5.71,0,0,1,4.16-1.33,5.09,5.09,0,0,1,.86.06,6.14,6.14,0,0,1,4.22,2.37,6.53,6.53,0,0,1,2-2.54,4,4,0,0,0,1.38-3.18,3.83,3.83,0,0,0-1.53-3.08,5.11,5.11,0,0,0-3.37-1.07,7.15,7.15,0,0,0-6.06,3.46A10.47,10.47,0,0,0,1225.16,458.08Zm1.45,4.85a2.72,2.72,0,0,0-.58,1.73,2.62,2.62,0,0,0,1,2.13,2.74,2.74,0,0,0,1.73.58,2.64,2.64,0,0,0,2.14-1,2.79,2.79,0,0,0,.57-1.73,2.62,2.62,0,0,0-1-2.14,2.77,2.77,0,0,0-1.73-.57A2.61,2.61,0,0,0,1226.61,462.93Z"/><path class="cls-44" d="M1286,450.29h-6.06a9.13,9.13,0,0,0-3.23-1.62,20.75,20.75,0,0,0-4.15-.28,7.5,7.5,0,0,0-6,2.88,10.19,10.19,0,0,0,.15,13.22,8.21,8.21,0,0,0,6.37,2.71,8.79,8.79,0,0,0,5.6-1.73,7.11,7.11,0,0,0,2.48-4.33,8.26,8.26,0,0,1-7.61,3.23,6.66,6.66,0,0,1-4.16-1.85,5.65,5.65,0,0,1-1.9-4.38,6.7,6.7,0,0,1,2.77-5.77,8.33,8.33,0,0,1,5-1.56q5.65,0,8.74,3a9.91,9.91,0,0,1,2.74,8.16,10.25,10.25,0,0,1-4.18,8,15.83,15.83,0,0,1-9.67,2.83q-6.81,0-10.82-4.21a14.27,14.27,0,0,1-3.83-10.68q.16-6.69,4.12-10.64a14.28,14.28,0,0,1,10.42-4Q1283.27,443.25,1286,450.29Zm-13,7.56q0,2.37,3,2.37c1.61,0,2.65-.54,3.11-1.62a2.46,2.46,0,0,0,.24-1,2,2,0,0,0-1-1.73,3.85,3.85,0,0,0-2.13-.63C1274.08,455.2,1273,456.08,1273,457.85Z"/><path class="cls-44" d="M1303.41,443.77v5.37a6.33,6.33,0,0,0-5.4,2.3,10.13,10.13,0,0,0-2.56,6.12,9.78,9.78,0,0,0,1.61,6.64,7.56,7.56,0,0,0,6.29,3.17,7.28,7.28,0,0,0,5-1.5,5.48,5.48,0,0,0,2.08-4.39,2.92,2.92,0,0,0-.7-2,1.85,1.85,0,0,0-1.67-.67c-.58.08-1,.53-1.21,1.36s-.46,1.28-.69,1.35h-5.31a7.71,7.71,0,0,0,.46-3,28.72,28.72,0,0,1,.69-5.26,13,13,0,0,1,3.23-5.73c2.47-2.55,6-3.83,10.74-3.83a12.71,12.71,0,0,1,9.75,4.37,14.82,14.82,0,0,1,4,10.32,15.16,15.16,0,0,1-4.21,10.93,12,12,0,0,1-10.33,3.81V468a8.75,8.75,0,0,0,6.09-2.66,9,9,0,0,0,2.22-6.57,10.71,10.71,0,0,0-2.14-6.38,7.21,7.21,0,0,0-5.36-3.09,8.89,8.89,0,0,0-4.79.81,6.57,6.57,0,0,0-3.29,3.81,5.14,5.14,0,0,1,2.13-.46,5.67,5.67,0,0,1,4.45,2.24,8.59,8.59,0,0,1,2,5.58,10.56,10.56,0,0,1-3.93,9q-3.69,2.88-9.69,2.82-6.93-.06-10.5-4.55-3.18-4-3.23-10.31a14.74,14.74,0,0,1,3.78-10.19,11.22,11.22,0,0,1,10.53-4.26Z"/><path class="cls-20" d="M1311.43,431.54a4.66,4.66,0,0,1,2.31-1.91,6.66,6.66,0,0,1,2.88-.57,3.62,3.62,0,0,1,3.69,2.42q1.1-2.53,4.85-2.42a4.42,4.42,0,0,1,3.49,1.77,6.34,6.34,0,0,1,1.36,4.06q0,4.89-4.56,5.71a6.82,6.82,0,0,1-3.64-.29V448a14.78,14.78,0,0,0-5.19-2.19v-9.41c0-1.23-.69-1.84-2.08-1.84-1.61,0-2.65.55-3.11,1.67Zm10.38,2.82V437a1.64,1.64,0,0,0,1.1.46c1.12,0,1.67-.71,1.67-2.13a1.88,1.88,0,0,0-.49-1.3,1.4,1.4,0,0,0-1.06-.55A1.31,1.31,0,0,0,1321.81,434.36Z"/><path class="cls-45" d="M1356,472.74V431.43h17.55q6.62,0,9.62,1.12a9.55,9.55,0,0,1,4.81,3.95,11.93,11.93,0,0,1,1.8,6.51,11,11,0,0,1-2.73,7.68q-2.74,3-8.17,3.82a19.3,19.3,0,0,1,4.46,3.46,47.6,47.6,0,0,1,4.75,6.71l5,8.06h-10l-6-9a57.17,57.17,0,0,0-4.4-6.07,6.33,6.33,0,0,0-2.51-1.72,13.66,13.66,0,0,0-4.19-.47h-1.69v17.25Zm8.34-23.84h6.17q6,0,7.49-.51a4.44,4.44,0,0,0,2.34-1.74,5.42,5.42,0,0,0,.85-3.1,5,5,0,0,0-1.12-3.37,5.15,5.15,0,0,0-3.14-1.62q-1-.13-6.09-.14h-6.5Z"/><path class="cls-45" d="M1403.49,451.94l-7.18-1.29a11.14,11.14,0,0,1,4.17-6.43q3-2.09,8.79-2.08,5.3,0,7.89,1.25a7.88,7.88,0,0,1,3.64,3.19c.71,1.28,1.06,3.65,1.06,7.08l-.08,9.24a31.53,31.53,0,0,0,.38,5.82,16.65,16.65,0,0,0,1.42,4h-7.83c-.21-.53-.46-1.31-.76-2.34-.14-.47-.23-.78-.29-.93a14.48,14.48,0,0,1-4.33,3,12.62,12.62,0,0,1-4.94,1,10.2,10.2,0,0,1-7.28-2.5,8.37,8.37,0,0,1-2.66-6.34,8.53,8.53,0,0,1,1.21-4.53,8,8,0,0,1,3.39-3,26.62,26.62,0,0,1,6.3-1.84,43.34,43.34,0,0,0,7.69-2v-.79a4.1,4.1,0,0,0-1.12-3.25c-.75-.65-2.17-1-4.26-1a5.6,5.6,0,0,0-3.29.83A5.74,5.74,0,0,0,1403.49,451.94Zm10.59,6.43a49.11,49.11,0,0,1-4.81,1.21A14.45,14.45,0,0,0,1405,461a3.28,3.28,0,0,0-1.55,2.79,3.85,3.85,0,0,0,1.24,2.87,4.29,4.29,0,0,0,3.15,1.21,6.86,6.86,0,0,0,4.09-1.4,5,5,0,0,0,1.88-2.62,15.52,15.52,0,0,0,.31-3.86Z"/><path class="cls-45" d="M1456.88,472.74H1449V457.47a24.1,24.1,0,0,0-.5-6.27,4.38,4.38,0,0,0-1.65-2.21,4.69,4.69,0,0,0-2.75-.79,6.35,6.35,0,0,0-3.69,1.12,5.66,5.66,0,0,0-2.24,3,26,26,0,0,0-.6,6.87v13.56h-7.92V442.81H1437v4.4a12,12,0,0,1,9.86-5.07,11.83,11.83,0,0,1,4.79.94,8,8,0,0,1,3.28,2.41,8.64,8.64,0,0,1,1.55,3.33,24.08,24.08,0,0,1,.44,5.32Z"/><path class="cls-45" d="M1464.63,472.74V431.43h7.92v21.92l9.27-10.54h9.74l-10.22,10.94,11,19h-8.54l-7.52-13.44-3.69,3.86v9.58Z"/><path class="cls-44" d="M1527.07,433.15a22.57,22.57,0,0,1,8,2.66q9.47,5.82,9.46,18.58,0,8.66-4.5,13.5-4.27,4.68-11.88,5-17,.58-17.66-11.13a7.45,7.45,0,0,1,.46-2.89,4.13,4.13,0,0,1,1.85-2.37h-4.22v-5h12.53a2.48,2.48,0,0,0-.41-2,1.79,1.79,0,0,0-1.44-.86c-1.31,0-1.94.69-1.9,2.07h-5.49a6.37,6.37,0,0,1,1.91-5.3,7.6,7.6,0,0,1,5.19-2,6.82,6.82,0,0,1,6.29,3.12q2.19,3.34,1.79,10h-3.92q-6.53,0-6.29,4.67.29,6.18,11.31,5.72a10.19,10.19,0,0,0,7.61-3.55,12.91,12.91,0,0,0,2.83-8.69,18.87,18.87,0,0,0-2.54-9.81q-1.56,1.62-5.08,1.62a9.79,9.79,0,0,1-4.09-.81,7.37,7.37,0,0,1-4.74-7.1,8,8,0,0,1,.12-1.38,31.5,31.5,0,0,0-3.23-.29v-4.38A36,36,0,0,1,1527.07,433.15Zm.72,6.93a3,3,0,0,0,1.53,1.38,4.24,4.24,0,0,0,3.92-.4,9.12,9.12,0,0,0-2.59-1.85,19.33,19.33,0,0,0-3.35-1.15A3.24,3.24,0,0,0,1527.79,440.08Z"/><path class="cls-44" d="M1547.84,450.1a6.45,6.45,0,0,1,1.88-4.68,6.74,6.74,0,0,1,4.53-2.11,7.92,7.92,0,0,1,4.21.84,4.44,4.44,0,0,1,2.31,2.79,15.88,15.88,0,0,1,5.88-3,27.41,27.41,0,0,1,6.52-.63,15.35,15.35,0,0,1,10.91,4.31,14.46,14.46,0,0,1,4.67,10.63q.12,6.44-3.06,10.37a11.24,11.24,0,0,1-9.23,4.23v-5.33a6,6,0,0,0,4.59-2.73,10.7,10.7,0,0,0-1.18-13.1,10.24,10.24,0,0,0-6.7-3.07,17.57,17.57,0,0,0-6,.57,10.9,10.9,0,0,1,6.87,3.93,13.45,13.45,0,0,1,2.94,8,12.87,12.87,0,0,1-1.93,8.45,7.48,7.48,0,0,1-6.38,3.32c-3.15.08-5.35-.77-6.58-2.54-1.3,1.77-3.46,2.62-6.46,2.54-3.73-.08-6-1.61-6.92-4.61A3.89,3.89,0,0,1,1549,465a4.37,4.37,0,0,0,.49-1.18q0-.81-.93-.81a2,2,0,0,0-1.78,1.27v-4.44c1.38-1.65,2.88-3.33,4.5-5l4.73-4.73a1.09,1.09,0,0,0,.29-.69c0-.85-.52-1.22-1.56-1.1s-1.62.92-1.62,2.42a3,3,0,0,0,.12.87H1548A7.23,7.23,0,0,1,1547.84,450.1Zm7.1,12.42a4.52,4.52,0,0,1-.23,1.22,4.11,4.11,0,0,0-.23,1.21c0,1.46.81,2.21,2.42,2.25a2.29,2.29,0,0,0,2.08-1.13,4.83,4.83,0,0,0,.81-2.8v-2h5.07v2q0,3.93,3.23,3.75,1.62-.06,2.37-2.13a11,11,0,0,0,.4-4.22,7.84,7.84,0,0,0-2.79-5.45,7.12,7.12,0,0,0-5.75-1.76q-2.25.28-5.16,3t-3.89,3.81A2.19,2.19,0,0,1,1554.94,462.52Z"/><path class="cls-44" d="M1618.27,445c2.28-1.31,5.28-1.86,9-1.67q11.54.57,10.85,13.27h-12a12,12,0,0,0-5.82,1.21,4.43,4.43,0,0,0-2.48,4.1q0,5.66,9,5.54,7.2-.12,7.61-2.89h6.12a7.87,7.87,0,0,1-3.38,6.06,11.26,11.26,0,0,1-6.14,2.25,4.51,4.51,0,0,0-2.11.72,1.84,1.84,0,0,0-1.06,1.47c0,1,1.11,1.56,3.34,1.56q6,0,6.12-4.21h6a8.56,8.56,0,0,1-4.1,7.5,16,16,0,0,1-8.6,2q-9.57,0-9.57-5.83c0-1.92.73-3,2.19-3.34a14.45,14.45,0,0,1-9.12-3.52,8.7,8.7,0,0,1-3-6.75,10,10,0,0,1,3.93-8.26,14.5,14.5,0,0,1,9-2.71h7.15q.06-3-5.31-3-4.61,0-5.42,2.43h-6.23A8,8,0,0,1,1618.27,445Z"/><path class="cls-44" d="M1642.36,444.69h18v4.39a46.8,46.8,0,0,0-7.33,5.48c-2.35,2.35-3.6,4.71-3.75,7.1a9.55,9.55,0,0,0,.35,3.52,2.84,2.84,0,0,0,3,2.13,2.77,2.77,0,0,0,2.3-1.09,3.56,3.56,0,0,0,.75-2.31,3.73,3.73,0,0,0-.28-1.44h5.88a13.24,13.24,0,0,1,.23,2.48,7.37,7.37,0,0,1-2.39,5.88,8.47,8.47,0,0,1-5.92,2q-5.07-.06-7.61-2.13-3.18-2.6-2.89-8.72a13.28,13.28,0,0,1,3.29-8.07,12.59,12.59,0,0,1,5.6-4.27h-9.23Z"/><path class="cls-44" d="M1665.9,450.29a6.74,6.74,0,0,1,2.19-5.08,7.45,7.45,0,0,1,5.31-2.07,7.68,7.68,0,0,1,4.5,1.24,4.73,4.73,0,0,1,2.08,3.37q3.75-4.62,10.85-4.61a12.56,12.56,0,0,1,9.55,4.18,15,15,0,0,1,4.06,10.12,16.15,16.15,0,0,1-3.06,10.59,11.74,11.74,0,0,1-9.86,4.65c-.46,0-.93,0-1.39-.06v-5.53a7.28,7.28,0,0,0,6.06-2.51,9.34,9.34,0,0,0,2.14-6.58,11.07,11.07,0,0,0-2.31-6.73,6.84,6.84,0,0,0-5.77-2.71,8.88,8.88,0,0,0-6.81,3.13,8.79,8.79,0,0,1,5.71,3.19,9.39,9.39,0,0,1,2.14,6.32,10.49,10.49,0,0,1-4,8.52,14.42,14.42,0,0,1-9.29,3q-13.74,0-13.74-14.77c0-.89,0-1.81.12-2.77h5.13a2.46,2.46,0,0,0,0,.52c0,.77.48,1.15,1.44,1.15a4.14,4.14,0,0,0,2.08-.52,5.59,5.59,0,0,0,1.9-1.73,6.31,6.31,0,0,0,.75-1.56,4,4,0,0,0,.17-1.21,4.72,4.72,0,0,0-.52-2.22,1.55,1.55,0,0,0-1.38-1q-2.43,0-2.19,2.94H1666A7.35,7.35,0,0,1,1665.9,450.29Zm12.69,16.39a8.07,8.07,0,0,0,4-1.3,4.79,4.79,0,0,0,2.25-3.09,6.44,6.44,0,0,0,.12-1.21,3.94,3.94,0,0,0-3.92-4.21,2.07,2.07,0,0,0-1.62.58,18.3,18.3,0,0,1-3.52,3.11,7,7,0,0,1-3.81,1.33,4,4,0,0,1-1.79-.41Q1671.78,467,1678.59,466.68Z"/><path class="cls-44" d="M1721.06,443.77v5.37a6.31,6.31,0,0,0-5.39,2.3,10.14,10.14,0,0,0-2.57,6.12,9.83,9.83,0,0,0,1.61,6.64,7.57,7.57,0,0,0,6.29,3.17,7.27,7.27,0,0,0,5-1.5,5.48,5.48,0,0,0,2.08-4.39,3,3,0,0,0-.69-2,1.86,1.86,0,0,0-1.67-.67c-.58.08-1,.53-1.22,1.36s-.46,1.28-.69,1.35h-5.31a7.51,7.51,0,0,0,.46-3,27.76,27.76,0,0,1,.7-5.26,12.93,12.93,0,0,1,3.23-5.73q3.69-3.83,10.73-3.83a12.68,12.68,0,0,1,9.75,4.37,14.78,14.78,0,0,1,4,10.32,15.16,15.16,0,0,1-4.21,10.93,12,12,0,0,1-10.33,3.81V468a8.75,8.75,0,0,0,6.09-2.66,9,9,0,0,0,2.22-6.57,10.77,10.77,0,0,0-2.13-6.38,7.24,7.24,0,0,0-5.37-3.09,8.91,8.91,0,0,0-4.79.81,6.61,6.61,0,0,0-3.29,3.81,5.19,5.19,0,0,1,2.14-.46,5.67,5.67,0,0,1,4.44,2.24,8.59,8.59,0,0,1,2,5.58,10.58,10.58,0,0,1-3.92,9q-3.69,2.88-9.7,2.82-6.92-.06-10.5-4.55a16.3,16.3,0,0,1-3.23-10.31,14.74,14.74,0,0,1,3.78-10.19,11.22,11.22,0,0,1,10.53-4.26Z"/><path class="cls-44" d="M1751.47,442.62q4.32-8.78,16.39-8.77a16.53,16.53,0,0,1,12.92,5.53q5,5.55,5,14.66,0,8.9-5.19,14-5,4.85-12.87,4.84t-12.52-3.58q-5.37-4.2-5.54-12.69a15.64,15.64,0,0,1,2.25-8.83,8.49,8.49,0,0,1,7.56-4.33c2.16,0,3.7.7,4.62,2.08q1.5-2.25,5.31-2.25a6.82,6.82,0,0,1,5.88,3.17,12.15,12.15,0,0,1,2,7,8.53,8.53,0,0,1-2.66,6.34,9.42,9.42,0,0,1-6.87,2.6,10.83,10.83,0,0,1-6.57-1.85,6.76,6.76,0,0,1-2.89-5.94,5.38,5.38,0,0,1,1.33-3.81,1.38,1.38,0,0,0,.29-1,.84.84,0,0,0-.64-.8,1.82,1.82,0,0,0-.46-.06c-.92,0-1.67.81-2.25,2.42a12.47,12.47,0,0,0-.69,4.91,10.82,10.82,0,0,0,3.32,8.05q3.14,2.85,8.51,2.85a11.23,11.23,0,0,0,8.59-3.66,13.07,13.07,0,0,0,3.41-9.26,17.17,17.17,0,0,0-3.29-10.68,10.54,10.54,0,0,0-8.83-4.56q-6.12,0-9.46,3.7Zm12.64,10.21a2.51,2.51,0,0,0-.41,1.38,2.87,2.87,0,0,0,1.13,2.23,4.28,4.28,0,0,0,2.85.95,4.35,4.35,0,0,0,3.12-1.16,3.5,3.5,0,0,0,1-2,5.15,5.15,0,0,1-4.16.93A4.61,4.61,0,0,1,1764.11,452.83Zm2.88-3.4a1.82,1.82,0,0,0,.61,1.38,2,2,0,0,0,1.41.58,1.93,1.93,0,0,0,1.39-.58,1.9,1.9,0,0,0,.57-1.38,2,2,0,0,0-2-2,2,2,0,0,0-1.41.58A1.84,1.84,0,0,0,1767,449.43Z"/><path class="cls-20" d="M1784.59,483.58h-26.66c-3.85,0-6.15-1.23-6.92-3.69a5.81,5.81,0,0,1-.23-1.67,6.09,6.09,0,0,1,1.73-4.33h6.29a4.52,4.52,0,0,0-1.33,2.77q0,1.62,2.13,1.62h19.22V465.7a25.29,25.29,0,0,0,5.77-4.33Z"/></g><g id="Layer_7" data-name="Layer 7"><path class="cls-46" d="M681.88,835.75v196H257.45v-243H634.86A47.16,47.16,0,0,1,681.88,835.75Z"/><rect class="cls-36" x="254.06" y="851.33" width="86.5" height="121.9" transform="translate(-328.16 184.66) rotate(-22.63)"/><line class="cls-39" x1="254.36" y1="884.4" x2="283.09" y2="872.89"/><line class="cls-39" x1="257.02" y1="891.07" x2="285.76" y2="879.56"/><line class="cls-39" x1="259.69" y1="897.73" x2="288.43" y2="886.22"/><line class="cls-39" x1="262.36" y1="904.39" x2="291.1" y2="892.88"/><line class="cls-39" x1="265.03" y1="911.06" x2="293.77" y2="899.55"/><line class="cls-39" x1="267.7" y1="917.72" x2="296.44" y2="906.21"/><line class="cls-39" x1="270.37" y1="924.39" x2="299.1" y2="912.87"/><line class="cls-39" x1="272.89" y1="930.66" x2="301.62" y2="919.15"/><line class="cls-39" x1="275.4" y1="936.94" x2="304.13" y2="925.43"/><line class="cls-39" x1="277.92" y1="943.22" x2="306.65" y2="931.71"/><line class="cls-39" x1="280.43" y1="949.5" x2="309.16" y2="937.99"/><line class="cls-39" x1="282.95" y1="955.77" x2="311.68" y2="944.26"/><rect class="cls-47" x="534.45" y="781" width="92.54" height="133.13" transform="matrix(0.88, 0.47, -0.47, 0.88, 465.23, -173.35)"/><g class="cls-38"><line class="cls-39" x1="592.54" y1="792.45" x2="642.76" y2="819.29"/><line class="cls-39" x1="589.15" y1="798.78" x2="639.38" y2="825.62"/><line class="cls-39" x1="585.77" y1="805.11" x2="635.99" y2="831.95"/><line class="cls-39" x1="582.39" y1="811.44" x2="632.61" y2="838.28"/><line class="cls-39" x1="579" y1="817.77" x2="629.23" y2="844.61"/><line class="cls-39" x1="575.62" y1="824.1" x2="625.84" y2="850.94"/><line class="cls-39" x1="572.24" y1="830.43" x2="622.46" y2="857.28"/><line class="cls-39" x1="569.05" y1="836.4" x2="619.27" y2="863.24"/><line class="cls-39" x1="565.86" y1="842.36" x2="616.09" y2="869.2"/><line class="cls-39" x1="562.67" y1="848.33" x2="612.9" y2="875.17"/><line class="cls-39" x1="559.49" y1="854.29" x2="609.71" y2="881.13"/><line class="cls-39" x1="556.3" y1="860.26" x2="606.52" y2="887.1"/></g><rect class="cls-36" x="456.07" y="740.63" width="95.21" height="130.35" transform="translate(150.94 -76.57) rotate(10.22)"/><g class="cls-38"><line class="cls-39" x1="518.31" y1="760.95" x2="547.65" y2="765.81"/><line class="cls-39" x1="517.05" y1="768.55" x2="546.39" y2="773.41"/><line class="cls-39" x1="515.79" y1="776.15" x2="545.13" y2="781.01"/><line class="cls-39" x1="514.53" y1="783.75" x2="543.87" y2="788.61"/><line class="cls-39" x1="513.27" y1="791.35" x2="542.61" y2="796.21"/><line class="cls-39" x1="512.01" y1="798.95" x2="541.35" y2="803.81"/><line class="cls-39" x1="510.75" y1="806.56" x2="540.09" y2="811.41"/><line class="cls-39" x1="509.57" y1="813.72" x2="538.91" y2="818.58"/><line class="cls-39" x1="508.38" y1="820.88" x2="537.72" y2="825.74"/><line class="cls-39" x1="507.2" y1="828.04" x2="536.54" y2="832.9"/><line class="cls-39" x1="506.01" y1="835.2" x2="535.35" y2="840.06"/><line class="cls-39" x1="504.83" y1="842.36" x2="534.16" y2="847.22"/></g><g class="cls-38"><line class="cls-39" x1="480.88" y1="758.17" x2="510.22" y2="763.03"/><line class="cls-39" x1="479.62" y1="765.78" x2="508.96" y2="770.63"/><line class="cls-39" x1="478.36" y1="773.38" x2="507.7" y2="778.23"/><line class="cls-39" x1="477.1" y1="780.98" x2="506.44" y2="785.84"/><line class="cls-39" x1="475.85" y1="788.58" x2="505.18" y2="793.44"/><line class="cls-39" x1="474.59" y1="796.18" x2="503.93" y2="801.04"/><line class="cls-39" x1="473.33" y1="803.78" x2="502.67" y2="808.64"/><line class="cls-39" x1="472.14" y1="810.94" x2="501.48" y2="815.8"/><line class="cls-39" x1="470.96" y1="818.1" x2="500.3" y2="822.96"/><line class="cls-39" x1="469.77" y1="825.26" x2="499.11" y2="830.12"/><line class="cls-39" x1="468.59" y1="832.42" x2="497.92" y2="837.28"/><line class="cls-39" x1="467.4" y1="839.58" x2="496.74" y2="844.44"/></g><rect class="cls-23" x="474.74" y="767.72" width="35.72" height="35.72" rx="16.39" transform="translate(120.38 -63.68) rotate(8.42)"/><rect class="cls-48" x="350.01" y="762.8" width="110.21" height="133.59" transform="translate(-168.41 106.12) rotate(-12.38)"/><g class="cls-38"><line class="cls-39" x1="362.76" y1="785.9" x2="441.73" y2="769.65"/><line class="cls-39" x1="364.68" y1="795.23" x2="443.65" y2="778.99"/><line class="cls-39" x1="366.6" y1="804.57" x2="445.57" y2="788.32"/><line class="cls-39" x1="368.52" y1="813.91" x2="447.49" y2="797.66"/><line class="cls-39" x1="370.44" y1="823.24" x2="449.41" y2="807"/><line class="cls-39" x1="372.36" y1="832.58" x2="451.33" y2="816.34"/><line class="cls-39" x1="374.29" y1="841.92" x2="453.25" y2="825.67"/><line class="cls-39" x1="376.1" y1="850.71" x2="455.06" y2="834.47"/><line class="cls-39" x1="377.9" y1="859.51" x2="456.87" y2="843.27"/><line class="cls-39" x1="379.71" y1="868.31" x2="458.68" y2="852.06"/><line class="cls-39" x1="381.52" y1="877.1" x2="460.49" y2="860.86"/><line class="cls-39" x1="383.33" y1="885.9" x2="462.3" y2="869.65"/></g><rect class="cls-23" x="367.63" y="797.73" width="49.25" height="16.98" rx="8.49" transform="translate(-154.41 95.57) rotate(-11.62)"/><path class="cls-49" d="M686.46,1031.77l23.39-140.14a50.78,50.78,0,0,0-1.74-24.7,43.61,43.61,0,0,0-26.23-27.14,49.63,49.63,0,0,0-17.31-3.1l-306.69-1.44c-22.11-.1-44.19,12.88-57.16,31.68a66,66,0,0,0-10.31,23.29L263.06,1015l-3.68,16.78H686.46Z"/></g><g id="Layer_8" data-name="Layer 8"><circle class="cls-50" cx="199.93" cy="278.08" r="118"/><path class="cls-51" d="M212.77,162q-41.19,105.74-82.36,211.47L281.91,363Q247.34,262.45,212.77,162Z"/><polyline class="cls-51" points="130.41 373.42 199.93 278.08 281.91 362.95"/><path class="cls-20" d="M122,385.07l-1.31,3.7-1.59,0L123.37,377l1.85,0L129,389l-1.63,0-1.19-3.76ZM125.9,384l-1.09-3.44c-.25-.78-.41-1.49-.57-2.18h0c-.2.7-.41,1.42-.65,2.14l-1.24,3.41Z"/><path class="cls-20" d="M289.25,365.14a14.73,14.73,0,0,1,2.8-.19,4.93,4.93,0,0,1,3.24.93,2.49,2.49,0,0,1,.94,2.12,2.81,2.81,0,0,1-2.06,2.56v0a3,3,0,0,1,2.38,3,3.16,3.16,0,0,1-1.06,2.35c-.84.74-2.18,1.06-4.12,1a17.49,17.49,0,0,1-2.37-.19Zm1.3,10.58a9.5,9.5,0,0,0,1.28.09c1.59,0,3.06-.51,3.1-2.24s-1.34-2.32-3-2.35l-1.27,0Zm.12-5.69,1.39,0c1.62,0,2.59-.79,2.62-1.93,0-1.4-1-2-2.57-2a6.75,6.75,0,0,0-1.36.08Z"/><path class="cls-20" d="M225.27,154.24a7.62,7.62,0,0,1-3.14.49c-3.35-.07-5.82-2.24-5.74-6.13a5.91,5.91,0,0,1,6.34-6.09,6.37,6.37,0,0,1,2.8.58l-.4,1.25a5.42,5.42,0,0,0-2.38-.55c-2.78-.06-4.67,1.68-4.73,4.8-.07,2.9,1.56,4.8,4.45,4.87A6.23,6.23,0,0,0,225,153Z"/><path class="cls-20" d="M215.12,270.25c-.09,4.08-2.62,6.19-5.65,6.13s-5.28-2.55-5.2-6.14c.08-3.77,2.47-6.18,5.64-6.11S215.19,266.72,215.12,270.25Zm-9.22,0c-.05,2.54,1.27,4.84,3.69,4.89s3.85-2.16,3.9-4.85c.06-2.36-1.12-4.85-3.68-4.9S206,267.64,205.9,270.24Z"/><path class="cls-52" d="M148.51,348.61A28.41,28.41,0,0,1,159.6,371.4"/><path class="cls-52" d="M200,194.84a15.52,15.52,0,0,0,24.65.53"/></g><g id="Layer_10" data-name="Layer 10"><ellipse class="cls-20" cx="1068.84" cy="531.83" rx="15.16" ry="14.82" transform="translate(-8.07 16.53) rotate(-0.88)"/><ellipse class="cls-20" cx="1132.94" cy="528.28" rx="15.16" ry="14.82" transform="translate(-8 17.52) rotate(-0.88)"/><ellipse class="cls-20" cx="1158.67" cy="577.71" rx="15.16" ry="14.82" transform="translate(-8.76 17.92) rotate(-0.88)"/><ellipse class="cls-20" cx="1021.42" cy="476.54" rx="15.16" ry="14.82" transform="translate(-7.22 15.79) rotate(-0.88)"/><ellipse class="cls-20" cx="1068.13" cy="475.94" rx="11.16" ry="10.91" transform="translate(-7.2 16.51) rotate(-0.88)"/><ellipse class="cls-20" cx="1106.12" cy="499.06" rx="8.24" ry="8.05" transform="translate(-7.56 17.1) rotate(-0.88)"/><ellipse class="cls-20" cx="1132.45" cy="489.94" rx="8.24" ry="8.05" transform="translate(-7.41 17.5) rotate(-0.88)"/><ellipse class="cls-20" cx="1166.1" cy="514.39" rx="8.24" ry="8.05" transform="translate(-7.79 18.02) rotate(-0.88)"/><ellipse class="cls-20" cx="1201.57" cy="562.33" rx="8.24" ry="8.05" transform="translate(-8.52 18.58) rotate(-0.88)"/><ellipse class="cls-20" cx="1218.52" cy="599.82" rx="8.24" ry="8.05" transform="translate(-9.1 18.84) rotate(-0.88)"/><ellipse class="cls-20" cx="1157.46" cy="616.7" rx="8.24" ry="8.05" transform="translate(-9.36 17.9) rotate(-0.88)"/><ellipse class="cls-20" cx="1118.64" cy="596.75" rx="8.24" ry="8.05" transform="translate(-9.06 17.3) rotate(-0.88)"/><ellipse class="cls-20" cx="1077.58" cy="571.97" rx="8.24" ry="8.05" transform="translate(-8.68 16.67) rotate(-0.88)"/><ellipse class="cls-20" cx="1037.66" cy="560.9" rx="8.24" ry="8.05" transform="translate(-8.52 16.05) rotate(-0.88)"/><line class="cls-20" x1="1021.42" y1="476.54" x2="1068.13" y2="475.94"/><line class="cls-20" x1="1068.13" y1="475.94" x2="1068.87" y2="534.72"/><line class="cls-20" x1="1037.66" y1="560.9" x2="1062.77" y2="534.8"/><line class="cls-20" x1="1077.58" y1="571.97" x2="1073.23" y2="534.67"/><line class="cls-20" x1="1128.96" y1="531.06" x2="1077.07" y2="531.72"/><line class="cls-20" x1="1132.87" y1="522.87" x2="1128.45" y2="490.72"/><line class="cls-20" x1="1106.12" y1="499.06" x2="1128.45" y2="490.72"/><line class="cls-20" x1="1166.1" y1="514.39" x2="1128.45" y2="490.72"/><line class="cls-20" x1="1158.72" y1="582.14" x2="1132.97" y2="531"/><line class="cls-20" x1="1118.64" y1="596.75" x2="1148.79" y2="582.27"/><line class="cls-20" x1="1157.46" y1="616.7" x2="1158.72" y2="582.14"/><line class="cls-20" x1="1201.57" y1="562.33" x2="1162.33" y2="577.66"/><line class="cls-20" x1="1222.62" y1="603.47" x2="1201.63" y2="566.85"/><ellipse class="cls-50" cx="1074.4" cy="172.99" rx="87.06" ry="24.44" transform="translate(673.38 1184.65) rotate(-77.52)"/><ellipse class="cls-50" cx="1074.4" cy="172.99" rx="24.44" ry="87.06" transform="translate(403.04 1029.46) rotate(-61.06)"/><ellipse class="cls-50" cx="1074.4" cy="172.99" rx="87.06" ry="24.44" transform="translate(-7.56 289.75) rotate(-15.31)"/><circle class="cls-53" cx="1075.41" cy="100.93" r="8.53"/><circle class="cls-53" cx="997.46" cy="184.77" r="8.53"/><circle class="cls-53" cx="1058.34" cy="172.99" r="8.53"/><circle class="cls-53" cx="1090.36" cy="172.99" r="8.53"/><circle class="cls-53" cx="1119.65" cy="217.63" r="8.53"/><circle class="cls-53" cx="1075.41" cy="159.7" r="14.54"/><circle class="cls-53" cx="1074.4" cy="183.3" r="14.54"/><polygon class="cls-53" points="1628.5 159.51 1667.08 186.69 1674.36 226.81 1689.2 210.19 1717.29 229.71 1799.44 118.77 1628.5 159.51"/><polygon class="cls-54" points="1667.08 186.69 1799.44 118.77 1680.36 201.34 1674.36 226.81 1667.08 186.69"/><path class="cls-50" d="M1675.19,216.08c-1.86.57-3.76,1.18-5.71,1.81"/><path class="cls-55" d="M1658.14,221.8a355,355,0,0,0-138.45,90.68C1416.75,421.39,1419,551.72,1371.08,631.71c-52.63,87.86-186.42,149.51-555.22,2.18"/><path class="cls-50" d="M810.28,631.65l-5.56-2.24"/></g></svg>