<svg id="Layer_1" data-name="Layer 1" xmlns="http://www.w3.org/2000/svg" xmlns:xlink="http://www.w3.org/1999/xlink" viewBox="0 0 497.86 311.64"><defs><style>.cls-1{fill:#f9a980;}.cls-2{isolation:isolate;font-size:55.35px;fill:#fff;font-family:Arial-BoldMT, Arial;font-weight:700;}.cls-3{fill:#e9e727;}.cls-4{fill:url(#linear-gradient);}.cls-5{fill:#e58825;}.cls-6{fill:#f2b31c;}.cls-7{fill:url(#linear-gradient-2);}.cls-8{fill:#3883c5;}.cls-9{fill:#1260a0;}</style><linearGradient id="linear-gradient" x1="56.72" y1="233.54" x2="64.67" y2="241.98" gradientUnits="userSpaceOnUse"><stop offset="0.46" stop-color="#f2b31c"/><stop offset="0.6" stop-color="#f1b81d"/><stop offset="0.77" stop-color="#eec820"/><stop offset="0.96" stop-color="#eae126"/><stop offset="1" stop-color="#e9e727"/></linearGradient><linearGradient id="linear-gradient-2" x1="25.62" y1="232" x2="17.94" y2="241.16" gradientUnits="userSpaceOnUse"><stop offset="0.28" stop-color="#f2b31c"/><stop offset="0.48" stop-color="#f1b71d"/><stop offset="0.68" stop-color="#efc41f"/><stop offset="0.89" stop-color="#ecd824"/><stop offset="1" stop-color="#e9e727"/></linearGradient></defs><title>Untitled-2</title><rect class="cls-1" x="108.26" width="79" height="55"/><text class="cls-2" transform="translate(99.07 283.55)">ONLINE</text><path class="cls-3" d="M382.38,436.75H367.91c-.93,0-1.39.63-1.39,1.88v19.85q0,1.8,1.14,1.8h4.66c.82,0,1.22-.54,1.22-1.72v-6.93a3.24,3.24,0,0,0-.16-1.35c-.11-.19-.46-.28-1.08-.28h-3.84v-8.1h10.7q3.6,0,3.6,2.94v21.24a2.56,2.56,0,0,1-1.15,2.08,3.93,3.93,0,0,1-2.37.86H360.39c-2.12,0-3.19-1-3.19-3.1v-34q0-3.51,3.36-3.51h21.82Z" transform="translate(-42.74 -185)"/><path class="cls-3" d="M404.84,428.42c.43,0,1.44.68,3,2a3.41,3.41,0,0,1,3-2h16.67v8.41H413.33c-.76,0-1.24.21-1.43.61a5.72,5.72,0,0,0-.28,2.17h13.31c1.74,0,2.61,1,2.62,2.86v23.61c0,2-.88,2.94-2.62,2.94H389.8c-1.81,0-2.71-.87-2.71-2.61V442.47a2.59,2.59,0,0,1,.94-2,3.1,3.1,0,0,1,2.08-.82h12.48c0-1.85-.54-2.78-1.63-2.78H387v-8.41Zm-8.26,29.84q0,2,1.47,2h18.3c1.09,0,1.63-.66,1.63-2v-8.6c0-.92-.54-1.39-1.63-1.39h-17.9c-1.25,0-1.88.47-1.88,1.39Z" transform="translate(-42.74 -185)"/><path class="cls-3" d="M417.64,428.5V416h9.48v14.85a4.86,4.86,0,0,0-2.46-1.63,9.85,9.85,0,0,0-3.59-.74Z" transform="translate(-42.74 -185)"/><path class="cls-3" d="M449.85,428.42c.43,0,1.44.68,3,2a3.43,3.43,0,0,1,3-2h16.66v8.41H458.33c-.76,0-1.24.21-1.43.61a5.93,5.93,0,0,0-.29,2.17h13.32c1.75,0,2.62,1,2.62,2.86v23.61c0,2-.88,2.94-2.62,2.94H434.82c-1.81,0-2.72-.87-2.72-2.61V442.47a2.59,2.59,0,0,1,.95-2,3.08,3.08,0,0,1,2.08-.82h12.48c0-1.85-.54-2.78-1.63-2.78H432v-8.41Zm-8.25,29.84q0,2,1.47,2h18.3c1.09,0,1.63-.66,1.63-2v-8.6c0-.92-.54-1.39-1.63-1.39h-17.9c-1.25,0-1.88.47-1.88,1.39Z" transform="translate(-42.74 -185)"/><path class="cls-3" d="M502,436.75H487.52c-.93,0-1.39.63-1.39,1.88v19.85q0,1.8,1.14,1.8h4.66c.81,0,1.22-.54,1.22-1.72v-6.93a3.41,3.41,0,0,0-.16-1.35c-.11-.19-.47-.28-1.09-.28h-3.84v-8.1h10.71q3.59,0,3.59,2.94v21.24a2.51,2.51,0,0,1-1.15,2.08,3.9,3.9,0,0,1-2.36.86H480q-3.19,0-3.19-3.1v-34q0-3.51,3.35-3.51H502Z" transform="translate(-42.74 -185)"/><path class="cls-3" d="M506.61,433.07c0-1.47,1.12-3,3.35-4.57l16.75-11.76H540.6L524,428.58h10.71a4.53,4.53,0,0,1,3.22,1.27,4.15,4.15,0,0,1,1.35,3.14v33.17q0,3-3.35,3h-26c-2.12,0-3.19-1.15-3.19-3.44Zm9.5-8.82q-2.79,2-5.56,3.84-3.68,2.87-3.75,4.57V415.18h9.31Zm.24,33.09c0,2.08.54,3.11,1.56,3.11h10c.93,0,1.5-.27,1.72-.82a7.18,7.18,0,0,0,.16-2.12V438.8c0-1.21-.76-1.81-2.28-1.81H518.4c-.93,0-1.5.17-1.72.5a3.17,3.17,0,0,0-.33,1.71Z" transform="translate(-42.74 -185)"/><polygon class="cls-4" points="70.35 237.38 51.14 238.27 61.4 232.4 70.35 237.38"/><polygon class="cls-3" points="81.49 243.58 81.49 288.95 61.12 254.92 51.15 238.27 70.35 237.38 70.36 237.38 81.49 243.58"/><polygon class="cls-5" points="40.75 266.26 40.74 311.64 0 288.95 20.38 254.92 30.97 260.82 40.75 266.26"/><polygon class="cls-6" points="81.49 288.95 50.52 260.82 61.12 254.92 81.49 288.95"/><polygon class="cls-5" points="30.97 260.82 0.21 288.95 20.38 254.92 30.97 260.82"/><polygon class="cls-6" points="81.49 288.95 40.74 311.64 40.75 266.26 50.52 260.82 81.49 288.95"/><polygon class="cls-3" points="30.34 238.27 20.38 254.92 0 288.95 0 243.58 11.14 237.38 20.09 232.4 30.33 238.27 30.34 238.27"/><polygon class="cls-3" points="40.74 220.89 30.34 238.27 30.34 238.27 30.33 238.27 20.09 232.4 0 220.89 40.74 220.89"/><polygon class="cls-3" points="81.49 220.89 61.4 232.4 51.16 238.27 51.15 238.27 51.15 238.27 40.74 220.89 81.49 220.89"/><polygon class="cls-7" points="11.13 237.38 30.34 238.27 20.09 232.4 11.13 237.38"/><polygon class="cls-8" points="61.12 254.92 50.52 260.82 40.75 266.26 40.74 220.89 51.15 238.27 51.15 238.27 61.12 254.92"/><polygon class="cls-9" points="41.16 266.26 31.39 260.82 20.79 254.92 30.75 238.27 30.75 238.27 41.16 220.89 41.16 266.26"/></svg>