<svg id="Layer_2" data-name="Layer 2" xmlns="http://www.w3.org/2000/svg" xmlns:xlink="http://www.w3.org/1999/xlink" viewBox="0 0 841.89 200.62"><defs><style>.cls-1{fill:#989798;}.cls-2{fill:#fff;}.cls-3{fill:#ecac50;}.cls-4{fill:#c57e2a;}.cls-5{fill:#ffd089;}.cls-6{clip-path:url(#clip-path);}.cls-7{clip-path:url(#clip-path-2);}.cls-8{clip-path:url(#clip-path-3);}.cls-9{clip-path:url(#clip-path-4);}.cls-10{clip-path:url(#clip-path-5);}.cls-11{clip-path:url(#clip-path-6);}.cls-12{clip-path:url(#clip-path-7);}.cls-13{clip-path:url(#clip-path-8);}.cls-14{clip-path:url(#clip-path-9);}.cls-15{clip-path:url(#clip-path-10);}.cls-16,.cls-18{fill:#08669b;}.cls-17{fill:#1e97cd;}.cls-18{font-size:78.18px;font-family:Arial-BoldMT, Arial;font-weight:700;}.cls-19{fill:#5b98d1;}</style><clipPath id="clip-path"><polygon class="cls-1" points="187.97 44.28 150.47 46.08 170.49 34.2 187.97 44.28"/></clipPath><clipPath id="clip-path-2"><polygon class="cls-2" points="209.71 56.83 209.71 148.67 169.94 79.79 150.47 46.08 187.97 44.28 209.71 56.83"/></clipPath><clipPath id="clip-path-3"><polygon class="cls-3" points="130.18 102.75 130.17 194.58 50.64 148.67 90.41 79.79 130.18 102.75"/></clipPath><clipPath id="clip-path-4"><polygon class="cls-3" points="209.71 148.67 149.25 91.74 169.94 79.79 209.71 148.67"/></clipPath><clipPath id="clip-path-5"><polygon class="cls-4" points="51.04 148.67 111.1 91.74 90.41 79.79 51.04 148.67"/></clipPath><clipPath id="clip-path-6"><polygon class="cls-5" points="209.71 148.67 130.17 194.58 130.18 102.75 149.25 91.74 209.71 148.67"/></clipPath><clipPath id="clip-path-7"><polygon class="cls-2" points="109.87 46.08 90.41 79.79 50.64 148.67 50.64 56.83 89.85 34.2 109.87 46.08"/></clipPath><clipPath id="clip-path-8"><polygon class="cls-2" points="130.17 10.91 109.87 46.08 89.85 34.2 50.64 10.91 130.17 10.91"/></clipPath><clipPath id="clip-path-9"><polygon class="cls-2" points="209.7 10.91 170.49 34.2 150.47 46.08 130.17 10.91 209.7 10.91"/></clipPath><clipPath id="clip-path-10"><polygon class="cls-1" points="72.37 44.28 109.87 46.08 89.85 34.2 72.37 44.28"/></clipPath></defs><title>op blue svg</title><polygon class="cls-1" points="187.97 44.28 150.47 46.08 170.49 34.2 187.97 44.28"/><g class="cls-6"><rect class="cls-1" x="149.58" y="29.65" width="39.28" height="20.98" transform="matrix(0.97, -0.25, 0.25, 0.97, -4.65, 44.07)"/></g><polygon class="cls-2" points="209.71 56.83 209.71 148.67 169.94 79.79 150.47 46.08 187.97 44.28 209.71 56.83"/><g class="cls-7"><rect class="cls-2" x="128.92" y="36.47" width="102.34" height="120.01" transform="translate(-24.19 99.19) rotate(-28.94)"/></g><polygon class="cls-3" points="130.18 102.75 130.17 194.58 50.64 148.67 90.41 79.79 130.18 102.75"/><g class="cls-8"><rect class="cls-3" x="26.96" y="67.54" width="126.89" height="139.29" transform="translate(-57.24 65.12) rotate(-30.6)"/></g><polygon class="cls-3" points="209.71 148.67 149.25 91.74 169.94 79.79 209.71 148.67"/><g class="cls-9"><rect class="cls-3" x="134.88" y="71.37" width="89.2" height="85.72" transform="translate(-5.63 219.08) rotate(-62)"/></g><polygon class="cls-4" points="51.04 148.67 111.1 91.74 90.41 79.79 51.04 148.67"/><g class="cls-10"><rect class="cls-4" x="38.39" y="69.72" width="85.36" height="89.01" transform="translate(-44.13 51.42) rotate(-28)"/></g><polygon class="cls-5" points="209.71 148.67 130.17 194.58 130.18 102.75 149.25 91.74 209.71 148.67"/><g class="cls-11"><rect class="cls-5" x="105.77" y="83.67" width="128.34" height="118.98" transform="translate(-36.97 224.17) rotate(-61.49)"/></g><polygon class="cls-2" points="109.87 46.08 90.41 79.79 50.64 148.67 50.64 56.83 89.85 34.2 109.87 46.08"/><g class="cls-12"><rect class="cls-2" x="16.11" y="35.47" width="128.28" height="111.92" transform="matrix(0.54, -0.84, 0.84, 0.54, -40.11, 109.12)"/></g><polygon class="cls-2" points="130.17 10.91 109.87 46.08 89.85 34.2 50.64 10.91 130.17 10.91"/><g class="cls-13"><rect class="cls-2" x="68.01" y="-13.15" width="44.8" height="83.29" transform="translate(50.87 114.65) rotate(-82.85)"/></g><polygon class="cls-2" points="209.7 10.91 170.49 34.2 150.47 46.08 130.17 10.91 209.7 10.91"/><g class="cls-14"><rect class="cls-2" x="128.06" y="5.41" width="83.74" height="46.19" transform="translate(-2.33 24.61) rotate(-8.23)"/></g><polygon class="cls-1" points="72.37 44.28 109.87 46.08 89.85 34.2 72.37 44.28"/><g class="cls-15"><rect class="cls-1" x="80.63" y="20.5" width="20.98" height="39.28" transform="translate(29.26 118.16) rotate(-75.36)"/></g><polygon class="cls-16" points="130.17 10.91 90.41 79.79 130.18 102.75 169.94 79.79 130.17 10.91"/><polygon class="cls-17" points="130.17 10.91 130.18 102.75 169.94 79.79 130.17 10.91"/><text class="cls-18" transform="translate(222.35 126.72)">ONLINE</text><path class="cls-19" d="M562.09,81.82H541.67c-1.31,0-2,.88-2,2.65v28c0,1.69.54,2.54,1.62,2.54h6.58c1.15,0,1.73-.81,1.73-2.43v-9.8a4.88,4.88,0,0,0-.23-1.91c-.16-.27-.66-.4-1.5-.4h-5.43V89.09h15.12q5.07,0,5.07,4.15v30a3.57,3.57,0,0,1-1.61,2.94,5.5,5.5,0,0,1-3.35,1.21H531.05q-4.5,0-4.5-4.38V75q0-5,4.73-5h30.81Z"/><path class="cls-19" d="M593.82,70.05c.61,0,2,1,4.27,2.88,1.07-1.92,2.5-2.88,4.27-2.88h23.53V81.93H605.82c-1.08,0-1.75.29-2,.87a7.91,7.91,0,0,0-.41,3H622.2q3.69,0,3.69,4v33.35q0,4.16-3.69,4.15H572.59q-3.81,0-3.81-3.69V89.89A3.65,3.65,0,0,1,570.11,87a4.36,4.36,0,0,1,2.94-1.16H590.7q0-3.91-2.3-3.92H568.66V70.05Zm-11.66,42.11c0,1.93.7,2.89,2.08,2.89h25.85c1.54,0,2.3-.93,2.3-2.77V100.16c0-1.3-.76-2-2.3-2H584.82c-1.77,0-2.66.66-2.66,2Z"/><path class="cls-19" d="M611.93,70.16V52.51h13.39v21a7,7,0,0,0-3.46-2.31,14,14,0,0,0-5.08-1Z"/><path class="cls-19" d="M657.39,70.05q.93,0,4.27,2.88,1.62-2.88,4.27-2.88h23.54V81.93H669.39c-1.07,0-1.75.29-2,.87a8,8,0,0,0-.4,3h18.81q3.69,0,3.69,4v33.35q0,4.16-3.69,4.15H636.16c-2.54,0-3.8-1.23-3.8-3.69V89.89A3.67,3.67,0,0,1,633.68,87a4.4,4.4,0,0,1,2.94-1.16h17.66q0-3.91-2.31-3.92H632.24V70.05Zm-11.65,42.11c0,1.93.69,2.89,2.08,2.89h25.84c1.54,0,2.31-.93,2.31-2.77V100.16c0-1.3-.77-2-2.31-2H648.39c-1.77,0-2.65.66-2.65,2Z"/><path class="cls-19" d="M731,81.82H710.59c-1.31,0-2,.88-2,2.65v28c0,1.69.54,2.54,1.62,2.54h6.58c1.15,0,1.73-.81,1.73-2.43v-9.8a4.88,4.88,0,0,0-.23-1.91c-.16-.27-.66-.4-1.5-.4h-5.43V89.09h15.12q5.07,0,5.07,4.15v30a3.57,3.57,0,0,1-1.61,2.94,5.5,5.5,0,0,1-3.35,1.21H700q-4.5,0-4.5-4.38V75q0-5,4.73-5H731Z"/><path class="cls-19" d="M737.58,76.62c0-2.07,1.58-4.23,4.74-6.46L766,53.55h19.61L762.05,70.28h15.11a6.4,6.4,0,0,1,4.56,1.79,5.83,5.83,0,0,1,1.9,4.44v46.84c0,2.85-1.57,4.27-4.73,4.27H742.08q-4.5,0-4.5-4.84ZM751,64.16q-3.93,2.78-7.85,5.43-5.19,4-5.3,6.46V51.35H751Zm.35,46.73q0,4.39,2.19,4.39H767.7c1.31,0,2.12-.39,2.42-1.16a10,10,0,0,0,.23-3V84.7c0-1.69-1.07-2.54-3.23-2.54H754.2c-1.31,0-2.12.23-2.42.69a4.63,4.63,0,0,0-.46,2.43Z"/></svg>