<svg id="Layer_1" data-name="Layer 1" xmlns="http://www.w3.org/2000/svg" xmlns:xlink="http://www.w3.org/1999/xlink" viewBox="0 0 556.12 101.36"><defs><style>.cls-1{isolation:isolate;font-size:61.83px;fill:#fff;font-family:Arial-BoldMT, Arial;font-weight:700;}.cls-2{fill:#e9e727;}.cls-3{fill:url(#linear-gradient);}.cls-4{fill:#e58825;}.cls-5{fill:#f2b31c;}.cls-6{fill:url(#linear-gradient-2);}.cls-7{fill:#3883c5;}.cls-8{fill:#1260a0;}</style><linearGradient id="linear-gradient" x1="63.35" y1="14.13" x2="72.23" y2="23.56" gradientUnits="userSpaceOnUse"><stop offset="0.46" stop-color="#f2b31c"/><stop offset="0.6" stop-color="#f1b81d"/><stop offset="0.77" stop-color="#eec820"/><stop offset="0.96" stop-color="#eae126"/><stop offset="1" stop-color="#e9e727"/></linearGradient><linearGradient id="linear-gradient-2" x1="28.61" y1="12.41" x2="20.03" y2="22.65" gradientUnits="userSpaceOnUse"><stop offset="0.28" stop-color="#f2b31c"/><stop offset="0.48" stop-color="#f1b71d"/><stop offset="0.68" stop-color="#efc41f"/><stop offset="0.89" stop-color="#ecd824"/><stop offset="1" stop-color="#e9e727"/></linearGradient></defs><title>Untitled-2</title><text class="cls-1" transform="translate(110.66 69.99)">ONLINE</text><path class="cls-2" d="M400.12,445H384c-1,0-1.55.7-1.55,2.09v22.18c0,1.34.42,2,1.28,2h5.2c.91,0,1.37-.61,1.37-1.92v-7.74a3.88,3.88,0,0,0-.19-1.51c-.12-.21-.51-.32-1.21-.32h-4.28v-9h11.95q4,0,4,3.28v23.73a2.84,2.84,0,0,1-1.28,2.32,4.31,4.31,0,0,1-2.65,1H375.57c-2.38,0-3.57-1.15-3.57-3.47v-38q0-3.92,3.75-3.92h24.37Z" transform="translate(-20.75 -410.48)"/><path class="cls-2" d="M425.21,435.64c.48,0,1.61.76,3.37,2.28a3.82,3.82,0,0,1,3.38-2.28h18.62V445H434.7c-.85,0-1.39.23-1.6.68a6.44,6.44,0,0,0-.32,2.43h14.88q2.91,0,2.92,3.19v26.37c0,2.2-1,3.29-2.92,3.29H408.42c-2,0-3-1-3-2.92V451.33a2.89,2.89,0,0,1,1.05-2.28,3.43,3.43,0,0,1,2.32-.91H422.7c0-2.06-.61-3.1-1.82-3.1H405.31v-9.4ZM416,469c0,1.52.55,2.28,1.64,2.28h20.44c1.22,0,1.82-.73,1.82-2.19v-9.6c0-1-.6-1.55-1.82-1.55h-20c-1.4,0-2.1.52-2.1,1.55Z" transform="translate(-20.75 -410.48)"/><path class="cls-2" d="M439.51,435.73V421.79H450.1v16.59a5.5,5.5,0,0,0-2.74-1.82,10.9,10.9,0,0,0-4-.83Z" transform="translate(-20.75 -410.48)"/><path class="cls-2" d="M475.49,435.64c.48,0,1.61.76,3.38,2.28a3.81,3.81,0,0,1,3.38-2.28h18.61V445H485c-.85,0-1.38.23-1.59.68a6.25,6.25,0,0,0-.32,2.43h14.87q2.93,0,2.92,3.19v26.37c0,2.2-1,3.29-2.92,3.29H458.7c-2,0-3-1-3-2.92V451.33a2.87,2.87,0,0,1,1.05-2.28,3.48,3.48,0,0,1,2.33-.91H473c0-2.07-.61-3.1-1.82-3.1H455.59v-9.4ZM466.27,469c0,1.52.55,2.28,1.64,2.28h20.45c1.21,0,1.82-.73,1.82-2.19v-9.6c0-1-.61-1.55-1.82-1.55h-20c-1.39,0-2.1.52-2.1,1.55Z" transform="translate(-20.75 -410.48)"/><path class="cls-2" d="M533.71,445H517.56c-1,0-1.55.7-1.55,2.09v22.18c0,1.34.43,2,1.28,2h5.2c.91,0,1.37-.61,1.37-1.92v-7.74a3.87,3.87,0,0,0-.18-1.51c-.13-.21-.52-.32-1.21-.32h-4.29v-9h12q4,0,4,3.28v23.73a2.81,2.81,0,0,1-1.27,2.32,4.32,4.32,0,0,1-2.65,1H509.17c-2.37,0-3.56-1.15-3.56-3.47v-38c0-2.61,1.24-3.92,3.74-3.92h24.36Z" transform="translate(-20.75 -410.48)"/><path class="cls-2" d="M538.9,440.84c0-1.65,1.24-3.35,3.74-5.11l18.71-13.14h15.51l-18.57,13.23h12a5.09,5.09,0,0,1,3.61,1.42,4.63,4.63,0,0,1,1.5,3.51V477.8c0,2.25-1.24,3.38-3.74,3.38H542.53q-3.57,0-3.57-3.84ZM549.5,431q-3.11,2.19-6.2,4.29c-2.74,2.13-4.14,3.84-4.2,5.11V420.85h10.4Zm.27,37c0,2.31.61,3.47,1.74,3.47h11.23c1,0,1.67-.31,1.91-.91a7.93,7.93,0,0,0,.18-2.38v-20.9q0-2-2.55-2H552.06c-1,0-1.67.18-1.92.55a3.72,3.72,0,0,0-.37,1.92Z" transform="translate(-20.75 -410.48)"/><polygon class="cls-3" points="78.58 18.42 57.13 19.41 68.58 12.85 78.58 18.42"/><polygon class="cls-2" points="91.03 25.34 91.03 76.03 68.27 38.01 57.13 19.41 78.58 18.42 78.59 18.42 91.03 25.34"/><polygon class="cls-4" points="45.52 50.68 45.51 101.36 0 76.03 22.76 38.01 34.6 44.6 45.52 50.68"/><polygon class="cls-5" points="91.03 76.03 56.43 44.6 68.27 38.01 91.03 76.03"/><polygon class="cls-4" points="34.6 44.6 0.23 76.03 22.76 38.01 34.6 44.6"/><polygon class="cls-5" points="91.03 76.03 45.51 101.36 45.52 50.68 56.43 44.6 91.03 76.03"/><polygon class="cls-2" points="33.89 19.41 22.76 38.01 0 76.03 0 25.34 12.44 18.42 22.44 12.85 33.88 19.41 33.89 19.41"/><polygon class="cls-2" points="45.51 0 33.89 19.41 33.89 19.41 33.88 19.41 22.44 12.85 0 0 45.51 0"/><polygon class="cls-2" points="91.02 0 68.58 12.85 57.14 19.41 57.13 19.41 57.13 19.41 45.51 0 91.02 0"/><polygon class="cls-6" points="12.44 18.42 33.89 19.41 22.44 12.85 12.44 18.42"/><polygon class="cls-7" points="68.27 38.01 56.43 44.6 45.52 50.68 45.51 0 57.13 19.41 57.13 19.41 68.27 38.01"/><polygon class="cls-8" points="45.98 50.68 35.06 44.6 23.22 38.01 34.35 19.41 34.35 19.41 45.97 0 45.98 50.68"/></svg>