<svg id="Layer_1" data-name="Layer 1" xmlns="http://www.w3.org/2000/svg" xmlns:xlink="http://www.w3.org/1999/xlink" viewBox="0 0 406.69 75.79"><defs><style>.cls-1{isolation:isolate;font-size:45.24px;fill:#fff;font-family:Arial-BoldMT, Arial;font-weight:700;}.cls-2{fill:#e9e727;}.cls-3{fill:url(#linear-gradient);}.cls-4{fill:#e58825;}.cls-5{fill:#f2b31c;}.cls-6{fill:#f6f191;}.cls-7{fill:#f7d135;}.cls-8{fill:url(#linear-gradient-2);}.cls-9{fill:#3883c5;}.cls-10{fill:#1260a0;}</style><linearGradient id="linear-gradient" x1="47.5" y1="10.56" x2="54.14" y2="17.62" gradientUnits="userSpaceOnUse"><stop offset="0.46" stop-color="#f2b31c"/><stop offset="0.6" stop-color="#f1b81d"/><stop offset="0.77" stop-color="#eec820"/><stop offset="0.96" stop-color="#eae126"/><stop offset="1" stop-color="#e9e727"/></linearGradient><linearGradient id="linear-gradient-2" x1="21.53" y1="9.28" x2="15.11" y2="16.93" gradientUnits="userSpaceOnUse"><stop offset="0.28" stop-color="#f2b31c"/><stop offset="0.48" stop-color="#f1b71d"/><stop offset="0.68" stop-color="#efc41f"/><stop offset="0.89" stop-color="#ecd824"/><stop offset="1" stop-color="#e9e727"/></linearGradient></defs><title>Untitled-2</title><text class="cls-1" transform="translate(80.74 52.02)">ONLINE</text><path class="cls-2" d="M355.68,424.7H343.85c-.76,0-1.13.52-1.13,1.54v16.23c0,1,.31,1.46.93,1.46h3.81c.67,0,1-.44,1-1.4v-5.66a3,3,0,0,0-.13-1.11c-.09-.15-.38-.23-.89-.23H344.3v-6.62h8.75q2.94,0,2.94,2.4v17.36a2.08,2.08,0,0,1-.94,1.71,3.18,3.18,0,0,1-1.94.7h-15.4c-1.74,0-2.61-.84-2.61-2.54V420.77c0-1.92.92-2.88,2.74-2.88h17.84Z" transform="translate(-78.31 -398.67)"/><path class="cls-2" d="M374,417.89c.35,0,1.17.56,2.47,1.67a2.78,2.78,0,0,1,2.46-1.67H392.6v6.88H381c-.63,0-1,.17-1.17.5a4.62,4.62,0,0,0-.23,1.77h10.88c1.42,0,2.13.78,2.14,2.34v19.3c0,1.6-.72,2.4-2.14,2.4H361.75q-2.22,0-2.22-2.13V429.38a2.11,2.11,0,0,1,.77-1.67A2.49,2.49,0,0,1,362,427h10.2c0-1.51-.44-2.27-1.33-2.27H359.48v-6.88Zm-6.75,24.39c0,1.11.4,1.67,1.2,1.67h15c.89,0,1.33-.54,1.33-1.6v-7c0-.76-.44-1.13-1.33-1.13H368.82c-1,0-1.54.38-1.54,1.13Z" transform="translate(-78.31 -398.67)"/><path class="cls-2" d="M384.5,418v-10.2h7.75V419.9a3.94,3.94,0,0,0-2-1.33,8,8,0,0,0-2.94-.61Z" transform="translate(-78.31 -398.67)"/><path class="cls-2" d="M410.83,417.89c.35,0,1.17.56,2.47,1.67a2.79,2.79,0,0,1,2.47-1.67h13.62v6.88H417.76c-.62,0-1,.17-1.17.5a4.83,4.83,0,0,0-.24,1.77h10.89c1.43,0,2.14.78,2.14,2.34v19.3c0,1.6-.72,2.4-2.14,2.4h-28.7q-2.22,0-2.22-2.13V429.38a2.14,2.14,0,0,1,.77-1.67,2.52,2.52,0,0,1,1.71-.67H409c0-1.51-.44-2.27-1.33-2.27H396.27v-6.88Zm-6.75,24.39c0,1.11.4,1.67,1.2,1.67h15c.89,0,1.33-.53,1.33-1.6v-7c0-.76-.44-1.13-1.33-1.13H405.61c-1,0-1.53.38-1.54,1.13Z" transform="translate(-78.31 -398.67)"/><path class="cls-2" d="M453.43,424.7H441.61c-.76,0-1.13.52-1.13,1.54v16.23c0,1,.31,1.46.93,1.46h3.81c.66,0,1-.44,1-1.4v-5.66a3,3,0,0,0-.13-1.11c-.1-.15-.39-.23-.89-.23h-3.14v-6.62h8.75c1.95,0,2.93.8,2.93,2.4v17.36a2.09,2.09,0,0,1-.93,1.71,3.18,3.18,0,0,1-1.94.7h-15.4c-1.74,0-2.61-.84-2.61-2.54V420.77c0-1.92.92-2.88,2.74-2.88h17.83Z" transform="translate(-78.31 -398.67)"/><path class="cls-2" d="M457.22,421.7c0-1.21.91-2.45,2.74-3.74l13.69-9.61H485L471.41,418h8.75a3.71,3.71,0,0,1,2.64,1,3.43,3.43,0,0,1,1.1,2.57v27.11c0,1.65-.92,2.48-2.74,2.48H459.88c-1.74,0-2.61-.94-2.61-2.81Zm7.76-7.21c-1.51,1.06-3,2.11-4.54,3.14-2,1.55-3,2.8-3.07,3.73V407.07H465Zm.2,27.05c0,1.69.44,2.53,1.27,2.53h8.21q1.14,0,1.41-.66a6.36,6.36,0,0,0,.13-1.74v-15.3c0-1-.62-1.47-1.87-1.47h-7.48c-.76,0-1.22.14-1.4.41a2.59,2.59,0,0,0-.27,1.4Z" transform="translate(-78.31 -398.67)"/><polygon class="cls-3" points="58.89 13.77 42.85 14.51 51.41 9.61 58.89 13.77"/><polygon class="cls-2" points="68.2 18.95 68.2 56.85 51.18 28.42 42.85 14.52 58.89 13.77 58.9 13.77 68.2 18.95"/><polygon class="cls-4" points="34.17 37.9 34.16 75.79 0.13 56.85 17.15 28.42 26 33.35 34.17 37.9"/><polygon class="cls-5" points="68.2 56.85 42.33 33.35 51.18 28.42 68.2 56.85"/><polygon class="cls-4" points="26 33.35 0.3 56.85 17.15 28.42 26 33.35"/><path class="cls-6" d="M146.51,455.51l-34,18.95C119.88,456.52,130.88,449.22,146.51,455.51Z" transform="translate(-78.31 -398.67)"/><path class="cls-7" d="M78.31,455.51l34,18.95C104.94,456.52,93.94,449.22,78.31,455.51Z" transform="translate(-78.31 -398.67)"/><path class="cls-5" d="M146.51,455.51c-15.63-6.29-26.63,1-34,18.95v-37.9l8.16-4.54Z" transform="translate(-78.31 -398.67)"/><polygon class="cls-2" points="25.47 14.52 17.15 28.42 0.13 56.85 0.13 18.95 9.43 13.77 16.91 9.61 25.46 14.51 25.47 14.52"/><polygon class="cls-2" points="34.16 0 25.47 14.51 25.47 14.52 25.46 14.51 16.91 9.61 0.13 0 34.16 0"/><polygon class="cls-2" points="68.19 0 51.41 9.61 42.86 14.51 42.85 14.52 42.85 14.51 34.16 0 68.19 0"/><polygon class="cls-8" points="9.43 13.77 25.47 14.51 16.91 9.61 9.43 13.77"/><polygon class="cls-9" points="51.18 28.42 42.33 33.35 34.17 37.9 34.16 0 42.85 14.51 42.85 14.52 51.18 28.42"/><polygon class="cls-10" points="34.51 37.9 26.35 33.35 17.5 28.42 25.82 14.52 25.82 14.51 34.51 0 34.51 37.9"/></svg>