<svg id="Layer_1" data-name="Layer 1" xmlns="http://www.w3.org/2000/svg" viewBox="0 0 221.34 246.47"><defs><style>.cls-1{fill:#f2b31c;}.cls-2{fill:#e9e727;}.cls-3{fill:#e58825;}</style></defs><title>Untitled-2</title><polygon class="cls-1" points="191.09 44.78 138.92 47.2 166.77 31.24 191.09 44.78"/><polygon class="cls-2" points="221.34 61.62 221.34 184.85 166 92.43 138.92 47.2 191.09 44.78 221.34 61.62"/><polygon class="cls-1" points="110.67 123.23 110.66 246.47 0 184.85 55.34 92.43 110.67 123.23"/><polygon class="cls-3" points="221.34 184.85 137.21 108.46 166 92.43 221.34 184.85"/><polygon class="cls-3" points="0.56 184.85 84.13 108.46 55.34 92.43 0.56 184.85"/><polygon class="cls-1" points="221.34 184.85 110.66 246.47 110.67 123.23 137.21 108.46 221.34 184.85"/><polygon class="cls-2" points="82.41 47.2 55.34 92.43 0 184.85 0 61.62 54.56 31.24 82.41 47.2"/><polygon class="cls-2" points="110.66 0 82.41 47.2 54.56 31.24 0 0 110.66 0"/><polygon class="cls-2" points="221.33 0 166.77 31.24 138.92 47.2 110.66 0 221.33 0"/><polygon class="cls-1" points="30.24 44.78 82.41 47.2 54.56 31.24 30.24 44.78"/></svg>