<svg id="Layer_1" data-name="Layer 1" xmlns="http://www.w3.org/2000/svg" viewBox="0 0 533.13 104.35"><defs><style>.cls-1{isolation:isolate;font-size:59.1px;font-family:Arial-BoldMT, Arial;font-weight:700;}.cls-1,.cls-3{fill:#fff;}.cls-2{fill:#f9a980;}.cls-4{fill:#e58825;}.cls-5{fill:#f2b31c;}.cls-6{fill:#3883c5;}.cls-7{fill:#1260a0;}.cls-8{fill:none;}</style></defs><title>Untitled-2</title><text class="cls-1" transform="translate(107.31 72.43)">ONLINE</text><path class="cls-2" d="M399.27,440.55H383.82c-1,0-1.48.68-1.48,2v21.2c0,1.28.4,1.92,1.22,1.92h5c.87,0,1.31-.58,1.31-1.83v-7.41a3.55,3.55,0,0,0-.18-1.44c-.11-.2-.49-.3-1.16-.3h-4.09v-8.65h11.42q3.84,0,3.84,3.14v22.68a2.69,2.69,0,0,1-1.22,2.22,4.17,4.17,0,0,1-2.53.92H375.8c-2.28,0-3.41-1.1-3.41-3.31V435.41q0-3.75,3.58-3.75h23.3Z" transform="translate(-35.09 -402.08)"/><path class="cls-2" d="M423.25,431.66c.46,0,1.54.72,3.23,2.18a3.64,3.64,0,0,1,3.22-2.18h17.8v9H432.32c-.81,0-1.32.22-1.53.65a6.11,6.11,0,0,0-.3,2.32h14.22c1.86,0,2.79,1,2.79,3.05v25.22c0,2.09-.93,3.14-2.79,3.14H407.2c-1.93,0-2.9-.93-2.9-2.79V446.66a2.81,2.81,0,0,1,1-2.18,3.29,3.29,0,0,1,2.23-.87h13.32q0-3-1.74-3H404.23v-9Zm-8.81,31.86c0,1.45.52,2.17,1.57,2.17h19.54c1.16,0,1.74-.69,1.74-2.09v-9.17c0-1-.58-1.49-1.74-1.49H416.43c-1.33,0-2,.5-2,1.49Z" transform="translate(-35.09 -402.08)"/><path class="cls-2" d="M436.92,431.74V418.42H447v15.85a5.22,5.22,0,0,0-2.62-1.73,10.34,10.34,0,0,0-3.84-.79Z" transform="translate(-35.09 -402.08)"/><path class="cls-2" d="M471.31,431.66c.47,0,1.54.72,3.23,2.18a3.65,3.65,0,0,1,3.23-2.18h17.8v9h-15.2c-.81,0-1.32.22-1.52.65a5.93,5.93,0,0,0-.31,2.32h14.22c1.86,0,2.79,1,2.79,3.05v25.22c0,2.09-.93,3.14-2.79,3.14h-37.5c-1.93,0-2.89-.93-2.89-2.79V446.66a2.75,2.75,0,0,1,1-2.18,3.29,3.29,0,0,1,2.23-.87h13.32q0-3-1.74-3H452.3v-9Zm-8.81,31.86c0,1.45.53,2.17,1.57,2.17h19.55c1.16,0,1.74-.69,1.74-2.09v-9.17c0-1-.58-1.49-1.74-1.49H464.5c-1.33,0-2,.5-2,1.49Z" transform="translate(-35.09 -402.08)"/><path class="cls-2" d="M527,440.55H511.53c-1,0-1.48.68-1.48,2v21.2c0,1.28.41,1.92,1.22,1.92h5c.87,0,1.31-.58,1.31-1.83v-7.41a3.73,3.73,0,0,0-.17-1.44c-.12-.2-.5-.3-1.16-.3h-4.1v-8.65h11.43q3.83,0,3.83,3.14v22.68a2.69,2.69,0,0,1-1.22,2.22,4.15,4.15,0,0,1-2.52.92H503.51q-3.4,0-3.4-3.31V435.41q0-3.75,3.57-3.75H527Z" transform="translate(-35.09 -402.08)"/><path class="cls-2" d="M531.93,436.63c0-1.58,1.19-3.2,3.58-4.89l17.88-12.56h14.83l-17.76,12.65h11.43a4.9,4.9,0,0,1,3.45,1.35,4.46,4.46,0,0,1,1.44,3.36V472c0,2.15-1.2,3.23-3.58,3.23H535.4c-2.28,0-3.41-1.22-3.41-3.67Zm10.13-9.42q-3,2.09-5.93,4.1c-2.62,2-4,3.66-4,4.88V417.52h9.94Zm.26,35.33c0,2.22.58,3.32,1.67,3.32h10.72c1,0,1.6-.29,1.84-.87a8.26,8.26,0,0,0,.17-2.27v-20c0-1.28-.81-1.93-2.44-1.93h-9.77c-1,0-1.6.18-1.83.53a3.42,3.42,0,0,0-.36,1.83Z" transform="translate(-35.09 -402.08)"/><polygon class="cls-3" points="93.71 26.08 93.71 78.26 70.28 39.13 58.81 19.98 46.85 0 80.9 18.95 80.91 18.95 93.71 26.08"/><polygon class="cls-4" points="46.86 52.17 46.85 104.34 0 78.26 23.43 39.13 35.62 45.91 46.86 52.17"/><polygon class="cls-5" points="93.71 78.26 58.09 45.91 70.28 39.13 93.71 78.26"/><polygon class="cls-4" points="35.62 45.91 0.24 78.26 23.43 39.13 35.62 45.91"/><polygon class="cls-5" points="93.71 78.26 46.85 104.34 46.86 52.17 58.09 45.91 93.71 78.26"/><polygon class="cls-3" points="46.85 0 34.88 19.98 23.43 39.13 0 78.26 0 26.08 12.8 18.95 23.1 13.22 46.85 0"/><polygon class="cls-6" points="70.28 39.13 58.09 45.91 46.85 52.17 46.85 0 58.81 19.98 70.28 39.13"/><polygon class="cls-7" points="46.85 0 46.85 52.17 35.62 45.91 23.43 39.13 34.88 19.98 46.85 0"/><line class="cls-8" x1="80.91" y1="18.95" x2="80.9" y2="18.95"/></svg>