<svg id="Layer_1" data-name="Layer 1" xmlns="http://www.w3.org/2000/svg" viewBox="0 0 505.23 93.32"><defs><style>.cls-1{isolation:isolate;font-size:54.85px;fill:#fff;font-family:Arial-BoldMT, Arial;font-weight:700;}.cls-2{fill:#e9e727;}.cls-3{fill:#f2b31c;}.cls-4{fill:#e58825;}</style></defs><title>Untitled-2</title><text class="cls-1" transform="translate(110.06 64.13)">ONLINE</text><path class="cls-2" d="M394.71,431.35H380.37q-1.38,0-1.38,1.86v19.67c0,1.19.38,1.78,1.14,1.78h4.61c.81,0,1.21-.54,1.21-1.7v-6.87a3.21,3.21,0,0,0-.16-1.34c-.11-.18-.46-.28-1.07-.28h-3.8v-8h10.6q3.56,0,3.56,2.91v21.05a2.51,2.51,0,0,1-1.13,2.06,3.82,3.82,0,0,1-2.35.85H372.92q-3.17,0-3.16-3.07V426.57q0-3.48,3.32-3.48h21.63Z" transform="translate(-46.27 -398.73)"/><path class="cls-2" d="M417,423.09c.43,0,1.43.67,3,2a3.37,3.37,0,0,1,3-2h16.52v8.34H425.38c-.76,0-1.23.2-1.42.6a5.85,5.85,0,0,0-.28,2.15h13.19c1.73,0,2.59.95,2.6,2.84v23.39c0,1.95-.87,2.92-2.6,2.92H402.06c-1.79,0-2.68-.86-2.68-2.59V437a2.55,2.55,0,0,1,.93-2,3,3,0,0,1,2.06-.81h12.37c0-1.83-.54-2.75-1.62-2.75H399.31v-8.34Zm-8.18,29.57c0,1.34.49,2,1.46,2h18.13c1.08,0,1.62-.65,1.62-1.94v-8.52c0-.92-.54-1.37-1.62-1.37H410.63c-1.24,0-1.86.45-1.86,1.37Z" transform="translate(-46.27 -398.73)"/><path class="cls-2" d="M429.65,423.17V410.81H439v14.71a4.84,4.84,0,0,0-2.43-1.61,9.48,9.48,0,0,0-3.56-.73Z" transform="translate(-46.27 -398.73)"/><path class="cls-2" d="M461.57,423.09c.43,0,1.42.67,3,2a3.38,3.38,0,0,1,3-2h16.51v8.34H470c-.75,0-1.23.2-1.42.6a5.64,5.64,0,0,0-.28,2.15h13.2c1.72,0,2.59.95,2.59,2.84v23.39c0,1.95-.87,2.92-2.59,2.92h-34.8c-1.79,0-2.69-.86-2.69-2.59V437a2.56,2.56,0,0,1,.94-2,3,3,0,0,1,2.06-.81h12.37c0-1.83-.54-2.75-1.62-2.75H443.92v-8.34Zm-8.18,29.57c0,1.35.49,2,1.46,2H473c1.08,0,1.62-.65,1.62-1.94v-8.52c0-.92-.54-1.37-1.62-1.37H455.24c-1.24,0-1.86.45-1.86,1.37Z" transform="translate(-46.27 -398.73)"/><path class="cls-2" d="M513.22,431.35H498.89q-1.38,0-1.38,1.86v19.67c0,1.19.38,1.78,1.13,1.78h4.62c.81,0,1.22-.54,1.22-1.7v-6.87a3.39,3.39,0,0,0-.17-1.34c-.11-.18-.46-.28-1.07-.28h-3.81v-8H510q3.55,0,3.56,2.91v21.05a2.49,2.49,0,0,1-1.14,2.06,3.78,3.78,0,0,1-2.34.85H491.44c-2.1,0-3.16-1-3.16-3.07V426.57q0-3.48,3.32-3.48h21.62Z" transform="translate(-46.27 -398.73)"/><path class="cls-2" d="M517.81,427.7q0-2.19,3.33-4.53l16.59-11.66h13.76L535,423.25h10.6a4.49,4.49,0,0,1,3.2,1.26,4.13,4.13,0,0,1,1.34,3.11v32.87q0,3-3.32,3H521c-2.1,0-3.16-1.14-3.16-3.4Zm9.41-8.74c-1.83,1.29-3.67,2.56-5.5,3.81q-3.65,2.84-3.72,4.53V410h9.22Zm.24,32.79c0,2.06.54,3.08,1.55,3.08h10c.92,0,1.49-.27,1.7-.81a7.12,7.12,0,0,0,.16-2.11V433.37c0-1.19-.75-1.78-2.26-1.78h-9.07c-.92,0-1.48.16-1.7.49a3.21,3.21,0,0,0-.33,1.7Z" transform="translate(-46.27 -398.73)"/><polygon class="cls-3" points="72.35 16.95 52.6 17.87 63.15 11.83 72.35 16.95"/><polygon class="cls-2" points="83.81 23.33 83.81 69.99 62.85 35 52.6 17.87 72.35 16.95 83.81 23.33"/><polygon class="cls-3" points="41.91 46.66 41.9 93.32 0 69.99 20.95 35 41.91 46.66"/><polygon class="cls-4" points="83.81 69.99 51.95 41.07 62.85 35 83.81 69.99"/><polygon class="cls-4" points="0.21 69.99 31.86 41.07 20.95 35 0.21 69.99"/><polygon class="cls-3" points="83.81 69.99 41.9 93.32 41.91 46.66 51.95 41.07 83.81 69.99"/><polygon class="cls-2" points="31.2 17.87 20.95 35 0 69.99 0 23.33 20.66 11.83 31.2 17.87"/><polygon class="cls-2" points="41.9 0 31.2 17.87 20.66 11.83 0 0 41.9 0"/><polygon class="cls-2" points="83.8 0 63.15 11.83 52.6 17.87 41.9 0 83.8 0"/><polygon class="cls-3" points="11.45 16.95 31.2 17.87 20.66 11.83 11.45 16.95"/></svg>