<svg id="Layer_1" data-name="Layer 1" xmlns="http://www.w3.org/2000/svg" viewBox="0 0 537.29 99.25"><defs><style>.cls-1{isolation:isolate;font-size:58.33px;fill:#154f80;font-family:Arial-BoldMT, Arial;font-weight:700;}.cls-2{fill:#e9e727;}.cls-3{fill:#f2b31c;}.cls-4{fill:#e58825;}</style></defs><title>Untitled-2</title><text class="cls-1" transform="translate(117.04 68.2)">ONLINE</text><path class="cls-2" d="M405.26,435.21H390c-1,0-1.46.67-1.46,2v20.93q0,1.89,1.2,1.89h4.91c.86,0,1.29-.57,1.29-1.81v-7.3a3.63,3.63,0,0,0-.17-1.43q-.16-.3-1.14-.3h-4v-8.53h11.27q3.79,0,3.79,3.1v22.38a2.68,2.68,0,0,1-1.21,2.2,4.11,4.11,0,0,1-2.5.9H382.09q-3.36,0-3.36-3.27V430.14q0-3.7,3.54-3.71h23Z" transform="translate(-34.71 -400.52)"/><path class="cls-2" d="M428.93,426.43q.69,0,3.18,2.16a3.61,3.61,0,0,1,3.19-2.16h17.56v8.87h-15c-.8,0-1.31.22-1.51.65a6.29,6.29,0,0,0-.3,2.28h14c1.84,0,2.76,1,2.76,3v24.88c0,2.07-.92,3.09-2.76,3.09h-37c-1.91,0-2.86-.91-2.86-2.75V441.24a2.71,2.71,0,0,1,1-2.15,3.24,3.24,0,0,1,2.19-.86h13.15c0-2-.57-2.93-1.71-2.93H410.16v-8.87Zm-8.7,31.45c0,1.43.52,2.15,1.55,2.15h19.29q1.71,0,1.71-2.07v-9q0-1.47-1.71-1.47H422.2q-2,0-2,1.47Z" transform="translate(-34.71 -400.52)"/><path class="cls-2" d="M442.42,426.52V413.37h10V429a5.15,5.15,0,0,0-2.59-1.72,10.43,10.43,0,0,0-3.79-.78Z" transform="translate(-34.71 -400.52)"/><path class="cls-2" d="M476.36,426.43c.46,0,1.52.72,3.19,2.16a3.61,3.61,0,0,1,3.19-2.16H500.3v8.87h-15c-.8,0-1.3.22-1.5.65a5.89,5.89,0,0,0-.31,2.28h14c1.84,0,2.75,1,2.75,3v24.88c0,2.07-.92,3.09-2.75,3.09h-37c-1.9,0-2.86-.91-2.86-2.75V441.24a2.75,2.75,0,0,1,1-2.15,3.24,3.24,0,0,1,2.19-.86H474c0-2-.57-2.93-1.71-2.93h-14.7v-8.87Zm-8.69,31.45c0,1.43.52,2.15,1.55,2.15h19.29q1.71,0,1.71-2.07v-9q0-1.47-1.71-1.47H469.64q-2,0-2,1.47Z" transform="translate(-34.71 -400.52)"/><path class="cls-2" d="M531.29,435.21H516.06c-1,0-1.47.67-1.47,2v20.93q0,1.89,1.2,1.89h4.92c.85,0,1.29-.57,1.29-1.81v-7.3a3.63,3.63,0,0,0-.17-1.43c-.12-.2-.5-.3-1.15-.3h-4v-8.53h11.28c2.51,0,3.78,1,3.78,3.1v22.38a2.66,2.66,0,0,1-1.21,2.2,4.08,4.08,0,0,1-2.49.9H508.13q-3.35,0-3.35-3.27V430.14c0-2.47,1.17-3.71,3.53-3.71h23Z" transform="translate(-34.71 -400.52)"/><path class="cls-2" d="M536.18,431.34q0-2.32,3.54-4.82l17.64-12.4H572L554.48,426.6h11.28a4.79,4.79,0,0,1,3.4,1.34,4.39,4.39,0,0,1,1.42,3.31v35c0,2.12-1.18,3.19-3.53,3.19H539.61q-3.36,0-3.37-3.62Zm10-9.3c-2,1.38-3.91,2.73-5.86,4-2.58,2-3.9,3.61-4,4.82V412.48h9.81Zm.25,34.88c0,2.18.58,3.27,1.65,3.27h10.58c1,0,1.58-.29,1.81-.86a7.68,7.68,0,0,0,.17-2.24V437.37c0-1.27-.8-1.9-2.41-1.9H548.6c-1,0-1.58.17-1.81.52a3.42,3.42,0,0,0-.35,1.81Z" transform="translate(-34.71 -400.52)"/><polygon class="cls-3" points="76.95 18.03 55.94 19 67.15 12.58 76.95 18.03"/><polygon class="cls-2" points="89.13 24.81 89.13 74.44 66.84 37.22 55.94 19 76.95 18.03 89.13 24.81"/><polygon class="cls-3" points="44.57 49.62 44.56 99.25 0 74.44 22.28 37.22 44.57 49.62"/><polygon class="cls-4" points="89.13 74.44 55.25 43.67 66.84 37.22 89.13 74.44"/><polygon class="cls-4" points="0.23 74.44 33.88 43.67 22.28 37.22 0.23 74.44"/><polygon class="cls-3" points="89.13 74.44 44.56 99.25 44.57 49.62 55.25 43.67 89.13 74.44"/><polygon class="cls-2" points="33.19 19 22.28 37.22 0 74.44 0 24.81 21.97 12.58 33.19 19"/><polygon class="cls-2" points="44.56 0 33.19 19 21.97 12.58 0 0 44.56 0"/><polygon class="cls-2" points="89.12 0 67.15 12.58 55.94 19 44.56 0 89.12 0"/><polygon class="cls-3" points="12.18 18.03 33.19 19 21.97 12.58 12.18 18.03"/></svg>