<svg id="Layer_2" data-name="Layer 2" xmlns="http://www.w3.org/2000/svg" xmlns:xlink="http://www.w3.org/1999/xlink" viewBox="0 0 993.12 200.62"><defs><style>.cls-1{fill:#989798;}.cls-19,.cls-2{fill:#fff;}.cls-3{fill:#f68b5e;}.cls-4{fill:#f89e78;}.cls-5{fill:#d3663f;}.cls-6{fill:#f9ad86;}.cls-7{clip-path:url(#clip-path);}.cls-8{clip-path:url(#clip-path-2);}.cls-9{clip-path:url(#clip-path-3);}.cls-10{clip-path:url(#clip-path-4);}.cls-11{clip-path:url(#clip-path-5);}.cls-12{clip-path:url(#clip-path-6);}.cls-13{clip-path:url(#clip-path-7);}.cls-14{clip-path:url(#clip-path-8);}.cls-15{clip-path:url(#clip-path-9);}.cls-16{clip-path:url(#clip-path-10);}.cls-17{fill:#08669b;}.cls-18{fill:#1e97cd;}.cls-19{font-size:102.03px;font-family:Arial-BoldMT, Arial;font-weight:700;}.cls-20{fill:#5b98d1;}</style><clipPath id="clip-path"><polygon class="cls-1" points="187.97 44.28 150.47 46.08 170.49 34.2 187.97 44.28"/></clipPath><clipPath id="clip-path-2"><polygon class="cls-2" points="209.71 56.83 209.71 148.67 169.94 79.79 150.47 46.08 187.97 44.28 209.71 56.83"/></clipPath><clipPath id="clip-path-3"><polygon class="cls-3" points="130.18 102.75 130.17 194.58 50.64 148.67 90.41 79.79 130.18 102.75"/></clipPath><clipPath id="clip-path-4"><polygon class="cls-4" points="209.71 148.67 149.25 91.74 169.94 79.79 209.71 148.67"/></clipPath><clipPath id="clip-path-5"><polygon class="cls-5" points="51.04 148.67 111.1 91.74 90.41 79.79 51.04 148.67"/></clipPath><clipPath id="clip-path-6"><polygon class="cls-6" points="209.71 148.67 130.17 194.58 130.18 102.75 149.25 91.74 209.71 148.67"/></clipPath><clipPath id="clip-path-7"><polygon class="cls-2" points="109.87 46.08 90.41 79.79 50.64 148.67 50.64 56.83 89.85 34.2 109.87 46.08"/></clipPath><clipPath id="clip-path-8"><polygon class="cls-2" points="130.17 10.91 109.87 46.08 89.85 34.2 50.64 10.91 130.17 10.91"/></clipPath><clipPath id="clip-path-9"><polygon class="cls-2" points="209.7 10.91 170.49 34.2 150.47 46.08 130.17 10.91 209.7 10.91"/></clipPath><clipPath id="clip-path-10"><polygon class="cls-1" points="72.37 44.28 109.87 46.08 89.85 34.2 72.37 44.28"/></clipPath></defs><title>op blue2 svg</title><polygon class="cls-1" points="187.97 44.28 150.47 46.08 170.49 34.2 187.97 44.28"/><g class="cls-7"><rect class="cls-1" x="149.58" y="29.65" width="39.28" height="20.98" transform="matrix(0.97, -0.25, 0.25, 0.97, -4.65, 44.07)"/></g><polygon class="cls-2" points="209.71 56.83 209.71 148.67 169.94 79.79 150.47 46.08 187.97 44.28 209.71 56.83"/><g class="cls-8"><rect class="cls-2" x="128.92" y="36.47" width="102.34" height="120.01" transform="translate(-24.19 99.19) rotate(-28.94)"/></g><polygon class="cls-3" points="130.18 102.75 130.17 194.58 50.64 148.67 90.41 79.79 130.18 102.75"/><g class="cls-9"><rect class="cls-3" x="26.96" y="67.54" width="126.89" height="139.29" transform="translate(-57.24 65.12) rotate(-30.6)"/></g><polygon class="cls-4" points="209.71 148.67 149.25 91.74 169.94 79.79 209.71 148.67"/><g class="cls-10"><rect class="cls-4" x="134.88" y="71.37" width="89.2" height="85.72" transform="translate(-5.63 219.08) rotate(-62)"/></g><polygon class="cls-5" points="51.04 148.67 111.1 91.74 90.41 79.79 51.04 148.67"/><g class="cls-11"><rect class="cls-5" x="38.39" y="69.72" width="85.36" height="89.01" transform="translate(-44.13 51.42) rotate(-28)"/></g><polygon class="cls-6" points="209.71 148.67 130.17 194.58 130.18 102.75 149.25 91.74 209.71 148.67"/><g class="cls-12"><rect class="cls-6" x="105.77" y="83.67" width="128.34" height="118.98" transform="translate(-36.97 224.17) rotate(-61.49)"/></g><polygon class="cls-2" points="109.87 46.08 90.41 79.79 50.64 148.67 50.64 56.83 89.85 34.2 109.87 46.08"/><g class="cls-13"><rect class="cls-2" x="16.11" y="35.47" width="128.28" height="111.92" transform="matrix(0.54, -0.84, 0.84, 0.54, -40.11, 109.12)"/></g><polygon class="cls-2" points="130.17 10.91 109.87 46.08 89.85 34.2 50.64 10.91 130.17 10.91"/><g class="cls-14"><rect class="cls-2" x="68.01" y="-13.15" width="44.8" height="83.29" transform="translate(50.87 114.65) rotate(-82.85)"/></g><polygon class="cls-2" points="209.7 10.91 170.49 34.2 150.47 46.08 130.17 10.91 209.7 10.91"/><g class="cls-15"><rect class="cls-2" x="128.06" y="5.41" width="83.74" height="46.19" transform="translate(-2.33 24.61) rotate(-8.23)"/></g><polygon class="cls-1" points="72.37 44.28 109.87 46.08 89.85 34.2 72.37 44.28"/><g class="cls-16"><rect class="cls-1" x="80.63" y="20.5" width="20.98" height="39.28" transform="translate(29.26 118.16) rotate(-75.36)"/></g><polygon class="cls-17" points="130.17 10.91 90.41 79.79 130.18 102.75 169.94 79.79 130.17 10.91"/><polygon class="cls-18" points="130.17 10.91 130.18 102.75 169.94 79.79 130.17 10.91"/><text class="cls-19" transform="translate(238.58 144.18)">ONLINE</text><path class="cls-20" d="M682,85.57H655.33c-1.71,0-2.56,1.16-2.56,3.46v36.6c0,2.21.7,3.31,2.11,3.31h8.58c1.51,0,2.26-1,2.26-3.16V113a6.28,6.28,0,0,0-.3-2.49c-.2-.35-.85-.52-2-.52h-7.07V95.06h19.72q6.63,0,6.63,5.42v39.15a4.68,4.68,0,0,1-2.11,3.84,7.16,7.16,0,0,1-4.37,1.58H641.48c-3.92,0-5.88-1.9-5.88-5.72V76.69q0-6.48,6.18-6.48H682Z"/><path class="cls-20" d="M723.4,70.21q1.2,0,5.57,3.77c1.41-2.51,3.26-3.77,5.57-3.77h30.72V85.72h-26.2c-1.41,0-2.29.38-2.64,1.13a10.53,10.53,0,0,0-.52,4h24.54q4.81,0,4.82,5.27v43.52c0,3.62-1.61,5.42-4.82,5.42H695.69q-5,0-5-4.81V96.11a4.79,4.79,0,0,1,1.73-3.76,5.72,5.72,0,0,1,3.84-1.51h23q0-5.11-3-5.12H690.57V70.21Zm-15.21,55q0,3.76,2.71,3.76h33.73q3,0,3-3.61V109.52c0-1.71-1-2.56-3-2.56h-33q-3.46,0-3.46,2.56Z"/><path class="cls-20" d="M747,70.36v-23h17.47V74.73q-1.05-1.67-4.52-3a18.07,18.07,0,0,0-6.63-1.36Z"/><path class="cls-20" d="M806.37,70.21q1.2,0,5.57,3.77,2.12-3.77,5.58-3.77h30.72V85.72H822c-1.4,0-2.28.38-2.63,1.13a10.49,10.49,0,0,0-.53,4h24.55q4.82,0,4.82,5.27v43.52c0,3.62-1.61,5.42-4.82,5.42H778.66q-5,0-5-4.81V96.11a4.77,4.77,0,0,1,1.74-3.76,5.72,5.72,0,0,1,3.84-1.51h23c0-3.41-1-5.12-3-5.12H773.54V70.21Zm-15.21,55c0,2.51.91,3.76,2.71,3.76h33.74c2,0,3-1.2,3-3.61V109.52c0-1.71-1-2.56-3-2.56h-33q-3.46,0-3.47,2.56Z"/><path class="cls-20" d="M902.45,85.57H875.8c-1.71,0-2.56,1.16-2.56,3.46v36.6c0,2.21.7,3.31,2.1,3.31h8.59c1.5,0,2.26-1,2.26-3.16V113a6.28,6.28,0,0,0-.3-2.49c-.21-.35-.86-.52-2-.52h-7.08V95.06h19.73q6.61,0,6.62,5.42v39.15a4.66,4.66,0,0,1-2.11,3.84,7.14,7.14,0,0,1-4.36,1.58H861.94c-3.91,0-5.87-1.9-5.87-5.72V76.69q0-6.48,6.17-6.48h40.21Z"/><path class="cls-20" d="M911,78.79q0-4.07,6.18-8.43l30.87-21.68h25.6L943,70.51h19.73a8.38,8.38,0,0,1,5.95,2.34,7.64,7.64,0,0,1,2.48,5.79v61.14q0,5.58-6.17,5.58h-48q-5.88,0-5.88-6.33ZM928.5,62.53q-5.12,3.61-10.24,7.08-6.78,5.27-6.92,8.43V45.81H928.5Zm.45,61c0,3.82,1,5.72,2.87,5.72h18.52c1.7,0,2.76-.5,3.16-1.5a13.57,13.57,0,0,0,.3-3.92V89.34q0-3.32-4.21-3.32H932.72c-1.71,0-2.76.3-3.16.91a5.9,5.9,0,0,0-.61,3.16Z"/></svg>