<svg id="Layer_1" data-name="Layer 1" xmlns="http://www.w3.org/2000/svg" viewBox="0 0 495.36 91.5"><defs><style>.cls-1{isolation:isolate;font-size:53.78px;fill:none;stroke:#154f80;stroke-miterlimit:10;font-family:Arial-BoldMT, Arial;font-weight:700;}.cls-2{fill:#e9e727;}.cls-3{fill:#f2b31c;}.cls-4{fill:#e58825;}</style></defs><title>Untitled-2</title><text class="cls-1" transform="translate(107.91 62.88)">ONLINE</text><path class="cls-2" d="M401.92,435.36H387.87c-.91,0-1.35.61-1.35,1.82v19.29c0,1.17.37,1.75,1.11,1.75h4.52c.8,0,1.19-.53,1.19-1.67v-6.74a3.08,3.08,0,0,0-.16-1.31c-.1-.18-.44-.27-1.05-.27H388.4v-7.87h10.4q3.49,0,3.49,2.86v20.63a2.47,2.47,0,0,1-1.11,2,3.83,3.83,0,0,1-2.3.83H380.57c-2.07,0-3.1-1-3.1-3v-33q0-3.42,3.25-3.42h21.2Z" transform="translate(-60.29 -403.37)"/><path class="cls-2" d="M423.75,427.26c.42,0,1.4.66,2.93,2a3.31,3.31,0,0,1,2.94-2h16.19v8.18H432c-.74,0-1.21.2-1.39.59a5.61,5.61,0,0,0-.28,2.11h12.94c1.69,0,2.54.93,2.54,2.78v22.94c0,1.9-.85,2.85-2.54,2.85H409.14c-1.76,0-2.64-.84-2.64-2.53V440.91a2.54,2.54,0,0,1,.92-2,3,3,0,0,1,2-.8h12.12c0-1.79-.52-2.69-1.58-2.69H406.44v-8.18Zm-8,29c0,1.32.47,2,1.43,2h17.78c1.05,0,1.58-.63,1.58-1.9V448c0-.9-.53-1.35-1.58-1.35h-17.4c-1.21,0-1.82.45-1.82,1.35Z" transform="translate(-60.29 -403.37)"/><path class="cls-2" d="M436.19,427.34V415.22h9.2v14.42a4.81,4.81,0,0,0-2.38-1.58,9.51,9.51,0,0,0-3.49-.72Z" transform="translate(-60.29 -403.37)"/><path class="cls-2" d="M467.48,427.26c.42,0,1.4.66,2.93,2a3.33,3.33,0,0,1,2.95-2h16.19v8.18H475.72c-.74,0-1.2.2-1.39.59a5.61,5.61,0,0,0-.28,2.11H487c1.7,0,2.54.93,2.54,2.78v22.94c0,1.9-.85,2.85-2.54,2.85H452.87c-1.75,0-2.63-.84-2.63-2.53V440.91a2.53,2.53,0,0,1,.91-2,3.07,3.07,0,0,1,2-.8H465.3c0-1.79-.53-2.69-1.58-2.69H450.17v-8.18Zm-8,29c0,1.32.48,2,1.43,2h17.78c1.06,0,1.59-.63,1.59-1.9V448q0-1.35-1.59-1.35H461.28q-1.83,0-1.83,1.35Z" transform="translate(-60.29 -403.37)"/><path class="cls-2" d="M518.12,435.36h-14c-.91,0-1.35.61-1.35,1.82v19.29c0,1.17.36,1.75,1.1,1.75h4.53c.79,0,1.19-.53,1.19-1.67v-6.74a3.24,3.24,0,0,0-.16-1.31c-.11-.18-.45-.27-1.05-.27h-3.73v-7.87H515q3.48,0,3.49,2.86v20.63a2.46,2.46,0,0,1-1.12,2,3.82,3.82,0,0,1-2.29.83H496.77c-2.06,0-3.09-1-3.09-3v-33q0-3.42,3.25-3.42h21.19Z" transform="translate(-60.29 -403.37)"/><path class="cls-2" d="M522.63,431.78c0-1.43,1.08-2.91,3.26-4.44l16.27-11.43h13.49L539.5,427.42h10.4a4.4,4.4,0,0,1,3.13,1.23,4,4,0,0,1,1.31,3.05v32.23q0,2.94-3.25,2.94h-25.3q-3.1,0-3.1-3.34Zm9.22-8.57q-2.7,1.91-5.39,3.73c-2.39,1.86-3.6,3.34-3.65,4.45v-17h9Zm.24,32.15c0,2,.53,3,1.51,3h9.77c.89,0,1.45-.26,1.66-.79a7.19,7.19,0,0,0,.16-2.07V437.34c0-1.16-.74-1.75-2.22-1.75h-8.89c-.9,0-1.46.16-1.67.48a3.11,3.11,0,0,0-.32,1.67Z" transform="translate(-60.29 -403.37)"/><polygon class="cls-3" points="70.94 16.62 51.57 17.52 61.91 11.6 70.94 16.62"/><polygon class="cls-2" points="82.17 22.88 82.17 68.63 61.63 34.31 51.57 17.52 70.94 16.62 82.17 22.88"/><polygon class="cls-3" points="41.09 45.75 41.08 91.5 0 68.63 20.54 34.31 41.09 45.75"/><polygon class="cls-4" points="82.17 68.63 50.94 40.26 61.63 34.31 82.17 68.63"/><polygon class="cls-4" points="0.21 68.63 31.23 40.26 20.54 34.31 0.21 68.63"/><polygon class="cls-3" points="82.17 68.63 41.08 91.5 41.09 45.75 50.94 40.26 82.17 68.63"/><polygon class="cls-2" points="30.59 17.52 20.54 34.31 0 68.63 0 22.88 20.25 11.6 30.59 17.52"/><polygon class="cls-2" points="41.08 0 30.59 17.52 20.25 11.6 0 0 41.08 0"/><polygon class="cls-2" points="82.17 0 61.91 11.6 51.57 17.52 41.08 0 82.17 0"/><polygon class="cls-3" points="11.23 16.62 30.59 17.52 20.25 11.6 11.23 16.62"/></svg>