<svg id="Layer_1" data-name="Layer 1" xmlns="http://www.w3.org/2000/svg" xmlns:xlink="http://www.w3.org/1999/xlink" viewBox="0 0 524.98 84.3"><defs><style>.cls-1{isolation:isolate;font-size:58.65px;fill:#fff;font-family:Arial-BoldMT, Arial;font-weight:700;}.cls-2{fill:#e9e727;}.cls-3{fill:url(#linear-gradient);}.cls-4{fill:#f2b31c;}.cls-5{fill:url(#linear-gradient-2);}.cls-6{fill:url(#linear-gradient-3);}.cls-7{fill:url(#linear-gradient-4);}</style><linearGradient id="linear-gradient" x1="52.69" y1="11.75" x2="60.07" y2="19.59" gradientUnits="userSpaceOnUse"><stop offset="0.46" stop-color="#f2b31c"/><stop offset="0.6" stop-color="#f1b81d"/><stop offset="0.77" stop-color="#eec820"/><stop offset="0.96" stop-color="#eae126"/><stop offset="1" stop-color="#e9e727"/></linearGradient><linearGradient id="linear-gradient-2" x1="46.93" y1="47.42" x2="75.7" y2="47.42" gradientUnits="userSpaceOnUse"><stop offset="0" stop-color="#f2b31c"/><stop offset="0.19" stop-color="#eea61f"/><stop offset="0.67" stop-color="#e58825"/></linearGradient><linearGradient id="linear-gradient-3" x1="0.19" y1="47.42" x2="28.77" y2="47.42" gradientUnits="userSpaceOnUse"><stop offset="0.33" stop-color="#e58825"/><stop offset="0.55" stop-color="#e89223"/><stop offset="0.93" stop-color="#f0ad1d"/><stop offset="1" stop-color="#f2b31c"/></linearGradient><linearGradient id="linear-gradient-4" x1="23.8" y1="10.32" x2="16.66" y2="18.83" gradientUnits="userSpaceOnUse"><stop offset="0.28" stop-color="#f2b31c"/><stop offset="0.48" stop-color="#f1b71d"/><stop offset="0.68" stop-color="#efc41f"/><stop offset="0.89" stop-color="#ecd824"/><stop offset="1" stop-color="#e9e727"/></linearGradient></defs><title>Untitled-2</title><text class="cls-1" transform="translate(102.45 62.13)">ONLINE</text><path class="cls-2" d="M392.84,406.34H377.51q-1.47,0-1.47,2v21c0,1.27.4,1.91,1.22,1.91h4.93c.87,0,1.3-.58,1.3-1.82V422.1a3.48,3.48,0,0,0-.18-1.43c-.11-.2-.48-.3-1.15-.3H378.1v-8.58h11.34q3.81,0,3.81,3.12v22.5a2.71,2.71,0,0,1-1.22,2.21,4.15,4.15,0,0,1-2.51.91h-20q-3.37,0-3.38-3.29v-36q0-3.72,3.56-3.72h23.11Z" transform="translate(-35.51 -377.89)"/><path class="cls-2" d="M416.64,397.51c.46,0,1.53.72,3.2,2.16a3.62,3.62,0,0,1,3.21-2.16H440.7v8.91H425.64c-.81,0-1.31.22-1.51.65a6,6,0,0,0-.3,2.3h14.1c1.85,0,2.77,1,2.77,3v25c0,2.08-.92,3.11-2.77,3.11H400.71c-1.91,0-2.87-.92-2.87-2.76V412.39a2.78,2.78,0,0,1,1-2.16,3.29,3.29,0,0,1,2.21-.86h13.22c0-2-.57-2.94-1.72-2.95H397.77v-8.91Zm-8.74,31.61q0,2.16,1.56,2.16h19.39c1.15,0,1.72-.69,1.72-2.07V420.1c0-1-.57-1.47-1.72-1.47h-19c-1.33,0-2,.49-2,1.47Z" transform="translate(-35.51 -377.89)"/><path class="cls-2" d="M430.21,397.59V384.37h10v15.74a5.19,5.19,0,0,0-2.6-1.73,10.37,10.37,0,0,0-3.81-.78Z" transform="translate(-35.51 -377.89)"/><path class="cls-2" d="M464.33,397.51q.69,0,3.21,2.16a3.62,3.62,0,0,1,3.2-2.16H488.4v8.91H473.32c-.81,0-1.31.22-1.51.65a6,6,0,0,0-.31,2.3h14.11c1.85,0,2.78,1,2.78,3v25c0,2.08-.93,3.11-2.78,3.11h-37.2q-2.88,0-2.88-2.76V412.39a2.77,2.77,0,0,1,1-2.16,3.28,3.28,0,0,1,2.21-.86H462c0-2-.57-2.95-1.72-2.95H445.46v-8.91Zm-8.74,31.61q0,2.16,1.56,2.16h19.39c1.15,0,1.73-.69,1.73-2.07V420.1c0-1-.58-1.47-1.73-1.47h-19c-1.32,0-2,.49-2,1.47Z" transform="translate(-35.51 -377.89)"/><path class="cls-2" d="M519.56,406.34H504.24q-1.47,0-1.47,2v21c0,1.27.41,1.91,1.21,1.91h4.94c.86,0,1.3-.58,1.3-1.82V422.1a3.48,3.48,0,0,0-.18-1.43c-.12-.2-.49-.3-1.15-.3h-4.06v-8.58h11.34q3.8,0,3.8,3.12v22.5a2.67,2.67,0,0,1-1.21,2.21,4.15,4.15,0,0,1-2.51.91h-20q-3.37,0-3.38-3.29v-36c0-2.48,1.19-3.72,3.55-3.72h23.11Z" transform="translate(-35.51 -377.89)"/><path class="cls-2" d="M524.48,402.44q0-2.34,3.55-4.85l17.75-12.46h14.71l-17.62,12.55h11.34a4.8,4.8,0,0,1,3.42,1.34,4.37,4.37,0,0,1,1.43,3.33V437.5c0,2.14-1.18,3.2-3.55,3.2H527.92q-3.37,0-3.38-3.63Zm10.06-9.35c-2,1.39-3.93,2.74-5.89,4.07-2.6,2-3.92,3.64-4,4.85V383.48h9.87Zm.26,35.07c0,2.19.57,3.28,1.65,3.28h10.64c1,0,1.59-.28,1.82-.86a8.11,8.11,0,0,0,.17-2.25V408.5c0-1.27-.81-1.91-2.42-1.91H537c-1,0-1.58.18-1.81.53a3.26,3.26,0,0,0-.35,1.81Z" transform="translate(-35.51 -377.89)"/><polygon class="cls-3" points="65.36 15.31 47.51 16.14 57.04 10.69 65.36 15.31"/><polygon class="cls-2" points="75.7 21.07 75.7 63.22 56.78 31.61 47.51 16.14 65.36 15.31 75.7 21.07"/><polygon class="cls-4" points="37.85 42.15 37.85 84.3 0 63.22 18.93 31.61 37.85 42.15"/><polygon class="cls-5" points="75.7 63.22 46.93 37.09 56.78 31.61 75.7 63.22"/><polygon class="cls-6" points="0.19 63.22 28.77 37.09 18.93 31.61 0.19 63.22"/><polygon class="cls-4" points="75.7 63.22 37.85 84.3 37.85 42.15 46.93 37.09 75.7 63.22"/><polygon class="cls-2" points="28.19 16.14 18.93 31.61 0 63.22 0 21.07 18.66 10.69 28.19 16.14"/><polygon class="cls-2" points="37.85 0 28.19 16.14 18.66 10.69 0 0 37.85 0"/><polygon class="cls-2" points="75.7 0 57.04 10.69 47.51 16.14 37.85 0 75.7 0"/><polygon class="cls-7" points="10.34 15.31 28.19 16.14 18.66 10.69 10.34 15.31"/></svg>