<svg id="Layer_1" data-name="Layer 1" xmlns="http://www.w3.org/2000/svg" viewBox="0 0 508.58 93.94"><defs><style>.cls-1{isolation:isolate;font-size:55.21px;font-family:Arial-BoldMT, Arial;font-weight:700;}.cls-1,.cls-2{fill:#154f80;}.cls-3{fill:#f2b31c;}.cls-4{fill:#e9e727;}.cls-5{fill:#e58825;}</style></defs><title>Untitled-2</title><text class="cls-1" transform="translate(110.79 64.56)">ONLINE</text><path class="cls-2" d="M386.17,438.46H371.74c-.93,0-1.39.63-1.39,1.87v19.81c0,1.2.38,1.79,1.14,1.79h4.65c.81,0,1.22-.54,1.22-1.71V453.3a3.39,3.39,0,0,0-.16-1.34c-.11-.19-.46-.28-1.08-.28h-3.83V443.6H383c2.39,0,3.59,1,3.59,2.93v21.19a2.52,2.52,0,0,1-1.14,2.07,3.93,3.93,0,0,1-2.37.86h-18.8q-3.18,0-3.18-3.1V433.66c0-2.34,1.12-3.51,3.34-3.51h21.77Z" transform="translate(-35.42 -405.62)"/><path class="cls-2" d="M408.57,430.15c.44,0,1.44.68,3,2a3.39,3.39,0,0,1,3-2h16.63v8.39H417.05c-.76,0-1.24.21-1.43.61a5.7,5.7,0,0,0-.28,2.17h13.28q2.6,0,2.61,2.85v23.55c0,2-.87,2.93-2.61,2.93h-35c-1.81,0-2.71-.86-2.71-2.6V444.16a2.61,2.61,0,0,1,.94-2,3.14,3.14,0,0,1,2.08-.82h12.44c0-1.84-.54-2.76-1.62-2.77h-13.9v-8.39Zm-8.23,29.76q0,2,1.47,2h18.25c1.09,0,1.63-.65,1.63-2v-8.57c0-.92-.54-1.38-1.63-1.38H402.2c-1.24,0-1.87.46-1.87,1.38Z" transform="translate(-35.42 -405.62)"/><path class="cls-2" d="M421.35,430.23V417.78h9.45v14.81a4.89,4.89,0,0,0-2.45-1.62,9.79,9.79,0,0,0-3.58-.74Z" transform="translate(-35.42 -405.62)"/><path class="cls-2" d="M453.47,430.15c.44,0,1.44.68,3,2a3.41,3.41,0,0,1,3-2h16.62v8.39h-14.2c-.75,0-1.23.21-1.42.61a5.7,5.7,0,0,0-.29,2.17h13.29q2.61,0,2.61,2.85v23.55c0,2-.87,2.93-2.61,2.93h-35c-1.8,0-2.71-.86-2.71-2.6V444.16a2.61,2.61,0,0,1,.94-2,3.14,3.14,0,0,1,2.08-.82h12.45c0-1.84-.54-2.77-1.62-2.77H435.71v-8.39Zm-8.23,29.76c0,1.36.5,2,1.47,2H465c1.08,0,1.62-.65,1.62-2v-8.57q0-1.38-1.62-1.38H447.11c-1.25,0-1.87.46-1.88,1.38Z" transform="translate(-35.42 -405.62)"/><path class="cls-2" d="M505.47,438.46H491.05c-.93,0-1.39.63-1.39,1.87v19.81c0,1.2.38,1.79,1.14,1.79h4.65c.81,0,1.22-.54,1.22-1.71V453.3a3.39,3.39,0,0,0-.16-1.34c-.12-.19-.47-.28-1.08-.28h-3.84V443.6h10.68c2.39,0,3.58,1,3.58,2.93v21.19a2.51,2.51,0,0,1-1.14,2.07,3.9,3.9,0,0,1-2.36.86h-18.8q-3.18,0-3.18-3.1V433.66q0-3.51,3.34-3.51h21.76Z" transform="translate(-35.42 -405.62)"/><path class="cls-2" d="M510.1,434.79q0-2.21,3.34-4.56l16.71-11.73H544l-16.59,11.81h10.68a4.53,4.53,0,0,1,3.22,1.27,4.09,4.09,0,0,1,1.34,3.13V467.8q0,3-3.34,3h-26c-2.12,0-3.18-1.15-3.18-3.43Zm9.47-8.8q-2.77,2-5.54,3.83c-2.45,1.9-3.7,3.43-3.75,4.57V416.94h9.29Zm.24,33c0,2.07.54,3.1,1.55,3.1h10q1.38,0,1.71-.81a7.56,7.56,0,0,0,.16-2.12V440.5q0-1.8-2.28-1.8h-9.13c-.93,0-1.49.17-1.71.5a3.15,3.15,0,0,0-.33,1.71Z" transform="translate(-35.42 -405.62)"/><polygon class="cls-3" points="72.83 17.07 52.95 17.99 63.56 11.91 72.83 17.07"/><polygon class="cls-4" points="84.36 23.49 84.36 70.46 63.27 35.23 52.95 17.99 72.83 17.07 84.36 23.49"/><polygon class="cls-3" points="42.18 46.97 42.18 93.94 0 70.46 21.09 35.23 42.18 46.97"/><polygon class="cls-5" points="84.36 70.46 52.3 41.34 63.27 35.23 84.36 70.46"/><polygon class="cls-5" points="0.21 70.46 32.07 41.34 21.09 35.23 0.21 70.46"/><polygon class="cls-3" points="84.36 70.46 42.18 93.94 42.18 46.97 52.3 41.34 84.36 70.46"/><polygon class="cls-4" points="31.41 17.99 21.09 35.23 0 70.46 0 23.49 20.8 11.91 31.41 17.99"/><polygon class="cls-4" points="42.18 0 31.41 17.99 20.8 11.91 0 0 42.18 0"/><polygon class="cls-4" points="84.36 0 63.56 11.91 52.95 17.99 42.18 0 84.36 0"/><polygon class="cls-3" points="11.53 17.07 31.41 17.99 20.8 11.91 11.53 17.07"/></svg>