<svg id="epupy0wv9uad1" xmlns="http://www.w3.org/2000/svg" xmlns:xlink="http://www.w3.org/1999/xlink" viewBox="0 0 480 640" shape-rendering="geometricPrecision" text-rendering="geometricPrecision"><style><![CDATA[#epupy0wv9uad13_tr {animation: epupy0wv9uad13_tr__tr 3000ms linear infinite normal forwards}@keyframes epupy0wv9uad13_tr__tr { 0% {transform: translate(243.220000px,163.530000px) rotate(0deg)} 100% {transform: translate(243.220000px,163.530000px) rotate(360deg)} }]]></style><path id="epupy0wv9uad2" d="M170.500000,282.830000C149.050000,284.330000,114.190000,283.080000,80.780000,263.350000C21.370000,228.270000,-8.790000,149.340000,5.520000,64.680000L94.610000,63.580000Q98.610000,75.190000,102.610000,86.780000L34.820000,87.610000C23.660000,153.610000,47.180000,215.180000,93.510000,242.530000C118.730000,257.430000,145,258.810000,161.820000,257.840000Q166.180000,270.340000,170.500000,282.830000Z" fill="rgb(245,157,2)" stroke="none" stroke-width="1"/><path id="epupy0wv9uad3" d="M311.060000,282.830000C332.510000,284.330000,367.370000,283.080000,400.780000,263.350000C460.190000,228.270000,490.350000,149.350000,476.040000,64.680000L387,63.580000Q383,75.190000,379,86.780000L446.800000,87.610000C457.960000,153.610000,434.440000,215.180000,388.110000,242.530000C362.880000,257.430000,336.620000,258.810000,319.800000,257.840000Q315.370000,270.340000,311.060000,282.830000Z" fill="rgb(245,157,2)" stroke="none" stroke-width="1"/><path id="epupy0wv9uad4" d="M331.760000,499.740000L154.680000,499.740000C165.910000,489.740000,183.920000,470.600000,198.680000,438.230000C221.060000,389.100000,222.110000,339.730000,221.780000,319.960000L259.170000,319.960000C259.240000,340.310000,261.390000,394.100000,287.770000,444.540000C302.820000,473.330000,320.180000,490.360000,331.760000,499.740000Z" fill="rgb(245,157,2)" stroke="none" stroke-width="1"/><path id="epupy0wv9uad5" d="M302.820000,499.740000L154.680000,499.740000C165.910000,489.740000,183.920000,470.600000,198.680000,438.230000C221.060000,389.100000,222.110000,339.730000,221.780000,319.960000L248.170000,319.960000C240.872739,384.853587,260.641519,449.886180,302.820000,499.740000Z" fill="rgb(249,184,6)" stroke="none" stroke-width="1"/><path id="epupy0wv9uad6" d="M210.220000,454.740000C202.946795,470.607796,194.063547,485.686867,183.710000,499.740000L154.710000,499.740000C165.940000,489.740000,183.950000,470.600000,198.710000,438.230000C221.090000,389.100000,222.140000,339.730000,221.810000,319.960000L232.380000,319.960000C235.170000,350.580000,234.780000,401.070000,210.220000,454.740000Z" fill="rgb(252,210,8)" stroke="none" stroke-width="1"/><path id="epupy0wv9uad7" d="M418.080000,0C418.080000,184.060000,338.740000,333.260000,240.860000,333.260000C239.800000,333.260000,238.740000,333.260000,237.690000,333.200000C217.770000,332.550000,198.690000,325.710000,180.870000,313.680000L180.820000,313.680000Q175.260000,309.900000,169.870000,305.470000C107.330000,254,63.640000,136.580000,63.640000,0Z" fill="rgb(249,184,6)" stroke="none" stroke-width="1"/><path id="epupy0wv9uad8" d="M359.800000,508.650000L121.130000,508.650000C124.265513,497.820486,130.065597,487.949685,138,479.940000C150.386994,467.327975,167.322309,460.222349,185,460.220000L296,460.220000C326.120000,460.220000,351.740000,480.760000,359.800000,508.650000Z" fill="rgb(245,157,2)" stroke="none" stroke-width="1"/><path id="epupy0wv9uad9" d="M332.810000,508.650000L121.130000,508.650000C124.265513,497.820486,130.065597,487.949685,138,479.940000C150.386994,467.327975,167.322309,460.222349,185,460.220000L269,460.220000C299.130000,460.220000,324.750000,480.760000,332.810000,508.650000Z" fill="rgb(252,210,8)" stroke="none" stroke-width="1"/><path id="epupy0wv9uad10" d="M332.810000,508.650000L148.120000,508.650000C151.254045,497.817605,157.058220,487.945694,165,479.940000C177.386994,467.327975,194.322309,460.222349,212,460.220000L269,460.220000C299.130000,460.220000,324.750000,480.760000,332.810000,508.650000Z" fill="rgb(255,189,26)" stroke="none" stroke-width="1"/><rect id="epupy0wv9uad11" width="278.260000" height="114.050000" rx="0" ry="0" transform="matrix(1 0 0 1 101.73000000000002 499.74000000000001)" fill="rgb(52,39,30)" stroke="none" stroke-width="1"/><rect id="epupy0wv9uad12" width="321.160000" height="26.210000" rx="0" ry="0" transform="matrix(1 0 0 1 80.28000000000000 613.78999999999996)" fill="rgb(52,39,30)" stroke="none" stroke-width="1"/><g id="epupy0wv9uad13_tr" transform="translate(243.220000,163.530000) rotate(0)"><polygon id="epupy0wv9uad13" points="321.370000,136.990000 281.830000,176.820000 292.340000,231.880000 242.100000,206.710000 192.820000,233.680000 201.320000,178.280000 160.350000,139.900000 215.830000,130.840000 239.800000,80.140000 265.590000,129.940000 321.370000,136.990000" transform="translate(-243.220000,-163.530000)" fill="rgb(245,157,2)" stroke="none" stroke-width="1"/></g><path id="epupy0wv9uad14" d="M249.790000,196.600000L237.130000,196.600000L237.130000,149C232.440501,153.345813,226.856446,156.612281,220.770000,158.570000L220.770000,147.160000C224.684906,145.735631,228.327404,143.652271,231.540000,141C235.168406,138.332790,237.946943,134.672067,239.540000,130.460000L249.810000,130.460000Z" fill="rgb(255,255,255)" stroke="none" stroke-width="1"/><path id="epupy0wv9uad15" d="M418.080000,0C418.080000,184.060000,338.740000,333.260000,240.860000,333.260000C239.800000,333.260000,238.740000,333.260000,237.690000,333.200000C272.170000,303.560000,315.940000,254.790000,341.100000,182.870000C368,106.080000,361.290000,38.120000,353.850000,0Z" fill="rgb(245,157,2)" stroke="none" stroke-width="1"/><path id="epupy0wv9uad16" d="M180.870000,313.680000L180.820000,313.680000L169.870000,305.470000C136.511937,254.934865,112.193209,198.985211,98,140.120000C87.037462,94.259190,82.361300,47.120782,84.100000,0L125,0C122.521465,55.369002,126.386604,110.839782,136.520000,165.330000C145.989168,216.215614,160.856522,265.946662,180.870000,313.680000Z" fill="rgb(252,210,8)" stroke="none" stroke-width="1"/><rect id="epupy0wv9uad17" width="238.670000" height="80.030000" rx="0" ry="0" transform="matrix(1 0 0 1 121.13000000000000 520.50999999999999)" fill="rgb(237,197,103)" stroke="none" stroke-width="1"/><path id="epupy0wv9uad18" d="M359.800000,520.510000L359.800000,600.510000L262.380000,600.510000C277.203265,590.388040,289.469644,576.957673,298.210000,561.280000C305.181631,548.641798,309.697805,534.798079,311.520000,520.480000Z" fill="rgb(226,177,90)" stroke="none" stroke-width="1"/></svg>