<svg id="Layer_2" data-name="Layer 2" xmlns="http://www.w3.org/2000/svg" viewBox="0 0 480 640"><defs><style>.cls-1{fill:#f59d02;}.cls-2{fill:#f9b806;}.cls-3{fill:#fcd208;}.cls-4{fill:#ffbd1a;}.cls-5{fill:#34271e;}.cls-6{fill:#fff;}.cls-7{fill:#edc567;}.cls-8{fill:#e2b15a;}</style></defs><title>5cup p1</title><path class="cls-1" d="M170.5,282.83c-21.45,1.5-56.31.25-89.72-19.48C21.37,228.27-8.79,149.34,5.52,64.68l89.09-1.1q4,11.61,8,23.2l-67.79.83c-11.16,66,12.36,127.57,58.69,154.92,25.22,14.9,51.49,16.28,68.31,15.31Q166.18,270.34,170.5,282.83Z"/><path class="cls-1" d="M311.06,282.83c21.45,1.5,56.31.25,89.72-19.48,59.41-35.08,89.57-114,75.26-198.67L387,63.58q-4,11.61-8,23.2l67.8.83c11.16,66-12.36,127.57-58.69,154.92-25.23,14.9-51.49,16.28-68.31,15.31Q315.37,270.34,311.06,282.83Z"/><path class="cls-1" d="M331.76,499.74H154.68c11.23-10,29.24-29.14,44-61.51,22.38-49.13,23.43-98.5,23.1-118.27h37.39c.07,20.35,2.22,74.14,28.6,124.58C302.82,473.33,320.18,490.36,331.76,499.74Z"/><path class="cls-2" d="M302.82,499.74H154.68c11.23-10,29.24-29.14,44-61.51,22.38-49.13,23.43-98.5,23.1-118.27h26.39a237.29,237.29,0,0,0,54.65,179.78Z"/><path class="cls-3" d="M210.22,454.74a255,255,0,0,1-26.51,45h-29c11.23-10,29.24-29.14,44-61.51,22.38-49.13,23.43-98.5,23.1-118.27h10.57C235.17,350.58,234.78,401.07,210.22,454.74Z"/><path class="cls-2" d="M418.08,0c0,184.06-79.34,333.26-177.22,333.26-1.06,0-2.12,0-3.17-.06-19.92-.65-39-7.49-56.82-19.52l-.05,0q-5.56-3.78-10.95-8.21C107.33,254,63.64,136.58,63.64,0Z"/><path class="cls-1" d="M359.8,508.65H121.13A67.45,67.45,0,0,1,138,479.94,65.89,65.89,0,0,1,185,460.22H296C326.12,460.22,351.74,480.76,359.8,508.65Z"/><path class="cls-3" d="M332.81,508.65H121.13A67.45,67.45,0,0,1,138,479.94,65.89,65.89,0,0,1,185,460.22h84C299.13,460.22,324.75,480.76,332.81,508.65Z"/><path class="cls-4" d="M332.81,508.65H148.12A67.34,67.34,0,0,1,165,479.94,65.89,65.89,0,0,1,212,460.22h57C299.13,460.22,324.75,480.76,332.81,508.65Z"/><rect class="cls-5" x="101.73" y="499.74" width="278.26" height="114.05"/><rect class="cls-5" x="80.28" y="613.79" width="321.16" height="26.21"/><polygon class="cls-1" points="321.37 136.99 281.83 176.82 292.34 231.88 242.1 206.71 192.82 233.68 201.32 178.28 160.35 139.9 215.83 130.84 239.8 80.14 265.59 129.94 321.37 136.99"/><path class="cls-6" d="M249.79,196.6H237.13V149a43.8,43.8,0,0,1-16.36,9.57V147.16A36.54,36.54,0,0,0,231.54,141a23.32,23.32,0,0,0,8-10.54h10.27Z"/><path class="cls-1" d="M418.08,0c0,184.06-79.34,333.26-177.22,333.26-1.06,0-2.12,0-3.17-.06,34.48-29.64,78.25-78.41,103.41-150.33C368,106.08,361.29,38.12,353.85,0Z"/><path class="cls-3" d="M180.87,313.68l-.05,0-10.95-8.21A522.43,522.43,0,0,1,98,140.12,520.19,520.19,0,0,1,84.1,0H125a726.56,726.56,0,0,0,11.52,165.33A728.21,728.21,0,0,0,180.87,313.68Z"/><rect class="cls-7" x="121.13" y="520.51" width="238.67" height="80.03"/><path class="cls-8" d="M359.8,520.51v80H262.38a115.76,115.76,0,0,0,35.83-39.23,114.36,114.36,0,0,0,13.31-40.8Z"/></svg>