<svg id="ekT6FwgmR5M1" xmlns="http://www.w3.org/2000/svg" xmlns:xlink="http://www.w3.org/1999/xlink" viewBox="0 0 480 640" shape-rendering="geometricPrecision" text-rendering="geometricPrecision"><style><![CDATA[#ekT6FwgmR5M13_ts {animation: ekT6FwgmR5M13_ts__ts 3000ms linear infinite normal forwards}@keyframes ekT6FwgmR5M13_ts__ts { 0% {transform: translate(240px,285.065000px) scale(1,1)} 50% {transform: translate(240px,285.065000px) scale(1.500000,1.500000)} 100% {transform: translate(240px,285.065000px) scale(1,1)}}]]></style><path id="ekT6FwgmR5M2" d="M186.230000,372.050000C170.170000,373.170000,144.080000,372.240000,119.070000,357.470000C74.600000,331.210000,52,272.130000,62.740000,208.750000L129.420000,207.930000Q132.420000,216.620000,135.420000,225.290000L84.670000,225.920000C76.320000,275.340000,93.930000,321.410000,128.600000,341.920000C147.480000,353.080000,167.140000,354.110000,179.740000,353.380000Z" fill="rgb(137,137,137)" stroke="none" stroke-width="1"/><path id="ekT6FwgmR5M3" d="M291.440000,372.050000C307.500000,373.170000,333.590000,372.240000,358.600000,357.470000C403.070000,331.210000,425.600000,272.130000,414.930000,208.750000L348.250000,207.930000Q345.250000,216.620000,342.250000,225.290000L393,225.920000C401.350000,275.340000,383.740000,321.410000,349.070000,341.920000C330.180000,353.080000,310.520000,354.110000,297.930000,353.380000Z" fill="rgb(137,137,137)" stroke="none" stroke-width="1"/><path id="ekT6FwgmR5M4" d="M306.940000,534.410000L174.390000,534.410000C182.790000,526.910000,196.280000,512.600000,207.320000,488.410000C224.080000,451.640000,224.860000,414.680000,224.610000,399.880000L252.610000,399.880000C252.670000,415.110000,254.270000,455.370000,274.020000,493.130000C285.270000,514.640000,298.270000,527.390000,306.940000,534.410000Z" fill="rgb(137,137,137)" stroke="none" stroke-width="1"/><path id="ekT6FwgmR5M5" d="M285.270000,534.410000L174.390000,534.410000C182.790000,526.910000,196.280000,512.600000,207.320000,488.410000C224.080000,451.640000,224.860000,414.680000,224.610000,399.880000L244.370000,399.880000C238.903763,448.453748,253.698912,497.133045,285.270000,534.450000Z" fill="rgb(178,178,178)" stroke="none" stroke-width="1"/><path id="ekT6FwgmR5M6" d="M216,500.720000C210.560511,512.601188,203.912120,523.890719,196.160000,534.410000L174.390000,534.410000C182.790000,526.910000,196.280000,512.600000,207.320000,488.410000C224.080000,451.640000,224.860000,414.680000,224.610000,399.880000L232.520000,399.880000C234.630000,422.760000,234.340000,460.550000,216,500.720000Z" fill="rgb(206,206,206)" stroke="none" stroke-width="1"/><path id="ekT6FwgmR5M7" d="M371.550000,160.340000C371.550000,298.110000,312.160000,409.790000,238.900000,409.790000C238.100000,409.790000,237.310000,409.790000,236.520000,409.790000C221.610000,409.300000,207.310000,404.190000,193.990000,395.180000L193.990000,395.180000C191.220000,393.300000,188.480000,391.250000,185.800000,389.040000C138.980000,350.520000,106.280000,262.650000,106.280000,160.410000Z" fill="rgb(178,178,178)" stroke="none" stroke-width="1"/><path id="ekT6FwgmR5M8" d="M327.920000,541.080000L149.270000,541.080000C151.623155,532.971495,155.972525,525.582723,161.920000,519.590000C171.178500,510.160521,183.835057,504.842822,197.050000,504.830000L280.140000,504.830000C302.350233,504.959913,321.812461,519.725626,327.920000,541.080000Z" fill="rgb(137,137,137)" stroke="none" stroke-width="1"/><path id="ekT6FwgmR5M9" d="M307.720000,541.080000L149.270000,541.080000C151.623155,532.971495,155.972525,525.582723,161.920000,519.590000C171.178500,510.160521,183.835057,504.842822,197.050000,504.830000L259.940000,504.830000C282.150233,504.959913,301.612461,519.725626,307.720000,541.080000Z" fill="rgb(206,206,206)" stroke="none" stroke-width="1"/><path id="ekT6FwgmR5M10" d="M307.720000,541.080000L169.470000,541.080000C171.823155,532.971495,176.172525,525.582723,182.120000,519.590000C191.378500,510.160521,204.035057,504.842822,217.250000,504.830000L259.940000,504.830000C282.150233,504.959913,301.612461,519.725626,307.720000,541.080000Z" fill="rgb(178,178,178)" stroke="none" stroke-width="1"/><rect id="ekT6FwgmR5M11" width="208.290000" height="85.370000" rx="0" ry="0" transform="matrix(1 0 0 1 134.75000000000000 534.40999999999997)" fill="rgb(52,39,30)" stroke="none" stroke-width="1"/><rect id="ekT6FwgmR5M12" width="240.400000" height="19.620000" rx="0" ry="0" transform="matrix(1 0 0 1 118.70000000000000 619.77999999999997)" fill="rgb(52,39,30)" stroke="none" stroke-width="1"/><g id="ekT6FwgmR5M13_ts" transform="translate(240,285.065000) scale(1,1)"><polygon id="ekT6FwgmR5M13" points="299.160000,262.880000 269.560000,292.700000 277.430000,333.910000 239.830000,315.060000 202.940000,335.260000 209.290000,293.790000 178.630000,265.060000 220.160000,258.270000 238.100000,220.330000 257.410000,257.600000 299.160000,262.880000" transform="translate(-240,-285.065000)" fill="rgb(142,142,142)" stroke="none" stroke-width="1"/></g><path id="ekT6FwgmR5M14" d="M255.580000,298.730000L255.580000,307.500000L222.360000,307.500000C222.730370,304.155971,223.836873,300.935499,225.600000,298.070000Q228.300000,293.620000,236.260000,286.260000Q242.670000,280.260000,244.120000,278.190000C245.333129,276.501557,246.012353,274.488268,246.070000,272.410000C246.186978,270.626340,245.573266,268.871846,244.370000,267.550000C241.634845,265.253649,237.635802,265.287575,234.940000,267.630000Q233.190000,269.410000,232.940000,273.550000L223.490000,272.610000Q224.340000,264.810000,228.790000,261.410000C232.009268,259.065846,235.919967,257.865532,239.900000,258Q247.220000,258,251.400000,261.930000C254.139300,264.434099,255.663189,267.999561,255.580000,271.710000C255.589904,273.880699,255.182515,276.033071,254.380000,278.050000C253.430034,280.323274,252.153233,282.445660,250.590000,284.350000C248.679278,286.598159,246.603519,288.700659,244.380000,290.640000C241.380000,293.380000,239.500000,295.190000,238.700000,296.090000C237.967456,296.896351,237.317543,297.774068,236.760000,298.710000Z" fill="rgb(255,255,255)" stroke="none" stroke-width="1"/><path id="ekT6FwgmR5M15" d="M371.550000,160.340000C371.550000,298.110000,312.160000,409.790000,238.900000,409.790000C238.100000,409.790000,237.310000,409.790000,236.520000,409.790000C262.330000,387.600000,295.090000,351.100000,313.930000,297.260000C334,239.740000,329,188.880000,323.470000,160.340000Z" fill="rgb(137,137,137)" stroke="none" stroke-width="1"/><path id="ekT6FwgmR5M16" d="M194,395.140000L194,395.140000L185.760000,389C140.996422,321.370303,118.545027,241.416060,121.560000,160.370000L152.180000,160.370000C148.594874,240.755854,162.877623,320.936655,194,395.140000Z" fill="rgb(206,206,206)" stroke="none" stroke-width="1"/><rect id="ekT6FwgmR5M17" width="178.650000" height="59.900000" rx="0" ry="0" transform="matrix(1 0 0 1 149.27000000000001 549.96000000000004)" fill="rgb(237,197,103)" stroke="none" stroke-width="1"/><path id="ekT6FwgmR5M18" d="M327.920000,550L327.920000,609.900000L255,609.900000C266.098052,602.328137,275.280509,592.276052,281.820000,580.540000C287.057682,571.085309,290.451197,560.721514,291.820000,550Z" fill="rgb(226,177,90)" stroke="none" stroke-width="1"/></svg>