<svg id="Layer_2" data-name="Layer 2" xmlns="http://www.w3.org/2000/svg" viewBox="0 0 480 640"><defs><style>.cls-1{fill:#d3844f;}.cls-2{fill:#e0925c;}.cls-3{fill:#efb086;}.cls-4{fill:#e89f6d;}.cls-5{fill:#34271e;}.cls-6{fill:#fff;}.cls-7{fill:#edc567;}.cls-8{fill:#e2b15a;}</style></defs><title>5cup p3</title><path class="cls-1" d="M186.23,372.05c-16.06,1.12-42.15.19-67.16-14.58C74.6,331.21,52,272.13,62.74,208.75l66.68-.82q3,8.69,6,17.36l-50.75.63c-8.35,49.42,9.26,95.49,43.93,116,18.88,11.16,38.54,12.19,51.14,11.46Z"/><path class="cls-1" d="M291.44,372.05c16.06,1.12,42.15.19,67.16-14.58,44.47-26.26,67-85.34,56.33-148.72l-66.68-.82q-3,8.69-6,17.36l50.75.63c8.35,49.42-9.26,95.49-43.93,116-18.89,11.16-38.55,12.19-51.14,11.46Z"/><path class="cls-1" d="M306.94,534.41H174.39c8.4-7.5,21.89-21.81,32.93-46,16.76-36.77,17.54-73.73,17.29-88.53h28c.06,15.23,1.66,55.49,21.41,93.25C285.27,514.64,298.27,527.39,306.94,534.41Z"/><path class="cls-2" d="M285.27,534.41H174.39c8.4-7.5,21.89-21.81,32.93-46,16.76-36.77,17.54-73.73,17.29-88.53h19.76a177.6,177.6,0,0,0,40.9,134.57Z"/><path class="cls-3" d="M216,500.72a190.36,190.36,0,0,1-19.84,33.69H174.39c8.4-7.5,21.89-21.81,32.93-46,16.76-36.77,17.54-73.73,17.29-88.53h7.91C234.63,422.76,234.34,460.55,216,500.72Z"/><path class="cls-4" d="M371.55,160.34c0,137.77-59.39,249.45-132.65,249.45-.8,0-1.59,0-2.38,0-14.91-.49-29.21-5.6-42.53-14.61l0,0c-2.77-1.88-5.51-3.93-8.19-6.14-46.82-38.52-79.52-126.39-79.52-228.63Z"/><path class="cls-1" d="M327.92,541.08H149.27a50.48,50.48,0,0,1,12.65-21.49,49.3,49.3,0,0,1,35.13-14.76h83.09A50,50,0,0,1,327.92,541.08Z"/><path class="cls-3" d="M307.72,541.08H149.27a50.48,50.48,0,0,1,12.65-21.49,49.3,49.3,0,0,1,35.13-14.76h62.89A50,50,0,0,1,307.72,541.08Z"/><path class="cls-4" d="M307.72,541.08H169.47a50.48,50.48,0,0,1,12.65-21.49,49.3,49.3,0,0,1,35.13-14.76h42.69A50,50,0,0,1,307.72,541.08Z"/><rect class="cls-5" x="134.75" y="534.41" width="208.29" height="85.37"/><rect class="cls-5" x="118.7" y="619.78" width="240.4" height="19.62"/><polygon class="cls-1" points="299.16 262.88 269.56 292.7 277.43 333.91 239.83 315.06 202.94 335.26 209.29 293.79 178.63 265.06 220.16 258.27 238.1 220.33 257.41 257.6 299.16 262.88"/><path class="cls-6" d="M223.24,294.43l9.17-1.11a8.62,8.62,0,0,0,2.36,5.34,6.49,6.49,0,0,0,4.66,1.85,6.41,6.41,0,0,0,4.94-2.22,8.57,8.57,0,0,0,2-6,8,8,0,0,0-1.93-5.65,6.12,6.12,0,0,0-4.69-2.08,16.62,16.62,0,0,0-4.35.7l1.05-7.7q3.84.1,5.87-1.66a5.91,5.91,0,0,0,2-4.69,5.1,5.1,0,0,0-5.43-5.45,5.7,5.7,0,0,0-4.15,1.69,7.91,7.91,0,0,0-2.09,4.9L224,270.89a19.19,19.19,0,0,1,2.75-7.14,12.37,12.37,0,0,1,5.12-4.2,17.26,17.26,0,0,1,7.37-1.53q7,0,11.2,4.44a11.57,11.57,0,0,1,3.47,8.2c0,4.32-2.37,7.78-7.11,10.35a11.53,11.53,0,0,1,6.79,4.07,11.77,11.77,0,0,1,2.55,7.63,14.78,14.78,0,0,1-4.76,11.06,17.81,17.81,0,0,1-23,.72A15.1,15.1,0,0,1,223.24,294.43Z"/><path class="cls-1" d="M371.55,160.34c0,137.77-59.39,249.45-132.65,249.45-.8,0-1.59,0-2.38,0,25.81-22.19,58.57-58.69,77.41-112.53C334,239.74,329,188.88,323.47,160.34Z"/><path class="cls-3" d="M194,395.14l0,0L185.76,389a388.09,388.09,0,0,1-64.2-228.63h30.62A544.29,544.29,0,0,0,194,395.14Z"/><rect class="cls-7" x="149.27" y="549.96" width="178.65" height="59.9"/><path class="cls-8" d="M327.92,550v59.9H255a86.53,86.53,0,0,0,26.82-29.36,85.32,85.32,0,0,0,10-30.54Z"/></svg>