<svg id="eO3tEdc6JRi1" xmlns="http://www.w3.org/2000/svg" xmlns:xlink="http://www.w3.org/1999/xlink" viewBox="0 0 480 640" shape-rendering="geometricPrecision" text-rendering="geometricPrecision"><style><![CDATA[#eO3tEdc6JRi13_ts {animation: eO3tEdc6JRi13_ts__ts 3000ms linear infinite normal forwards}@keyframes eO3tEdc6JRi13_ts__ts { 0% {transform: translate(238.895000px,285.065000px) scale(1,1)} 50% {transform: translate(238.895000px,285.065000px) scale(1.500000,1.500000)} 100% {transform: translate(238.895000px,285.065000px) scale(1,1)}}]]></style><path id="eO3tEdc6JRi2" d="M186.230000,372.050000C170.170000,373.170000,144.080000,372.240000,119.070000,357.470000C74.600000,331.210000,52,272.130000,62.740000,208.750000L129.420000,207.930000Q132.420000,216.620000,135.420000,225.290000L84.670000,225.920000C76.320000,275.340000,93.930000,321.410000,128.600000,341.920000C147.480000,353.080000,167.140000,354.110000,179.740000,353.380000Z" fill="rgb(211,132,79)" stroke="none" stroke-width="1"/><path id="eO3tEdc6JRi3" d="M291.440000,372.050000C307.500000,373.170000,333.590000,372.240000,358.600000,357.470000C403.070000,331.210000,425.600000,272.130000,414.930000,208.750000L348.250000,207.930000Q345.250000,216.620000,342.250000,225.290000L393,225.920000C401.350000,275.340000,383.740000,321.410000,349.070000,341.920000C330.180000,353.080000,310.520000,354.110000,297.930000,353.380000Z" fill="rgb(211,132,79)" stroke="none" stroke-width="1"/><path id="eO3tEdc6JRi4" d="M306.940000,534.410000L174.390000,534.410000C182.790000,526.910000,196.280000,512.600000,207.320000,488.410000C224.080000,451.640000,224.860000,414.680000,224.610000,399.880000L252.610000,399.880000C252.670000,415.110000,254.270000,455.370000,274.020000,493.130000C285.270000,514.640000,298.270000,527.390000,306.940000,534.410000Z" fill="rgb(211,132,79)" stroke="none" stroke-width="1"/><path id="eO3tEdc6JRi5" d="M285.270000,534.410000L174.390000,534.410000C182.790000,526.910000,196.280000,512.600000,207.320000,488.410000C224.080000,451.640000,224.860000,414.680000,224.610000,399.880000L244.370000,399.880000C238.903763,448.453748,253.698912,497.133045,285.270000,534.450000Z" fill="rgb(224,146,92)" stroke="none" stroke-width="1"/><path id="eO3tEdc6JRi6" d="M216,500.720000C210.560511,512.601188,203.912120,523.890719,196.160000,534.410000L174.390000,534.410000C182.790000,526.910000,196.280000,512.600000,207.320000,488.410000C224.080000,451.640000,224.860000,414.680000,224.610000,399.880000L232.520000,399.880000C234.630000,422.760000,234.340000,460.550000,216,500.720000Z" fill="rgb(239,176,134)" stroke="none" stroke-width="1"/><path id="eO3tEdc6JRi7" d="M371.550000,160.340000C371.550000,298.110000,312.160000,409.790000,238.900000,409.790000C238.100000,409.790000,237.310000,409.790000,236.520000,409.790000C221.610000,409.300000,207.310000,404.190000,193.990000,395.180000L193.990000,395.180000C191.220000,393.300000,188.480000,391.250000,185.800000,389.040000C138.980000,350.520000,106.280000,262.650000,106.280000,160.410000Z" fill="rgb(232,159,109)" stroke="none" stroke-width="1"/><path id="eO3tEdc6JRi8" d="M327.920000,541.080000L149.270000,541.080000C151.623155,532.971495,155.972525,525.582723,161.920000,519.590000C171.178500,510.160521,183.835057,504.842822,197.050000,504.830000L280.140000,504.830000C302.350233,504.959913,321.812461,519.725626,327.920000,541.080000Z" fill="rgb(211,132,79)" stroke="none" stroke-width="1"/><path id="eO3tEdc6JRi9" d="M307.720000,541.080000L149.270000,541.080000C151.623155,532.971495,155.972525,525.582723,161.920000,519.590000C171.178500,510.160521,183.835057,504.842822,197.050000,504.830000L259.940000,504.830000C282.150233,504.959913,301.612461,519.725626,307.720000,541.080000Z" fill="rgb(239,176,134)" stroke="none" stroke-width="1"/><path id="eO3tEdc6JRi10" d="M307.720000,541.080000L169.470000,541.080000C171.823155,532.971495,176.172525,525.582723,182.120000,519.590000C191.378500,510.160521,204.035057,504.842822,217.250000,504.830000L259.940000,504.830000C282.150233,504.959913,301.612461,519.725626,307.720000,541.080000Z" fill="rgb(232,159,109)" stroke="none" stroke-width="1"/><rect id="eO3tEdc6JRi11" width="208.290000" height="85.370000" rx="0" ry="0" transform="matrix(1 0 0 1 134.75000000000000 534.40999999999997)" fill="rgb(52,39,30)" stroke="none" stroke-width="1"/><rect id="eO3tEdc6JRi12" width="240.400000" height="19.620000" rx="0" ry="0" transform="matrix(1 0 0 1 118.70000000000000 619.77999999999997)" fill="rgb(52,39,30)" stroke="none" stroke-width="1"/><g id="eO3tEdc6JRi13_ts" transform="translate(238.895000,285.065000) scale(1,1)"><polygon id="eO3tEdc6JRi13" points="299.160000,262.880000 269.560000,292.700000 277.430000,333.910000 239.830000,315.060000 202.940000,335.260000 209.290000,293.790000 178.630000,265.060000 220.160000,258.270000 238.100000,220.330000 257.410000,257.600000 299.160000,262.880000" transform="translate(-238.895000,-285.065000)" fill="rgb(211,132,79)" stroke="none" stroke-width="1"/></g><path id="eO3tEdc6JRi14" d="M223.240000,294.430000L232.410000,293.320000C232.551579,295.320324,233.386142,297.208699,234.770000,298.660000C236.012802,299.876001,237.691564,300.542462,239.430000,300.510000C241.323774,300.536147,243.132167,299.723468,244.370000,298.290000C245.777263,296.618142,246.492696,294.471844,246.370000,292.290000C246.479888,290.228174,245.788344,288.203705,244.440000,286.640000C243.256770,285.293213,241.542523,284.532949,239.750000,284.560000C238.275360,284.599250,236.812509,284.834651,235.400000,285.260000L236.450000,277.560000Q240.290000,277.660000,242.320000,275.900000C243.661416,274.719420,244.396649,272.995299,244.320000,271.210000C244.424574,269.738537,243.886885,268.293876,242.845698,267.248855C241.804512,266.203833,240.361837,265.660836,238.890000,265.760000C237.333962,265.733175,235.834618,266.343752,234.740000,267.450000C233.497748,268.792559,232.759173,270.524148,232.650000,272.350000L224,270.890000C224.428096,268.349533,225.363349,265.921276,226.750000,263.750000C228.043241,261.910697,229.813342,260.458661,231.870000,259.550000C234.184189,258.504007,236.700690,257.981586,239.240000,258.020000Q246.240000,258.020000,250.440000,262.460000C252.644218,264.621003,253.893508,267.573215,253.910000,270.660000C253.910000,274.980000,251.540000,278.440000,246.800000,281.010000C249.472736,281.522811,251.877928,282.964509,253.590000,285.080000C255.309784,287.244884,256.212551,289.946104,256.140000,292.710000C256.195024,296.905164,254.464523,300.926033,251.380000,303.770000C244.918242,309.595403,235.193470,309.899831,228.380000,304.490000C225.429558,301.928036,223.587149,298.322076,223.240000,294.430000Z" fill="rgb(255,255,255)" stroke="none" stroke-width="1"/><path id="eO3tEdc6JRi15" d="M371.550000,160.340000C371.550000,298.110000,312.160000,409.790000,238.900000,409.790000C238.100000,409.790000,237.310000,409.790000,236.520000,409.790000C262.330000,387.600000,295.090000,351.100000,313.930000,297.260000C334,239.740000,329,188.880000,323.470000,160.340000Z" fill="rgb(211,132,79)" stroke="none" stroke-width="1"/><path id="eO3tEdc6JRi16" d="M194,395.140000L194,395.140000L185.760000,389C140.996422,321.370303,118.545027,241.416060,121.560000,160.370000L152.180000,160.370000C148.594874,240.755854,162.877623,320.936655,194,395.140000Z" fill="rgb(239,176,134)" stroke="none" stroke-width="1"/><rect id="eO3tEdc6JRi17" width="178.650000" height="59.900000" rx="0" ry="0" transform="matrix(1 0 0 1 149.27000000000001 549.96000000000004)" fill="rgb(237,197,103)" stroke="none" stroke-width="1"/><path id="eO3tEdc6JRi18" d="M327.920000,550L327.920000,609.900000L255,609.900000C266.098052,602.328137,275.280509,592.276052,281.820000,580.540000C287.057682,571.085309,290.451197,560.721514,291.820000,550Z" fill="rgb(226,177,90)" stroke="none" stroke-width="1"/></svg>