<svg width="348.27" height="348.27" xmlns="http://www.w3.org/2000/svg">
 <g>
  <title>Layer 1</title>
  <g id="XMLID_309_">
   <g id="XMLID_311_">
    <g id="XMLID_312_">
     <polygon id="XMLID_333_" points="315.135009765625,137.375 252.91299438476562,168.48599243164062 252.91299438476562,33.67100143432617 315.135009765625,33.67100143432617 " stroke-miterlimit="10" stroke-width="30" stroke="#e8c4a0" fill="none"/>
    </g>
    <polygon id="XMLID_36_" points="35.1349983215332,137.375 97.35700225830078,168.48599243164062 97.35700225830078,33.67100143432617 35.1349983215332,33.67100143432617 " stroke-miterlimit="10" stroke-width="30" stroke="#ecceb0" fill="none"/>
   </g>
   <polygon id="XMLID_334_" points="278.0710144042969,-1 72.19999694824219,-1 72.19999694824219,176.00799560546875 150.322998046875,221.11300659179688 150.322998046875,324.0419921875 199.94700622558594,324.0419921875 199.94700622558594,221.11300659179688 278.0710144042969,176.00799560546875 " fill="#e0b081"/>
   <polygon id="XMLID_337_" points="175.13499450683594,-1 175.13499450683594,324.0419921875 199.94700622558594,324.0419921875 199.94700622558594,221.11300659179688 278.0710144042969,176.00799560546875 278.0710144042969,-1 " fill="#d99d61"/>
   <polygon id="XMLID_338_" points="236.4029998779297,303.3009948730469 236.4029998779297,265.34698486328125 113.86699676513672,265.34698486328125 113.86699676513672,303.3009948730469 59.71500015258789,303.3009948730469 59.71500015258789,347.2699890136719 290.5559997558594,347.2699890136719 290.5559997558594,303.3009948730469 " fill="#00D7DF"/>
   <polygon id="XMLID_340_" points="236.4029998779297,303.3009948730469 236.4029998779297,265.34698486328125 175.13499450683594,265.34698486328125 175.13499450683594,347.2699890136719 290.5559997558594,347.2699890136719 290.5559997558594,303.3009948730469 " fill="#00969B"/>
  </g>
  <g id="svg_1"/>
  <g id="svg_2"/>
  <g id="svg_3"/>
  <g id="svg_4"/>
  <g id="svg_5"/>
  <g id="svg_6"/>
  <g id="svg_7"/>
  <g id="svg_8"/>
  <g id="svg_9"/>
  <g id="svg_10"/>
  <g id="svg_11"/>
  <g id="svg_12"/>
  <g id="svg_13"/>
  <g id="svg_14"/>
  <g id="svg_15"/>
  <text fill="#ffffff" stroke-width="0" opacity="undefined" x="145.7256" y="112.17895" id="svg_16" font-size="24" font-family="'Aerial'" text-anchor="start" xml:space="preserve" font-weight="normal" font-style="normal" transform="matrix(6.949826906788076,0,0,5.195702670134779,-875.5748677440715,-429.25495644869613) " stroke="#000">3</text>
 </g>

</svg>