<svg id="Layer_4" data-name="Layer 4" xmlns="http://www.w3.org/2000/svg" xmlns:xlink="http://www.w3.org/1999/xlink" preserveAspectRatio="none" viewBox="0 0 1920 1086">
    
    <defs>
        <style>.cls-1{fill:url(#linear-gradient);}</style>
        <linearGradient id="linear-gradient" y1="858.39" x2="1920" y2="858.39" gradientUnits="userSpaceOnUse">
            <stop offset="0.01" stop-color="#164d7e" />
            <stop offset="0.72" stop-color="#209698" />
        </linearGradient>
    </defs>
    <title>5 ABC back1</title>
    <path class="cls-1" d="M1920,690.63V1086H0V769.86c98.81,114,172.53,132.22,222.44,126.63,110.05-12.33,163.2-147.14,285.12-133.78,28.8,3.16,68.71,15.38,97.92,24.32,56,17.17,81.74,30.81,133.74,39.08,4.1.65,37.21,6.84,62.82,5.41,169.57-9.43,196.68-165.78,345.6-176.23,44.72-3.13,78.7,9.89,108.33,29.32,31.88,20.92,58.72,49.23,88.46,72.79,21.91,17.36,45.4,32.13,73.64,39.44A161.08,161.08,0,0,0,1473.8,801c41.93-3.87,74.82-20.88,103.8-42.77,21.15-16,40.22-34.53,59.21-52.47,2.29-2.17,4.59-4.34,6.89-6.48,13.56-12.67,27.21-24.83,41.66-35.28a213.27,213.27,0,0,1,21.37-13.72c25.93-14.43,55.12-22.46,91.07-18.47C1836,636,1882.52,654.11,1920,690.63Z" />
</svg>