<?xml version="1.0" encoding="utf-8"?>
<!-- Generator: Adobe Illustrator 25.0.0, SVG Export Plug-In . SVG Version: 6.00 Build 0)  -->
<svg version="1.1" id="Layer_1" xmlns="http://www.w3.org/2000/svg" xmlns:xlink="http://www.w3.org/1999/xlink" x="0px" y="0px"
preserveAspectRatio="none" 	 viewBox="0 0 1920 1086" style="enable-background:new 0 0 1920 1086;" xml:space="preserve">
<style type="text/css">
	.st0{fill:url(#SVGID_1_);}
	.st1{fill:url(#SVGID_2_);}
</style>
<linearGradient id="SVGID_1_" gradientUnits="userSpaceOnUse" x1="0" y1="721.2989" x2="1920" y2="721.2989" gradientTransform="matrix(1 0 0 -1 0 1086.1101)">
	<stop  offset="1.000000e-02" style="stop-color:#164D7E"/>
	<stop  offset="0.72" style="stop-color:#209698"/>
</linearGradient>
<path class="st0" d="M1920,211.5v499.1H0V207.7C56.7,139.4,148.3,51.8,262.4,51.2c151-0.9,194.2,151.2,347.9,156.6
	c173.5,6.1,208.6-184.7,393.8-188.8c165.3-3.6,177.1,147.4,365.8,156.1c169.2,7.8,246.3-109.5,398.8-63.8
	C1838.3,132.3,1888.2,176.5,1920,211.5z"/>
<linearGradient id="SVGID_2_" gradientUnits="userSpaceOnUse" x1="0" y1="339.3362" x2="1920" y2="339.3362" gradientTransform="matrix(1 0 0 -1 0 1086.1101)">
	<stop  offset="1.000000e-02" style="stop-color:#164D7E"/>
	<stop  offset="0.72" style="stop-color:#209698"/>
</linearGradient>
<path class="st1" d="M1920,593.5v499.1H0V589.7c56.7-68.3,148.3-155.9,262.4-156.5c151-0.9,194.2,151.2,347.9,156.6
	c173.5,6.1,208.6-184.7,393.8-188.8c165.3-3.6,177.1,147.4,365.8,156.1c169.2,7.8,246.3-109.5,398.8-63.8
	C1838.3,514.2,1888.2,558.5,1920,593.5z"/>
</svg>
