<?xml version="1.0" encoding="utf-8"?>
<!-- Generator: Adobe Illustrator 25.0.0, SVG Export Plug-In . SVG Version: 6.00 Build 0)  -->
<svg version="1.1" id="Layer_1" xmlns="http://www.w3.org/2000/svg" xmlns:xlink="http://www.w3.org/1999/xlink" x="0px" y="0px"
preserveAspectRatio="none" viewBox="0 0 1920 1086" style="enable-background:new 0 0 1920 1086;" xml:space="preserve">
<style type="text/css">
	.st0{fill:url(#SVGID_1_);}
	.st1{fill:url(#SVGID_2_);}
	.st2{fill:url(#SVGID_3_);}
	.st3{fill:url(#SVGID_4_);}
	.st4{fill:url(#SVGID_5_);}
	.st5{fill:url(#SVGID_6_);}
	.st6{fill:url(#SVGID_7_);}
</style>
<linearGradient id="SVGID_1_" gradientUnits="userSpaceOnUse" x1="0" y1="841.5153" x2="1920" y2="841.5153" gradientTransform="matrix(1 0 0 -1 0 1088)">
	<stop  offset="1.000000e-02" style="stop-color:#164D7E"/>
	<stop  offset="0.72" style="stop-color:#209698"/>
</linearGradient>
<path class="st0" d="M1920,78.7v395.4H0V157.9c98.8,114,172.5,132.2,222.4,126.6c110-12.3,163.2-147.1,285.1-133.8
	c28.8,3.2,68.7,15.4,97.9,24.3c56,17.2,81.7,30.8,133.7,39.1c4.1,0.7,37.2,6.8,62.8,5.4c169.6-9.4,196.7-165.8,345.6-176.2
	c44.7-3.1,78.7,9.9,108.3,29.3c31.9,20.9,58.7,49.2,88.5,72.8c21.9,17.4,45.4,32.1,73.6,39.4c18.2,4.6,37.1,6,55.7,4.2
	c41.9-3.9,74.8-20.9,103.8-42.8c21.2-16,40.2-34.5,59.2-52.5c2.3-2.2,4.6-4.3,6.9-6.5c13.6-12.7,27.2-24.8,41.7-35.3
	c6.8-5,14-9.6,21.4-13.7c25.9-14.4,55.1-22.5,91.1-18.5C1836,24.1,1882.5,42.2,1920,78.7z"/>
<linearGradient id="SVGID_2_" gradientUnits="userSpaceOnUse" x1="0" y1="669.5153" x2="1920" y2="669.5153" gradientTransform="matrix(1 0 0 -1 0 1088)">
	<stop  offset="1.000000e-02" style="stop-color:#164D7E"/>
	<stop  offset="0.72" style="stop-color:#209698"/>
</linearGradient>
<path class="st1" d="M1920,250.7v395.4H0V329.9c98.8,114,172.5,132.2,222.4,126.6c110-12.3,163.2-147.1,285.1-133.8
	c28.8,3.2,68.7,15.4,97.9,24.3c56,17.2,81.7,30.8,133.7,39.1c4.1,0.7,37.2,6.8,62.8,5.4c169.6-9.4,196.7-165.8,345.6-176.2
	c44.7-3.1,78.7,9.9,108.3,29.3c31.9,20.9,58.7,49.2,88.5,72.8c21.9,17.4,45.4,32.1,73.6,39.4c18.2,4.6,37.1,6,55.7,4.2
	c41.9-3.9,74.8-20.9,103.8-42.8c21.2-16,40.2-34.5,59.2-52.5c2.3-2.2,4.6-4.3,6.9-6.5c13.6-12.7,27.2-24.8,41.7-35.3
	c6.8-5,14-9.6,21.4-13.7c25.9-14.4,55.1-22.5,91.1-18.5C1836,196.1,1882.5,214.2,1920,250.7z"/>
<linearGradient id="SVGID_3_" gradientUnits="userSpaceOnUse" x1="0" y1="495.5153" x2="1920" y2="495.5153" gradientTransform="matrix(1 0 0 -1 0 1088)">
	<stop  offset="1.000000e-02" style="stop-color:#164D7E"/>
	<stop  offset="0.72" style="stop-color:#209698"/>
</linearGradient>
<path class="st2" d="M1920,424.7v395.4H0V503.9c98.8,114,172.5,132.2,222.4,126.6c110-12.3,163.2-147.1,285.1-133.8
	c28.8,3.2,68.7,15.4,97.9,24.3c56,17.2,81.7,30.8,133.7,39.1c4.1,0.7,37.2,6.8,62.8,5.4c169.6-9.4,196.7-165.8,345.6-176.2
	c44.7-3.1,78.7,9.9,108.3,29.3c31.9,20.9,58.7,49.2,88.5,72.8c21.9,17.4,45.4,32.1,73.6,39.4c18.2,4.6,37.1,6,55.7,4.2
	c41.9-3.9,74.8-20.9,103.8-42.8c21.2-16,40.2-34.5,59.2-52.5c2.3-2.2,4.6-4.3,6.9-6.5c13.6-12.7,27.2-24.8,41.7-35.3
	c6.8-5,14-9.6,21.4-13.7c25.9-14.4,55.1-22.5,91.1-18.5C1836,370.1,1882.5,388.2,1920,424.7z"/>
<linearGradient id="SVGID_4_" gradientUnits="userSpaceOnUse" x1="0" y1="495.5153" x2="1920" y2="495.5153" gradientTransform="matrix(1 0 0 -1 0 1088)">
	<stop  offset="1.000000e-02" style="stop-color:#164D7E"/>
	<stop  offset="0.72" style="stop-color:#209698"/>
</linearGradient>
<path class="st3" d="M1920,424.7v395.4H0V503.9c98.8,114,172.5,132.2,222.4,126.6c110-12.3,163.2-147.1,285.1-133.8
	c28.8,3.2,68.7,15.4,97.9,24.3c56,17.2,81.7,30.8,133.7,39.1c4.1,0.7,37.2,6.8,62.8,5.4c169.6-9.4,196.7-165.8,345.6-176.2
	c44.7-3.1,78.7,9.9,108.3,29.3c31.9,20.9,58.7,49.2,88.5,72.8c21.9,17.4,45.4,32.1,73.6,39.4c18.2,4.6,37.1,6,55.7,4.2
	c41.9-3.9,74.8-20.9,103.8-42.8c21.2-16,40.2-34.5,59.2-52.5c2.3-2.2,4.6-4.3,6.9-6.5c13.6-12.7,27.2-24.8,41.7-35.3
	c6.8-5,14-9.6,21.4-13.7c25.9-14.4,55.1-22.5,91.1-18.5C1836,370.1,1882.5,388.2,1920,424.7z"/>
<linearGradient id="SVGID_5_" gradientUnits="userSpaceOnUse" x1="0" y1="495.5153" x2="1920" y2="495.5153" gradientTransform="matrix(1 0 0 -1 0 1088)">
	<stop  offset="1.000000e-02" style="stop-color:#164D7E"/>
	<stop  offset="0.72" style="stop-color:#209698"/>
</linearGradient>
<path class="st4" d="M1920,424.7v395.4H0V503.9c98.8,114,172.5,132.2,222.4,126.6c110-12.3,163.2-147.1,285.1-133.8
	c28.8,3.2,68.7,15.4,97.9,24.3c56,17.2,81.7,30.8,133.7,39.1c4.1,0.7,37.2,6.8,62.8,5.4c169.6-9.4,196.7-165.8,345.6-176.2
	c44.7-3.1,78.7,9.9,108.3,29.3c31.9,20.9,58.7,49.2,88.5,72.8c21.9,17.4,45.4,32.1,73.6,39.4c18.2,4.6,37.1,6,55.7,4.2
	c41.9-3.9,74.8-20.9,103.8-42.8c21.2-16,40.2-34.5,59.2-52.5c2.3-2.2,4.6-4.3,6.9-6.5c13.6-12.7,27.2-24.8,41.7-35.3
	c6.8-5,14-9.6,21.4-13.7c25.9-14.4,55.1-22.5,91.1-18.5C1836,370.1,1882.5,388.2,1920,424.7z"/>
<linearGradient id="SVGID_6_" gradientUnits="userSpaceOnUse" x1="0" y1="325.5153" x2="1920" y2="325.5153" gradientTransform="matrix(1 0 0 -1 0 1088)">
	<stop  offset="1.000000e-02" style="stop-color:#164D7E"/>
	<stop  offset="0.72" style="stop-color:#209698"/>
</linearGradient>
<path class="st5" d="M1920,594.7v395.4H0V673.9c98.8,114,172.5,132.2,222.4,126.6c110-12.3,163.2-147.1,285.1-133.8
	c28.8,3.2,68.7,15.4,97.9,24.3c56,17.2,81.7,30.8,133.7,39.1c4.1,0.7,37.2,6.8,62.8,5.4c169.6-9.4,196.7-165.8,345.6-176.2
	c44.7-3.1,78.7,9.9,108.3,29.3c31.9,20.9,58.7,49.2,88.5,72.8c21.9,17.4,45.4,32.1,73.6,39.4c18.2,4.6,37.1,6,55.7,4.2
	c41.9-3.9,74.8-20.9,103.8-42.8c21.2-16,40.2-34.5,59.2-52.5c2.3-2.2,4.6-4.3,6.9-6.5c13.6-12.7,27.2-24.8,41.7-35.3
	c6.8-5,14-9.6,21.4-13.7c25.9-14.4,55.1-22.5,91.1-18.5C1836,540.1,1882.5,558.2,1920,594.7z"/>
<linearGradient id="SVGID_7_" gradientUnits="userSpaceOnUse" x1="0" y1="214.3047" x2="1920" y2="214.3047" gradientTransform="matrix(1 0 0 -1 0 1088)">
	<stop  offset="1.000000e-02" style="stop-color:#164D7E"/>
	<stop  offset="0.72" style="stop-color:#209698"/>
</linearGradient>
<path class="st6" d="M1920,705.9v395.4H0V785.2c98.8,114,172.5,132.2,222.4,126.6c110-12.3,163.2-147.1,285.1-133.8
	c28.8,3.2,68.7,15.4,97.9,24.3c56,17.2,81.7,30.8,133.7,39.1c4.1,0.7,37.2,6.8,62.8,5.4c169.6-9.4,196.7-165.8,345.6-176.2
	c44.7-3.1,78.7,9.9,108.3,29.3c31.9,20.9,58.7,49.2,88.5,72.8c21.9,17.4,45.4,32.1,73.6,39.4c18.2,4.6,37.1,6,55.7,4.2
	c41.9-3.9,74.8-20.9,103.8-42.8c21.2-16,40.2-34.5,59.2-52.5c2.3-2.2,4.6-4.3,6.9-6.5c13.6-12.7,27.2-24.8,41.7-35.3
	c6.8-5,14-9.6,21.4-13.7c25.9-14.4,55.1-22.5,91.1-18.5C1836,651.3,1882.5,669.4,1920,705.9z"/>
</svg>
