<?xml version="1.0" encoding="utf-8"?>
<!-- Generator: Adobe Illustrator 25.0.0, SVG Export Plug-In . SVG Version: 6.00 Build 0)  -->
<svg version="1.1" id="evbkxyfetap1" text-rendering="geometricPrecision" shape-rendering="geometricPrecision"
	 xmlns="http://www.w3.org/2000/svg" xmlns:xlink="http://www.w3.org/1999/xlink" x="0px" y="0px" viewBox="0 0 1920 1080"
	 style="enable-background:new 0 0 1920 1080;" xml:space="preserve">
<style type="text/css">
	.st0{fill:#FFFFFF;}
	.st1{fill:url(#evbkxyfetap4_1_);}
	.st2{filter:url(#evbkxyfetap211-filter);}
	.st3{opacity:0;fill:none;stroke:#727272;stroke-miterlimit:10;}
	.st4{fill:none;stroke:#727272;stroke-miterlimit:10;stroke-opacity:0;}
	.st5{fill:#727272;fill-opacity:0;}
	.st6{font-family:'Montserrat-Bold';}
	.st7{font-size:271px;}
	.st8{clip-path:url(#SVGID_2_);}
	.st9{clip-path:url(#SVGID_4_);}
	.st10{opacity:0.7;clip-path:url(#SVGID_6_);}
	.st11{clip-path:url(#SVGID_8_);fill:#FFFFFF;}
	.st12{clip-path:url(#SVGID_6_);fill:#5AE3A6;}
	.st13{clip-path:url(#SVGID_10_);fill:#FFFFFF;}
	
		.st14{clip-path:url(#SVGID_12_);fill:none;stroke:#1A2E35;stroke-width:1.8979;stroke-linecap:round;stroke-linejoin:round;stroke-miterlimit:10;}
	.st15{clip-path:url(#SVGID_4_);fill:#FFFFFF;}
	.st16{opacity:0.2;clip-path:url(#SVGID_14_);}
	.st17{opacity:0.7;clip-path:url(#SVGID_16_);}
	.st18{clip-path:url(#SVGID_18_);}
	
		.st19{clip-path:url(#SVGID_4_);fill:none;stroke:#1A2E35;stroke-width:1.8979;stroke-linecap:round;stroke-linejoin:round;stroke-miterlimit:10;}
	
		.st20{clip-path:url(#SVGID_4_);fill:none;stroke:#1A2E35;stroke-width:3.7957;stroke-linecap:round;stroke-linejoin:round;stroke-miterlimit:10;}
	.st21{clip-path:url(#SVGID_20_);fill:#1A2E35;}
	
		.st22{clip-path:url(#SVGID_20_);fill:none;stroke:#1A2E35;stroke-width:3.7957;stroke-linecap:round;stroke-linejoin:round;stroke-miterlimit:10;}
	
		.st23{clip-path:url(#SVGID_20_);fill:none;stroke:#1A2E35;stroke-width:1.8979;stroke-linecap:round;stroke-linejoin:round;stroke-miterlimit:10;}
	.st24{clip-path:url(#SVGID_20_);fill:#FFFFFF;}
	.st25{opacity:0.2;clip-path:url(#SVGID_22_);}
	.st26{opacity:0.7;clip-path:url(#SVGID_24_);}
	.st27{clip-path:url(#SVGID_26_);}
	
		.st28{clip-path:url(#SVGID_28_);fill:none;stroke:#1A2E35;stroke-width:1.8979;stroke-linecap:round;stroke-linejoin:round;stroke-miterlimit:10;}
	
		.st29{clip-path:url(#SVGID_28_);fill:none;stroke:#1A2E35;stroke-width:3.7957;stroke-linecap:round;stroke-linejoin:round;stroke-miterlimit:10;}
	.st30{clip-path:url(#SVGID_28_);fill:#1A2E35;}
	.st31{clip-path:url(#SVGID_28_);fill:#FFFFFF;}
	.st32{clip-path:url(#SVGID_30_);fill:#FFFFFF;}
	
		.st33{clip-path:url(#SVGID_30_);fill:none;stroke:#1A2E35;stroke-width:1.8979;stroke-linecap:round;stroke-linejoin:round;stroke-miterlimit:10;}
	.st34{clip-path:url(#SVGID_30_);fill:#5AE3A6;}
	.st35{clip-path:url(#SVGID_4_);fill:#767676;}
	.st36{clip-path:url(#SVGID_4_);fill:#999999;}
	.st37{clip-path:url(#SVGID_32_);fill:#767676;}
	
		.st38{clip-path:url(#SVGID_32_);fill:none;stroke:#1A2E35;stroke-width:1.8979;stroke-linecap:round;stroke-linejoin:round;stroke-miterlimit:10;}
	.st39{clip-path:url(#SVGID_32_);fill:#5AE3A6;}
	.st40{opacity:0.2;clip-path:url(#SVGID_34_);}
	.st41{opacity:0.7;clip-path:url(#SVGID_36_);}
	.st42{clip-path:url(#SVGID_38_);}
	
		.st43{clip-path:url(#SVGID_40_);fill:none;stroke:#1A2E35;stroke-width:1.8979;stroke-linecap:round;stroke-linejoin:round;stroke-miterlimit:10;}
	.st44{clip-path:url(#SVGID_40_);fill:#767676;}
	.st45{clip-path:url(#SVGID_40_);fill:#5AE3A6;}
	.st46{opacity:0.2;clip-path:url(#SVGID_42_);}
	.st47{opacity:0.7;clip-path:url(#SVGID_44_);}
	.st48{clip-path:url(#SVGID_46_);}
	
		.st49{clip-path:url(#SVGID_48_);fill:none;stroke:#1A2E35;stroke-width:1.8979;stroke-linecap:round;stroke-linejoin:round;stroke-miterlimit:10;}
	.st50{clip-path:url(#SVGID_48_);fill:#999999;}
	.st51{clip-path:url(#SVGID_48_);fill:#1A2E35;}
	.st52{opacity:0.3;clip-path:url(#SVGID_50_);}
	.st53{clip-path:url(#SVGID_52_);}
	
		.st54{clip-path:url(#SVGID_54_);fill:none;stroke:#1A2E35;stroke-width:1.8979;stroke-linecap:round;stroke-linejoin:round;stroke-miterlimit:10;}
	.st55{clip-path:url(#SVGID_54_);fill:#FFFFFF;}
	.st56{opacity:0.2;clip-path:url(#SVGID_56_);}
	.st57{opacity:0.7;clip-path:url(#SVGID_58_);}
	.st58{clip-path:url(#SVGID_60_);}
	
		.st59{clip-path:url(#SVGID_62_);fill:none;stroke:#1A2E35;stroke-width:1.8979;stroke-linecap:round;stroke-linejoin:round;stroke-miterlimit:10;}
	.st60{clip-path:url(#SVGID_62_);fill:#FFFFFF;}
	.st61{clip-path:url(#SVGID_62_);fill:#1A2E35;}
	.st62{clip-path:url(#SVGID_62_);fill:#5AE3A6;}
	.st63{opacity:0.4;clip-path:url(#SVGID_62_);}
	.st64{clip-path:url(#SVGID_64_);fill:#FFFFFF;}
	
		.st65{clip-path:url(#SVGID_64_);fill:none;stroke:#1A2E35;stroke-width:1.8979;stroke-linecap:round;stroke-linejoin:round;stroke-miterlimit:10;}
	.st66{opacity:0.3;clip-path:url(#SVGID_66_);}
	.st67{clip-path:url(#SVGID_68_);}
	
		.st68{clip-path:url(#SVGID_70_);fill:none;stroke:#1A2E35;stroke-width:1.8979;stroke-linecap:round;stroke-linejoin:round;stroke-miterlimit:10;}
	.st69{clip-path:url(#SVGID_70_);fill:#5AE3A6;}
	.st70{clip-path:url(#SVGID_70_);fill:#1A2E35;}
	
		.st71{clip-path:url(#SVGID_70_);fill:none;stroke:#FFFFFF;stroke-width:1.8979;stroke-linecap:round;stroke-linejoin:round;stroke-miterlimit:10;}
	.st72{opacity:0.6;clip-path:url(#SVGID_70_);}
	.st73{clip-path:url(#SVGID_72_);fill:#FFFFFF;}
	
		.st74{clip-path:url(#SVGID_72_);fill:none;stroke:#1A2E35;stroke-width:1.8979;stroke-linecap:round;stroke-linejoin:round;stroke-miterlimit:10;}
	.st75{opacity:0.4;clip-path:url(#SVGID_70_);}
	.st76{clip-path:url(#SVGID_74_);fill:#FFFFFF;}
	
		.st77{clip-path:url(#SVGID_74_);fill:none;stroke:#1A2E35;stroke-width:1.8979;stroke-linecap:round;stroke-linejoin:round;stroke-miterlimit:10;}
	.st78{clip-path:url(#SVGID_70_);fill:#FFFFFF;}
	.st79{clip-path:url(#SVGID_76_);fill:#FFFFFF;}
	
		.st80{clip-path:url(#SVGID_76_);fill:none;stroke:#1A2E35;stroke-width:1.8979;stroke-linecap:round;stroke-linejoin:round;stroke-miterlimit:10;}
	.st81{opacity:0.2;clip-path:url(#SVGID_78_);}
	.st82{opacity:0.7;clip-path:url(#SVGID_80_);}
	.st83{clip-path:url(#SVGID_82_);}
	
		.st84{clip-path:url(#SVGID_84_);fill:none;stroke:#1A2E35;stroke-width:1.8979;stroke-linecap:round;stroke-linejoin:round;stroke-miterlimit:10;}
	.st85{clip-path:url(#SVGID_84_);fill:#FFFFFF;}
	.st86{clip-path:url(#SVGID_84_);fill:#1A2E35;}
	.st87{clip-path:url(#SVGID_84_);fill:#5AE3A6;}
	.st88{clip-path:url(#SVGID_4_);fill:#1A2E35;}
	.st89{clip-path:url(#SVGID_86_);fill:#5AE3A6;}
	
		.st90{clip-path:url(#SVGID_86_);fill:none;stroke:#1A2E35;stroke-width:1.8979;stroke-linecap:round;stroke-linejoin:round;stroke-miterlimit:10;}
	.st91{clip-path:url(#SVGID_86_);fill:#1A2E35;}
	.st92{clip-path:url(#SVGID_88_);fill:#5AE3A6;}
	.st93{opacity:0.5;clip-path:url(#SVGID_90_);}
	.st94{opacity:0.7;clip-path:url(#SVGID_92_);}
	.st95{clip-path:url(#SVGID_94_);}
	
		.st96{clip-path:url(#SVGID_96_);fill:none;stroke:#1A2E35;stroke-width:1.8979;stroke-linecap:round;stroke-linejoin:round;stroke-miterlimit:10;}
	.st97{clip-path:url(#SVGID_96_);fill:#5AE3A6;}
	.st98{opacity:0.2;clip-path:url(#SVGID_98_);}
	.st99{opacity:0.7;clip-path:url(#SVGID_100_);}
	.st100{clip-path:url(#SVGID_102_);}
	
		.st101{clip-path:url(#SVGID_104_);fill:none;stroke:#1A2E35;stroke-width:1.8979;stroke-linecap:round;stroke-linejoin:round;stroke-miterlimit:10;}
	.st102{clip-path:url(#SVGID_104_);fill:#5AE3A6;}
	.st103{opacity:0.2;clip-path:url(#SVGID_106_);}
	.st104{opacity:0.7;clip-path:url(#SVGID_108_);}
	.st105{clip-path:url(#SVGID_110_);}
	
		.st106{clip-path:url(#SVGID_112_);fill:none;stroke:#1A2E35;stroke-width:1.8979;stroke-linecap:round;stroke-linejoin:round;stroke-miterlimit:10;}
	.st107{clip-path:url(#SVGID_112_);fill:#5AE3A6;}
	.st108{opacity:0.4;clip-path:url(#SVGID_114_);}
	.st109{opacity:0.7;clip-path:url(#SVGID_116_);}
	.st110{clip-path:url(#SVGID_118_);}
	
		.st111{clip-path:url(#SVGID_120_);fill:none;stroke:#1A2E35;stroke-width:1.8979;stroke-linecap:round;stroke-linejoin:round;stroke-miterlimit:10;}
	.st112{clip-path:url(#SVGID_120_);fill:#5AE3A6;}
	.st113{opacity:0.4;clip-path:url(#SVGID_122_);}
	.st114{opacity:0.7;clip-path:url(#SVGID_124_);}
	.st115{clip-path:url(#SVGID_126_);}
	
		.st116{clip-path:url(#SVGID_128_);fill:none;stroke:#1A2E35;stroke-width:1.8979;stroke-linecap:round;stroke-linejoin:round;stroke-miterlimit:10;}
	.st117{clip-path:url(#SVGID_128_);fill:#5AE3A6;}
</style>
<filter  height="600%" id="evbkxyfetap211-filter" width="600%" x="-400%" y="-400%">
	<feComponentTransfer  id="evbkxyfetap211-filter-opacity-0" result="result">
		<feFuncA  id="evbkxyfetap211-filter-opacity-0-A" tableValues="0 1" type="table"></feFuncA>
	</feComponentTransfer>
</filter>
<g id="evbkxyfetap2">
	<rect id="evbkxyfetap3" y="-0.2" class="st0" width="1920" height="1078.4"/>
	
		<linearGradient id="evbkxyfetap4_1_" gradientUnits="userSpaceOnUse" x1="0" y1="634.1573" x2="1920" y2="634.1573" gradientTransform="matrix(1 0 0 -1 0 1082)">
		<stop  offset="1.000000e-02" style="stop-color:#164D7E"/>
		<stop  offset="0.72" style="stop-color:#209698"/>
	</linearGradient>
	<path id="evbkxyfetap4" class="st1" d="M1920-0.2v689.6c-37.5-36.5-84-54.5-122.2-58.8c-36-4-65.1,4-91.1,18.4
		c-7.4,4.1-14.5,8.7-21.4,13.7c-14.4,10.4-28.1,22.6-41.7,35.2c-2.3,2.1-4.6,4.3-6.9,6.5c-19,17.9-38.1,36.4-59.2,52.4
		c-29,21.9-61.9,38.8-103.8,42.7c-18.7,1.9-37.5,0.5-55.7-4.1c-28.2-7.3-51.7-22-73.6-39.4c-29.7-23.5-56.6-51.8-88.5-72.7
		c-29.6-19.4-63.6-32.4-108.3-29.3c-148.9,10.4-176,166.5-345.6,176c-25.6,1.4-58.7-4.8-62.8-5.4c-52-8.3-77.7-21.9-133.7-39
		c-29.2-8.9-69.1-21.1-97.9-24.3C385.6,748,332.5,882.6,222.4,895C172.5,900.5,98.8,882.3,0,768.5V-0.2H1920z"/>
</g>
<g id="evbkxyfetap210">
	<g id="evbkxyfetap211" class="st2">
		<line class="st3" x1="1495.7" y1="906.9" x2="1607.6" y2="928.1"/>
	</g>
	<line id="evbkxyfetap212" class="st4" x1="1519" y1="899.1" x2="1626.8" y2="917.5"/>
	<line id="evbkxyfetap213" class="st4" x1="1551.6" y1="891.5" x2="1647.8" y2="906.9"/>
	<path id="evbkxyfetap214" class="st5" d="M1658.1,899.8l-29-4.2l21.3-10.2l29.9,3.8L1658.1,899.8z"/>
</g>
<text transform="matrix(1 0 0 1 18.8233 482.8823)" class="st0 st6 st7">WEEK 2</text>
<g>
	<g>
		<defs>
			<rect id="SVGID_1_" x="1075.5" y="88.9" width="948.9" height="948.9"/>
		</defs>
		<clipPath id="SVGID_2_">
			<use xlink:href="#SVGID_1_"  style="overflow:visible;"/>
		</clipPath>
		<g class="st8">
			<defs>
				<rect id="SVGID_3_" x="1075.5" y="88.9" width="948.9" height="948.9"/>
			</defs>
			<clipPath id="SVGID_4_">
				<use xlink:href="#SVGID_3_"  style="overflow:visible;"/>
			</clipPath>
			<g class="st9">
				<defs>
					<rect id="SVGID_5_" x="1075.5" y="88.9" width="948.9" height="948.9"/>
				</defs>
				<clipPath id="SVGID_6_">
					<use xlink:href="#SVGID_5_"  style="overflow:visible;"/>
				</clipPath>
				<g class="st10">
					<g>
						<defs>
							<rect id="SVGID_7_" x="1186.2" y="144.2" width="722.2" height="840.7"/>
						</defs>
						<clipPath id="SVGID_8_">
							<use xlink:href="#SVGID_7_"  style="overflow:visible;"/>
						</clipPath>
						<path class="st11" d="M1204.5,406c0,0-52.9,136.6,21.4,274.2c74.3,137.6,227.5,210.3,350.1,272.4
							c122.6,62.1,249.9,31.9,310.4-69.9c60.5-101.8-22.5-174.5-22.6-319.6c-0.1-145.2,21.7-183.6-56.9-306.2
							c-78.6-122.6-271.5-149.8-417.3-58.8C1243.7,289.1,1204.5,406,1204.5,406"/>
					</g>
				</g>
				<path class="st12" d="M1863.8,582.2c-0.1-145.2,21.7-183.6-56.9-306.2c-78.6-122.6-271.5-149.8-417.3-58.8
					C1243.7,308,1204.5,425,1204.5,425s-52.9,136.6,21.4,274.2c68,125.9,201.9,197.4,318.1,256.2h297c17.6-14.7,32.9-32.7,45.4-53.7
					C1946.8,800,1863.9,727.3,1863.8,582.2"/>
				<g class="st10">
					<g>
						<defs>
							<rect id="SVGID_9_" x="1186.2" y="163.2" width="722.2" height="792.3"/>
						</defs>
						<clipPath id="SVGID_10_">
							<use xlink:href="#SVGID_9_"  style="overflow:visible;"/>
						</clipPath>
						<path class="st13" d="M1863.8,582.2c-0.1-145.2,21.7-183.6-56.9-306.2c-78.6-122.6-271.5-149.8-417.3-58.8
							C1243.7,308,1204.5,425,1204.5,425s-52.9,136.6,21.4,274.2c68,125.9,201.9,197.4,318.1,256.2h297
							c17.6-14.7,32.9-32.7,45.4-53.7C1946.8,800,1863.9,727.3,1863.8,582.2"/>
					</g>
				</g>
			</g>
			<g class="st9">
				<defs>
					<rect id="SVGID_11_" x="1075.5" y="88.9" width="948.9" height="948.9"/>
				</defs>
				<clipPath id="SVGID_12_">
					<use xlink:href="#SVGID_11_"  style="overflow:visible;"/>
				</clipPath>
				<path class="st14" d="M1511.6,185.2c2.6,10.2,1.3-8.5,6.3-31.4c5-22.9,13.6-13.6,13.6-13.6"/>
				<line class="st14" x1="1510.1" y1="161.8" x2="1525.8" y2="155.4"/>
				<path class="st14" d="M1538.9,147.6c0,0-9.4,19.5,4.8,27.8"/>
				<path class="st14" d="M1552.2,142.1c0,0,15.6,8.6,5.8,27.3"/>
				<line class="st14" x1="1541.6" y1="154.2" x2="1552.7" y2="162.4"/>
				<line class="st14" x1="1550.3" y1="150.6" x2="1541.6" y2="164.5"/>
				<path class="st14" d="M1210.9,643.9c0,0-26.4-0.4-26.5,22.4"/>
				<path class="st14" d="M1208.7,658.3c-0.6-3.4-12.1-7.5-14.1,1.2c-2,8.7,12.3,3.5,16.7-0.6c0,0-8.2,8-5.6,10.2"/>
				<path class="st14" d="M1210.3,671.6c0,0-3.5,4.4-7.2,2.3"/>
				<path class="st14" d="M1233.4,656.3l-19.8,20.2c0,0,9.9-10.1,15.8-6.9c7.2,4-2.1,14.8-9.8,7"/>
				<path class="st14" d="M1243.4,661.8c0,0,5.2,24.1-21.9,25"/>
				<polyline class="st14" points="1597.5,252.4 1607.1,254 1607.2,275.7 1628.1,237.5 1661.2,242.9 				"/>
				<line class="st14" x1="1631.8" y1="254.2" x2="1646.3" y2="279.9"/>
				<line class="st14" x1="1650" y1="257.2" x2="1624" y2="276.2"/>
				<path class="st14" d="M1466.8,291.1c-2.4-3.1-16.5-0.9-13.7,9.1c2.9,10,14.5-3.3,16.7-10c0,0-3.9,12.7,0,13.6"/>
				<path class="st14" d="M1477.6,280.8l-3.2,11.3c0,0,1.6-5.6,4.3-5.6c3.4,0,2.2,5.8-2.2,4.5"/>
				<polyline class="st14" points="1743.4,418.8 1736.8,442.8 1751.3,458.7 				"/>
				<line class="st14" x1="1751.8" y1="428.6" x2="1768.4" y2="442.5"/>
				<line class="st14" x1="1763.2" y1="425.2" x2="1756" y2="442.8"/>
				<path class="st14" d="M1774.9,440.6c0,0,0.1,5-2,5.7"/>
				<line class="st14" x1="1777" y1="423.1" x2="1787" y2="430.5"/>
				<line class="st14" x1="1790.8" y1="416.9" x2="1780.9" y2="452.6"/>
				<polyline class="st14" points="1791.2,404.5 1807.3,422.8 1800.5,442.7 				"/>
				<polygon class="st14" points="1348,874.7 1371.3,805.4 1399.5,836.9 				"/>
				<polyline class="st14" points="1392.6,842 1386.7,835.1 1393,829.6 				"/>
				<path class="st14" d="M1225,463.4c0,13.1-10.6,23.7-23.7,23.7c-13.1,0-23.7-10.6-23.7-23.7c0-13.1,10.6-23.7,23.7-23.7
					C1214.4,439.7,1225,450.3,1225,463.4z"/>
				
					<ellipse transform="matrix(0.4472 -0.8944 0.8944 0.4472 282.7245 1342.6776)" class="st14" cx="1227.6" cy="442.6" rx="26.3" ry="26.3"/>
				<line class="st14" x1="1206" y1="440.1" x2="1202.8" y2="451.3"/>
				<line class="st14" x1="1210.5" y1="441.5" x2="1206" y2="457.6"/>
				<line class="st14" x1="1215.3" y1="444.2" x2="1210.5" y2="462.4"/>
				<line class="st14" x1="1220.6" y1="449.5" x2="1217.2" y2="466.8"/>
				<line class="st14" x1="1223.6" y1="455.2" x2="1220.6" y2="468"/>
				<path class="st14" d="M1178.6,433c-2.1-0.6-7.7,4.7-3.3,8.4c4.4,3.6,5.5-6,4.4-9.7c0,0,2.2,7,4.2,6.1"/>
				<path class="st14" d="M1209.2,402.6l7.5,13.8c0,0-3.8-6.9-1.1-9.5c3.3-3.2,7.5,3.5,2.1,6.4"/>
				<line class="st14" x1="1347.9" y1="400.9" x2="1358.7" y2="411.1"/>
				<line class="st14" x1="1358.7" y1="398.3" x2="1349.7" y2="411.7"/>
				<line class="st14" x1="1369.2" y1="402.1" x2="1379.9" y2="398.1"/>
				<line class="st14" x1="1385.1" y1="386.9" x2="1391.6" y2="392.7"/>
				<line class="st14" x1="1396.6" y1="380" x2="1388.3" y2="408.4"/>
				<path class="st14" d="M1865.3,374.3l-0.4-21.7h16.4c0,0-9.1,5-4.9,16.7c4.2,11.7,10.9,5,10.9,5"/>
				<polygon class="st14" points="1837.6,744 1856.2,731.2 1880.9,732.9 1882.4,764.2 1864.3,777.2 1841.9,775.5 				"/>
				<polyline class="st14" points="1841.9,775.5 1860,762.5 1882.4,764.2 				"/>
				<line class="st14" x1="1860" y1="762.5" x2="1856.2" y2="731.2"/>
				<polyline class="st14" points="1837.6,744 1862.2,746.9 1880.9,732.9 				"/>
				<line class="st14" x1="1862.2" y1="746.9" x2="1864.3" y2="777.2"/>
				<polygon class="st14" points="1840.9,509.1 1840.2,550.8 1876.7,534.2 				"/>
				<line class="st14" x1="1840.9" y1="509.1" x2="1858.4" y2="542.3"/>
				<polyline class="st14" points="1855.6,537 1859.8,534.9 1862.6,540.6 				"/>
				<line class="st14" x1="1522.4" y1="505.2" x2="1537.5" y2="521.3"/>
				<line class="st14" x1="1537.6" y1="503" x2="1524.9" y2="520.4"/>
				<path class="st14" d="M1543.8,494.5c0,0,3.5-1.4,4.3,2.3c0.7,3.6-5.2,8.4-5.2,8.4h8.5"/>
				<path class="st14" d="M1287.2,262.6c1.5-19.4,13-35.6,28.9-44.1"/>
				<path class="st14" d="M1329.2,320.5c-14.1-3.4-26-12.1-33.5-23.9"/>
				<path class="st14" d="M1396.8,271.4c-2.4,30.3-28.9,52.9-59.2,50.4"/>
				<path class="st14" d="M1346.4,212.2c26.2,2.1,46.7,22.3,50.1,47.3"/>
				<path class="st14" d="M1365.7,309.3c-8.1,4.6-17.6,6.8-27.6,6c-26.7-2.1-46.6-25.5-44.5-52.2"/>
				<path class="st14" d="M1296.7,249.5c7.5-19.5,27.2-32.7,49.1-30.9c26.7,2.1,46.6,25.5,44.5,52.2c-0.9,11-5.3,20.8-12.2,28.4"/>
				<polyline class="st14" points="1337.3,232.1 1342,267 1368.9,258.6 				"/>
				<path class="st14" d="M1760.5,334.8c-15.8,0.1-30.7-9.7-36.3-25.4c-5.2-14.9-0.7-30.8,10.3-40.8"/>
				<path class="st14" d="M1796.1,309.1c-3.6,10.7-11.9,19.6-23.4,23.6"/>
				<path class="st14" d="M1747.5,260.9c19.8-7,41.6,3.4,48.5,23.3"/>
				<path class="st14" d="M1778.9,268.9c5.8,3.9,10.4,9.6,12.9,16.7c6.2,17.5-3,36.7-20.5,42.8c-13.1,4.6-27.2,0.6-36-9.1"/>
				<path class="st14" d="M1728.4,307.9c-6.2-17.5,3-36.7,20.5-42.8c6.6-2.3,13.4-2.5,19.6-0.8"/>
				<polyline class="st14" points="1747.3,276 1760.1,296.8 1748.4,312 				"/>
				<path class="st14" d="M1491.1,864.1c0-10.5,5.3-19.8,13.4-25.3"/>
				<path class="st14" d="M1543.8,885.1c-5.6,5.8-13.4,9.5-22.1,9.5c-13.4,0-24.8-8.7-28.9-20.7"/>
				<path class="st14" d="M1521.6,833.6c16.9,0,30.5,13.7,30.5,30.5"/>
				<path class="st14" d="M1521.6,891c-14.9,0-26.9-12.1-26.9-26.9"/>
				<path class="st14" d="M1500.7,847.2c4.9-6.1,12.5-10,21-10c14.9,0,26.9,12.1,26.9,26.9c0,10.1-5.6,18.9-13.8,23.5"/>
				<polyline class="st14" points="1517.4,882.4 1521.6,864.1 1515.8,849.1 				"/>
				<line class="st14" x1="1166.1" y1="956.2" x2="1933.9" y2="956.2"/>
			</g>
			<polygon class="st15" points="1555.7,556 1543.2,794.1 1384.7,785.8 1386,760.5 1397.2,547.6 1497,552.9 			"/>
			<g class="st9">
				<defs>
					<polygon id="SVGID_13_" points="1386,760.5 1384.7,785.8 1543.2,794.1 1555.7,556 1497,552.9 1397.2,547.6 					"/>
				</defs>
				<clipPath id="SVGID_14_">
					<use xlink:href="#SVGID_13_"  style="overflow:visible;"/>
				</clipPath>
				<g class="st16">
					<g>
						<defs>
							<rect id="SVGID_15_" x="1386" y="547.6" width="120.2" height="212.9"/>
						</defs>
						<clipPath id="SVGID_16_">
							<use xlink:href="#SVGID_15_"  style="overflow:visible;"/>
						</clipPath>
						<g class="st17">
							<g>
								<defs>
									<rect id="SVGID_17_" x="1386" y="547.6" width="120.2" height="212.9"/>
								</defs>
								<clipPath id="SVGID_18_">
									<use xlink:href="#SVGID_17_"  style="overflow:visible;"/>
								</clipPath>
								<polygon class="st18" points="1506.2,695.5 1470.5,698.4 1480.9,743.4 1386,760.5 1397.2,547.6 1497,552.9 								"/>
							</g>
						</g>
					</g>
				</g>
			</g>
			<polygon class="st19" points="1555.7,556 1543.2,794.1 1384.7,785.8 1386,760.5 1397.2,547.6 1497,552.9 			"/>
			<line class="st20" x1="1408.4" y1="563.9" x2="1449.6" y2="566.1"/>
			<line class="st20" x1="1408" y1="571.8" x2="1436" y2="573.3"/>
			<line class="st20" x1="1417.1" y1="591.1" x2="1535.7" y2="597.3"/>
			<line class="st20" x1="1416.6" y1="599" x2="1535.2" y2="605.2"/>
			<line class="st20" x1="1416.2" y1="608.2" x2="1517.3" y2="613.5"/>
			
				<rect x="1416" y="616.9" transform="matrix(5.241419e-02 -0.9986 0.9986 5.241419e-02 725.4563 2007.9705)" class="st19" width="9.7" height="9.7"/>
			
				<rect x="1433.4" y="617.8" transform="matrix(5.259797e-02 -0.9986 0.9986 5.259797e-02 740.8478 2026.1718)" class="st19" width="9.7" height="9.7"/>
			
				<rect x="1450.9" y="618.7" transform="matrix(5.241419e-02 -0.9986 0.9986 5.241419e-02 756.7574 2044.631)" class="st19" width="9.7" height="9.7"/>
			
				<rect x="1468.4" y="619.6" transform="matrix(5.260836e-02 -0.9986 0.9986 5.260836e-02 772.128 2062.8247)" class="st19" width="9.7" height="9.7"/>
			<g class="st9">
				<defs>
					<rect id="SVGID_19_" x="1075.5" y="88.9" width="948.9" height="948.9"/>
				</defs>
				<clipPath id="SVGID_20_">
					<use xlink:href="#SVGID_19_"  style="overflow:visible;"/>
				</clipPath>
				<path class="st21" d="M1410.7,590.7c-0.1,1.3-1.2,2.4-2.5,2.3c-1.3-0.1-2.4-1.2-2.3-2.5c0.1-1.3,1.2-2.4,2.5-2.3
					C1409.8,588.3,1410.8,589.4,1410.7,590.7"/>
				<line class="st22" x1="1414.6" y1="637.2" x2="1533.2" y2="643.5"/>
				<line class="st22" x1="1414.2" y1="645.1" x2="1532.8" y2="651.4"/>
				<line class="st22" x1="1413.7" y1="654.4" x2="1514.9" y2="659.7"/>
				
					<rect x="1413.5" y="663.1" transform="matrix(5.241419e-02 -0.9986 0.9986 5.241419e-02 677.0463 2049.303)" class="st23" width="9.7" height="9.7"/>
				
					<rect x="1431" y="664" transform="matrix(5.260836e-02 -0.9986 0.9986 5.260836e-02 692.4251 2067.489)" class="st23" width="9.7" height="9.7"/>
				
					<rect x="1448.5" y="664.9" transform="matrix(5.240384e-02 -0.9986 0.9986 5.240384e-02 708.3621 2085.9714)" class="st23" width="9.7" height="9.7"/>
				
					<rect x="1466" y="665.8" transform="matrix(5.260836e-02 -0.9986 0.9986 5.260836e-02 723.7201 2104.1482)" class="st23" width="9.7" height="9.7"/>
				<path class="st21" d="M1408.3,636.9c-0.1,1.3-1.2,2.4-2.5,2.3c-1.3-0.1-2.4-1.2-2.3-2.5c0.1-1.3,1.2-2.4,2.5-2.3
					C1407.4,634.4,1408.4,635.6,1408.3,636.9"/>
				<line class="st22" x1="1412.2" y1="683.4" x2="1530.8" y2="689.6"/>
				<line class="st22" x1="1411.8" y1="691.3" x2="1530.4" y2="697.5"/>
				<line class="st22" x1="1411.3" y1="700.6" x2="1512.5" y2="705.9"/>
				
					<rect x="1411.1" y="709.2" transform="matrix(5.260836e-02 -0.9986 0.9986 5.260836e-02 628.3696 2090.4827)" class="st23" width="9.7" height="9.7"/>
				
					<rect x="1428.6" y="710.2" transform="matrix(5.260836e-02 -0.9986 0.9986 5.260836e-02 644.0165 2108.8123)" class="st23" width="9.7" height="9.7"/>
				
					<rect x="1446.1" y="711.1" transform="matrix(5.260836e-02 -0.9986 0.9986 5.260836e-02 659.6644 2127.1418)" class="st23" width="9.7" height="9.7"/>
				
					<rect x="1463.6" y="712" transform="matrix(5.259797e-02 -0.9986 0.9986 5.259797e-02 675.3259 2145.4802)" class="st23" width="9.7" height="9.7"/>
				<path class="st21" d="M1405.9,683.1c-0.1,1.3-1.2,2.4-2.5,2.3c-1.3-0.1-2.4-1.2-2.3-2.5c0.1-1.3,1.2-2.4,2.5-2.3
					C1404.9,680.6,1406,681.7,1405.9,683.1"/>
				<line class="st22" x1="1409.7" y1="730.9" x2="1528.3" y2="737.1"/>
				<line class="st22" x1="1409.3" y1="738.8" x2="1527.9" y2="745"/>
				<line class="st22" x1="1408.8" y1="748" x2="1510" y2="753.4"/>
				
					<rect x="1408.6" y="756.7" transform="matrix(5.260836e-02 -0.9986 0.9986 5.260836e-02 578.5777 2132.9868)" class="st23" width="9.7" height="9.7"/>
				
					<rect x="1426.1" y="757.6" transform="matrix(5.241419e-02 -0.9986 0.9986 5.241419e-02 594.4951 2151.4797)" class="st23" width="9.7" height="9.7"/>
				
					<rect x="1443.6" y="758.6" transform="matrix(5.259797e-02 -0.9986 0.9986 5.259797e-02 609.8868 2169.6553)" class="st23" width="9.7" height="9.7"/>
				
					<rect x="1461.1" y="759.5" transform="matrix(5.241419e-02 -0.9986 0.9986 5.241419e-02 625.7964 2188.1401)" class="st23" width="9.7" height="9.7"/>
				<path class="st21" d="M1403.4,730.6c-0.1,1.3-1.2,2.4-2.5,2.3c-1.3-0.1-2.4-1.2-2.3-2.5c0.1-1.3,1.2-2.4,2.5-2.3
					C1402.4,728.1,1403.5,729.2,1403.4,730.6"/>
				<polyline class="st22" points="1419.5,620.7 1420.7,622.8 1425.9,617.1 				"/>
				<polyline class="st22" points="1452.1,668.1 1453.3,670.3 1458.4,664.6 				"/>
				<polyline class="st22" points="1468.4,716.8 1469.6,719 1474.8,713.3 				"/>
				<polyline class="st22" points="1429.7,760.3 1430.9,762.5 1436.1,756.8 				"/>
				<polygon class="st24" points="1450.4,726.7 1297.5,769.2 1233.7,539.4 1297,521.8 1386.5,496.9 1444.5,705.4 				"/>
			</g>
			<g class="st9">
				<defs>
					<polygon id="SVGID_21_" points="1297,521.8 1233.7,539.4 1297.5,769.2 1450.4,726.7 1444.5,705.4 1386.5,496.9 					"/>
				</defs>
				<clipPath id="SVGID_22_">
					<use xlink:href="#SVGID_21_"  style="overflow:visible;"/>
				</clipPath>
				<g class="st25">
					<g>
						<defs>
							<rect id="SVGID_23_" x="1297" y="496.9" width="147.5" height="216.1"/>
						</defs>
						<clipPath id="SVGID_24_">
							<use xlink:href="#SVGID_23_"  style="overflow:visible;"/>
						</clipPath>
						<g class="st26">
							<g>
								<defs>
									<rect id="SVGID_25_" x="1297" y="496.9" width="147.5" height="216.1"/>
								</defs>
								<clipPath id="SVGID_26_">
									<use xlink:href="#SVGID_25_"  style="overflow:visible;"/>
								</clipPath>
								<polygon class="st27" points="1444.5,705.4 1326.3,713.1 1297,521.8 1386.5,496.9 								"/>
							</g>
						</g>
					</g>
				</g>
			</g>
			<g class="st9">
				<defs>
					<rect id="SVGID_27_" x="1075.5" y="88.9" width="948.9" height="948.9"/>
				</defs>
				<clipPath id="SVGID_28_">
					<use xlink:href="#SVGID_27_"  style="overflow:visible;"/>
				</clipPath>
				<polygon class="st28" points="1450.4,726.7 1297.5,769.2 1233.7,539.4 1297,521.8 1386.5,496.9 1444.5,705.4 				"/>
				<line class="st29" x1="1249.4" y1="551.3" x2="1289.2" y2="540.3"/>
				<line class="st29" x1="1251.6" y1="558.9" x2="1278.6" y2="551.4"/>
				<line class="st29" x1="1266.3" y1="574.3" x2="1380.7" y2="542.5"/>
				<line class="st29" x1="1268.4" y1="581.9" x2="1382.8" y2="550.1"/>
				<line class="st29" x1="1270.9" y1="590.8" x2="1368.5" y2="563.7"/>
				
					<rect x="1274.7" y="597.3" transform="matrix(0.9635 -0.2677 0.2677 0.9635 -114.5028 364.541)" class="st28" width="9.7" height="9.7"/>
				
					<rect x="1291.6" y="592.6" transform="matrix(0.9635 -0.2677 0.2677 0.9635 -112.6323 368.8859)" class="st28" width="9.7" height="9.7"/>
				
					<rect x="1308.5" y="588" transform="matrix(0.9635 -0.2675 0.2675 0.9635 -110.7196 372.9597)" class="st28" width="9.7" height="9.7"/>
				
					<rect x="1325.3" y="583.3" transform="matrix(0.9635 -0.2675 0.2675 0.9635 -108.8506 377.3012)" class="st28" width="9.7" height="9.7"/>
				<path class="st30" d="M1260.2,576c0.4,1.3-0.4,2.6-1.7,3c-1.3,0.4-2.6-0.4-3-1.7c-0.4-1.3,0.4-2.6,1.7-3
					C1258.5,573.9,1259.8,574.7,1260.2,576"/>
				<line class="st29" x1="1278.6" y1="618.8" x2="1393.1" y2="587"/>
				<line class="st29" x1="1280.8" y1="626.5" x2="1395.2" y2="594.7"/>
				<line class="st29" x1="1283.2" y1="635.4" x2="1380.8" y2="608.3"/>
				
					<rect x="1287.1" y="641.9" transform="matrix(0.9635 -0.2678 0.2678 0.9635 -125.9923 369.5558)" class="st28" width="9.7" height="9.7"/>
				
					<rect x="1304" y="637.2" transform="matrix(0.9635 -0.2677 0.2677 0.9635 -124.1072 373.8263)" class="st28" width="9.7" height="9.7"/>
				
					<rect x="1320.8" y="632.5" transform="matrix(0.9635 -0.2677 0.2677 0.9635 -122.2365 378.1706)" class="st28" width="9.7" height="9.7"/>
				
					<rect x="1337.7" y="627.8" transform="matrix(0.9635 -0.2677 0.2677 0.9635 -120.3658 382.5157)" class="st28" width="9.7" height="9.7"/>
				<path class="st30" d="M1272.6,620.5c0.4,1.3-0.4,2.6-1.7,3s-2.6-0.4-3-1.7c-0.4-1.3,0.4-2.6,1.7-3
					C1270.9,618.5,1272.2,619.2,1272.6,620.5"/>
				<line class="st29" x1="1291" y1="663.4" x2="1405.5" y2="631.6"/>
				<line class="st29" x1="1293.1" y1="671" x2="1407.6" y2="639.2"/>
				<line class="st29" x1="1295.6" y1="679.9" x2="1393.2" y2="652.8"/>
				
					<rect x="1299.5" y="686.4" transform="matrix(0.9635 -0.2677 0.2677 0.9635 -137.453 374.4216)" class="st28" width="9.7" height="9.7"/>
				
					<rect x="1316.4" y="681.7" transform="matrix(0.9635 -0.2676 0.2676 0.9635 -135.5396 378.5656)" class="st28" width="9.7" height="9.7"/>
				
					<rect x="1333.2" y="677.1" transform="matrix(0.9635 -0.2675 0.2675 0.9635 -133.6545 382.8307)" class="st28" width="9.7" height="9.7"/>
				
					<rect x="1350.1" y="672.4" transform="matrix(0.9635 -0.2676 0.2676 0.9635 -131.8009 387.2515)" class="st28" width="9.7" height="9.7"/>
				<path class="st30" d="M1284.9,665.1c0.4,1.3-0.4,2.6-1.7,3c-1.3,0.4-2.6-0.4-3-1.7c-0.4-1.3,0.4-2.6,1.7-3
					C1283.2,663,1284.6,663.8,1284.9,665.1"/>
				<line class="st29" x1="1303.8" y1="709.2" x2="1418.2" y2="677.4"/>
				<line class="st29" x1="1305.9" y1="716.8" x2="1420.3" y2="685"/>
				<line class="st29" x1="1308.4" y1="725.8" x2="1406" y2="698.6"/>
				
					<rect x="1312.2" y="732.3" transform="matrix(0.9635 -0.2677 0.2677 0.9635 -149.2558 379.503)" class="st28" width="9.7" height="9.7"/>
				
					<rect x="1329.1" y="727.6" transform="matrix(0.9635 -0.2677 0.2677 0.9635 -147.385 383.8474)" class="st28" width="9.7" height="9.7"/>
				
					<rect x="1346" y="722.9" transform="matrix(0.9635 -0.2675 0.2675 0.9635 -145.4495 387.9074)" class="st28" width="9.7" height="9.7"/>
				
					<rect x="1362.8" y="718.2" transform="matrix(0.9635 -0.2675 0.2675 0.9635 -143.5806 392.2497)" class="st28" width="9.7" height="9.7"/>
				<path class="st30" d="M1297.7,710.9c0.4,1.3-0.4,2.6-1.7,3c-1.3,0.4-2.6-0.4-3-1.7c-0.4-1.3,0.4-2.6,1.7-3
					C1296,708.9,1297.3,709.6,1297.7,710.9"/>
				<polyline class="st29" points="1293.9,597.1 1295.7,598.8 1298.8,591.8 				"/>
				<polyline class="st29" points="1289.3,646.9 1291.2,648.5 1294.2,641.5 				"/>
				<polyline class="st29" points="1301.7,690.9 1303.5,692.6 1306.6,685.6 				"/>
				<polyline class="st29" points="1348.1,727.1 1350,728.7 1353,721.7 				"/>
				
					<rect x="1318.4" y="450.9" transform="matrix(0.9954 -9.560906e-02 9.560906e-02 0.9954 -48.1105 136.2482)" class="st31" width="158.7" height="238.5"/>
				
					<rect x="1318.4" y="450.9" transform="matrix(0.9954 -9.560906e-02 9.560906e-02 0.9954 -48.1105 136.2482)" class="st28" width="158.7" height="238.5"/>
				<line class="st29" x1="1320.8" y1="473.5" x2="1361.9" y2="469.6"/>
				<line class="st29" x1="1321.6" y1="481.4" x2="1349.5" y2="478.7"/>
				<line class="st29" x1="1333.4" y1="499.1" x2="1451.6" y2="487.7"/>
				<line class="st29" x1="1334.2" y1="507" x2="1452.4" y2="495.6"/>
				<line class="st29" x1="1335" y1="516.2" x2="1435.9" y2="506.5"/>
				
					<rect x="1336.8" y="524" transform="matrix(0.9954 -9.560203e-02 9.560203e-02 0.9954 -44.4148 130.6841)" class="st28" width="9.7" height="9.7"/>
				
					<rect x="1354.2" y="522.3" transform="matrix(0.9954 -9.560203e-02 9.560203e-02 0.9954 -44.1749 132.3426)" class="st28" width="9.7" height="9.7"/>
				
					<rect x="1371.6" y="520.7" transform="matrix(0.9954 -9.560203e-02 9.560203e-02 0.9954 -43.9351 134.0011)" class="st28" width="9.7" height="9.7"/>
				
					<rect x="1389.1" y="519" transform="matrix(0.9954 -9.560203e-02 9.560203e-02 0.9954 -43.6952 135.6596)" class="st28" width="9.7" height="9.7"/>
				<path class="st30" d="M1327.1,499.7c0.1,1.3-0.8,2.5-2.2,2.6c-1.3,0.1-2.5-0.8-2.6-2.2c-0.1-1.3,0.8-2.5,2.2-2.6
					C1325.8,497.4,1327,498.4,1327.1,499.7"/>
				<line class="st29" x1="1337.8" y1="545.1" x2="1456" y2="533.8"/>
				<line class="st29" x1="1338.6" y1="553" x2="1456.8" y2="541.6"/>
				<line class="st29" x1="1339.5" y1="562.2" x2="1440.3" y2="552.5"/>
				
					<rect x="1341.2" y="570.1" transform="matrix(0.9954 -9.559906e-02 9.559906e-02 0.9954 -48.7935 131.3135)" class="st28" width="9.7" height="9.7"/>
				
					<rect x="1358.6" y="568.4" transform="matrix(0.9954 -9.540317e-02 9.540317e-02 0.9954 -48.4669 132.694)" class="st28" width="9.7" height="9.7"/>
				
					<rect x="1376.1" y="566.7" transform="matrix(0.9954 -9.559906e-02 9.559906e-02 0.9954 -48.3137 134.6303)" class="st28" width="9.7" height="9.7"/>
				
					<rect x="1393.5" y="565" transform="matrix(0.9954 -9.559906e-02 9.559906e-02 0.9954 -48.0739 136.2887)" class="st28" width="9.7" height="9.7"/>
				<path class="st30" d="M1331.5,545.7c0.1,1.3-0.8,2.5-2.2,2.6c-1.3,0.1-2.5-0.8-2.6-2.2c-0.1-1.3,0.8-2.5,2.2-2.6
					C1330.2,543.4,1331.4,544.4,1331.5,545.7"/>
				<line class="st29" x1="1342.2" y1="591.1" x2="1460.5" y2="579.8"/>
				<line class="st29" x1="1343" y1="599" x2="1461.2" y2="587.7"/>
				<line class="st29" x1="1343.9" y1="608.2" x2="1444.7" y2="598.5"/>
				
					<rect x="1345.6" y="616.1" transform="matrix(0.9954 -9.540317e-02 9.540317e-02 0.9954 -53.077 131.6707)" class="st28" width="9.7" height="9.7"/>
				
					<rect x="1363.1" y="614.4" transform="matrix(0.9954 -9.559906e-02 9.559906e-02 0.9954 -52.9334 133.6053)" class="st28" width="9.7" height="9.7"/>
				
					<rect x="1380.5" y="612.7" transform="matrix(0.9954 -9.559906e-02 9.559906e-02 0.9954 -52.6936 135.2637)" class="st28" width="9.7" height="9.7"/>
				
					<rect x="1397.9" y="611.1" transform="matrix(0.9954 -9.559906e-02 9.559906e-02 0.9954 -52.4537 136.9222)" class="st28" width="9.7" height="9.7"/>
				<path class="st30" d="M1335.9,591.7c0.1,1.3-0.8,2.5-2.2,2.6c-1.3,0.1-2.5-0.8-2.6-2.2c-0.1-1.3,0.8-2.5,2.2-2.6
					C1334.6,589.4,1335.8,590.4,1335.9,591.7"/>
				<line class="st29" x1="1346.8" y1="638.5" x2="1465" y2="627.1"/>
				<line class="st29" x1="1347.5" y1="646.4" x2="1465.8" y2="635"/>
				<line class="st29" x1="1348.4" y1="655.6" x2="1449.3" y2="645.9"/>
				
					<rect x="1350.2" y="663.4" transform="matrix(0.9954 -9.559906e-02 9.559906e-02 0.9954 -57.6783 132.5984)" class="st28" width="9.7" height="9.7"/>
				
					<rect x="1367.6" y="661.7" transform="matrix(0.9954 -9.559906e-02 9.559906e-02 0.9954 -57.4385 134.2569)" class="st28" width="9.7" height="9.7"/>
				
					<rect x="1385" y="660.1" transform="matrix(0.9954 -9.540317e-02 9.540317e-02 0.9954 -57.0944 135.6306)" class="st28" width="9.7" height="9.7"/>
				
					<rect x="1402.5" y="658.4" transform="matrix(0.9954 -9.559906e-02 9.559906e-02 0.9954 -56.9586 137.5737)" class="st28" width="9.7" height="9.7"/>
				<path class="st30" d="M1340.5,639.1c0.1,1.3-0.8,2.5-2.2,2.6c-1.3,0.1-2.5-0.8-2.6-2.2s0.8-2.5,2.2-2.6
					C1339.2,636.8,1340.4,637.8,1340.5,639.1"/>
				<polyline class="st29" points="1340.2,528 1341.7,530 1346,523.6 				"/>
				<polyline class="st29" points="1379.4,570.1 1380.9,572.1 1385.2,565.7 				"/>
				<polyline class="st29" points="1366.5,618.8 1368,620.7 1372.3,614.3 				"/>
				<polyline class="st29" points="1405.6,662.4 1407.2,664.4 1411.4,658 				"/>
			</g>
			<g class="st9">
				<defs>
					<rect id="SVGID_29_" x="1075.5" y="88.9" width="948.9" height="948.9"/>
				</defs>
				<clipPath id="SVGID_30_">
					<use xlink:href="#SVGID_29_"  style="overflow:visible;"/>
				</clipPath>
				<path class="st32" d="M1658.4,350.3h-98c-7.2,0-13.1,5.8-13.1,13.1v84.2c0,7.2,5.8,13.1,13.1,13.1h43.5l24.9,30l-6.2-30h35.9
					c7.2,0,13.1-5.8,13.1-13.1v-84.2C1671.5,356.1,1665.7,350.3,1658.4,350.3"/>
				<path class="st33" d="M1658.4,350.3h-98c-7.2,0-13.1,5.8-13.1,13.1v84.2c0,7.2,5.8,13.1,13.1,13.1h43.5l24.9,30l-6.2-30h35.9
					c7.2,0,13.1-5.8,13.1-13.1v-84.2C1671.5,356.1,1665.7,350.3,1658.4,350.3z"/>
				<path class="st34" d="M1617.3,396.5v-8.9l-6.7-0.6c-0.4-1.4-1-2.8-1.7-4l4.3-5.1l-6.3-6.3l-5.1,4.3c-1.3-0.7-2.6-1.3-4-1.7
					l-0.6-6.7h-8.9l-0.6,6.7c-1.4,0.4-2.8,0.9-4,1.7l-5.1-4.3l-6.3,6.3l4.3,5.1c-0.7,1.3-1.3,2.6-1.7,4l-6.7,0.6v8.9l6.7,0.6
					c0.4,1.4,1,2.8,1.7,4l-4.3,5.1l6.3,6.3l5.1-4.3c1.3,0.7,2.6,1.3,4,1.7l0.6,6.7h8.9l0.6-6.7c1.4-0.4,2.8-1,4-1.7l5.1,4.3l6.3-6.3
					l-4.3-5.1c0.7-1.3,1.3-2.6,1.7-4L1617.3,396.5z M1592.8,402.4c-5.7,0-10.4-4.6-10.4-10.4c0-5.7,4.6-10.4,10.4-10.4
					c5.7,0,10.4,4.6,10.4,10.4C1603.1,397.8,1598.5,402.4,1592.8,402.4"/>
				<path class="st34" d="M1646.8,416.4v-6.3l-4.8-0.4c-0.3-1-0.7-2-1.2-2.9l3.1-3.6l-4.5-4.5l-3.6,3.1c-0.9-0.5-1.8-0.9-2.8-1.2
					l-0.4-4.8h-6.3l-0.4,4.8c-1,0.3-2,0.7-2.8,1.2l-3.6-3.1l-4.5,4.5l3.1,3.6c-0.5,0.9-0.9,1.8-1.2,2.9l-4.8,0.4v6.3l4.8,0.4
					c0.3,1,0.7,2,1.2,2.9l-3.1,3.6l4.5,4.5l3.6-3.1c0.9,0.5,1.8,0.9,2.9,1.2l0.4,4.8h6.3l0.4-4.8c1-0.3,2-0.7,2.8-1.2l3.6,3.1
					l4.5-4.5l-3.1-3.6c0.5-0.9,0.9-1.8,1.2-2.9L1646.8,416.4z M1629.3,420.6c-4.1,0-7.4-3.3-7.4-7.4c0-4.1,3.3-7.4,7.4-7.4
					c4.1,0,7.4,3.3,7.4,7.4C1636.7,417.3,1633.4,420.6,1629.3,420.6"/>
				<path class="st34" d="M1615.7,431.2v-4.5l-3.4-0.3c-0.2-0.7-0.5-1.4-0.8-2l2.2-2.6l-3.2-3.2l-2.6,2.2c-0.6-0.4-1.3-0.6-2-0.8
					l-0.3-3.4h-4.5l-0.3,3.4c-0.7,0.2-1.4,0.5-2,0.8l-2.6-2.2l-3.2,3.2l2.2,2.6c-0.4,0.6-0.6,1.3-0.8,2l-3.4,0.3v4.5l3.4,0.3
					c0.2,0.7,0.5,1.4,0.8,2l-2.2,2.6l3.2,3.2l2.6-2.2c0.6,0.4,1.3,0.6,2,0.8l0.3,3.4h4.5l0.3-3.4c0.7-0.2,1.4-0.5,2-0.8l2.6,2.2
					l3.2-3.2l-2.2-2.6c0.4-0.6,0.6-1.3,0.8-2L1615.7,431.2z M1603.3,434.2c-2.9,0-5.2-2.3-5.2-5.2c0-2.9,2.4-5.2,5.2-5.2
					c2.9,0,5.2,2.3,5.2,5.2C1608.6,431.9,1606.2,434.2,1603.3,434.2"/>
			</g>
			<polygon class="st35" points="1606.8,674.2 1683.2,956.2 1694.7,956.2 1618.2,674.2 			"/>
			<polygon class="st19" points="1606.8,674.2 1683.2,956.2 1694.7,956.2 1618.2,674.2 			"/>
			<rect x="1634.1" y="876.2" class="st36" width="144.9" height="11.8"/>
			<rect x="1634.1" y="876.2" class="st19" width="144.9" height="11.8"/>
			<g class="st9">
				<defs>
					<rect id="SVGID_31_" x="1075.5" y="88.9" width="948.9" height="948.9"/>
				</defs>
				<clipPath id="SVGID_32_">
					<use xlink:href="#SVGID_31_"  style="overflow:visible;"/>
				</clipPath>
				<path class="st37" d="M1856.3,610.8l-93.6,345.3h-11.4l93.6-345.3c3.5-12.7-4.5-23.1-17.7-23.1h-80.7
					c-13.2,0-26.7,10.4-30.2,23.1l-93.6,345.3h-11.4l93.6-345.3c5.1-18.9,25.1-34.1,44.6-34.1h80.7
					C1849.7,576.7,1861.4,592,1856.3,610.8"/>
				<path class="st38" d="M1856.3,610.8l-93.6,345.3h-11.4l93.6-345.3c3.5-12.7-4.5-23.1-17.7-23.1h-80.7
					c-13.2,0-26.7,10.4-30.2,23.1l-93.6,345.3h-11.4l93.6-345.3c5.1-18.9,25.1-34.1,44.6-34.1h80.7
					C1849.7,576.7,1861.4,592,1856.3,610.8z"/>
				<path class="st39" d="M1857.8,610.9l-23.2,85.7c-1.9,7.1-9.4,12.8-16.7,12.8h-132.5c-7.3,0-11.7-5.7-9.8-12.8l23.2-85.7
					c1.9-7.1,9.4-12.8,16.7-12.8H1848C1855.3,598.1,1859.7,603.9,1857.8,610.9"/>
			</g>
			<g class="st9">
				<defs>
					<path id="SVGID_33_" d="M1715.4,598.1c-7.3,0-14.8,5.8-16.7,12.8l-23.2,85.7c-1.9,7.1,2.5,12.8,9.8,12.8h132.5
						c7.3,0,14.8-5.7,16.7-12.8l23.2-85.7c1.9-7.1-2.5-12.8-9.8-12.8H1715.4z"/>
				</defs>
				<clipPath id="SVGID_34_">
					<use xlink:href="#SVGID_33_"  style="overflow:visible;"/>
				</clipPath>
				<g class="st40">
					<g>
						<defs>
							<rect id="SVGID_35_" x="1675" y="598.1" width="183.2" height="111.4"/>
						</defs>
						<clipPath id="SVGID_36_">
							<use xlink:href="#SVGID_35_"  style="overflow:visible;"/>
						</clipPath>
						<g class="st41">
							<g>
								<defs>
									<rect id="SVGID_37_" x="1675" y="598.1" width="183.2" height="111.4"/>
								</defs>
								<clipPath id="SVGID_38_">
									<use xlink:href="#SVGID_37_"  style="overflow:visible;"/>
								</clipPath>
								<path class="st42" d="M1857.8,610.9l-23.2,85.7c-1.9,7.1-9.4,12.8-16.7,12.8h-132.5c-7.3,0-11.7-5.7-9.8-12.8l23.2-85.7
									c1.9-7.1,9.4-12.8,16.7-12.8h68.5c29.6,30.4,25.8,86.3,23.9,103.2c6.1-1.4,11.6-6.4,13.2-12.4l23.2-85.7
									c0.5-1.8,0.6-3.5,0.3-5.1h3.3C1855.3,598.1,1859.7,603.9,1857.8,610.9"/>
							</g>
						</g>
					</g>
				</g>
			</g>
			<g class="st9">
				<defs>
					<rect id="SVGID_39_" x="1075.5" y="88.9" width="948.9" height="948.9"/>
				</defs>
				<clipPath id="SVGID_40_">
					<use xlink:href="#SVGID_39_"  style="overflow:visible;"/>
				</clipPath>
				<path class="st43" d="M1857.8,610.9l-23.2,85.7c-1.9,7.1-9.4,12.8-16.7,12.8h-132.5c-7.3,0-11.7-5.7-9.8-12.8l23.2-85.7
					c1.9-7.1,9.4-12.8,16.7-12.8H1848C1855.3,598.1,1859.7,603.9,1857.8,610.9z"/>
				<polygon class="st44" points="1779.8,796.3 1823.2,956.2 1834.6,956.2 1791.3,796.3 				"/>
				<polygon class="st43" points="1779.8,796.3 1823.2,956.2 1834.6,956.2 1791.3,796.3 				"/>
				<path class="st45" d="M1791.3,777.9v15.6h-170.7v-15.6c0-6.4,5.1-11.5,11.5-11.5h147.6c5.3,0,9.8,3.6,11.1,8.5
					C1791.2,775.9,1791.3,776.9,1791.3,777.9"/>
			</g>
			<g class="st9">
				<defs>
					<path id="SVGID_41_" d="M1632.2,766.4c-6.4,0-11.5,5.1-11.5,11.5v15.6h170.7v-15.6c0-1-0.1-2.1-0.4-3
						c-1.3-4.9-5.8-8.5-11.1-8.5H1632.2z"/>
				</defs>
				<clipPath id="SVGID_42_">
					<use xlink:href="#SVGID_41_"  style="overflow:visible;"/>
				</clipPath>
				<g class="st46">
					<g>
						<defs>
							<rect id="SVGID_43_" x="1620.7" y="766.4" width="170.3" height="27.1"/>
						</defs>
						<clipPath id="SVGID_44_">
							<use xlink:href="#SVGID_43_"  style="overflow:visible;"/>
						</clipPath>
						<g class="st47">
							<g>
								<defs>
									<rect id="SVGID_45_" x="1620.7" y="766.4" width="170.3" height="27.1"/>
								</defs>
								<clipPath id="SVGID_46_">
									<use xlink:href="#SVGID_45_"  style="overflow:visible;"/>
								</clipPath>
								<path class="st48" d="M1790.9,774.9c-5.5,6.5-15.4,13.1-32.5,18.7h-137.8v-15.6c0-6.4,5.1-11.5,11.5-11.5h147.6
									C1785.1,766.4,1789.6,770,1790.9,774.9"/>
							</g>
						</g>
					</g>
				</g>
			</g>
			<g class="st9">
				<defs>
					<rect id="SVGID_47_" x="1075.5" y="88.9" width="948.9" height="948.9"/>
				</defs>
				<clipPath id="SVGID_48_">
					<use xlink:href="#SVGID_47_"  style="overflow:visible;"/>
				</clipPath>
				<path class="st49" d="M1791.3,777.9v15.6h-170.7v-15.6c0-6.4,5.1-11.5,11.5-11.5h147.6c5.3,0,9.8,3.6,11.1,8.5
					C1791.2,775.9,1791.3,776.9,1791.3,777.9z"/>
				<path class="st50" d="M1797.1,803.5h-180.8c-1.8,0-3.2-1.4-3.2-3.2V792c0-1.8,1.5-3.2,3.2-3.2h180.8c1.8,0,3.2,1.4,3.2,3.2v8.2
					C1800.3,802,1798.9,803.5,1797.1,803.5"/>
				<path class="st49" d="M1797.1,803.5h-180.8c-1.8,0-3.2-1.4-3.2-3.2V792c0-1.8,1.5-3.2,3.2-3.2h180.8c1.8,0,3.2,1.4,3.2,3.2v8.2
					C1800.3,802,1798.9,803.5,1797.1,803.5z"/>
				<path class="st51" d="M1615.1,789.3c-8.2,8.3,31.5,139.2,31.5,139.2c-4.3,3.8-10.7,5.5-16.7,6.3c-8.7,1.2-16.7,0.2-16.7,0.2
					s-56.8-137.8-41.2-172c15.6-34.2,112.7-49.9,112.7-49.9l4.1-10.2l50.2-7.1l8.3,61.5c0,0-8.2,0.8-20.6,2.4
					C1693.4,764.1,1630.1,774,1615.1,789.3"/>
			</g>
			<g class="st9">
				<defs>
					<path id="SVGID_49_" d="M1688.7,703l-4.1,10.2c0,0-97,15.7-112.7,49.9s41.2,172,41.2,172s8,0.9,16.7-0.2
						c6-0.8,12.4-2.6,16.7-6.3c0,0-39.6-130.9-31.5-139.2c15-15.3,78.3-25.2,111.5-29.5c12.4-1.6,20.6-2.4,20.6-2.4l-8.3-61.5
						L1688.7,703z"/>
				</defs>
				<clipPath id="SVGID_50_">
					<use xlink:href="#SVGID_49_"  style="overflow:visible;"/>
				</clipPath>
				<g class="st52">
					<g>
						<defs>
							<rect id="SVGID_51_" x="1599" y="723.6" width="127.6" height="211.3"/>
						</defs>
						<clipPath id="SVGID_52_">
							<use xlink:href="#SVGID_51_"  style="overflow:visible;"/>
						</clipPath>
						<path class="st53" d="M1646.6,928.6c-4.3,3.8-10.7,5.5-16.7,6.3c-11-41-39.1-150.4-28.5-163.8c13.1-16.5,78-31.5,78-31.5
							c0.3-8.4,23-16,23-16l24.2,36.2c-33.2,4.3-96.5,14.2-111.5,29.5C1606.9,797.7,1646.6,928.6,1646.6,928.6"/>
					</g>
				</g>
			</g>
			<g class="st9">
				<defs>
					<rect id="SVGID_53_" x="1075.5" y="88.9" width="948.9" height="948.9"/>
				</defs>
				<clipPath id="SVGID_54_">
					<use xlink:href="#SVGID_53_"  style="overflow:visible;"/>
				</clipPath>
				<path class="st54" d="M1615.1,789.3c-8.2,8.3,31.5,139.2,31.5,139.2c-4.3,3.8-10.7,5.5-16.7,6.3c-8.7,1.2-16.7,0.2-16.7,0.2
					s-56.8-137.8-41.2-172c15.6-34.2,112.7-49.9,112.7-49.9l4.1-10.2l50.2-7.1l8.3,61.5c0,0-8.2,0.8-20.6,2.4
					C1693.4,764.1,1630.1,774,1615.1,789.3z"/>
				<path class="st55" d="M1587,665.3c-8.3-1.4,51-53.4,51-53.4l28.6,19.2c0,0-48.7,34.3-56.3,35.2
					C1602.6,667.3,1587,665.3,1587,665.3"/>
			</g>
			<g class="st9">
				<defs>
					<path id="SVGID_55_" d="M1587,665.3c0,0,15.6,2,23.3,1c7.6-0.9,56.3-35.2,56.3-35.2l-28.6-19.2
						C1638,611.9,1578.7,663.9,1587,665.3"/>
				</defs>
				<clipPath id="SVGID_56_">
					<use xlink:href="#SVGID_55_"  style="overflow:visible;"/>
				</clipPath>
				<g class="st56">
					<g>
						<defs>
							<rect id="SVGID_57_" x="1586.2" y="611.9" width="80.4" height="54.7"/>
						</defs>
						<clipPath id="SVGID_58_">
							<use xlink:href="#SVGID_57_"  style="overflow:visible;"/>
						</clipPath>
						<g class="st57">
							<g>
								<defs>
									<rect id="SVGID_59_" x="1586.2" y="611.9" width="80.4" height="54.7"/>
								</defs>
								<clipPath id="SVGID_60_">
									<use xlink:href="#SVGID_59_"  style="overflow:visible;"/>
								</clipPath>
								<path class="st58" d="M1587,665.3c-8.3-1.4,51-53.4,51-53.4l28.6,19.2c0,0-48.7,34.3-56.3,35.2
									C1602.6,667.3,1587,665.3,1587,665.3"/>
							</g>
						</g>
					</g>
				</g>
			</g>
			<g class="st9">
				<defs>
					<rect id="SVGID_61_" x="1075.5" y="88.9" width="948.9" height="948.9"/>
				</defs>
				<clipPath id="SVGID_62_">
					<use xlink:href="#SVGID_61_"  style="overflow:visible;"/>
				</clipPath>
				<path class="st59" d="M1587,665.3c-8.3-1.4,51-53.4,51-53.4l28.6,19.2c0,0-48.7,34.3-56.3,35.2
					C1602.6,667.3,1587,665.3,1587,665.3z"/>
				<path class="st60" d="M1597.5,643.5c0,0,12.4,3.1,16.2,5.7c3.8,2.7,2.7,12,2.7,12S1599.8,656.5,1597.5,643.5"/>
				<path class="st59" d="M1597.5,643.5c0,0,12.4,3.1,16.2,5.7c3.8,2.7,2.7,12,2.7,12S1599.8,656.5,1597.5,643.5z"/>
				<polygon class="st61" points="1589.5,619.7 1612.6,664 1615.4,664 1593.4,617.5 				"/>
				<path class="st60" d="M1610.3,651.7c0,0-14.6-10.4-18.1-10.4S1578,654,1578,660.3c0,6.3,23.3,9.8,27.9,4.5
					c2.3-2.7-2.2-9.1-2.2-9.1s6.8,7,8.7,8.1c1.9,1.1,5.5-0.3,5.5-0.3S1612.9,655.6,1610.3,651.7"/>
				<path class="st59" d="M1610.3,651.7c0,0-14.6-10.4-18.1-10.4S1578,654,1578,660.3c0,6.3,23.3,9.8,27.9,4.5
					c2.3-2.7-2.2-9.1-2.2-9.1s6.8,7,8.7,8.1c1.9,1.1,5.5-0.3,5.5-0.3S1612.9,655.6,1610.3,651.7z"/>
				<path class="st59" d="M1603.6,666.2c0,0-5.5-7.2-12.2-10.6"/>
				<path class="st59" d="M1603.6,655.6c0,0-5-4.4-8.4-5.4"/>
				<path class="st59" d="M1587.7,661.2c0,0,8.2,4.3,10.2,6.1"/>
				<path class="st62" d="M1656.6,589.2c-7.5,5.2-41,39.6-41,39.6s15.7,17.8,29.4,20.4l37.3-18.1L1656.6,589.2z"/>
				<path class="st59" d="M1656.6,589.2c-7.5,5.2-41,39.6-41,39.6s15.7,17.8,29.4,20.4l37.3-18.1L1656.6,589.2z"/>
				<g class="st63">
					<g>
						<defs>
							<rect id="SVGID_63_" x="1614.7" y="588.2" width="68.6" height="62"/>
						</defs>
						<clipPath id="SVGID_64_">
							<use xlink:href="#SVGID_63_"  style="overflow:visible;"/>
						</clipPath>
						<path class="st64" d="M1656.6,589.2c-7.5,5.2-41,39.6-41,39.6s15.7,17.8,29.4,20.4l37.3-18.1L1656.6,589.2z"/>
						<path class="st65" d="M1656.6,589.2c-7.5,5.2-41,39.6-41,39.6s15.7,17.8,29.4,20.4l37.3-18.1L1656.6,589.2z"/>
					</g>
				</g>
				<path class="st62" d="M1638.6,914.7l15.8,41.5c0,0,2.6,10.7-45,7.3l-26.3-2.3L1638.6,914.7z"/>
			</g>
			<g class="st9">
				<defs>
					<path id="SVGID_65_" d="M1583,961.2l26.3,2.3c47.7,3.4,45-7.3,45-7.3l-15.8-41.5L1583,961.2z"/>
				</defs>
				<clipPath id="SVGID_66_">
					<use xlink:href="#SVGID_65_"  style="overflow:visible;"/>
				</clipPath>
				<g class="st66">
					<g>
						<defs>
							<rect id="SVGID_67_" x="1583" y="914.7" width="71.4" height="49.5"/>
						</defs>
						<clipPath id="SVGID_68_">
							<use xlink:href="#SVGID_67_"  style="overflow:visible;"/>
						</clipPath>
						<path class="st67" d="M1638.6,914.7l15.8,41.5c0,0,2.6,10.7-45,7.3l-26.3-2.3L1638.6,914.7z"/>
					</g>
				</g>
			</g>
			<g class="st9">
				<defs>
					<rect id="SVGID_69_" x="1075.5" y="88.9" width="948.9" height="948.9"/>
				</defs>
				<clipPath id="SVGID_70_">
					<use xlink:href="#SVGID_69_"  style="overflow:visible;"/>
				</clipPath>
				<path class="st68" d="M1638.6,914.7l15.8,41.5c0,0,2.6,10.7-45,7.3l-26.3-2.3L1638.6,914.7z"/>
				<path class="st69" d="M1632.6,934.6c0,0,3.4,16.1,0,28.2c0,0-50.3,7.9-61.6,4.9c-11.3-3-18.1-8.6-18.4-11.4c0,0,0.4-7.7,11.7-10
					c11.3-2.3,33.7-3.8,42.6-16.5C1615.7,916.9,1632.6,934.6,1632.6,934.6"/>
				<path class="st68" d="M1632.6,934.6c0,0,3.4,16.1,0,28.2c0,0-50.3,7.9-61.6,4.9c-11.3-3-18.1-8.6-18.4-11.4c0,0,0.4-7.7,11.7-10
					c11.3-2.3,33.7-3.8,42.6-16.5C1615.7,916.9,1632.6,934.6,1632.6,934.6z"/>
				<path class="st70" d="M1699,701.4c16.1-22.9,90,4.7,90,4.7s7.1,55.2-22.4,69.9s-71.9,13.9-83.3,25.9l-46.7,137.8
					c0,0-16.8,7-41.1-4c0,0,29.6-104,38.3-141c8.6-36.5,64.3-61.4,64.3-61.4s-4.7-5.3-6.4-11.5"/>
				<path class="st68" d="M1699,701.4c16.1-22.9,90,4.7,90,4.7s7.1,55.2-22.4,69.9s-71.9,13.9-83.3,25.9l-46.7,137.8
					c0,0-16.8,7-41.1-4c0,0,29.6-104,38.3-141c8.6-36.5,64.3-61.4,64.3-61.4s-4.7-5.3-6.4-11.5"/>
				<path class="st71" d="M1773.8,754.2c-2.4,2.1-4.9,4-7.5,5.9"/>
				<path class="st71" d="M1779.8,707.4c6,13.1,6.5,29.7-2,41.8"/>
				<path class="st71" d="M1763,709.5c0,0-1.5,10.1,3,14.1c4.5,4,18.3,6,18.3,6"/>
				<path class="st71" d="M1702.4,710c0,0,0.6,10.1-3.4,9.6c-4.1-0.5-4.3,4-4.3,4"/>
				<path class="st69" d="M1657.6,596.9c-0.6-2.7-1-5.3-1-7.7c0,0,22.8-19.2,52.1-19.1c34.9,0.1,56.3,11.1,64.8,26.4
					c13.5,24.1,15.4,109.7,15.4,109.7s-87.6,13.5-100.2-3.1c-2.2-2.9-0.5-23.3-0.5-23.3s-9.8-25.7-11.9-45.7c0,0-3.8-5.1-8-12.3
					c-2.8-4.8-5.8-10.5-8.1-16.3"/>
				<path class="st68" d="M1657.6,596.9c-0.6-2.7-1-5.3-1-7.7c0,0,22.8-19.2,52.1-19.1c34.9,0.1,56.3,11.1,64.8,26.4
					c13.5,24.1,15.4,109.7,15.4,109.7s-87.6,13.5-100.2-3.1c-2.2-2.9-0.5-23.3-0.5-23.3s-9.8-25.7-11.9-45.7c0,0-3.8-5.1-8-12.3
					c-2.8-4.8-5.8-10.5-8.1-16.3"/>
				<g class="st72">
					<g>
						<defs>
							<rect id="SVGID_71_" x="1655.6" y="569.1" width="134.2" height="143.1"/>
						</defs>
						<clipPath id="SVGID_72_">
							<use xlink:href="#SVGID_71_"  style="overflow:visible;"/>
						</clipPath>
						<path class="st73" d="M1657.6,596.9c-0.6-2.7-1-5.3-1-7.7c0,0,22.8-19.2,52.1-19.1c34.9,0.1,56.3,11.1,64.8,26.4
							c13.5,24.1,15.4,109.7,15.4,109.7s-87.6,13.5-100.2-3.1c-2.2-2.9-0.5-23.3-0.5-23.3s-9.8-25.7-11.9-45.7c0,0-3.8-5.1-8-12.3
							c-2.8-4.8-5.8-10.5-8.1-16.3"/>
						<path class="st74" d="M1657.6,596.9c-0.6-2.7-1-5.3-1-7.7c0,0,22.8-19.2,52.1-19.1c34.9,0.1,56.3,11.1,64.8,26.4
							c13.5,24.1,15.4,109.7,15.4,109.7s-87.6,13.5-100.2-3.1c-2.2-2.9-0.5-23.3-0.5-23.3s-9.8-25.7-11.9-45.7c0,0-3.8-5.1-8-12.3
							c-2.8-4.8-5.8-10.5-8.1-16.3"/>
					</g>
				</g>
				<path class="st68" d="M1691.1,617.5c0,0,13.4,51.9,11.3,63.3c-1,5.6,1.9,11.5,1.9,11.5s-6.1,6-1.9,14"/>
				<path class="st68" d="M1726.6,660.4c-2.6-0.2-5-0.8-6.7-2.1l-4-17.4c0,0,12.2,1.3,23.5-1.6l4.3,19c0,0-3.2,0.9-7.3,1.6"/>
				<path class="st69" d="M1681.6,624.2c0,0-11.3-48.5,17.3-54.1c28.6-5.6,34.6,7.8,32.9,16.9c-2.3,12.1-26.1,41.9-26.1,41.9
					l-14.7-11.3L1681.6,624.2z"/>
				<path class="st68" d="M1681.6,624.2c0,0-11.3-48.5,17.3-54.1c28.6-5.6,34.6,7.8,32.9,16.9c-2.3,12.1-26.1,41.9-26.1,41.9
					l-14.7-11.3L1681.6,624.2z"/>
				<g class="st75">
					<g>
						<defs>
							<rect id="SVGID_73_" x="1678.5" y="567.8" width="54.6" height="62"/>
						</defs>
						<clipPath id="SVGID_74_">
							<use xlink:href="#SVGID_73_"  style="overflow:visible;"/>
						</clipPath>
						<path class="st76" d="M1681.6,624.2c0,0-11.3-48.5,17.3-54.1c28.6-5.6,34.6,7.8,32.9,16.9c-2.3,12.1-26.1,41.9-26.1,41.9
							l-14.7-11.3L1681.6,624.2z"/>
						<path class="st77" d="M1681.6,624.2c0,0-11.3-48.5,17.3-54.1c28.6-5.6,34.6,7.8,32.9,16.9c-2.3,12.1-26.1,41.9-26.1,41.9
							l-14.7-11.3L1681.6,624.2z"/>
					</g>
				</g>
				<path class="st71" d="M1643.9,774c0,0,18.5-21.4,60.5-37.6c0,0-10.9-3.3-13.3-7.8"/>
				<line class="st71" x1="1622.1" y1="839.6" x2="1605.1" y2="901.2"/>
				<path class="st69" d="M1753.2,662.1c0,0,7.6,12.8,38.9,11.6c0,0-8.6-9.8-21.3-13.2C1757.9,657,1753.2,662.1,1753.2,662.1"/>
				<path class="st68" d="M1753.2,662.1c0,0,7.6,12.8,38.9,11.6c0,0-8.6-9.8-21.3-13.2C1757.9,657,1753.2,662.1,1753.2,662.1z"/>
				<path class="st78" d="M1631.9,667.2c0,0,7.3-11.2,13.9-13.5c6.7-2.3,26.2-2.5,29.2-2.5c3-0.1,56.6,13.5,81.8,21.9l-2.2-42
					l33.8,2.7c0,0-1.4,51.3-6.6,64.8c-5.3,13.6-12.8,10.3-25.6,4.7c-50.5-21.8-80.2-36.9-82.9-36.1
					C1670.5,668.1,1631.9,667.2,1631.9,667.2"/>
				<path class="st68" d="M1631.9,667.2c0,0,7.3-11.2,13.9-13.5c6.7-2.3,26.2-2.5,29.2-2.5c3-0.1,56.6,13.5,81.8,21.9l-2.2-42
					l33.8,2.7c0,0-1.4,51.3-6.6,64.8c-5.3,13.6-12.8,10.3-25.6,4.7c-50.5-21.8-80.2-36.9-82.9-36.1
					C1670.5,668.1,1631.9,667.2,1631.9,667.2z"/>
				<path class="st69" d="M1746.1,606.8c-0.9,3.7-1.2,7.4-0.8,10.7c1.5,13.1,7.9,44.7,7.9,44.7s31.5,4.5,38.9,11.6
					c0,0,5.2-41.8-5.4-62.9c-10.6-21.1-21.5-23.5-21.5-23.5c-6.9-1.7-13.2,4.8-16.8,13"/>
				<path class="st68" d="M1746.1,606.8c-0.9,3.7-1.2,7.4-0.8,10.7c1.5,13.1,7.9,44.7,7.9,44.7s31.5,4.5,38.9,11.6
					c0,0,5.2-41.8-5.4-62.9c-10.6-21.1-21.5-23.5-21.5-23.5c-6.9-1.7-13.2,4.8-16.8,13"/>
				<g class="st75">
					<g>
						<defs>
							<rect id="SVGID_75_" x="1744.2" y="586" width="50.1" height="88.7"/>
						</defs>
						<clipPath id="SVGID_76_">
							<use xlink:href="#SVGID_75_"  style="overflow:visible;"/>
						</clipPath>
						<path class="st79" d="M1746.1,606.8c-0.9,3.7-1.2,7.4-0.8,10.7c1.5,13.1,7.9,44.7,7.9,44.7s31.5,4.5,38.9,11.6
							c0,0,5.2-41.8-5.4-62.9c-10.6-21.1-21.5-23.5-21.5-23.5c-6.9-1.7-13.2,4.8-16.8,13"/>
						<path class="st80" d="M1746.1,606.8c-0.9,3.7-1.2,7.4-0.8,10.7c1.5,13.1,7.9,44.7,7.9,44.7s31.5,4.5,38.9,11.6
							c0,0,5.2-41.8-5.4-62.9c-10.6-21.1-21.5-23.5-21.5-23.5c-6.9-1.7-13.2,4.8-16.8,13"/>
					</g>
				</g>
				<path class="st68" d="M1653.5,623c0,0,6.2,5.6,16.1,8.2"/>
				<path class="st68" d="M1753.2,623c0,0,11.5,21.5,25.8,26.3"/>
				<path class="st71" d="M1679.4,788.8c0,0,2.1,1.6,2.9,7.3"/>
				<path class="st71" d="M1671.6,796.1c0,0,5.8,0.4,9.3,5.4"/>
				<path class="st71" d="M1608.8,774c0,0,6.1,3.1,4.8,11.8"/>
				<path class="st71" d="M1602.4,781.5c0,0,8.3,4.9,8.9,9.3"/>
				<path class="st71" d="M1698.6,728.4c0,0,18.5,2.6,22.6,0"/>
				<path class="st78" d="M1691.1,615.4c0,0-2.4-5.6-1.9-14.1c0.1-1.5,0.2-3.2,0.5-4.8l-3.2-5.1l-4.1-6.5l4.8-19.1
					c0,0,30.3,5.8,32.6,14.3C1722.1,588.6,1691.1,615.4,1691.1,615.4"/>
			</g>
			<g class="st9">
				<defs>
					<path id="SVGID_77_" d="M1682.4,584.8l4.1,6.5l3.2,5.1c-0.3,1.7-0.4,3.3-0.5,4.8c-0.4,8.5,1.9,14.1,1.9,14.1s31-26.8,28.7-35.3
						c-2.3-8.5-32.6-14.3-32.6-14.3L1682.4,584.8z"/>
				</defs>
				<clipPath id="SVGID_78_">
					<use xlink:href="#SVGID_77_"  style="overflow:visible;"/>
				</clipPath>
				<g class="st81">
					<g>
						<defs>
							<rect id="SVGID_79_" x="1686.5" y="583" width="14.8" height="18.2"/>
						</defs>
						<clipPath id="SVGID_80_">
							<use xlink:href="#SVGID_79_"  style="overflow:visible;"/>
						</clipPath>
						<g class="st82">
							<g>
								<defs>
									<rect id="SVGID_81_" x="1686.5" y="583" width="14.8" height="18.2"/>
								</defs>
								<clipPath id="SVGID_82_">
									<use xlink:href="#SVGID_81_"  style="overflow:visible;"/>
								</clipPath>
								<path class="st83" d="M1689.2,601.3c0.1-1.5,0.2-3.2,0.5-4.8l-3.2-5.1c5.3-1,11-3.4,14.8-8.3
									C1701.3,583,1702.3,596.2,1689.2,601.3"/>
							</g>
						</g>
					</g>
				</g>
			</g>
			<g class="st9">
				<defs>
					<rect id="SVGID_83_" x="1075.5" y="88.9" width="948.9" height="948.9"/>
				</defs>
				<clipPath id="SVGID_84_">
					<use xlink:href="#SVGID_83_"  style="overflow:visible;"/>
				</clipPath>
				<path class="st84" d="M1691.1,615.4c0,0-2.4-5.6-1.9-14.1c0.1-1.5,0.2-3.2,0.5-4.8l-3.2-5.1l-4.1-6.5l4.8-19.1
					c0,0,30.3,5.8,32.6,14.3C1722.1,588.6,1691.1,615.4,1691.1,615.4z"/>
				<path class="st85" d="M1710.2,567.4c9.4-24.7,3.2-66.7-42.4-58.6c-26.8,4.7-29.9,37-21,51.4c9,14.3-0.6,14.8,12.9,25.4
					c5.4,4.3,9.8,11.6,16.3,12.1c7.7,0.5,17.6-6.8,25-14.7"/>
				<path class="st84" d="M1710.2,567.4c9.4-24.7,3.2-66.7-42.4-58.6c-26.8,4.7-29.9,37-21,51.4c9,14.3-0.6,14.8,12.9,25.4
					c5.4,4.3,9.8,11.6,16.3,12.1c7.7,0.5,17.6-6.8,25-14.7"/>
				<path class="st84" d="M1665.3,560.2c0,0,6.7-6.1,14.7-3.6"/>
				<path class="st84" d="M1652.7,560.2c0,0-2.3-4.8-8.7-5.9"/>
				<path class="st85" d="M1657.1,569c0,0-1,4.9-2.2,9.9c-1.2,4.8,8,2.3,7.6,1.5"/>
				<path class="st84" d="M1657.1,569c0,0-1,4.9-2.2,9.9c-1.2,4.8,8,2.3,7.6,1.5"/>
				<path class="st84" d="M1667.3,586.7c0,0,5.9-1.4,10-6.6"/>
				<path class="st86" d="M1674.6,566.4c0.4,1.4-0.2,2.7-1.3,3c-1.1,0.3-2.3-0.6-2.6-2c-0.4-1.4,0.2-2.7,1.3-3
					C1673.1,564.2,1674.3,565.1,1674.6,566.4"/>
				<path class="st86" d="M1654.3,566c0.4,1.4,0.1,2.7-0.6,2.9c-0.7,0.2-1.6-0.8-2-2.1c-0.4-1.4-0.1-2.7,0.6-2.9
					C1653.1,563.7,1653.9,564.6,1654.3,566"/>
				<path class="st86" d="M1682.1,534.8c0,0-7.1,18.5-24.5,18.1c0,0,6.1-4.6,7.7-9c0,0-13.4,13.3-26.9,6.5
					c-13.4-6.8-6.9-38.2,13.8-50.6c20.7-12.4,41.7-9.1,48.8,2.8c0,0,14.4-1.3,20.8,19.9c5.7,18.9-3.4,47.7-12.3,48.1
					c-13.8,0.5-16.6-14.5-16.6-14.5S1684.6,548.6,1682.1,534.8"/>
				<path class="st84" d="M1682.1,534.8c0,0-7.1,18.5-24.5,18.1c0,0,6.1-4.6,7.7-9c0,0-13.4,13.3-26.9,6.5
					c-13.4-6.8-6.9-38.2,13.8-50.6c20.7-12.4,41.7-9.1,48.8,2.8c0,0,14.4-1.3,20.8,19.9c5.7,18.9-3.4,47.7-12.3,48.1
					c-13.8,0.5-16.6-14.5-16.6-14.5S1684.6,548.6,1682.1,534.8z"/>
				<path class="st85" d="M1697.2,567.5c0,0-0.4-17.4,9.4-15.3c9.9,2.1,2.7,22.3-4.7,22"/>
				<path class="st84" d="M1697.2,567.5c0,0-0.4-17.4,9.4-15.3c9.9,2.1,2.7,22.3-4.7,22"/>
				<path class="st87" d="M1666.6,676.9h-153c-1.7,0-3.1-1.4-3.1-3.1v-5.3c0-1.7,1.4-3.1,3.1-3.1h153c1.7,0,3.1,1.4,3.1,3.1v5.3
					C1669.7,675.5,1668.3,676.9,1666.6,676.9"/>
				<path class="st84" d="M1666.6,676.9h-153c-1.7,0-3.1-1.4-3.1-3.1v-5.3c0-1.7,1.4-3.1,3.1-3.1h153c1.7,0,3.1,1.4,3.1,3.1v5.3
					C1669.7,675.5,1668.3,676.9,1666.6,676.9z"/>
			</g>
			<polygon class="st88" points="1287.7,897.2 1223.1,897.2 1229.9,956.2 1280.9,956.2 			"/>
			<polygon class="st19" points="1287.7,897.2 1223.1,897.2 1229.9,956.2 1280.9,956.2 			"/>
			<g class="st9">
				<defs>
					<rect id="SVGID_85_" x="1075.5" y="88.9" width="948.9" height="948.9"/>
				</defs>
				<clipPath id="SVGID_86_">
					<use xlink:href="#SVGID_85_"  style="overflow:visible;"/>
				</clipPath>
				<path class="st89" d="M1295.3,856.1c0,0-28.2,2.2-29.4,23C1266,879.1,1294.5,892.3,1295.3,856.1"/>
				<path class="st90" d="M1295.3,856.1c0,0-28.2,2.2-29.4,23C1266,879.1,1294.5,892.3,1295.3,856.1z"/>
				<path class="st89" d="M1239.6,861.3c0,0-15.7-21.3-41.2-10.4C1198.4,850.9,1213.9,876.6,1239.6,861.3"/>
				<path class="st90" d="M1239.6,861.3c0,0-15.7-21.3-41.2-10.4C1198.4,850.9,1213.9,876.6,1239.6,861.3z"/>
				<path class="st89" d="M1200.5,794c0,0-4.5,41,32.8,29.7C1233.3,823.7,1221.5,793.6,1200.5,794"/>
				<path class="st90" d="M1200.5,794c0,0-4.5,41,32.8,29.7C1233.3,823.7,1221.5,793.6,1200.5,794z"/>
				<path class="st89" d="M1246.3,771.2c0,0-29.5,15.9-7.8,40C1238.5,811.3,1259.2,794,1246.3,771.2"/>
				<path class="st90" d="M1246.3,771.2c0,0-29.5,15.9-7.8,40C1238.5,811.3,1259.2,794,1246.3,771.2z"/>
				<path class="st89" d="M1282.6,807.8c0,0-32.1-3.2-32.1,26.4C1250.5,834.3,1282.6,835.5,1282.6,807.8"/>
				<path class="st90" d="M1282.6,807.8c0,0-32.1-3.2-32.1,26.4C1250.5,834.3,1282.6,835.5,1282.6,807.8z"/>
				<path class="st90" d="M1252.4,921.5c0,0,14.6-30.7,0.6-61.9c-14-31.2-18.8-57.6-11.4-76.1"/>
				<path class="st90" d="M1272.1,815.8c0,0-19.2,7.6-25.8,27.4"/>
				<path class="st90" d="M1210.7,810.4c0,0,11.1,15.1,29.9,13.5"/>
				<path class="st90" d="M1210.7,855.2c0,0,30.8,8.9,43,6"/>
				<path class="st90" d="M1286.1,865.5c0,0-13.7,15.1-27.6,14.9"/>
				<rect x="1220.4" y="895.9" class="st91" width="70.1" height="8.3"/>
				<rect x="1220.4" y="895.9" class="st90" width="70.1" height="8.3"/>
			</g>
			<g class="st9">
				<defs>
					<rect id="SVGID_87_" x="1075.5" y="88.9" width="948.9" height="948.9"/>
				</defs>
				<clipPath id="SVGID_88_">
					<use xlink:href="#SVGID_87_"  style="overflow:visible;"/>
				</clipPath>
				<path class="st92" d="M1799.1,842.3c0,0-23.5,13.9-40.2,41.8c-16.7,27.9-30,67.1-9.4,72l19.6-0.7l37.7-12.9l-3.9-7.6
					c0,0-33,17.5-38.6,17.5c-5.6,0-13,1.4-16.1-0.8s10.8-53,40.7-69.9C1818.5,864.7,1799.1,842.3,1799.1,842.3"/>
			</g>
			<g class="st9">
				<defs>
					<path id="SVGID_89_" d="M1758.8,884.1c-16.7,27.9-30,67.1-9.4,72l19.6-0.7l37.7-12.9l-3.9-7.6c0,0-33,17.5-38.6,17.5
						s-13,1.4-16.1-0.8c-3.1-2.3,10.8-53,40.7-69.9c29.8-16.9,10.4-39.2,10.4-39.2S1775.6,856.2,1758.8,884.1"/>
				</defs>
				<clipPath id="SVGID_90_">
					<use xlink:href="#SVGID_89_"  style="overflow:visible;"/>
				</clipPath>
				<g class="st93">
					<g>
						<defs>
							<rect id="SVGID_91_" x="1739" y="842.3" width="67.7" height="113.8"/>
						</defs>
						<clipPath id="SVGID_92_">
							<use xlink:href="#SVGID_91_"  style="overflow:visible;"/>
						</clipPath>
						<g class="st94">
							<g>
								<defs>
									<rect id="SVGID_93_" x="1739" y="842.3" width="67.7" height="113.8"/>
								</defs>
								<clipPath id="SVGID_94_">
									<use xlink:href="#SVGID_93_"  style="overflow:visible;"/>
								</clipPath>
								<path class="st95" d="M1799.1,842.3c0,0-23.5,13.9-40.2,41.8c-16.7,27.9-30,67.1-9.4,72l19.6-0.7l37.7-12.9l-3.9-7.6
									c0,0-33,17.5-38.6,17.5c-5.6,0-13,1.4-16.1-0.8s10.8-53,40.7-69.9C1818.5,864.7,1799.1,842.3,1799.1,842.3"/>
							</g>
						</g>
					</g>
				</g>
			</g>
			<g class="st9">
				<defs>
					<rect id="SVGID_95_" x="1075.5" y="88.9" width="948.9" height="948.9"/>
				</defs>
				<clipPath id="SVGID_96_">
					<use xlink:href="#SVGID_95_"  style="overflow:visible;"/>
				</clipPath>
				<path class="st96" d="M1799.1,842.3c0,0-23.5,13.9-40.2,41.8c-16.7,27.9-30,67.1-9.4,72l19.6-0.7l37.7-12.9l-3.9-7.6
					c0,0-33,17.5-38.6,17.5c-5.6,0-13,1.4-16.1-0.8s10.8-53,40.7-69.9C1818.5,864.7,1799.1,842.3,1799.1,842.3z"/>
				<path class="st97" d="M1820.5,824.1c0,0,0-8.2,12.4-9.3c12.4-1.1,14.2,10.8,14.2,10.8h-4.3c0,0,0.1-7.2-9-7.7
					c-9.1-0.6-8.8,7.7-8.8,7.7L1820.5,824.1z"/>
				<path class="st96" d="M1820.5,824.1c0,0,0-8.2,12.4-9.3c12.4-1.1,14.2,10.8,14.2,10.8h-4.3c0,0,0.1-7.2-9-7.7
					c-9.1-0.6-8.8,7.7-8.8,7.7L1820.5,824.1z"/>
				<path class="st97" d="M1802.2,956.2c-26.2,0-21.2-117.5-18.2-123.4c3-5.9,79.1-8.7,86.6-6.3c7.5,2.5,37.6,119.6,21,128.9
					L1802.2,956.2z"/>
			</g>
			<g class="st9">
				<defs>
					<path id="SVGID_97_" d="M1783.9,832.8c-3,5.9-8,123.4,18.2,123.4l89.3-0.7c16.6-9.3-13.5-126.5-21-128.9
						c-1.8-0.6-7.7-0.9-15.7-0.9C1830.2,825.6,1786.2,828.3,1783.9,832.8"/>
				</defs>
				<clipPath id="SVGID_98_">
					<use xlink:href="#SVGID_97_"  style="overflow:visible;"/>
				</clipPath>
				<g class="st98">
					<g>
						<defs>
							<rect id="SVGID_99_" x="1781.5" y="825.6" width="114.9" height="130.6"/>
						</defs>
						<clipPath id="SVGID_100_">
							<use xlink:href="#SVGID_99_"  style="overflow:visible;"/>
						</clipPath>
						<g class="st99">
							<g>
								<defs>
									<rect id="SVGID_101_" x="1781.5" y="825.6" width="114.9" height="130.6"/>
								</defs>
								<clipPath id="SVGID_102_">
									<use xlink:href="#SVGID_101_"  style="overflow:visible;"/>
								</clipPath>
								<path class="st100" d="M1802.2,956.2c-26.2,0-21.2-117.5-18.2-123.4c3-5.9,79.1-8.7,86.6-6.3c7.5,2.5,37.6,119.6,21,128.9
									L1802.2,956.2z"/>
							</g>
						</g>
					</g>
				</g>
			</g>
			<g class="st9">
				<defs>
					<rect id="SVGID_103_" x="1075.5" y="88.9" width="948.9" height="948.9"/>
				</defs>
				<clipPath id="SVGID_104_">
					<use xlink:href="#SVGID_103_"  style="overflow:visible;"/>
				</clipPath>
				<path class="st101" d="M1802.2,956.2c-26.2,0-21.2-117.5-18.2-123.4c3-5.9,79.1-8.7,86.6-6.3c7.5,2.5,37.6,119.6,21,128.9
					L1802.2,956.2z"/>
				<path class="st102" d="M1783.9,832.8c9.5,2,15,40.5,27.7,50.3c12.8,9.8,73,7.7,79.8,0c6.8-7.7-6.5-50.9-16.2-57.5
					c-9.7-6.6-16.6-0.2-43.8-3.2C1791.1,817.9,1783.9,832.8,1783.9,832.8"/>
				<path class="st101" d="M1783.9,832.8c9.5,2,15,40.5,27.7,50.3c12.8,9.8,73,7.7,79.8,0c6.8-7.7-6.5-50.9-16.2-57.5
					c-9.7-6.6-16.6-0.2-43.8-3.2C1791.1,817.9,1783.9,832.8,1783.9,832.8z"/>
				<path class="st102" d="M1853.1,854.9l11.2,9.1c0.7,0.5,0.7,1.5,0.1,2.2l-8.7,9.4c-0.6,0.6-1.5,0.6-2.1,0.1l-11.1-10.5
					c-0.6-0.6-0.6-1.6,0-2.2l8.6-8C1851.7,854.4,1852.5,854.4,1853.1,854.9"/>
			</g>
			<g class="st9">
				<defs>
					<path id="SVGID_105_" d="M1851.1,854.9l-8.6,8c-0.6,0.6-0.6,1.6,0,2.2l11.1,10.5c0.6,0.6,1.5,0.5,2.1-0.1l8.7-9.4
						c0.6-0.6,0.5-1.6-0.1-2.2l-11.2-9.1c-0.3-0.2-0.6-0.3-0.9-0.3C1851.8,854.5,1851.4,854.7,1851.1,854.9"/>
				</defs>
				<clipPath id="SVGID_106_">
					<use xlink:href="#SVGID_105_"  style="overflow:visible;"/>
				</clipPath>
				<g class="st103">
					<g>
						<defs>
							<rect id="SVGID_107_" x="1842" y="854.5" width="22.7" height="21.5"/>
						</defs>
						<clipPath id="SVGID_108_">
							<use xlink:href="#SVGID_107_"  style="overflow:visible;"/>
						</clipPath>
						<g class="st104">
							<g>
								<defs>
									<rect id="SVGID_109_" x="1842" y="854.5" width="22.7" height="21.5"/>
								</defs>
								<clipPath id="SVGID_110_">
									<use xlink:href="#SVGID_109_"  style="overflow:visible;"/>
								</clipPath>
								<path class="st105" d="M1853.1,854.9l11.2,9.1c0.7,0.5,0.7,1.5,0.1,2.2l-8.7,9.4c-0.6,0.6-1.5,0.6-2.1,0.1l-11.1-10.5
									c-0.6-0.6-0.6-1.6,0-2.2l8.6-8C1851.7,854.4,1852.5,854.4,1853.1,854.9"/>
							</g>
						</g>
					</g>
				</g>
			</g>
			<g class="st9">
				<defs>
					<rect id="SVGID_111_" x="1075.5" y="88.9" width="948.9" height="948.9"/>
				</defs>
				<clipPath id="SVGID_112_">
					<use xlink:href="#SVGID_111_"  style="overflow:visible;"/>
				</clipPath>
				<path class="st106" d="M1853.1,854.9l11.2,9.1c0.7,0.5,0.7,1.5,0.1,2.2l-8.7,9.4c-0.6,0.6-1.5,0.6-2.1,0.1l-11.1-10.5
					c-0.6-0.6-0.6-1.6,0-2.2l8.6-8C1851.7,854.4,1852.5,854.4,1853.1,854.9z"/>
				<path class="st107" d="M1816.3,902.7c0,0,50.4,4.2,75.2-2.3c0,0,4.8,3.4,7.1,10.1c2.3,6.8,7,29.9-7.1,35.8
					c-14,5.9-64.5,4.8-71.3-2C1813.4,937.7,1816.3,902.7,1816.3,902.7"/>
			</g>
			<g class="st9">
				<defs>
					<path id="SVGID_113_" d="M1816.3,902.7c0,0-2.8,34.9,3.9,41.7c6.8,6.8,57.2,7.9,71.3,2c14.1-5.9,9.3-29,7.1-35.8
						c-2.3-6.8-7.1-10.1-7.1-10.1C1866.7,906.9,1816.3,902.7,1816.3,902.7"/>
				</defs>
				<clipPath id="SVGID_114_">
					<use xlink:href="#SVGID_113_"  style="overflow:visible;"/>
				</clipPath>
				<g class="st108">
					<g>
						<defs>
							<rect id="SVGID_115_" x="1815.7" y="900.5" width="85.5" height="49.8"/>
						</defs>
						<clipPath id="SVGID_116_">
							<use xlink:href="#SVGID_115_"  style="overflow:visible;"/>
						</clipPath>
						<g class="st109">
							<g>
								<defs>
									<rect id="SVGID_117_" x="1815.7" y="900.5" width="85.5" height="49.8"/>
								</defs>
								<clipPath id="SVGID_118_">
									<use xlink:href="#SVGID_117_"  style="overflow:visible;"/>
								</clipPath>
								<path class="st110" d="M1816.3,902.7c0,0,50.4,4.2,75.2-2.3c0,0,4.8,3.4,7.1,10.1c2.3,6.8,7,29.9-7.1,35.8
									c-14,5.9-64.5,4.8-71.3-2C1813.4,937.7,1816.3,902.7,1816.3,902.7"/>
							</g>
						</g>
					</g>
				</g>
			</g>
			<g class="st9">
				<defs>
					<rect id="SVGID_119_" x="1075.5" y="88.9" width="948.9" height="948.9"/>
				</defs>
				<clipPath id="SVGID_120_">
					<use xlink:href="#SVGID_119_"  style="overflow:visible;"/>
				</clipPath>
				<path class="st111" d="M1816.3,902.7c0,0,50.4,4.2,75.2-2.3c0,0,4.8,3.4,7.1,10.1c2.3,6.8,7,29.9-7.1,35.8
					c-14,5.9-64.5,4.8-71.3-2C1813.4,937.7,1816.3,902.7,1816.3,902.7z"/>
				<path class="st112" d="M1816.3,902.7c0,0,5.9,16,9,18.4c3.1,2.4,68.6,2.4,75.9-3.5c7.3-5.9-2.7-16.6-9.7-17.2
					C1891.5,900.5,1845.6,905.8,1816.3,902.7"/>
				<path class="st111" d="M1816.3,902.7c0,0,5.9,16,9,18.4c3.1,2.4,68.6,2.4,75.9-3.5c7.3-5.9-2.7-16.6-9.7-17.2
					C1891.5,900.5,1845.6,905.8,1816.3,902.7z"/>
				<path class="st112" d="M1795.1,899.3c0,0,1.7,33.5,5.1,41.1c0,0-7.7,4.5-16.3,0c-8.5-4.5-7.1-33.4-5.4-33.3
					C1780.2,907.2,1795.1,899.3,1795.1,899.3"/>
			</g>
			<g class="st9">
				<defs>
					<path id="SVGID_121_" d="M1778.5,907.2c-1.7-0.1-3.1,28.8,5.4,33.3c8.5,4.5,16.3,0,16.3,0c-3.4-7.6-5.1-41.1-5.1-41.1
						S1780.2,907.2,1778.5,907.2"/>
				</defs>
				<clipPath id="SVGID_122_">
					<use xlink:href="#SVGID_121_"  style="overflow:visible;"/>
				</clipPath>
				<g class="st113">
					<g>
						<defs>
							<rect id="SVGID_123_" x="1777.2" y="899.3" width="23" height="43.2"/>
						</defs>
						<clipPath id="SVGID_124_">
							<use xlink:href="#SVGID_123_"  style="overflow:visible;"/>
						</clipPath>
						<g class="st114">
							<g>
								<defs>
									<rect id="SVGID_125_" x="1777.2" y="899.3" width="23" height="43.2"/>
								</defs>
								<clipPath id="SVGID_126_">
									<use xlink:href="#SVGID_125_"  style="overflow:visible;"/>
								</clipPath>
								<path class="st115" d="M1795.1,899.3c0,0,1.7,33.5,5.1,41.1c0,0-7.7,4.5-16.3,0c-8.5-4.5-7.1-33.4-5.4-33.3
									C1780.2,907.2,1795.1,899.3,1795.1,899.3"/>
							</g>
						</g>
					</g>
				</g>
			</g>
			<g class="st9">
				<defs>
					<rect id="SVGID_127_" x="1075.5" y="88.9" width="948.9" height="948.9"/>
				</defs>
				<clipPath id="SVGID_128_">
					<use xlink:href="#SVGID_127_"  style="overflow:visible;"/>
				</clipPath>
				<path class="st116" d="M1795.1,899.3c0,0,1.7,33.5,5.1,41.1c0,0-7.7,4.5-16.3,0c-8.5-4.5-7.1-33.4-5.4-33.3
					C1780.2,907.2,1795.1,899.3,1795.1,899.3z"/>
				<path class="st117" d="M1795.1,899.3l-12.7,2.5c0,0-12.1,9.3-6.7,12.4C1781,917.4,1794.8,909.8,1795.1,899.3"/>
				<path class="st116" d="M1795.1,899.3l-12.7,2.5c0,0-12.1,9.3-6.7,12.4C1781,917.4,1794.8,909.8,1795.1,899.3z"/>
			</g>
		</g>
	</g>
</g>
</svg>
